<svg width="420" height="420" viewBox="0 0 420 420" fill="none" xmlns="http://www.w3.org/2000/svg">
<path fill-rule="evenodd" clip-rule="evenodd" d="M71.6001 201.6C66.0773 201.6 61.6001 206.077 61.6001 211.6V410C61.6001 415.523 66.0772 420 71.6001 420H156.982C151.468 419.99 147 415.517 147 410V262C147 256.477 151.477 252 157 252H263C268.523 252 273 256.477 273 262V410C273 415.517 268.532 419.99 263.018 420H348.4C353.923 420 358.4 415.523 358.4 410V211.6C358.4 206.077 353.923 201.6 348.4 201.6H71.6001Z" fill="#7B6A59"/>
<path d="M420 211.4L196 0L0 211.4H420Z" fill="#40270F"/>
</svg>
