<svg width="327" height="381" viewBox="0 0 327 381" fill="none" xmlns="http://www.w3.org/2000/svg">
<g filter="url(#filter0_d_1207_55)">
<rect y="65.1339" width="251.658" height="324.229" rx="25" transform="rotate(-15 0 65.1339)" fill="#4DADE3"/>
</g>
<g filter="url(#filter1_d_1207_55)">
<rect x="38" y="26.6578" width="251" height="325" rx="25" fill="#EBEBEB"/>
</g>
<path d="M65 100.658H264V115.658H65V100.658Z" fill="#4DADE3"/>
<path d="M103.625 71.2984C103.625 74.6266 103.008 77.5719 101.773 80.1344C100.539 82.6969 98.7812 84.6734 96.5 86.0641C94.2344 87.4391 91.6484 88.1266 88.7422 88.1266C85.8359 88.1266 83.2578 87.4625 81.0078 86.1344C78.7578 84.7906 77 82.8766 75.7344 80.3922C74.4844 77.9078 73.8281 75.0562 73.7656 71.8375V69.9156C73.7656 66.5719 74.375 63.6266 75.5938 61.0797C76.8281 58.5172 78.5859 56.5406 80.8672 55.15C83.1641 53.7594 85.7734 53.0641 88.6953 53.0641C91.5859 53.0641 94.1641 53.7516 96.4297 55.1266C98.6953 56.5016 100.453 58.4625 101.703 61.0094C102.969 63.5406 103.609 66.4469 103.625 69.7281V71.2984ZM95.2578 69.8687C95.2578 66.4781 94.6875 63.9078 93.5469 62.1578C92.4219 60.3922 90.8047 59.5094 88.6953 59.5094C84.5703 59.5094 82.3906 62.6031 82.1562 68.7906L82.1328 71.2984C82.1328 74.6422 82.6875 77.2125 83.7969 79.0094C84.9062 80.8062 86.5547 81.7047 88.7422 81.7047C90.8203 81.7047 92.4219 80.8219 93.5469 79.0562C94.6719 77.2906 95.2422 74.7516 95.2578 71.4391V69.8687ZM120.547 75.6109H116.094V87.6578H107.867V53.5328H121.297C125.344 53.5328 128.508 54.4312 130.789 56.2281C133.07 58.025 134.211 60.5641 134.211 63.8453C134.211 66.2203 133.727 68.1891 132.758 69.7516C131.805 71.3141 130.305 72.5797 128.258 73.5484L135.383 87.3062V87.6578H126.57L120.547 75.6109ZM116.094 69.2594H121.297C122.859 69.2594 124.031 68.8531 124.812 68.0406C125.609 67.2125 126.008 66.0641 126.008 64.5953C126.008 63.1266 125.609 61.9781 124.812 61.15C124.016 60.3062 122.844 59.8844 121.297 59.8844H116.094V69.2594ZM139.18 87.6578V53.5328H150.172C153.188 53.5328 155.898 54.2203 158.305 55.5953C160.711 56.9547 162.586 58.8844 163.93 61.3844C165.289 63.8687 165.977 66.6578 165.992 69.7516V71.3219C165.992 74.4469 165.328 77.2516 164 79.7359C162.688 82.2047 160.828 84.1422 158.422 85.5484C156.031 86.9391 153.359 87.6422 150.406 87.6578H139.18ZM147.406 59.8844V81.3297H150.266C152.625 81.3297 154.438 80.4937 155.703 78.8219C156.969 77.1344 157.602 74.6344 157.602 71.3219V69.8453C157.602 66.5484 156.969 64.0641 155.703 62.3922C154.438 60.7203 152.594 59.8844 150.172 59.8844H147.406ZM191.375 73.1969H178.438V81.3297H193.719V87.6578H170.211V53.5328H193.766V59.8844H178.438V67.0797H191.375V73.1969ZM209.75 75.6109H205.297V87.6578H197.07V53.5328H210.5C214.547 53.5328 217.711 54.4312 219.992 56.2281C222.273 58.025 223.414 60.5641 223.414 63.8453C223.414 66.2203 222.93 68.1891 221.961 69.7516C221.008 71.3141 219.508 72.5797 217.461 73.5484L224.586 87.3062V87.6578H215.773L209.75 75.6109ZM205.297 69.2594H210.5C212.062 69.2594 213.234 68.8531 214.016 68.0406C214.812 67.2125 215.211 66.0641 215.211 64.5953C215.211 63.1266 214.812 61.9781 214.016 61.15C213.219 60.3062 212.047 59.8844 210.5 59.8844H205.297V69.2594ZM245.984 78.5875C245.984 77.3844 245.555 76.4469 244.695 75.775C243.852 75.1031 242.359 74.4078 240.219 73.6891C238.078 72.9703 236.328 72.275 234.969 71.6031C230.547 69.4312 228.336 66.4469 228.336 62.65C228.336 60.7594 228.883 59.0953 229.977 57.6578C231.086 56.2047 232.648 55.0797 234.664 54.2828C236.68 53.4703 238.945 53.0641 241.461 53.0641C243.914 53.0641 246.109 53.5016 248.047 54.3766C250 55.2516 251.516 56.5016 252.594 58.1266C253.672 59.7359 254.211 61.5797 254.211 63.6578H246.008C246.008 62.2672 245.578 61.1891 244.719 60.4234C243.875 59.6578 242.727 59.275 241.273 59.275C239.805 59.275 238.641 59.6031 237.781 60.2594C236.938 60.9 236.516 61.7203 236.516 62.7203C236.516 63.5953 236.984 64.3922 237.922 65.1109C238.859 65.8141 240.508 66.5484 242.867 67.3141C245.227 68.0641 247.164 68.8766 248.68 69.7516C252.367 71.8766 254.211 74.8062 254.211 78.5406C254.211 81.525 253.086 83.8687 250.836 85.5719C248.586 87.275 245.5 88.1266 241.578 88.1266C238.812 88.1266 236.305 87.6344 234.055 86.65C231.82 85.65 230.133 84.2906 228.992 82.5719C227.867 80.8375 227.305 78.8453 227.305 76.5953H235.555C235.555 78.4234 236.023 79.775 236.961 80.65C237.914 81.5094 239.453 81.9391 241.578 81.9391C242.938 81.9391 244.008 81.65 244.789 81.0719C245.586 80.4781 245.984 79.65 245.984 78.5875Z" fill="#4B4B4B"/>
<g filter="url(#filter2_d_1207_55)">
<path d="M275.148 321.875C274.349 318.894 272.987 316.752 271.06 315.448C269.134 314.145 266.119 313.234 262.017 312.715C257.915 312.197 254.091 311.584 250.545 310.876C246.999 310.168 243.82 309.099 241.011 307.668C238.201 306.237 235.833 304.344 233.908 301.988C231.983 299.633 230.51 296.55 229.489 292.739C227.78 286.362 228.525 280.541 231.725 275.276C234.914 269.973 240.002 266.021 246.989 263.421L243.789 251.479L252.788 249.068L256.049 261.236C263.227 260.405 269.404 261.803 274.582 265.43C279.787 269.01 283.351 274.384 285.271 281.553L266.142 286.679C265.09 282.755 263.527 279.938 261.451 278.23C259.376 276.521 256.942 276.041 254.15 276.789C251.66 277.456 249.929 278.769 248.957 280.728C248.014 282.639 247.911 284.972 248.649 287.726C249.397 290.518 250.786 292.532 252.815 293.768C254.835 294.966 257.801 295.849 261.715 296.418C265.618 296.949 269.334 297.612 272.863 298.405C276.419 299.151 279.602 300.239 282.412 301.67C285.222 303.101 287.632 305.003 289.643 307.375C291.654 309.748 293.17 312.84 294.191 316.651C295.92 323.103 295.274 328.918 292.253 334.095C289.27 339.262 284.341 343.13 277.467 345.7L280.516 357.076L271.517 359.487L268.453 348.054C259.995 349.391 252.922 348.273 247.234 344.702C241.573 341.083 237.696 335.368 235.603 327.557L254.676 322.447C255.829 326.748 257.652 329.778 260.145 331.536C262.666 333.247 265.681 333.632 269.19 332.692C271.756 332.004 273.572 330.709 274.639 328.805C275.696 326.864 275.866 324.554 275.148 321.875Z" fill="#4B4B4B"/>
</g>
<defs>
<filter id="filter0_d_1207_55" x="1.61243" y="5.6124" width="323.775" height="375.091" filterUnits="userSpaceOnUse" color-interpolation-filters="sRGB">
<feFlood flood-opacity="0" result="BackgroundImageFix"/>
<feColorMatrix in="SourceAlpha" type="matrix" values="0 0 0 0 0 0 0 0 0 0 0 0 0 0 0 0 0 0 127 0" result="hardAlpha"/>
<feOffset dy="4"/>
<feGaussianBlur stdDeviation="2"/>
<feComposite in2="hardAlpha" operator="out"/>
<feColorMatrix type="matrix" values="0 0 0 0 0 0 0 0 0 0 0 0 0 0 0 0 0 0 0.25 0"/>
<feBlend mode="normal" in2="BackgroundImageFix" result="effect1_dropShadow_1207_55"/>
<feBlend mode="normal" in="SourceGraphic" in2="effect1_dropShadow_1207_55" result="shape"/>
</filter>
<filter id="filter1_d_1207_55" x="34" y="26.6578" width="259" height="333" filterUnits="userSpaceOnUse" color-interpolation-filters="sRGB">
<feFlood flood-opacity="0" result="BackgroundImageFix"/>
<feColorMatrix in="SourceAlpha" type="matrix" values="0 0 0 0 0 0 0 0 0 0 0 0 0 0 0 0 0 0 127 0" result="hardAlpha"/>
<feOffset dy="4"/>
<feGaussianBlur stdDeviation="2"/>
<feComposite in2="hardAlpha" operator="out"/>
<feColorMatrix type="matrix" values="0 0 0 0 0 0 0 0 0 0 0 0 0 0 0 0 0 0 0.25 0"/>
<feBlend mode="normal" in2="BackgroundImageFix" result="effect1_dropShadow_1207_55"/>
<feBlend mode="normal" in="SourceGraphic" in2="effect1_dropShadow_1207_55" result="shape"/>
</filter>
<filter id="filter2_d_1207_55" x="213.132" y="243.123" width="94.7017" height="131.203" filterUnits="userSpaceOnUse" color-interpolation-filters="sRGB">
<feFlood flood-opacity="0" result="BackgroundImageFix"/>
<feColorMatrix in="SourceAlpha" type="matrix" values="0 0 0 0 0 0 0 0 0 0 0 0 0 0 0 0 0 0 127 0" result="hardAlpha"/>
<feOffset dy="4"/>
<feGaussianBlur stdDeviation="2"/>
<feComposite in2="hardAlpha" operator="out"/>
<feColorMatrix type="matrix" values="0 0 0 0 0 0 0 0 0 0 0 0 0 0 0 0 0 0 0.25 0"/>
<feBlend mode="normal" in2="BackgroundImageFix" result="effect1_dropShadow_1207_55"/>
<feBlend mode="normal" in="SourceGraphic" in2="effect1_dropShadow_1207_55" result="shape"/>
</filter>
</defs>
</svg>
