<svg width="308" height="308" viewBox="0 0 308 308" fill="none" xmlns="http://www.w3.org/2000/svg">
<g filter="url(#filter0_d_1205_22)">
<path fill-rule="evenodd" clip-rule="evenodd" d="M186.5 300H121.5V254.25C115.128 252.306 109.003 249.796 103.183 246.78L70.9153 279.047L24.9533 233.085L56.9109 201.128C53.7474 195.221 51.1098 188.991 49.0606 182.5H4V117.5H48.7502C50.7677 110.888 53.394 104.541 56.5639 98.5254L24.9535 66.9149L70.9154 20.953L102.526 52.5634C108.541 49.3936 114.888 46.7673 121.5 44.7499V0H186.5V45.06C192.992 47.1092 199.222 49.7468 205.128 52.9104L237.085 20.953L283.047 66.915L250.78 99.1821C253.797 105.002 256.307 111.128 258.251 117.5H304V182.5H257.94C255.966 188.753 253.447 194.763 250.437 200.475L283.047 233.085L237.085 279.047L204.475 246.436C198.763 249.446 192.753 251.966 186.5 253.94V300ZM153.5 218C191.332 218 222 187.331 222 149.5C222 111.668 191.332 81 153.5 81C115.669 81 85.0005 111.668 85.0005 149.5C85.0005 187.331 115.669 218 153.5 218Z" fill="url(#paint0_linear_1205_22)"/>
</g>
<defs>
<filter id="filter0_d_1205_22" x="0" y="0" width="308" height="308" filterUnits="userSpaceOnUse" color-interpolation-filters="sRGB">
<feFlood flood-opacity="0" result="BackgroundImageFix"/>
<feColorMatrix in="SourceAlpha" type="matrix" values="0 0 0 0 0 0 0 0 0 0 0 0 0 0 0 0 0 0 127 0" result="hardAlpha"/>
<feOffset dy="4"/>
<feGaussianBlur stdDeviation="2"/>
<feColorMatrix type="matrix" values="0 0 0 0 0 0 0 0 0 0 0 0 0 0 0 0 0 0 0.25 0"/>
<feBlend mode="normal" in2="BackgroundImageFix" result="effect1_dropShadow_1205_22"/>
<feBlend mode="normal" in="SourceGraphic" in2="effect1_dropShadow_1205_22" result="shape"/>
</filter>
<linearGradient id="paint0_linear_1205_22" x1="220" y1="-15" x2="154" y2="171.5" gradientUnits="userSpaceOnUse">
<stop stop-color="#D6D6D6"/>
<stop offset="1" stop-color="#5E5E5E"/>
</linearGradient>
</defs>
</svg>
