<svg width="379" height="330" viewBox="0 0 379 330" fill="none" xmlns="http://www.w3.org/2000/svg">
<g filter="url(#filter0_d_1207_31)">
<rect x="313.524" width="251.658" height="324.229" rx="25" transform="rotate(75 313.524 0)" fill="#4DADE3"/>
</g>
<g filter="url(#filter1_d_1207_31)">
<rect x="352" y="38" width="251" height="325" rx="25" transform="rotate(90 352 38)" fill="#EBEBEB"/>
</g>
<path d="M27 79.3422H352V104.342H27V79.3422Z" fill="black"/>
<path d="M141.883 146.788C141.773 149.163 141.133 151.264 139.961 153.092C138.789 154.905 137.141 156.311 135.016 157.311C132.906 158.311 130.492 158.811 127.773 158.811C123.289 158.811 119.758 157.35 117.18 154.428C114.602 151.506 113.312 147.381 113.312 142.053V140.366C113.312 137.022 113.891 134.1 115.047 131.6C116.219 129.084 117.898 127.147 120.086 125.788C122.273 124.413 124.805 123.725 127.68 123.725C131.82 123.725 135.148 124.819 137.664 127.006C140.18 129.178 141.609 132.178 141.953 136.006H133.75C133.688 133.928 133.164 132.436 132.18 131.53C131.195 130.623 129.695 130.17 127.68 130.17C125.633 130.17 124.133 130.936 123.18 132.467C122.227 133.998 121.727 136.444 121.68 139.803V142.217C121.68 145.858 122.133 148.459 123.039 150.022C123.961 151.584 125.539 152.366 127.773 152.366C129.664 152.366 131.109 151.92 132.109 151.03C133.109 150.139 133.641 148.725 133.703 146.788H141.883ZM165.156 151.967H153.883L151.914 158.342H143.125L155.641 124.217H163.375L175.984 158.342H167.148L165.156 151.967ZM155.852 145.616H163.188L159.508 133.78L155.852 145.616ZM191.172 146.295H186.719V158.342H178.492V124.217H191.922C195.969 124.217 199.133 125.116 201.414 126.913C203.695 128.709 204.836 131.248 204.836 134.53C204.836 136.905 204.352 138.873 203.383 140.436C202.43 141.998 200.93 143.264 198.883 144.233L206.008 157.991V158.342H197.195L191.172 146.295ZM186.719 139.944H191.922C193.484 139.944 194.656 139.538 195.438 138.725C196.234 137.897 196.633 136.748 196.633 135.28C196.633 133.811 196.234 132.663 195.438 131.834C194.641 130.991 193.469 130.569 191.922 130.569H186.719V139.944ZM209.805 158.342V124.217H220.797C223.812 124.217 226.523 124.905 228.93 126.28C231.336 127.639 233.211 129.569 234.555 132.069C235.914 134.553 236.602 137.342 236.617 140.436V142.006C236.617 145.131 235.953 147.936 234.625 150.42C233.312 152.889 231.453 154.827 229.047 156.233C226.656 157.623 223.984 158.327 221.031 158.342H209.805ZM218.031 130.569V152.014H220.891C223.25 152.014 225.062 151.178 226.328 149.506C227.594 147.819 228.227 145.319 228.227 142.006V140.53C228.227 137.233 227.594 134.748 226.328 133.077C225.062 131.405 223.219 130.569 220.797 130.569H218.031ZM258.438 149.272C258.438 148.069 258.008 147.131 257.148 146.459C256.305 145.788 254.812 145.092 252.672 144.373C250.531 143.655 248.781 142.959 247.422 142.288C243 140.116 240.789 137.131 240.789 133.334C240.789 131.444 241.336 129.78 242.43 128.342C243.539 126.889 245.102 125.764 247.117 124.967C249.133 124.155 251.398 123.748 253.914 123.748C256.367 123.748 258.562 124.186 260.5 125.061C262.453 125.936 263.969 127.186 265.047 128.811C266.125 130.42 266.664 132.264 266.664 134.342H258.461C258.461 132.952 258.031 131.873 257.172 131.108C256.328 130.342 255.18 129.959 253.727 129.959C252.258 129.959 251.094 130.288 250.234 130.944C249.391 131.584 248.969 132.405 248.969 133.405C248.969 134.28 249.438 135.077 250.375 135.795C251.312 136.498 252.961 137.233 255.32 137.998C257.68 138.748 259.617 139.561 261.133 140.436C264.82 142.561 266.664 145.491 266.664 149.225C266.664 152.209 265.539 154.553 263.289 156.256C261.039 157.959 257.953 158.811 254.031 158.811C251.266 158.811 248.758 158.319 246.508 157.334C244.273 156.334 242.586 154.975 241.445 153.256C240.32 151.522 239.758 149.53 239.758 147.28H248.008C248.008 149.108 248.477 150.459 249.414 151.334C250.367 152.194 251.906 152.623 254.031 152.623C255.391 152.623 256.461 152.334 257.242 151.756C258.039 151.163 258.438 150.334 258.438 149.272Z" fill="#4DADE3"/>
<defs>
<filter id="filter0_d_1207_31" x="1.95459" y="5.61243" width="375.091" height="323.775" filterUnits="userSpaceOnUse" color-interpolation-filters="sRGB">
<feFlood flood-opacity="0" result="BackgroundImageFix"/>
<feColorMatrix in="SourceAlpha" type="matrix" values="0 0 0 0 0 0 0 0 0 0 0 0 0 0 0 0 0 0 127 0" result="hardAlpha"/>
<feOffset dy="4"/>
<feGaussianBlur stdDeviation="2"/>
<feComposite in2="hardAlpha" operator="out"/>
<feColorMatrix type="matrix" values="0 0 0 0 0 0 0 0 0 0 0 0 0 0 0 0 0 0 0.25 0"/>
<feBlend mode="normal" in2="BackgroundImageFix" result="effect1_dropShadow_1207_31"/>
<feBlend mode="normal" in="SourceGraphic" in2="effect1_dropShadow_1207_31" result="shape"/>
</filter>
<filter id="filter1_d_1207_31" x="23" y="38" width="333" height="259" filterUnits="userSpaceOnUse" color-interpolation-filters="sRGB">
<feFlood flood-opacity="0" result="BackgroundImageFix"/>
<feColorMatrix in="SourceAlpha" type="matrix" values="0 0 0 0 0 0 0 0 0 0 0 0 0 0 0 0 0 0 127 0" result="hardAlpha"/>
<feOffset dy="4"/>
<feGaussianBlur stdDeviation="2"/>
<feComposite in2="hardAlpha" operator="out"/>
<feColorMatrix type="matrix" values="0 0 0 0 0 0 0 0 0 0 0 0 0 0 0 0 0 0 0.25 0"/>
<feBlend mode="normal" in2="BackgroundImageFix" result="effect1_dropShadow_1207_31"/>
<feBlend mode="normal" in="SourceGraphic" in2="effect1_dropShadow_1207_31" result="shape"/>
</filter>
</defs>
</svg>
