<svg width="300" height="300" viewBox="0 0 300 300" fill="none" xmlns="http://www.w3.org/2000/svg">
<path fill-rule="evenodd" clip-rule="evenodd" d="M300 300L150 0L0 300H300ZM166.158 209.879L169.851 109.879H130.078L133.771 209.879H166.158ZM135.831 251.853C139.761 255.688 144.472 257.606 149.964 257.606C153.468 257.606 156.712 256.73 159.695 254.978C162.678 253.179 165.092 250.788 166.939 247.805C168.833 244.775 169.804 241.413 169.851 237.72C169.804 232.322 167.768 227.705 163.743 223.87C159.766 220.035 155.173 218.117 149.964 218.117C144.472 218.117 139.761 220.035 135.831 223.87C131.948 227.705 130.031 232.322 130.078 237.72C130.031 243.259 131.948 247.971 135.831 251.853Z" fill="#C4C4C4"/>
</svg>
