<svg width="229" height="33" viewBox="0 0 229 33" fill="none" xmlns="http://www.w3.org/2000/svg">
<path d="M11.7333 30.9833C11.3361 32.0222 10.6486 32.5417 9.67083 32.5417H1.00833C0.733333 32.5417 0.488889 32.45 0.275 32.2667C0.0916667 32.0528 0 31.8083 0 31.5333L0.0458333 31.2583L10.0375 1.97083C10.1597 1.57361 10.3889 1.22222 10.725 0.916666C11.0611 0.611111 11.5194 0.458333 12.1 0.458333H24.8417C25.4222 0.458333 25.8806 0.611111 26.2167 0.916666C26.5528 1.22222 26.7819 1.57361 26.9042 1.97083L36.8958 31.2583L36.9417 31.5333C36.9417 31.8083 36.8347 32.0528 36.6208 32.2667C36.4375 32.45 36.2083 32.5417 35.9333 32.5417H27.2708C26.2931 32.5417 25.6056 32.0222 25.2083 30.9833L24.0625 27.775H12.8792L11.7333 30.9833ZM18.4708 9.30417L15.2167 18.8375H21.725L18.4708 9.30417Z" fill="#C4C4C4"/>
<path d="M63.2779 1.69583C63.7363 0.870833 64.3932 0.458333 65.2488 0.458333H73.6363C73.9724 0.458333 74.2626 0.580555 74.5071 0.825C74.7515 1.06945 74.8738 1.35972 74.8738 1.69583V31.3042C74.8738 31.6403 74.7515 31.9306 74.5071 32.175C74.2626 32.4194 73.9724 32.5417 73.6363 32.5417H65.3404C65.0043 32.5417 64.714 32.4194 64.4696 32.175C64.2252 31.9306 64.1029 31.6403 64.1029 31.3042V17.0958L60.7571 23.6958C60.6654 23.9097 60.4515 24.1542 60.1154 24.4292C59.7793 24.7042 59.3515 24.8417 58.8321 24.8417H55.7154C55.196 24.8417 54.7682 24.7042 54.4321 24.4292C54.096 24.1542 53.8821 23.9097 53.7904 23.6958L50.4446 17.0958V31.3042C50.4446 31.6403 50.3224 31.9306 50.0779 32.175C49.8335 32.4194 49.5432 32.5417 49.2071 32.5417H40.9113C40.5751 32.5417 40.2849 32.4194 40.0404 32.175C39.796 31.9306 39.6738 31.6403 39.6738 31.3042V1.69583C39.6738 1.35972 39.796 1.06945 40.0404 0.825C40.2849 0.580555 40.5751 0.458333 40.9113 0.458333H49.2988C50.1543 0.458333 50.8113 0.870833 51.2696 1.69583L57.2738 12.6958L63.2779 1.69583Z" fill="#C4C4C4"/>
<path d="M89.6142 30.9833C89.217 32.0222 88.5295 32.5417 87.5517 32.5417H78.8892C78.6142 32.5417 78.3698 32.45 78.1559 32.2667C77.9725 32.0528 77.8809 31.8083 77.8809 31.5333L77.9267 31.2583L87.9184 1.97083C88.0406 1.57361 88.2697 1.22222 88.6059 0.916666C88.942 0.611111 89.4003 0.458333 89.9809 0.458333H102.723C103.303 0.458333 103.761 0.611111 104.098 0.916666C104.434 1.22222 104.663 1.57361 104.785 1.97083L114.777 31.2583L114.823 31.5333C114.823 31.8083 114.716 32.0528 114.502 32.2667C114.318 32.45 114.089 32.5417 113.814 32.5417H105.152C104.174 32.5417 103.486 32.0222 103.089 30.9833L101.943 27.775H90.76L89.6142 30.9833ZM96.3517 9.30417L93.0975 18.8375H99.6059L96.3517 9.30417Z" fill="#C4C4C4"/>
<path d="M149.913 23.1458C150.249 23.1458 150.539 23.2681 150.784 23.5125C151.028 23.7569 151.15 24.0472 151.15 24.3833V31.3042C151.15 31.6403 151.028 31.9306 150.784 32.175C150.539 32.4194 150.249 32.5417 149.913 32.5417H120.488C120.152 32.5417 119.862 32.4194 119.617 32.175C119.373 31.9306 119.25 31.6403 119.25 31.3042V24.7042C119.25 24.3069 119.327 23.9708 119.48 23.6958C119.632 23.4208 119.785 23.2222 119.938 23.1L134.421 9.85417H121.45C121.114 9.85417 120.824 9.73194 120.58 9.4875C120.335 9.24306 120.213 8.95278 120.213 8.61667V1.69583C120.213 1.35972 120.335 1.06945 120.58 0.825C120.824 0.580555 121.114 0.458333 121.45 0.458333H148.95C149.287 0.458333 149.577 0.580555 149.821 0.825C150.066 1.06945 150.188 1.35972 150.188 1.69583V8.25C150.188 8.89167 149.989 9.39583 149.592 9.7625L135.292 23.1458H149.913Z" fill="#C4C4C4"/>
<path d="M191.145 19.2958C191.145 23.9708 189.587 27.4236 186.47 29.6542C183.384 31.8847 179.259 33 174.095 33C168.931 33 164.791 31.8847 161.674 29.6542C158.588 27.4236 157.045 23.9403 157.045 19.2042V13.7958C157.045 10.6792 157.778 8.09722 159.245 6.05C160.742 3.97222 162.774 2.44444 165.341 1.46667C167.908 0.488889 170.826 0 174.095 0C177.365 0 180.267 0.488889 182.803 1.46667C185.37 2.44444 187.402 3.95694 188.899 6.00417C190.396 8.05139 191.145 10.6181 191.145 13.7042V19.2958ZM169.42 20.1667C169.42 21.4194 169.833 22.3819 170.658 23.0542C171.513 23.7264 172.659 24.0625 174.095 24.0625C175.531 24.0625 176.662 23.7264 177.487 23.0542C178.342 22.3514 178.77 21.3736 178.77 20.1208V12.8792C178.77 11.6264 178.342 10.6639 177.487 9.99167C176.662 9.28889 175.531 8.9375 174.095 8.9375C172.659 8.9375 171.513 9.27361 170.658 9.94583C169.833 10.6181 169.42 11.5806 169.42 12.8333V20.1667Z" fill="#C4C4C4"/>
<path d="M227.381 0.458333C227.717 0.458333 228.008 0.580555 228.252 0.825C228.497 1.06945 228.619 1.35972 228.619 1.69583V31.3042C228.619 31.6403 228.497 31.9306 228.252 32.175C228.008 32.4194 227.717 32.5417 227.381 32.5417H220.002C219.269 32.5417 218.658 32.2208 218.169 31.5792L208.177 18.8375V31.3042C208.177 31.6403 208.055 31.9306 207.81 32.175C207.566 32.4194 207.276 32.5417 206.94 32.5417H198.415C198.079 32.5417 197.788 32.4194 197.544 32.175C197.299 31.9306 197.177 31.6403 197.177 31.3042V1.69583C197.177 1.35972 197.299 1.06945 197.544 0.825C197.788 0.580555 198.079 0.458333 198.415 0.458333H205.84C206.573 0.458333 207.169 0.763889 207.627 1.375L217.619 15.1708V1.69583C217.619 1.35972 217.741 1.06945 217.985 0.825C218.23 0.580555 218.52 0.458333 218.856 0.458333H227.381Z" fill="#C4C4C4"/>
</svg>
