<svg width="301" height="232" viewBox="0 0 301 232" fill="none" xmlns="http://www.w3.org/2000/svg">
<path d="M202.337 165.681C197.551 161.853 193.818 158.215 191.138 154.77C188.65 151.133 186.544 146.825 184.821 141.848C181.375 147.783 176.494 152.568 170.177 156.205C163.86 159.651 156.777 162.14 148.928 163.671C141.271 165.203 133.423 165.968 125.383 165.968C109.111 165.968 96.8599 162.235 88.6284 154.77C80.397 147.304 76.0899 136.871 75.707 123.471V122.323C75.707 107.008 80.5885 94.9484 90.3513 86.1427C100.114 77.337 113.706 71.0199 131.126 67.1913C142.994 64.5113 152.948 61.6399 160.988 58.5771C169.22 55.3228 173.335 51.6856 173.335 47.6656C173.335 34.8399 163.285 28.4271 143.186 28.4271C133.04 28.4271 123.181 30.4371 113.61 34.4571C104.038 38.2857 96.1899 42.8799 90.0642 48.2399L78.5785 27.5657C85.2784 18.76 94.467 11.9643 106.144 7.17855C118.013 2.39285 131.413 0 146.344 0C168.55 0 185.204 4.11571 196.307 12.3471C207.601 20.3871 213.248 33.1171 213.248 50.5371V115.718C213.248 123.184 214.684 130.554 217.555 137.828C220.427 145.103 224.543 151.42 229.903 156.78L202.337 165.681ZM115.333 119.451C115.524 124.62 117.056 129.023 119.927 132.66C122.798 136.297 127.106 138.116 132.848 138.116C141.271 138.116 149.503 135.723 157.543 130.937C165.583 126.151 171.134 120.121 174.197 112.847C175.154 110.741 175.728 108.157 175.92 105.094C176.303 101.84 176.494 98.4899 176.494 95.0441C176.494 90.067 176.303 85.5684 175.92 81.5484C175.537 77.5285 175.345 75.5185 175.345 75.5185C171.134 78.7727 165.678 81.5484 158.978 83.8456C152.47 86.1427 145.578 88.3441 138.304 90.4499C131.221 92.3641 125.574 95.5227 121.363 99.9256C117.343 104.328 115.333 110.167 115.333 117.441V119.451Z" fill="#C4C4C4"/>
<path fill-rule="evenodd" clip-rule="evenodd" d="M244.87 177.401C242.425 177.011 240.057 176.671 237.787 176.376C243.321 176.237 249.865 176.211 257.005 176.447C274.921 177.039 294.079 180.332 299.456 181.312C300.133 181.436 300.329 182.329 299.813 182.952C295.665 187.967 280.657 205.779 266.087 218.965C260.951 223.614 256.068 227.906 251.75 231.637C253.004 230.305 254.282 228.937 255.579 227.535C267.501 214.653 274.566 199.13 276.89 193.506C277.155 192.865 277.217 192.208 277.097 191.626C256.452 203.908 215.95 220.401 147.301 220.401C42.9721 220.401 3.65042 184.549 0.24531 181.242C0.0682595 181.07 0 180.861 0 180.614C0 179.798 0.989126 179.311 1.65821 179.778C9.69764 185.387 48.3476 208.088 147.301 208.088C214.429 208.088 253.805 197.641 274.7 189.17C269.676 185.841 258.805 179.627 244.87 177.401Z" fill="#C4C4C4"/>
</svg>
