<svg width="300" height="103" viewBox="0 0 300 103" fill="none" xmlns="http://www.w3.org/2000/svg">
<path d="M109.16 95.4393V101.851H87.9238V95.4393H109.16ZM90.6091 61.9548V101.851H82.3887V61.9548H90.6091ZM106.392 78.2038V84.4513H87.9238V78.2038H106.392ZM109.132 61.9548V68.3941H87.9238V61.9548H109.132Z" fill="#C4C4C4"/>
<path d="M117.917 61.9548L125.425 75.8747L132.933 61.9548H142.332L130.741 81.7386L142.633 101.851H133.153L125.425 87.6573L117.698 101.851H108.162L120.082 81.7386L108.464 61.9548H117.917Z" fill="#C4C4C4"/>
<path d="M159.502 87.6299H149.336V81.218H159.502C161.073 81.218 162.352 80.9622 163.338 80.4507C164.324 79.921 165.046 79.1903 165.503 78.2586C165.959 77.327 166.188 76.2766 166.188 75.1075C166.188 73.9201 165.959 72.8149 165.503 71.7919C165.046 70.7689 164.324 69.9469 163.338 69.3258C162.352 68.7047 161.073 68.3941 159.502 68.3941H152.186V101.851H143.965V61.9548H159.502C162.626 61.9548 165.302 62.5211 167.53 63.6537C169.777 64.768 171.494 66.3116 172.682 68.2845C173.869 70.2574 174.463 72.5135 174.463 75.0527C174.463 77.6284 173.869 79.857 172.682 81.7386C171.494 83.6202 169.777 85.0724 167.53 86.0954C165.302 87.1184 162.626 87.6299 159.502 87.6299Z" fill="#C4C4C4"/>
<path d="M177.329 61.9548H192.208C195.259 61.9548 197.88 62.4115 200.072 63.3248C202.283 64.2382 203.982 65.59 205.169 67.3803C206.356 69.1705 206.95 71.3717 206.95 73.984C206.95 76.1213 206.585 77.9572 205.854 79.4917C205.142 81.0079 204.128 82.2775 202.813 83.3005C201.516 84.3052 199.99 85.109 198.236 85.7118L195.633 87.0819H182.7L182.645 80.6699H192.263C193.706 80.6699 194.903 80.4142 195.853 79.9027C196.802 79.3912 197.515 78.6788 197.99 77.7654C198.483 76.852 198.73 75.7925 198.73 74.5868C198.73 73.3081 198.492 72.2029 198.017 71.2713C197.542 70.3396 196.821 69.6272 195.853 69.1339C194.884 68.6407 193.67 68.3941 192.208 68.3941H185.55V101.851H177.329V61.9548ZM199.634 101.851L190.537 84.0677L199.223 84.0129L208.43 101.468V101.851H199.634Z" fill="#C4C4C4"/>
<path d="M237.245 95.4393V101.851H216.009V95.4393H237.245ZM218.694 61.9548V101.851H210.474V61.9548H218.694ZM234.478 78.2038V84.4513H216.009V78.2038H234.478ZM237.218 61.9548V68.3941H216.009V61.9548H237.218Z" fill="#C4C4C4"/>
<path d="M260.005 91.4113C260.005 90.6989 259.895 90.0595 259.676 89.4932C259.475 88.9086 259.091 88.3789 258.525 87.9039C257.959 87.4107 257.164 86.9266 256.141 86.4517C255.118 85.9767 253.794 85.4835 252.168 84.972C250.359 84.3874 248.642 83.7298 247.017 82.9991C245.409 82.2684 243.984 81.4189 242.742 80.4507C241.518 79.4643 240.55 78.3226 239.837 77.0256C239.143 75.7286 238.796 74.2215 238.796 72.5043C238.796 70.842 239.161 69.3349 239.892 67.9831C240.623 66.613 241.646 65.4439 242.961 64.4757C244.276 63.4892 245.829 62.7311 247.619 62.2014C249.428 61.6716 251.41 61.4067 253.565 61.4067C256.507 61.4067 259.073 61.9365 261.265 62.996C263.457 64.0555 265.156 65.5078 266.362 67.3529C267.586 69.1979 268.198 71.3078 268.198 73.6826H260.032C260.032 72.5135 259.786 71.4905 259.292 70.6136C258.817 69.7185 258.087 69.0152 257.1 68.5037C256.132 67.9922 254.908 67.7365 253.428 67.7365C252.004 67.7365 250.816 67.9557 249.866 68.3941C248.916 68.8143 248.204 69.3897 247.729 70.1204C247.254 70.8328 247.017 71.6366 247.017 72.5317C247.017 73.2076 247.181 73.8196 247.51 74.3676C247.857 74.9156 248.368 75.4271 249.044 75.9021C249.72 76.3771 250.551 76.8246 251.538 77.2448C252.524 77.6649 253.666 78.0759 254.963 78.4778C257.137 79.1355 259.046 79.8753 260.69 80.6974C262.352 81.5194 263.741 82.4419 264.855 83.4649C265.969 84.4879 266.809 85.6479 267.376 86.9449C267.942 88.2419 268.225 89.7124 268.225 91.3565C268.225 93.0919 267.887 94.6447 267.211 96.0148C266.535 97.3848 265.558 98.5448 264.279 99.4947C263.001 100.445 261.475 101.166 259.703 101.659C257.931 102.153 255.949 102.399 253.757 102.399C251.784 102.399 249.839 102.144 247.921 101.632C246.003 101.102 244.258 100.308 242.687 99.2481C241.134 98.1886 239.892 96.8368 238.96 95.1927C238.029 93.5486 237.563 91.6031 237.563 89.3562H245.811C245.811 90.5984 246.003 91.6488 246.386 92.5074C246.77 93.3659 247.309 94.0601 248.003 94.5899C248.715 95.1196 249.556 95.5033 250.524 95.7407C251.51 95.9782 252.588 96.097 253.757 96.097C255.182 96.097 256.351 95.896 257.265 95.4941C258.196 95.0922 258.881 94.5351 259.32 93.8226C259.776 93.1102 260.005 92.3064 260.005 91.4113Z" fill="#C4C4C4"/>
<path d="M291.78 91.4113C291.78 90.6989 291.67 90.0595 291.451 89.4932C291.25 88.9086 290.866 88.3789 290.3 87.9039C289.734 87.4107 288.939 86.9266 287.916 86.4517C286.893 85.9767 285.569 85.4835 283.943 84.972C282.134 84.3874 280.417 83.7298 278.791 82.9991C277.184 82.2684 275.759 81.4189 274.517 80.4507C273.293 79.4643 272.324 78.3226 271.612 77.0256C270.918 75.7286 270.571 74.2215 270.571 72.5043C270.571 70.842 270.936 69.3349 271.667 67.9831C272.398 66.613 273.421 65.4439 274.736 64.4757C276.051 63.4892 277.604 62.7311 279.394 62.2014C281.203 61.6716 283.185 61.4067 285.34 61.4067C288.281 61.4067 290.848 61.9365 293.04 62.996C295.232 64.0555 296.931 65.5078 298.137 67.3529C299.361 69.1979 299.973 71.3078 299.973 73.6826H291.807C291.807 72.5135 291.56 71.4905 291.067 70.6136C290.592 69.7185 289.861 69.0152 288.875 68.5037C287.907 67.9922 286.683 67.7365 285.203 67.7365C283.778 67.7365 282.591 67.9557 281.641 68.3941C280.691 68.8143 279.979 69.3897 279.504 70.1204C279.029 70.8328 278.791 71.6366 278.791 72.5317C278.791 73.2076 278.956 73.8196 279.284 74.3676C279.632 74.9156 280.143 75.4271 280.819 75.9021C281.495 76.3771 282.326 76.8246 283.312 77.2448C284.299 77.6649 285.441 78.0759 286.738 78.4778C288.911 79.1355 290.82 79.8753 292.465 80.6974C294.127 81.5194 295.515 82.4419 296.63 83.4649C297.744 84.4879 298.584 85.6479 299.151 86.9449C299.717 88.2419 300 89.7124 300 91.3565C300 93.0919 299.662 94.6447 298.986 96.0148C298.31 97.3848 297.333 98.5448 296.054 99.4947C294.775 100.445 293.25 101.166 291.478 101.659C289.706 102.153 287.724 102.399 285.532 102.399C283.559 102.399 281.614 102.144 279.695 101.632C277.777 101.102 276.033 100.308 274.462 99.2481C272.909 98.1886 271.667 96.8368 270.735 95.1927C269.804 93.5486 269.338 91.6031 269.338 89.3562H277.586C277.586 90.5984 277.777 91.6488 278.161 92.5074C278.545 93.3659 279.084 94.0601 279.778 94.5899C280.49 95.1196 281.33 95.5033 282.299 95.7407C283.285 95.9782 284.363 96.097 285.532 96.097C286.957 96.097 288.126 95.896 289.039 95.4941C289.971 95.0922 290.656 94.5351 291.094 93.8226C291.551 93.1102 291.78 92.3064 291.78 91.4113Z" fill="#C4C4C4"/>
<path d="M19.592 7.39839L8.74106 40.4719H0L14.8242 0.57543H20.3867L19.592 7.39839ZM28.6071 40.4719L17.7287 7.39839L16.8519 0.57543H22.4692L37.3756 40.4719H28.6071ZM28.1139 25.6203V32.0597H7.04217V25.6203H28.1139Z" fill="#C4C4C4"/>
<path d="M42.0228 0.57543H48.9828L59.231 29.8676L69.4791 0.57543H76.4391L62.0259 40.4719H56.436L42.0228 0.57543ZM38.2689 0.57543H45.2014L46.4619 29.1277V40.4719H38.2689V0.57543ZM73.2605 0.57543H80.2205V40.4719H72V29.1277L73.2605 0.57543Z" fill="#C4C4C4"/>
<path d="M111.392 34.06V40.4719H90.1562V34.06H111.392ZM92.8416 0.57543V40.4719H84.6211V0.57543H92.8416ZM108.625 16.8245V23.072H90.1562V16.8245H108.625ZM111.365 0.57543V7.01477H90.1562V0.57543H111.365Z" fill="#C4C4C4"/>
<path d="M113.382 0.57543H128.261C131.311 0.57543 133.933 1.03212 136.125 1.9455C138.335 2.85888 140.034 4.21069 141.222 6.00092C142.409 7.79114 143.003 9.99239 143.003 12.6047C143.003 14.742 142.637 16.5779 141.907 18.1124C141.194 19.6286 140.18 20.8982 138.865 21.9212C137.568 22.9259 136.043 23.7296 134.289 24.3325L131.686 25.7026H118.752L118.698 19.2906H128.315C129.759 19.2906 130.955 19.0349 131.905 18.5234C132.855 18.0119 133.567 17.2994 134.042 16.3861C134.536 15.4727 134.782 14.4132 134.782 13.2075C134.782 11.9288 134.545 10.8236 134.07 9.89192C133.595 8.96027 132.873 8.24783 131.905 7.75461C130.937 7.26138 129.722 7.01477 128.261 7.01477H121.602V40.4719H113.382V0.57543ZM135.686 40.4719L126.589 22.6884L135.275 22.6336L144.482 40.0883V40.4719H135.686Z" fill="#C4C4C4"/>
<path d="M155.268 0.57543V40.4719H147.075V0.57543H155.268Z" fill="#C4C4C4"/>
<path d="M183.288 27.237H191.481C191.317 29.9224 190.577 32.3063 189.262 34.3888C187.965 36.4713 186.147 38.0971 183.809 39.2663C181.489 40.4354 178.694 41.02 175.424 41.02C172.867 41.02 170.574 40.5815 168.546 39.7047C166.519 38.8096 164.783 37.5308 163.34 35.8685C161.915 34.2061 160.828 32.1967 160.079 29.8402C159.33 27.4836 158.956 24.844 158.956 21.9212V19.1536C158.956 16.2308 159.339 13.5911 160.107 11.2346C160.892 8.8598 162.006 6.84123 163.45 5.17887C164.911 3.51652 166.656 2.23778 168.683 1.34267C170.711 0.447557 172.976 0 175.479 0C178.804 0 181.608 0.602832 183.891 1.8085C186.193 3.01416 187.974 4.67651 189.234 6.79556C190.513 8.9146 191.28 11.3259 191.536 14.0295H183.316C183.224 12.422 182.905 11.061 182.357 9.94672C181.809 8.81413 180.977 7.96469 179.863 7.39839C178.767 6.81383 177.306 6.52154 175.479 6.52154C174.109 6.52154 172.912 6.77729 171.889 7.28878C170.866 7.80028 170.008 8.57665 169.314 9.61791C168.619 10.6592 168.099 11.9744 167.752 13.5637C167.423 15.1347 167.258 16.9798 167.258 19.0988V21.9212C167.258 23.9854 167.414 25.803 167.724 27.374C168.035 28.9268 168.51 30.2421 169.149 31.3198C169.807 32.3794 170.647 33.1831 171.67 33.7312C172.711 34.2609 173.963 34.5258 175.424 34.5258C177.141 34.5258 178.557 34.2518 179.671 33.7038C180.786 33.1557 181.635 32.3428 182.22 31.265C182.822 30.1873 183.179 28.8446 183.288 27.237Z" fill="#C4C4C4"/>
<path d="M210.295 7.39839L199.444 40.4719H190.703L205.527 0.57543H211.09L210.295 7.39839ZM219.31 40.4719L208.432 7.39839L207.555 0.57543H213.172L228.079 40.4719H219.31ZM218.817 25.6203V32.0597H197.745V25.6203H218.817Z" fill="#C4C4C4"/>
<path d="M261.443 0.57543V40.4719H253.222L237.192 13.7281V40.4719H228.972V0.57543H237.192L253.25 27.3466V0.57543H261.443Z" fill="#C4C4C4"/>
</svg>
