<svg width="300" height="300" viewBox="0 0 300 300" fill="none" xmlns="http://www.w3.org/2000/svg">
<path fill-rule="evenodd" clip-rule="evenodd" d="M69.0194 83.7439H65.5654C34.3338 83.7439 10.7475 112.055 16.6521 142.723C20.309 161.717 24.2639 181.769 27.5004 197C32.5285 220.662 47.0684 252.716 58.1074 274.954C64.4207 287.673 76.0647 296.436 89.5265 299.638C105.145 294 126.896 290.502 150.951 290.502C174.898 290.502 196.561 293.968 212.165 299.563C226.22 296.126 238.248 286.646 244.424 273.113C254.394 251.27 267.43 220.71 274 197C278.409 181.091 282.865 160.737 286.685 141.683C292.752 111.424 269.273 83.7439 238.412 83.7439H233.855C214.419 87.8435 184.719 90.4641 151.437 90.4641C118.155 90.4641 88.4556 87.8435 69.0194 83.7439Z" fill="#C4C4C4"/>
<path d="M72.656 56.0932L93.0808 27.4898L139.905 94.0495L125.64 108.033L72.656 56.0932Z" fill="#C4C4C4"/>
<path fill-rule="evenodd" clip-rule="evenodd" d="M198.518 40.0209C214.07 24.7753 214.012 3.18903e-06 214.012 3.18903e-06C214.012 3.18903e-06 188.738 -0.0572936 173.186 15.1883C157.634 30.4339 157.693 55.2092 157.693 55.2092C157.693 55.2092 182.966 55.2665 198.518 40.0209Z" fill="#C4C4C4"/>
</svg>
