<svg width="300" height="244" viewBox="0 0 300 244" fill="none" xmlns="http://www.w3.org/2000/svg">
<path fill-rule="evenodd" clip-rule="evenodd" d="M93 10C93 4.47715 97.4771 0 103 0H196C201.523 0 206 4.47715 206 10V45C206 50.5228 210.477 55 216 55H290C295.523 55 300 59.4772 300 65V140C300 145.523 295.523 150 290 150H199C193.477 150 189 145.523 189 140V131C189 125.477 184.523 121 179 121H121C115.477 121 111 125.477 111 131V140C111 145.523 106.523 150 101 150H10C4.47715 150 0 145.523 0 140V65C0 59.4772 4.47715 55 10 55H83C88.5228 55 93 50.5228 93 45V10ZM114 45C114 50.5228 118.477 55 124 55H175C180.523 55 185 50.5228 185 45V33C185 27.4772 180.523 23 175 23H124C118.477 23 114 27.4772 114 33V45ZM300 189C300 183.477 295.523 179 290 179H10C4.47715 179 0 183.477 0 189V234C0 239.523 4.47716 244 10 244H290C295.523 244 300 239.523 300 234V189Z" fill="#C4C4C4"/>
</svg>
