<svg width="300" height="241" viewBox="0 0 300 241" fill="none" xmlns="http://www.w3.org/2000/svg">
<path d="M21.2114 131.11L69.6966 131.11L81.899 223.461L49.3412 238.951L21.2114 131.11Z" fill="#C4C4C4"/>
<path fill-rule="evenodd" clip-rule="evenodd" d="M13.6364 91.2913C13.6364 88.1785 11.1129 85.655 8 85.655C3.58172 85.655 0 89.2367 0 93.655V133.716C0 138.134 3.58172 141.716 8 141.716C11.1129 141.716 13.6364 139.192 13.6364 136.079V91.2913ZM21.2121 133.716C21.2121 138.134 24.7938 141.716 29.2121 141.716H84.4242C88.8425 141.716 92.4242 138.134 92.4242 133.716V93.655C92.4242 89.2367 88.8425 85.655 84.4242 85.655H29.2121C24.7938 85.655 21.2121 89.2367 21.2121 93.655V133.716Z" fill="#C4C4C4"/>
<path fill-rule="evenodd" clip-rule="evenodd" d="M56.0606 97.7356C56.0606 94.4483 58.0715 91.4957 61.1303 90.2916L229.979 23.8247C235.228 21.7585 240.909 25.6278 240.909 31.2687V197.442C240.909 203.083 235.228 206.952 229.979 204.886L61.1303 138.419C58.0715 137.215 56.0606 134.262 56.0606 130.975V97.7356ZM6.06062 114.355C6.06062 113.21 4.90674 112.424 3.84068 112.844C2.46782 113.384 2.46782 115.327 3.84068 115.867C4.90674 116.287 6.06062 115.501 6.06062 114.355ZM300 220.703C300 226.344 294.319 230.213 289.07 228.147L273.252 221.92C270.193 220.716 268.182 217.764 268.182 214.476V14.2345C268.182 10.9473 270.193 7.99459 273.252 6.7905L289.07 0.563719C294.319 -1.50251 300 2.36674 300 8.00772L300 220.703Z" fill="#C4C4C4"/>
</svg>
