<svg width="200" height="300" viewBox="0 0 200 300" fill="none" xmlns="http://www.w3.org/2000/svg">
<path fill-rule="evenodd" clip-rule="evenodd" d="M20 0C8.9541 0 0 8.9541 0 20V280C0 291.046 8.9541 300 20 300H180C191.046 300 200 291.046 200 280V20C200 8.9541 191.046 0 180 0H20ZM44 22C32.9541 22 24 30.9541 24 42V94C24 105.046 32.9541 114 44 114H155C166.046 114 175 105.046 175 94V42C175 30.9541 166.046 22 155 22H44ZM44 128C32.9541 128 24 136.954 24 148C24 159.046 32.9541 168 44 168C55.0459 168 64 159.046 64 148C64 136.954 55.0459 128 44 128ZM135 148C135 136.954 143.954 128 155 128C166.046 128 175 136.954 175 148C175 159.046 166.046 168 155 168C143.954 168 135 159.046 135 148ZM100 128C88.9541 128 80 136.954 80 148C80 159.046 88.9541 168 100 168C111.046 168 120 159.046 120 148C120 136.954 111.046 128 100 128ZM24 208C24 196.954 32.9541 188 44 188C55.0459 188 64 196.954 64 208C64 219.046 55.0459 228 44 228C32.9541 228 24 219.046 24 208ZM155 188C143.954 188 135 196.954 135 208C135 219.046 143.954 228 155 228C166.046 228 175 219.046 175 208C175 196.954 166.046 188 155 188ZM80 208C80 196.954 88.9541 188 100 188C111.046 188 120 196.954 120 208C120 219.046 111.046 228 100 228C88.9541 228 80 219.046 80 208ZM44 248C32.9541 248 24 256.954 24 268C24 279.046 32.9541 288 44 288H100C111.046 288 120 279.046 120 268C120 256.954 111.046 248 100 248H44ZM135 268C135 256.954 143.954 248 155 248C166.046 248 175 256.954 175 268C175 279.046 166.046 288 155 288C143.954 288 135 279.046 135 268Z" fill="#C4C4C4"/>
</svg>
