<svg width="300" height="300" viewBox="0 0 300 300" fill="none" xmlns="http://www.w3.org/2000/svg">
<path fill-rule="evenodd" clip-rule="evenodd" d="M125 0C136.046 0 145 8.9541 145 20V125C145 136.046 136.046 145 125 145H20C8.95435 145 0 136.046 0 125V20C0 8.9541 8.95435 0 20 0H125ZM155 20C155 8.9541 163.954 0 175 0H280C291.046 0 300 8.9541 300 20V125C300 136.046 291.046 145 280 145H175C163.954 145 155 136.046 155 125V20ZM280 155C291.046 155 300 163.954 300 175V280C300 291.046 291.046 300 280 300H175C163.954 300 155 291.046 155 280V175C155 163.954 163.954 155 175 155H280ZM145 280C145 291.046 136.046 300 125 300H20C8.95435 300 0 291.046 0 280V175C0 163.954 8.95435 155 20 155H125C136.046 155 145 163.954 145 175V280ZM61.1666 23H82.8334V62.1665H122V83.8335H82.8334V123H61.1666V83.8335H22V62.1665H61.1666V23ZM115.726 200.016L100.406 184.695L72.7106 212.39L45.0156 184.695L29.6951 200.016L57.39 227.711L29.6951 255.406L45.0156 270.726L72.7106 243.031L100.406 270.727L115.726 255.406L88.0311 227.711L115.726 200.016ZM276 62V83.6665H176V62H276ZM276 219.667V198H176V219.667H276ZM276 236V257.667H176V236H276Z" fill="#C4C4C4"/>
</svg>
