<svg width="300" height="300" viewBox="0 0 300 300" fill="none" xmlns="http://www.w3.org/2000/svg">
<path fill-rule="evenodd" clip-rule="evenodd" d="M300 80H0V280C0 291.046 8.9543 300 20 300H280C291.046 300 300 291.046 300 280V80ZM92.3954 95.2222C92.3954 93.5654 93.7386 92.2222 95.3954 92.2222H121.335C122.991 92.2222 124.335 93.5654 124.335 95.2222V120.333C124.335 121.99 122.991 123.333 121.335 123.333H95.3954C93.7386 123.333 92.3954 121.99 92.3954 120.333V95.2222ZM133.46 95.2222C133.46 93.5654 134.803 92.2222 136.46 92.2222H162.399C164.056 92.2222 165.399 93.5654 165.399 95.2222V120.333C165.399 121.99 164.056 123.333 162.399 123.333H136.46C134.803 123.333 133.46 121.99 133.46 120.333V95.2222ZM177.525 92.2222C175.868 92.2222 174.525 93.5654 174.525 95.2222V120.333C174.525 121.99 175.868 123.333 177.525 123.333H203.464C205.121 123.333 206.464 121.99 206.464 120.333V95.2222C206.464 93.5654 205.121 92.2222 203.464 92.2222H177.525ZM215.589 95.2222C215.589 93.5654 216.932 92.2222 218.589 92.2222H244.529C246.185 92.2222 247.529 93.5654 247.529 95.2222V120.333C247.529 121.99 246.185 123.333 244.529 123.333H218.589C216.933 123.333 215.589 121.99 215.589 120.333V95.2222ZM259.654 92.2222C257.997 92.2222 256.654 93.5654 256.654 95.2222V120.333C256.654 121.99 257.997 123.333 259.654 123.333H285.593C287.25 123.333 288.593 121.99 288.593 120.333V95.2222C288.593 93.5654 287.25 92.2222 285.593 92.2222H259.654ZM10.2661 135.222C10.2661 133.565 11.6093 132.222 13.2661 132.222H39.2053C40.8621 132.222 42.2053 133.565 42.2053 135.222V160.333C42.2053 161.99 40.8621 163.333 39.2053 163.333H13.2661C11.6093 163.333 10.2661 161.99 10.2661 160.333V135.222ZM54.3308 132.222C52.674 132.222 51.3308 133.565 51.3308 135.222V160.333C51.3308 161.99 52.674 163.333 54.3308 163.333H80.27C81.9268 163.333 83.27 161.99 83.27 160.333V135.222C83.27 133.565 81.9268 132.222 80.27 132.222H54.3308ZM92.3955 135.222C92.3955 133.565 93.7387 132.222 95.3955 132.222H121.335C122.992 132.222 124.335 133.565 124.335 135.222V160.333C124.335 161.99 122.992 163.333 121.335 163.333H95.3955C93.7387 163.333 92.3955 161.99 92.3955 160.333V135.222ZM136.46 132.222C134.803 132.222 133.46 133.565 133.46 135.222V160.333C133.46 161.99 134.803 163.333 136.46 163.333H162.399C164.056 163.333 165.399 161.99 165.399 160.333V135.222C165.399 133.565 164.056 132.222 162.399 132.222H136.46ZM174.525 135.222C174.525 133.565 175.868 132.222 177.525 132.222H203.464C205.121 132.222 206.464 133.565 206.464 135.222V160.333C206.464 161.99 205.121 163.333 203.464 163.333H177.525C175.868 163.333 174.525 161.99 174.525 160.333V135.222ZM218.589 132.222C216.932 132.222 215.589 133.565 215.589 135.222V160.333C215.589 161.99 216.933 163.333 218.589 163.333H244.529C246.185 163.333 247.529 161.99 247.529 160.333V135.222C247.529 133.565 246.185 132.222 244.529 132.222H218.589ZM256.654 135.222C256.654 133.565 257.997 132.222 259.654 132.222H285.593C287.25 132.222 288.593 133.565 288.593 135.222V160.333C288.593 161.99 287.25 163.333 285.593 163.333H259.654C257.997 163.333 256.654 161.99 256.654 160.333V135.222ZM13.2661 172.222C11.6093 172.222 10.2661 173.565 10.2661 175.222V200.333C10.2661 201.99 11.6093 203.333 13.2661 203.333H39.2053C40.8621 203.333 42.2053 201.99 42.2053 200.333V175.222C42.2053 173.565 40.8621 172.222 39.2053 172.222H13.2661ZM51.3308 175.222C51.3308 173.565 52.674 172.222 54.3308 172.222H80.27C81.9268 172.222 83.27 173.565 83.27 175.222V200.333C83.27 201.99 81.9268 203.333 80.27 203.333H54.3308C52.674 203.333 51.3308 201.99 51.3308 200.333V175.222ZM95.3955 172.222C93.7387 172.222 92.3955 173.565 92.3955 175.222V200.333C92.3955 201.99 93.7387 203.333 95.3955 203.333H121.335C122.992 203.333 124.335 201.99 124.335 200.333V175.222C124.335 173.565 122.992 172.222 121.335 172.222H95.3955ZM133.46 175.222C133.46 173.565 134.803 172.222 136.46 172.222H162.399C164.056 172.222 165.399 173.565 165.399 175.222V200.333C165.399 201.99 164.056 203.333 162.399 203.333H136.46C134.803 203.333 133.46 201.99 133.46 200.333V175.222ZM177.525 172.222C175.868 172.222 174.525 173.565 174.525 175.222V200.333C174.525 201.99 175.868 203.333 177.525 203.333H203.464C205.121 203.333 206.464 201.99 206.464 200.333V175.222C206.464 173.565 205.121 172.222 203.464 172.222H177.525ZM215.589 175.222C215.589 173.565 216.932 172.222 218.589 172.222H244.529C246.185 172.222 247.529 173.565 247.529 175.222V200.333C247.529 201.99 246.185 203.333 244.529 203.333H218.589C216.933 203.333 215.589 201.99 215.589 200.333V175.222ZM259.654 172.222C257.997 172.222 256.654 173.565 256.654 175.222V200.333C256.654 201.99 257.997 203.333 259.654 203.333H285.593C287.25 203.333 288.593 201.99 288.593 200.333V175.222C288.593 173.565 287.25 172.222 285.593 172.222H259.654ZM10.2661 215.222C10.2661 213.565 11.6093 212.222 13.2661 212.222H39.2053C40.8621 212.222 42.2053 213.565 42.2053 215.222V240.333C42.2053 241.99 40.8621 243.333 39.2053 243.333H13.2661C11.6093 243.333 10.2661 241.99 10.2661 240.333V215.222ZM54.3308 212.222C52.674 212.222 51.3308 213.565 51.3308 215.222V240.333C51.3308 241.99 52.674 243.333 54.3308 243.333H80.27C81.9268 243.333 83.27 241.99 83.27 240.333V215.222C83.27 213.565 81.9268 212.222 80.27 212.222H54.3308ZM92.3955 215.222C92.3955 213.565 93.7387 212.222 95.3955 212.222H121.335C122.992 212.222 124.335 213.565 124.335 215.222V240.333C124.335 241.99 122.992 243.333 121.335 243.333H95.3955C93.7387 243.333 92.3955 241.99 92.3955 240.333V215.222ZM136.46 212.222C134.803 212.222 133.46 213.565 133.46 215.222V240.333C133.46 241.99 134.803 243.333 136.46 243.333H162.399C164.056 243.333 165.399 241.99 165.399 240.333V215.222C165.399 213.565 164.056 212.222 162.399 212.222H136.46ZM174.525 215.222C174.525 213.565 175.868 212.222 177.525 212.222H203.464C205.121 212.222 206.464 213.565 206.464 215.222V240.333C206.464 241.99 205.121 243.333 203.464 243.333H177.525C175.868 243.333 174.525 241.99 174.525 240.333V215.222ZM218.589 212.222C216.932 212.222 215.589 213.565 215.589 215.222V240.333C215.589 241.99 216.933 243.333 218.589 243.333H244.529C246.185 243.333 247.529 241.99 247.529 240.333V215.222C247.529 213.565 246.185 212.222 244.529 212.222H218.589ZM256.654 215.222C256.654 213.565 257.997 212.222 259.654 212.222H285.593C287.25 212.222 288.593 213.565 288.593 215.222V240.333C288.593 241.99 287.25 243.333 285.593 243.333H259.654C257.997 243.333 256.654 241.99 256.654 240.333V215.222ZM13.2661 252.222C11.6093 252.222 10.2661 253.565 10.2661 255.222V280.333C10.2661 281.99 11.6093 283.333 13.2661 283.333H39.2053C40.8621 283.333 42.2053 281.99 42.2053 280.333V255.222C42.2053 253.565 40.8621 252.222 39.2053 252.222H13.2661ZM51.3308 255.222C51.3308 253.565 52.674 252.222 54.3308 252.222H80.27C81.9268 252.222 83.27 253.565 83.27 255.222V280.333C83.27 281.99 81.9268 283.333 80.27 283.333H54.3308C52.674 283.333 51.3308 281.99 51.3308 280.333V255.222ZM95.3955 252.222C93.7387 252.222 92.3955 253.565 92.3955 255.222V280.333C92.3955 281.99 93.7387 283.333 95.3955 283.333H121.335C122.992 283.333 124.335 281.99 124.335 280.333V255.222C124.335 253.565 122.992 252.222 121.335 252.222H95.3955ZM133.46 255.222C133.46 253.565 134.803 252.222 136.46 252.222H162.399C164.056 252.222 165.399 253.565 165.399 255.222V280.333C165.399 281.99 164.056 283.333 162.399 283.333H136.46C134.803 283.333 133.46 281.99 133.46 280.333V255.222Z" fill="#C4C4C4"/>
<path fill-rule="evenodd" clip-rule="evenodd" d="M20 0C8.95431 0 0 8.95432 0 20V72.2222H300V20C300 8.95431 291.046 0 280 0H20ZM18.251 29.4445C18.251 26.683 20.4896 24.4444 23.251 24.4444H169.525C172.286 24.4444 174.525 26.683 174.525 29.4444V42.7778C174.525 45.5392 172.286 47.7778 169.525 47.7778H23.251C20.4895 47.7778 18.251 45.5392 18.251 42.7778V29.4445ZM190.494 29.4445C190.494 26.683 192.733 24.4444 195.494 24.4444H275.608C278.37 24.4444 280.608 26.683 280.608 29.4444V42.7778C280.608 45.5392 278.37 47.7778 275.608 47.7778H195.494C192.733 47.7778 190.494 45.5392 190.494 42.7778V29.4445Z" fill="#C4C4C4"/>
</svg>
