<svg width="310" height="228" viewBox="0 0 310 228" fill="none" xmlns="http://www.w3.org/2000/svg">
<path d="M42.1677 22.0082L290.723 29.2209C295.477 29.3589 299.138 33.4719 298.728 38.2165L292.279 112.896C291.942 116.793 288.93 119.923 285.053 120.405L42.1446 150.598C43.8494 152.6 46.4822 153.771 49.3269 153.467L297.603 126.928C301.809 126.479 305 122.925 305 118.69V27.4038C305 22.8279 301.295 19.1185 296.724 19.1185H48.4483C45.9361 19.1185 43.6854 20.2391 42.1677 22.0082Z" fill="#C4C4C4"/>
<path d="M21.4096 6.5168L28.4483 6.34522L50.8621 153.065L38.793 154.444L21.4096 6.5168Z" fill="#C4C4C4"/>
<path d="M39.2673 148.232L50.9491 150.068L47.069 188.623L31.5517 186.206L39.2673 148.232Z" fill="#C4C4C4"/>
<path d="M47.4718 174.469H269.828V180.655L47.069 188.623L47.4718 174.469Z" fill="#C4C4C4"/>
<path d="M5 6L28.4483 6.47468L27.7586 10.8331L5 13.5949V6Z" fill="#C4C4C4"/>
<path fill-rule="evenodd" clip-rule="evenodd" d="M76.0345 222.109C84.414 222.109 91.2069 215.309 91.2069 206.92C91.2069 198.531 84.414 191.73 76.0345 191.73C67.655 191.73 60.8621 198.531 60.8621 206.92C60.8621 215.309 67.655 222.109 76.0345 222.109ZM76.0345 217.276C81.7478 217.276 86.3793 212.639 86.3793 206.92C86.3793 201.2 81.7478 196.563 76.0345 196.563C70.3212 196.563 65.6897 201.2 65.6897 206.92C65.6897 212.639 70.3212 217.276 76.0345 217.276Z" fill="#C4C4C4"/>
<path fill-rule="evenodd" clip-rule="evenodd" d="M220.862 222.109C229.242 222.109 236.034 215.309 236.034 206.92C236.034 198.531 229.242 191.73 220.862 191.73C212.483 191.73 205.69 198.531 205.69 206.92C205.69 215.309 212.483 222.109 220.862 222.109ZM220.862 217.276C226.575 217.276 231.207 212.639 231.207 206.92C231.207 201.2 226.575 196.563 220.862 196.563C215.149 196.563 210.517 201.2 210.517 206.92C210.517 212.639 215.149 217.276 220.862 217.276Z" fill="#C4C4C4"/>
<path d="M47.069 188.623L50.9491 150.068L39.2673 148.232L31.5517 186.206L47.069 188.623ZM47.069 188.623L269.828 180.655V174.469H47.4718L47.069 188.623ZM42.1677 22.0082L290.723 29.2209C295.477 29.3589 299.138 33.4719 298.728 38.2165L292.279 112.896C291.942 116.793 288.93 119.923 285.053 120.405L42.1446 150.598C43.8494 152.6 46.4822 153.771 49.3269 153.467L297.603 126.928C301.809 126.479 305 122.925 305 118.69V27.4038C305 22.8279 301.295 19.1185 296.724 19.1185H48.4483C45.9361 19.1185 43.6854 20.2391 42.1677 22.0082ZM21.4096 6.5168L28.4483 6.34522L50.8621 153.065L38.793 154.444L21.4096 6.5168ZM5 6L28.4483 6.47468L27.7586 10.8331L5 13.5949V6ZM91.2069 206.92C91.2069 215.309 84.414 222.109 76.0345 222.109C67.655 222.109 60.8621 215.309 60.8621 206.92C60.8621 198.531 67.655 191.73 76.0345 191.73C84.414 191.73 91.2069 198.531 91.2069 206.92ZM86.3793 206.92C86.3793 212.639 81.7478 217.276 76.0345 217.276C70.3212 217.276 65.6897 212.639 65.6897 206.92C65.6897 201.2 70.3212 196.563 76.0345 196.563C81.7478 196.563 86.3793 201.2 86.3793 206.92ZM236.034 206.92C236.034 215.309 229.242 222.109 220.862 222.109C212.483 222.109 205.69 215.309 205.69 206.92C205.69 198.531 212.483 191.73 220.862 191.73C229.242 191.73 236.034 198.531 236.034 206.92ZM231.207 206.92C231.207 212.639 226.575 217.276 220.862 217.276C215.149 217.276 210.517 212.639 210.517 206.92C210.517 201.2 215.149 196.563 220.862 196.563C226.575 196.563 231.207 201.2 231.207 206.92Z" stroke="#C4C4C4" stroke-width="10"/>
</svg>
