<svg width="300" height="300" viewBox="0 0 300 300" fill="none" xmlns="http://www.w3.org/2000/svg">
<path fill-rule="evenodd" clip-rule="evenodd" d="M295.986 72C280.359 97.8003 220.929 117 150 117C79.0713 117 19.6406 97.8003 4.01367 72C1.38867 76.3337 0 80.8536 0 85.5C0 89.6129 1.08838 93.6268 3.15869 97.5C1.08838 101.373 0 105.387 0 109.5C0 113.436 0.99707 117.282 2.89746 121C0.99707 124.718 0 128.564 0 132.5C0 136.436 0.99707 140.282 2.89746 144C0.99707 147.718 0 151.564 0 155.5C0 159.436 0.99707 163.282 2.89746 167C0.99707 170.718 0 174.564 0 178.5C0 182.084 0.82666 185.594 2.40967 189C0.82666 192.406 0 195.916 0 199.5C0 203.084 0.82666 206.594 2.40967 210C0.82666 213.406 0 216.916 0 220.5C0 224.084 0.82666 227.594 2.40967 231C0.82666 234.406 0 237.916 0 241.5C0 273.809 67.1572 300 150 300C232.843 300 300 273.809 300 241.5C300 237.916 299.173 234.406 297.59 231C299.173 227.594 300 224.084 300 220.5C300 216.916 299.173 213.406 297.59 210C299.173 206.594 300 203.084 300 199.5C300 195.916 299.173 192.406 297.59 189C299.173 185.594 300 182.084 300 178.5C300 174.564 299.003 170.718 297.103 167C299.003 163.282 300 159.436 300 155.5C300 151.564 299.003 147.718 297.103 144C299.003 140.282 300 136.436 300 132.5C300 128.564 299.003 124.718 297.103 121C299.003 117.282 300 113.436 300 109.5C300 105.387 298.912 101.373 296.841 97.5C298.912 93.6268 300 89.6129 300 85.5C300 80.8536 298.611 76.3337 295.986 72Z" fill="#C4C4C4"/>
<path fill-rule="evenodd" clip-rule="evenodd" d="M300 58.5C300 90.8087 232.843 117 150 117C67.1573 117 0 90.8087 0 58.5C0 26.1913 67.1573 0 150 0C232.843 0 300 26.1913 300 58.5ZM190 58.5C190 67.1156 172.091 74.1 150 74.1C127.909 74.1 110 67.1156 110 58.5C110 49.8844 127.909 42.9 150 42.9C172.091 42.9 190 49.8844 190 58.5ZM130.919 10.8862C76.8856 13.4649 33.7368 30.3583 28.077 51.78L28.0527 52.1035L54.7075 53.112C65.2739 37.7649 95.6156 25.6664 134.15 21.0774L130.919 10.8862ZM68.968 56.7465C73.2389 40.5817 105.799 27.834 146.572 25.8882L149.01 33.5784C119.932 37.0412 97.0366 46.1707 89.0632 57.7516L68.9497 56.9905L68.968 56.7465ZM153.392 90.9758C194.166 89.0299 226.726 76.2822 230.997 60.1175L231.015 59.8734L210.901 59.1124C202.928 70.6933 180.032 79.8227 150.954 83.2855L153.392 90.9758ZM169.046 105.978C223.079 103.399 266.228 86.5057 271.888 65.0841L271.912 64.7605L245.257 63.752C234.691 79.0991 204.349 91.1976 165.815 95.7866L169.046 105.978Z" fill="#C4C4C4"/>
</svg>
