<svg width="300" height="300" viewBox="0 0 300 300" fill="none" xmlns="http://www.w3.org/2000/svg">
<path fill-rule="evenodd" clip-rule="evenodd" d="M300 150C300 232.843 232.843 300 150 300C67.1573 300 0 232.843 0 150C0 67.1573 67.1573 0 150 0C232.843 0 300 67.1573 300 150ZM190 150C190 172.091 172.091 190 150 190C127.909 190 110 172.091 110 150C110 127.909 127.909 110 150 110C172.091 110 190 127.909 190 150ZM130.919 27.9135C76.8848 34.5257 33.7356 77.8434 28.0769 132.772L28.0527 133.599L54.7076 136.185C65.274 96.8332 95.6157 65.8115 134.15 54.0448L130.919 27.9135ZM68.968 145.506C73.238 104.057 105.798 71.3695 146.572 66.3799L149.01 86.0985C119.933 94.9776 97.0368 118.386 89.0634 148.081L68.9497 146.13L68.968 145.506ZM153.392 233.271C194.166 228.282 226.726 195.594 230.997 154.145L231.015 153.522L210.901 151.57C202.928 181.265 180.032 204.673 150.954 213.553L153.392 233.271ZM169.045 271.738C223.08 265.125 266.229 221.808 271.888 166.879L271.912 166.053L245.257 163.467C234.69 202.818 204.349 233.84 165.815 245.606L169.045 271.738Z" fill="#C4C4C4"/>
</svg>
