<svg width="300" height="300" viewBox="0 0 300 300" fill="none" xmlns="http://www.w3.org/2000/svg">
<path fill-rule="evenodd" clip-rule="evenodd" d="M223.163 0H50C22.3858 0 0 22.3858 0 50V250C0 277.614 22.3857 300 50 300H232.77C260.384 300 282.77 277.614 282.77 250V120.685L252.77 152.513V250C252.77 261.046 243.816 270 232.77 270H50C38.9543 270 30 261.046 30 250V50C30 38.9543 38.9543 30 50 30H194.886L223.163 0Z" fill="#C4C4C4"/>
<rect width="41.6555" height="70.9686" transform="matrix(0.685901 -0.727695 0.685901 0.727695 49.9473 147.629)" fill="#C4C4C4"/>
<rect width="41.6555" height="256.418" transform="matrix(0.685901 0.727695 -0.685901 0.727695 271.428 9.40417)" fill="#C4C4C4"/>
</svg>
