<svg width="300" height="192" viewBox="0 0 300 192" fill="none" xmlns="http://www.w3.org/2000/svg">
<path fill-rule="evenodd" clip-rule="evenodd" d="M167.669 150.388C167.687 150.378 167.706 150.368 167.724 150.358C167.728 150.368 167.733 150.378 167.738 150.388H167.669ZM58.0443 191.473C58.0761 191.473 58.1078 191.473 58.1395 191.473C58.1713 191.473 58.203 191.473 58.2347 191.473H229.457V191.468C229.715 191.471 229.974 191.473 230.233 191.473C268.764 191.473 300 158.328 300 117.442C300 76.5557 268.764 43.4109 230.233 43.4109C220.898 43.4109 211.992 45.3562 203.854 48.8856C191.761 20.1642 163.352 0 130.233 0C87.5284 0 52.6544 33.5251 50.4938 75.6921C21.9976 79.4354 0 103.815 0 133.333C0 165.184 25.612 191.053 57.3643 191.468V191.473H58.0443Z" fill="#C4C4C4"/>
</svg>
