<svg width="300" height="216" viewBox="0 0 300 216" fill="none" xmlns="http://www.w3.org/2000/svg">
<path fill-rule="evenodd" clip-rule="evenodd" d="M58.1395 191.473L58.0443 191.473H57.3643V191.468C25.612 191.053 0 165.184 0 133.333C0 103.815 21.9976 79.4354 50.4938 75.6921C52.6544 33.5251 87.5284 0 130.233 0C163.352 0 191.761 20.1642 203.854 48.8856C211.992 45.3562 220.898 43.4109 230.233 43.4109C268.764 43.4109 300 76.5557 300 117.442C300 158.328 268.764 191.473 230.233 191.473C230.07 191.473 229.908 191.472 229.745 191.471C229.649 191.47 229.553 191.47 229.457 191.468V191.473H184.747L240.865 113.25L184.933 113.25L184.933 52L113.933 52L113.933 113.25L58.9999 113.25L115.118 191.473H58.2347L58.1395 191.473Z" fill="#C4C4C4"/>
<path fill-rule="evenodd" clip-rule="evenodd" d="M84.981 125.352L149.933 216L214.885 125.353L173.933 125.353L173.933 52L124.933 52L124.933 125.353L84.981 125.352Z" fill="#C4C4C4"/>
</svg>
