<svg width="263" height="300" viewBox="0 0 263 300" fill="none" xmlns="http://www.w3.org/2000/svg">
<path d="M0 150.042H28.3724C28.3724 200.686 80.3536 252.695 130.987 252.741V281.113C58.6371 281.068 0 222.402 0 150.042Z" fill="#C4C4C4"/>
<path d="M262.058 154.78C262.114 153.208 262.142 151.628 262.142 150.042C262.142 77.6535 203.459 18.9711 131.071 18.9711V47.3434C181.715 47.3434 233.724 99.3247 233.77 149.958H262.058V154.78Z" fill="#C4C4C4"/>
<path d="M131.071 70.9152V0L69.4939 36.005L131.071 70.9152Z" fill="#C4C4C4"/>
<path d="M130.987 229.085V300L192.564 263.995L130.987 229.085Z" fill="#C4C4C4"/>
<path fill-rule="evenodd" clip-rule="evenodd" d="M174.144 211.691L144.775 223.856L136.213 203.186C132.97 203.5 129.733 203.513 126.538 203.239L117.998 223.856L88.6298 211.691L97.088 191.271C94.5532 189.195 92.1953 186.873 90.0546 184.324L69.6956 192.756L57.5307 163.388L77.7503 155.013C77.4245 151.648 77.4234 148.289 77.7298 144.979L57.5302 136.612L69.6951 107.243L89.8947 115.61C92.0193 113.052 94.3952 110.678 97.005 108.529L88.6295 88.3087L117.998 76.1438L126.432 96.504C129.748 96.215 133.056 96.2407 136.317 96.5646L144.775 76.1438L174.144 88.3087L165.604 108.927C168.056 110.992 170.336 113.29 172.407 115.805L193.078 107.242L205.243 136.611L184.432 145.231C184.711 148.426 184.697 151.614 184.406 154.758L205.242 163.389L193.078 192.757L172.241 184.127C170.224 186.556 167.98 188.819 165.524 190.881L174.144 211.691ZM143.887 180.816C160.98 173.736 169.097 154.14 162.017 137.046C154.937 119.953 135.34 111.836 118.247 118.916C101.154 125.997 93.0367 145.593 100.117 162.686C107.197 179.779 126.794 187.897 143.887 180.816Z" fill="#C4C4C4"/>
</svg>
