<svg width="300" height="300" viewBox="0 0 300 300" fill="none" xmlns="http://www.w3.org/2000/svg">
<path fill-rule="evenodd" clip-rule="evenodd" d="M182.5 0H117.5V44.7498C110.888 46.7671 104.541 49.3936 98.5254 52.5635L66.915 20.9531L20.9531 66.915L52.5635 98.5254C49.3936 104.541 46.7676 110.888 44.75 117.5H0V182.5H45.0601C47.1094 188.991 49.7471 195.221 52.9106 201.128L20.9531 233.085L66.915 279.047L99.1821 246.78C105.002 249.796 111.128 252.306 117.5 254.25V300H182.5V253.94C188.752 251.966 194.763 249.446 200.475 246.437L233.085 279.047L279.047 233.085L246.437 200.475C249.446 194.763 251.966 188.753 253.94 182.5H300V117.5H254.25C252.306 111.128 249.796 105.002 246.78 99.1821L279.047 66.915L233.085 20.9531L201.127 52.9104C195.221 49.7468 188.991 47.1094 182.5 45.0603V0ZM149.5 218C187.332 218 218 187.332 218 149.5C218 111.668 187.332 81 149.5 81C111.668 81 81 111.668 81 149.5C81 187.332 111.668 218 149.5 218Z" fill="#C4C4C4"/>
</svg>
