<svg width="300" height="300" viewBox="0 0 300 300" fill="none" xmlns="http://www.w3.org/2000/svg">
<path fill-rule="evenodd" clip-rule="evenodd" d="M250 30H50C38.9543 30 30 38.9543 30 50V250C30 261.046 38.9543 270 50 270H250C261.046 270 270 261.046 270 250V50C270 38.9543 261.046 30 250 30ZM50 0C22.3858 0 0 22.3858 0 50V250C0 277.614 22.3858 300 50 300H250C277.614 300 300 277.614 300 250V50C300 22.3858 277.614 0 250 0H50Z" fill="#C4C4C4"/>
<rect width="55.7307" height="167.192" transform="matrix(0.577449 -0.816427 0.577449 0.816427 53.0464 105.5)" fill="#C4C4C4"/>
<rect width="55.7307" height="167.192" transform="matrix(0.577449 0.816427 -0.577449 0.816427 213.955 60)" fill="#C4C4C4"/>
</svg>
