<svg width="269" height="300" viewBox="0 0 269 300" fill="none" xmlns="http://www.w3.org/2000/svg">
<path fill-rule="evenodd" clip-rule="evenodd" d="M137.955 63.0088C137.955 56.3814 132.582 51.0088 125.955 51.0088H12C5.37258 51.0088 0 56.3814 0 63.0088V237.285C0 243.912 5.37257 249.285 12 249.285H125.955C132.582 249.285 137.955 243.912 137.955 237.285V63.0088ZM20.5638 87.9593C20.5638 81.3319 25.9364 75.9593 32.5638 75.9593H104.642C111.269 75.9593 116.642 81.3319 116.642 87.9593V127.65C116.642 134.277 111.269 139.65 104.642 139.65H32.5638C25.9364 139.65 20.5638 134.277 20.5638 127.65V87.9593ZM20.5639 173.316C20.5639 166.688 25.9365 161.316 32.5639 161.316H104.642C111.269 161.316 116.642 166.688 116.642 173.316V213.006C116.642 219.634 111.269 225.006 104.642 225.006H32.5639C25.9365 225.006 20.5639 219.634 20.5639 213.006V173.316Z" fill="#C4C4C4"/>
<path fill-rule="evenodd" clip-rule="evenodd" d="M177.927 28.7953C171.3 28.7953 165.927 34.1679 165.927 40.7953V104.697L268.768 77.1414V40.7953C268.768 34.1679 263.395 28.7953 256.768 28.7953H177.927ZM268.768 117.173L166.044 144.698L165.927 144.263V185.885L268.768 158.329V117.173ZM268.768 198.361L166.083 225.875L165.927 225.294V259.498C165.927 266.125 171.3 271.498 177.927 271.498H256.768C263.395 271.498 268.768 266.125 268.768 259.498V198.361Z" fill="#C4C4C4"/>
<path d="M128.933 0.243853L189.072 34.8465L176.11 57.2972L115.754 22.4506L128.933 0.243853Z" fill="#C4C4C4"/>
<path d="M24.4196 22.5057L47.8671 0.292236L128.905 0.292236L128.549 22.5057L24.4196 22.5057Z" fill="#C4C4C4"/>
<path d="M128.933 299.756L189.072 265.153L176.11 242.703L115.754 277.549L128.933 299.756Z" fill="#C4C4C4"/>
<path d="M24.4196 277.494L47.8671 299.708H128.905L128.549 277.494H24.4196Z" fill="#C4C4C4"/>
</svg>
