<svg width="300" height="300" viewBox="0 0 300 300" fill="none" xmlns="http://www.w3.org/2000/svg">
<path fill-rule="evenodd" clip-rule="evenodd" d="M150 300C232.843 300 300 232.843 300 150C300 67.1573 232.843 0 150 0C67.1573 0 0 67.1573 0 150C0 232.843 67.1573 300 150 300ZM150 264C212.96 264 264 212.96 264 150C264 87.0395 212.96 36 150 36C87.0395 36 36 87.0395 36 150C36 212.96 87.0395 264 150 264Z" fill="#C4C4C4"/>
<path d="M211 212.926C179.314 216.309 151.356 218 127.125 218C115.603 218 106.368 214.533 99.4208 207.598C92.4736 200.664 89 191.446 89 179.944V121.593C89 108.907 92.5583 99.013 99.675 91.9093C106.961 84.6364 116.958 81 129.667 81H211V115.25H143.646C136.868 115.25 133.479 118.633 133.479 125.398V174.87C133.479 177.407 134.326 179.522 136.021 181.213C137.715 182.904 139.833 183.75 142.375 183.75C157.625 183.75 180.5 182.481 211 179.944V212.926Z" fill="#C4C4C4"/>
</svg>
