<svg width="300" height="224" viewBox="0 0 300 224" fill="none" xmlns="http://www.w3.org/2000/svg">
<path fill-rule="evenodd" clip-rule="evenodd" d="M0.0139187 187.886L0 183.948C1.23075 136.087 24.8302 93.7951 60.7213 67.1612L37.7977 19.959C30.3182 4.55812 52.0259 -7.98768 61.6099 6.19691L91.0304 49.7402C109.125 41.9935 129.05 37.7051 149.975 37.7051C232.831 37.7051 300 104.944 300 187.886L265.848 187.886C265.848 123.825 213.969 71.8927 149.975 71.8927C136.162 71.8927 122.915 74.3119 110.631 78.75L176.545 176.304C178.3 178.902 179.118 182.021 178.863 185.148L176.78 210.71C175.997 220.323 165.85 226.188 157.142 222.06L133.986 211.085C131.154 209.742 128.864 207.474 127.494 204.653L75.9934 98.608C50.3992 119.885 34.1015 151.98 34.1015 187.886L0.0139187 187.886Z" fill="#C4C4C4"/>
</svg>
