<svg width="300" height="50" viewBox="0 0 300 50" fill="none" xmlns="http://www.w3.org/2000/svg">
<path d="M14.6158 48.6541H4.25068L4.31608 41.0029H14.6158C17.188 41.0029 19.3569 40.4253 21.1226 39.2699C22.8883 38.0928 24.218 36.3817 25.1117 34.1364C26.0272 31.8912 26.485 29.1773 26.485 25.9947V23.6732C26.485 21.2318 26.2234 19.0847 25.7003 17.2318C25.1989 15.3789 24.4469 13.8204 23.4441 12.556C22.4414 11.2917 21.2098 10.3435 19.7493 9.71136C18.2888 9.05741 16.6104 8.73044 14.7139 8.73044H4.0545V1.04651H14.7139C17.8965 1.04651 20.8065 1.59147 23.4441 2.68139C26.1035 3.74951 28.4033 5.28629 30.3433 7.29174C32.2834 9.29719 33.7766 11.695 34.8229 14.4852C35.891 17.2536 36.4251 20.3381 36.4251 23.7386V25.9947C36.4251 29.3735 35.891 32.458 34.8229 35.2481C33.7766 38.0383 32.2834 40.4362 30.3433 42.4416C28.4251 44.4253 26.1253 45.962 23.4441 47.052C20.7847 48.1201 17.842 48.6541 14.6158 48.6541ZM9.80926 1.04651V48.6541H0V1.04651H9.80926Z" fill="#C4C4C4"/>
<path d="M50.6354 1.04651V48.6541H40.8589V1.04651H50.6354Z" fill="#C4C4C4"/>
<path d="M81.2599 36.1964C81.2599 35.3462 81.1292 34.5833 80.8676 33.9075C80.6278 33.21 80.17 32.5778 79.4943 32.0111C78.8185 31.4225 77.8703 30.8449 76.6496 30.2781C75.4289 29.7114 73.8485 29.1228 71.9084 28.5125C69.7504 27.8149 67.7014 27.0302 65.7613 26.1582C63.843 25.2863 62.1428 24.2727 60.6605 23.1174C59.2 21.9402 58.0447 20.5778 57.1945 19.0302C56.3662 17.4825 55.952 15.6841 55.952 13.6351C55.952 11.6514 56.388 9.85305 57.2599 8.23997C58.1319 6.60509 59.3526 5.21 60.9221 4.05469C62.4916 2.87757 64.3444 1.97294 66.4807 1.34079C68.6387 0.708637 71.0038 0.392561 73.576 0.392561C77.0856 0.392561 80.1482 1.02471 82.764 2.28902C85.3798 3.55332 87.4071 5.28629 88.8458 7.48793C90.3063 9.68956 91.0365 12.2073 91.0365 15.0411H81.2926C81.2926 13.646 80.9984 12.4253 80.4098 11.3789C79.843 10.3108 78.9711 9.47158 77.794 8.86123C76.6387 8.25087 75.1782 7.94569 73.4125 7.94569C71.7123 7.94569 70.2954 8.20727 69.1619 8.73044C68.0283 9.2318 67.1782 9.91845 66.6114 10.7904C66.0447 11.6405 65.7613 12.5996 65.7613 13.6678C65.7613 14.4743 65.9575 15.2045 66.3499 15.8585C66.764 16.5125 67.3744 17.1228 68.1809 17.6896C68.9875 18.2563 69.9793 18.7904 71.1564 19.2917C72.3335 19.7931 73.6959 20.2836 75.2436 20.7631C77.8376 21.5479 80.1155 22.4307 82.0774 23.4116C84.061 24.3926 85.7177 25.4934 87.0474 26.7141C88.3771 27.9348 89.3798 29.319 90.0556 30.8667C90.7313 32.4144 91.0692 34.1691 91.0692 36.131C91.0692 38.2018 90.6659 40.0547 89.8594 41.6896C89.0529 43.3244 87.8866 44.7086 86.3608 45.8422C84.8349 46.9757 83.0147 47.8367 80.9003 48.4253C78.7858 49.0138 76.4207 49.3081 73.8049 49.3081C71.4507 49.3081 69.1292 49.0029 66.8403 48.3926C64.5515 47.7604 62.4698 46.8122 60.5951 45.5479C58.7422 44.2836 57.2599 42.6705 56.1482 40.7086C55.0365 38.7468 54.4807 36.4253 54.4807 33.7441H64.3226C64.3226 35.2263 64.5515 36.4798 65.0093 37.5043C65.467 38.5288 66.1101 39.3571 66.9384 39.9893C67.7886 40.6214 68.7913 41.0792 69.9466 41.3626C71.1237 41.646 72.4098 41.7877 73.8049 41.7877C75.5052 41.7877 76.9003 41.5479 77.9902 41.0683C79.1019 40.5887 79.9193 39.9239 80.4425 39.0738C80.9875 38.2236 81.2599 37.2645 81.2599 36.1964Z" fill="#C4C4C4"/>
<path d="M121.988 32.8612H131.765C131.568 36.0656 130.686 38.9103 129.116 41.3953C127.568 43.8803 125.399 45.8204 122.609 47.2154C119.841 48.6105 116.506 49.3081 112.604 49.3081C109.552 49.3081 106.816 48.7849 104.397 47.7386C101.977 46.6705 99.9063 45.1446 98.1842 43.161C96.4839 41.1773 95.1869 38.7795 94.2932 35.9675C93.3995 33.1555 92.9526 30.0056 92.9526 26.5179V23.2154C92.9526 19.7277 93.4104 16.5778 94.3259 13.7659C95.2632 10.9321 96.5929 8.52335 98.315 6.5397C100.059 4.55605 102.141 3.03016 104.56 1.96204C106.98 0.893923 109.683 0.359863 112.669 0.359863C116.637 0.359863 119.983 1.07921 122.707 2.5179C125.454 3.95659 127.579 5.94024 129.083 8.46885C130.609 10.9975 131.525 13.8748 131.83 17.101H122.021C121.912 15.1828 121.53 13.5588 120.876 12.2291C120.222 10.8776 119.231 9.86395 117.901 9.1882C116.593 8.49065 114.849 8.14188 112.669 8.14188C111.034 8.14188 109.607 8.44706 108.386 9.05741C107.165 9.66777 106.141 10.5942 105.312 11.8367C104.484 13.0792 103.863 14.6487 103.449 16.5451C103.056 18.4198 102.86 20.6214 102.86 23.1501V26.5179C102.86 28.9811 103.045 31.1501 103.416 33.0247C103.786 34.8776 104.353 36.4471 105.116 37.7332C105.901 38.9975 106.904 39.9566 108.124 40.6105C109.367 41.2427 110.86 41.5588 112.604 41.5588C114.653 41.5588 116.342 41.2318 117.672 40.5778C119.002 39.9239 120.015 38.9539 120.713 37.6678C121.432 36.3817 121.857 34.7795 121.988 32.8612Z" fill="#C4C4C4"/>
<path d="M205.334 38.7141L216.549 1.04651H227.47L210.893 48.6541H203.699L205.334 38.7141ZM195.002 1.04651L206.184 38.7141L207.884 48.6541H200.626L184.146 1.04651H195.002Z" fill="#C4C4C4"/>
<path d="M260.514 41.0029V48.6541H235.174V41.0029H260.514ZM238.378 1.04651V48.6541H228.569V1.04651H238.378ZM257.212 20.4362V27.8912H235.174V20.4362H257.212ZM260.482 1.04651V8.73044H235.174V1.04651H260.482Z" fill="#C4C4C4"/>
<path d="M262.888 1.04651H280.643C284.283 1.04651 287.411 1.59147 290.027 2.68139C292.665 3.77131 294.692 5.38439 296.109 7.52063C297.526 9.65687 298.234 12.2836 298.234 15.4007C298.234 17.9511 297.798 20.1419 296.926 21.9729C296.076 23.7822 294.866 25.2972 293.297 26.5179C291.749 27.7168 289.929 28.6759 287.837 29.3953L284.73 31.0302H269.297L269.232 23.3789H280.708C282.431 23.3789 283.858 23.0738 284.992 22.4634C286.125 21.8531 286.975 21.0029 287.542 19.913C288.131 18.8231 288.425 17.5588 288.425 16.1201C288.425 14.5942 288.142 13.2754 287.575 12.1637C287.008 11.052 286.147 10.2018 284.992 9.61327C283.837 9.02471 282.387 8.73044 280.643 8.73044H272.698V48.6541H262.888V1.04651ZM289.504 48.6541L278.648 27.4334L289.014 27.368L300 48.1964V48.6541H289.504Z" fill="#C4C4C4"/>
<path d="M184.48 24.327C184.48 37.7624 173.588 48.654 160.153 48.654C146.717 48.654 135.826 37.7624 135.826 24.327C135.826 10.8916 146.717 0 160.153 0C173.588 0 184.48 10.8916 184.48 24.327Z" fill="#C4C4C4"/>
</svg>
