<svg width="230" height="300" viewBox="0 0 230 300" fill="none" xmlns="http://www.w3.org/2000/svg">
<path fill-rule="evenodd" clip-rule="evenodd" d="M0 0H155.682V77H229.225V300H0V0ZM229.225 65H167.143V0L229.225 65ZM25 249.2C25 243.677 29.4772 239.2 35 239.2H195C200.523 239.2 205 243.677 205 249.2V267C205 272.523 200.523 277 195 277H35C29.4772 277 25 272.523 25 267V249.2ZM35 192.4C29.4772 192.4 25 196.877 25 202.4V219.6C25 225.123 29.4772 229.6 35 229.6H149.4C154.923 229.6 159.4 225.123 159.4 219.6V202.4C159.4 196.877 154.923 192.4 149.4 192.4H35ZM25 154.4C25 148.877 29.4772 144.4 35 144.4H195C200.523 144.4 205 148.877 205 154.4V171.6C205 177.123 200.523 181.6 195 181.6H35C29.4772 181.6 25 177.123 25 171.6V154.4ZM35 97C29.4772 97 25 101.477 25 107V124.8C25 130.323 29.4772 134.8 35 134.8H149.4C154.923 134.8 159.4 130.323 159.4 124.8V107C159.4 101.477 154.923 97 149.4 97H35Z" fill="#C4C4C4"/>
</svg>
