<svg width="320" height="320" viewBox="0 0 320 320" fill="none" xmlns="http://www.w3.org/2000/svg">
<path d="M32.831 62.9327L67.0469 28.7168C67.0469 28.7168 73.0978 87.4317 152.833 167.167C232.568 246.902 291.283 252.953 291.283 252.953L257.067 287.169C257.067 287.169 207.739 303.503 110.896 206.66C14.053 109.817 32.831 62.9327 32.831 62.9327Z" fill="#C4C4C4"/>
<path d="M43.6976 76.8728C37.4914 68.9113 38.1911 57.5728 45.3292 50.4348L81.6217 14.1422C89.4322 6.33168 102.096 6.33168 109.906 14.1422L137.002 41.2383C142.735 46.9709 144.44 55.5971 141.319 63.0794L116.725 122.044C110.833 136.17 91.903 138.712 82.4926 126.64L43.6976 76.8728Z" fill="#C4C4C4"/>
<path d="M193.36 237.508C181.288 228.097 183.83 209.167 197.957 203.275L256.921 178.682C264.403 175.561 273.029 177.266 278.762 182.998L305.858 210.094C313.669 217.905 313.669 230.568 305.858 238.378L269.565 274.671C262.427 281.809 251.089 282.509 243.127 276.303L193.36 237.508Z" fill="#C4C4C4"/>
</svg>
