<svg width="300" height="290" viewBox="0 0 300 290" fill="none" xmlns="http://www.w3.org/2000/svg">
<path fill-rule="evenodd" clip-rule="evenodd" d="M221.857 0H50C22.3858 0 0 22.3858 0 50V239.924C0 267.538 22.3858 289.924 50 289.924H223.273C250.887 289.924 273.273 267.538 273.273 239.924V110.066L243.273 141.894V239.924C243.273 250.97 234.319 259.924 223.273 259.924H50C38.9543 259.924 30 250.97 30 239.924V50C30 38.9543 38.9543 30 50 30H193.58L221.857 0Z" fill="#C4C4C4"/>
<rect width="35.9836" height="194.701" rx="5" transform="matrix(0.706789 0.707425 -0.706931 0.707283 249.336 30.0752)" fill="#C4C4C4"/>
<rect width="36.0584" height="24.2625" rx="5" transform="matrix(0.706789 0.707425 -0.706931 0.707283 274.514 4.83203)" fill="#C4C4C4"/>
<path d="M102.852 180.618C103.732 178.411 106.163 177.441 107.488 178.768L126.717 198.014C128.2 199.499 127.207 202.679 124.981 203.567L92.9771 216.345C90.7516 217.233 89.0908 215.113 90.0766 212.642L102.852 180.618Z" fill="#C4C4C4"/>
</svg>
