<svg width="291" height="300" viewBox="0 0 291 300" fill="none" xmlns="http://www.w3.org/2000/svg">
<path fill-rule="evenodd" clip-rule="evenodd" d="M144.105 186.303C187.184 186.303 222.106 146.645 222.106 97.7244C222.106 48.804 187.184 9.14624 144.105 9.14624C101.026 9.14624 66.1031 48.804 66.1031 97.7244C66.1031 146.645 101.026 186.303 144.105 186.303ZM9.72284 238.339L100.938 189.144C108.96 194.484 118.027 198.378 127.767 200.454L144.942 233.104L127.73 300L18.5089 300C8.28671 300 0 291.713 0 281.491V254.63C0 247.825 3.73373 241.569 9.72284 238.339ZM162.154 300L144.942 233.104L162.154 200.383H160.772C170.863 198.186 180.225 194.036 188.443 188.349L281.131 238.339C287.12 241.569 290.854 247.825 290.854 254.63V281.491C290.854 291.713 282.567 300 272.345 300L162.154 300Z" fill="#C4C4C4"/>
<path d="M62.1617 45.6285C60.1086 28.8334 72.0593 13.5539 88.8544 11.5008L181.056 0.229505C197.851 -1.82363 213.13 10.1271 215.184 26.9222L221.778 80.8702L68.7566 99.5765L62.1617 45.6285Z" fill="#C4C4C4"/>
<path d="M42.3369 78.9125C43.9263 91.9143 55.7548 101.166 68.7566 99.5765L221.778 80.8702C234.78 79.2807 244.032 67.4522 242.442 54.4504C242.442 54.4504 201.964 65.3722 143.109 72.5669C84.2546 79.7617 42.3369 78.9125 42.3369 78.9125Z" fill="#C4C4C4"/>
</svg>
