<svg width="296" height="300" viewBox="0 0 296 300" fill="none" xmlns="http://www.w3.org/2000/svg">
<path d="M21.352 263.293H295.921V300H21.352V263.293Z" fill="#C4C4C4"/>
<path fill-rule="evenodd" clip-rule="evenodd" d="M69.2138 11.7651C87.8156 -3.88123 113.525 -3.92754 126.637 11.6617L272.904 185.557C286.017 201.146 281.566 226.468 262.965 242.114L251.467 251.785L125.427 252.012L7.53032 111.845C-5.5821 96.2559 -1.13209 70.9344 17.4697 55.2881L69.2138 11.7651ZM76.1151 26.9374C88.5163 16.5065 105.656 16.4756 114.398 26.8684L169.283 92.1218C178.025 102.515 175.058 119.396 162.657 129.826L117.777 167.576C105.376 178.007 88.2366 178.037 79.4949 167.645L24.6091 102.391C15.8674 91.9984 18.8341 75.1175 31.2353 64.6866L76.1151 26.9374Z" fill="#C4C4C4"/>
</svg>
