<svg width="300" height="300" viewBox="0 0 300 300" fill="none" xmlns="http://www.w3.org/2000/svg">
<path fill-rule="evenodd" clip-rule="evenodd" d="M150 300C232.843 300 300 232.843 300 150C300 67.1572 232.843 0 150 0C67.1572 0 0 67.1572 0 150C0 232.843 67.1572 300 150 300ZM170.672 183.172L176.719 43.25H126.094L132.141 183.172H170.672ZM132.141 209.891C127.266 214.391 124.828 220.016 124.828 226.766C124.828 233.516 127.266 239.188 132.141 243.781C137.016 248.281 143.344 250.531 151.125 250.531C158.906 250.531 165.188 248.281 169.969 243.781C174.844 239.188 177.281 233.516 177.281 226.766C177.281 220.016 174.844 214.391 169.969 209.891C165.188 205.297 158.906 203 151.125 203C143.344 203 137.016 205.297 132.141 209.891Z" fill="#C4C4C4"/>
</svg>
