<svg width="300" height="300" viewBox="0 0 300 300" fill="none" xmlns="http://www.w3.org/2000/svg">
<path fill-rule="evenodd" clip-rule="evenodd" d="M30 50L30 250C30 261.046 38.9543 270 50 270L250 270C261.046 270 270 261.046 270 250L270 50C270 38.9543 261.046 30 250 30L50 30C38.9543 30 30 38.9543 30 50ZM-2.18557e-06 250C-9.78513e-07 277.614 22.3858 300 50 300L250 300C277.614 300 300 277.614 300 250L300 50C300 22.3858 277.614 -1.21349e-05 250 -1.09278e-05L50 -2.18557e-06C22.3858 -9.78513e-07 -1.21349e-05 22.3858 -1.09278e-05 50L-2.18557e-06 250Z" fill="#C4C4C4"/>
<rect width="55.7307" height="167.192" transform="matrix(-0.816427 -0.577449 0.816427 -0.577449 105.5 246.954)" fill="#C4C4C4"/>
<rect width="55.7307" height="167.192" transform="matrix(0.816427 -0.577449 0.816427 0.577449 60 86.0454)" fill="#C4C4C4"/>
</svg>
