<svg width="256" height="300" viewBox="0 0 256 300" fill="none" xmlns="http://www.w3.org/2000/svg">
<path fill-rule="evenodd" clip-rule="evenodd" d="M15 243.745C6.71573 243.745 0 250.461 0 258.745V299.143H255.682V258.745C255.682 250.461 248.966 243.745 240.682 243.745H15ZM148.807 253.972C140.523 253.972 133.807 260.688 133.807 268.972V273.574H242.046V268.972C242.046 260.688 235.33 253.972 227.046 253.972H148.807Z" fill="#C4C4C4"/>
<path fill-rule="evenodd" clip-rule="evenodd" d="M198.556 121.551C201.435 124.43 206.362 122.846 207.025 118.831L219.949 40.5704C220.507 37.1917 217.58 34.2646 214.201 34.8226L135.941 47.7464C131.925 48.4096 130.342 53.3371 133.22 56.2152L147.541 70.5361C149.494 72.4887 149.494 75.6545 147.541 77.6071L101.421 123.727C99.4683 125.68 99.4683 128.846 101.421 130.798L124.59 153.968C126.543 155.92 129.709 155.92 131.662 153.968L177.782 107.848C179.734 105.895 182.9 105.895 184.853 107.848L198.556 121.551ZM102.669 182.96C104.622 181.008 104.622 177.842 102.669 175.889L79.4996 152.72C77.547 150.767 74.3812 150.767 72.4285 152.72L66.712 158.436C64.7594 160.389 64.7594 163.555 66.712 165.507L89.8816 188.677C91.8342 190.629 95 190.629 96.9526 188.677L102.669 182.96ZM67.9602 217.669C69.9128 215.716 69.9128 212.551 67.9602 210.598L44.7907 187.429C42.8381 185.476 39.6722 185.476 37.7196 187.429L27.1318 198.016C25.1792 199.969 25.1792 203.135 27.1318 205.087L50.3013 228.257C52.254 230.21 55.4198 230.21 57.3724 228.257L67.9602 217.669Z" fill="#C4C4C4"/>
</svg>
