<svg width="300" height="300" viewBox="0 0 300 300" fill="none" xmlns="http://www.w3.org/2000/svg">
<path fill-rule="evenodd" clip-rule="evenodd" d="M231.053 247.202L192.93 279.904V279.587C180.291 292.564 165.584 300 149.887 300C134.284 300 119.658 292.652 107.07 279.818V279.904L68.9473 247.202L61.3232 240.662L17.0007 202.642C-5.66691 183.198 -5.66692 116.802 17.0007 97.3579L61.3232 59.338L68.9473 52.798L68.9666 52.7814L107.07 20.0962V20.182C119.658 7.34834 134.284 0 149.887 0C165.584 0 180.291 7.43638 192.93 20.4125V20.0962L231.04 52.7872L231.053 52.798L238.677 59.338L282.999 97.3579C305.667 116.802 305.667 183.198 282.999 202.642L238.677 240.662L231.053 247.202ZM150.191 278.232C162.81 278.232 174.547 270.427 184.335 257.024L280.938 169.715C289.505 161.971 289.505 136.841 280.938 129.098L179.651 37.5559C170.891 27.7385 160.856 22.1635 150.191 22.1635C139.774 22.1635 129.957 27.4833 121.342 36.8809L18.8708 129.494C10.3031 137.237 10.3031 162.367 18.8708 170.111L118.324 259.996C127.634 271.574 138.537 278.232 150.191 278.232ZM214 134.248C214 180.528 185.273 218.045 149.836 218.045C114.399 218.045 85.6714 180.528 85.6714 134.248C85.6714 87.9684 114.399 50.4514 149.836 50.4514C159.803 50.4514 169.239 53.4193 177.655 58.7153C164.834 62.8176 155.322 77.924 155.322 95.932C155.322 117.093 168.457 134.248 184.661 134.248C196.69 134.248 207.028 124.794 211.557 111.264C213.148 118.568 214 126.278 214 134.248Z" fill="#C4C4C4"/>
</svg>
