<svg width="300" height="298" viewBox="0 0 300 298" fill="none" xmlns="http://www.w3.org/2000/svg">
<path fill-rule="evenodd" clip-rule="evenodd" d="M0 149.996C0 149.999 0 150.001 0 150.004C0.0006917 171.463 5.66761 192.921 17.0007 202.642L61.3232 240.662L68.9473 247.202L73.4638 251.076L44.186 298H96.4787L283 0.350964L229.903 0.350983L208.988 33.8712L192.93 20.0962V20.4125C180.291 7.43638 165.584 0 149.887 0C134.284 0 119.658 7.34834 107.07 20.182V20.0962L68.9666 52.7814L68.9473 52.798L61.3232 59.338L17.0007 97.3579C5.66761 107.079 0.00069174 128.537 0 149.996ZM163.869 298H148.479L162.434 275.73C170.392 272.43 177.798 265.975 184.335 257.024L280.938 169.715C289.505 161.971 289.505 136.841 280.938 129.098L263.945 113.74L277.283 92.4547L282.999 97.3579C294.333 107.08 300 128.54 300 150C300 171.46 294.333 192.92 282.999 202.642L238.677 240.662L231.053 247.202L192.93 279.904V279.587C184.125 288.627 174.317 294.979 163.869 298ZM107.249 196.928L86.081 230.855L18.8708 170.111C10.3031 162.367 10.3031 137.237 18.8708 129.494L121.342 36.8809C129.957 27.4833 139.774 22.1635 150.191 22.1635C160.856 22.1635 170.891 27.7385 179.651 37.5559L196.94 53.1813L158.866 114.203C156.606 108.772 155.322 102.548 155.322 95.932C155.322 77.924 164.834 62.8176 177.655 58.7153C169.239 53.4193 159.803 50.4514 149.836 50.4514C114.399 50.4514 85.6714 87.9684 85.6714 134.248C85.6714 159.185 94.0123 181.578 107.249 196.928Z" fill="#C4C4C4"/>
</svg>
