<svg width="300" height="33" viewBox="0 0 300 33" fill="none" xmlns="http://www.w3.org/2000/svg">
<path d="M29.7342 0.448479C30.0631 0.448479 30.3471 0.568074 30.5863 0.807264C30.8255 1.04645 30.9451 1.33049 30.9451 1.65938V8.47627C30.9451 8.80515 30.8255 9.08919 30.5863 9.32838C30.3471 9.56757 30.0631 9.68716 29.7342 9.68716H12.109V12.5574H26.8191C27.148 12.5574 27.432 12.677 27.6712 12.9162C27.9104 13.1554 28.03 13.4394 28.03 13.7683V20.5404C28.03 20.8693 27.9104 21.1533 27.6712 21.3925C27.432 21.6317 27.148 21.7513 26.8191 21.7513H12.109V30.6312C12.109 30.9601 11.9894 31.2441 11.7502 31.4833C11.511 31.7225 11.2269 31.8421 10.8981 31.8421H1.2109C0.88201 31.8421 0.597973 31.7225 0.358784 31.4833C0.119595 31.2441 0 30.9601 0 30.6312V1.65938C0 1.33049 0.119595 1.04645 0.358784 0.807264C0.597973 0.568074 0.88201 0.448479 1.2109 0.448479H29.7342Z" fill="#C4C4C4"/>
<path d="M46.2207 30.3172C45.8321 31.3338 45.1593 31.8421 44.2026 31.8421H35.7263C35.4572 31.8421 35.218 31.7524 35.0087 31.573C34.8294 31.3637 34.7397 31.1245 34.7397 30.8554L34.7845 30.5863L44.5614 1.92846C44.681 1.53978 44.9052 1.19595 45.2341 0.896959C45.563 0.597972 46.0115 0.448479 46.5795 0.448479H59.0473C59.6153 0.448479 60.0638 0.597972 60.3927 0.896959C60.7216 1.19595 60.9458 1.53978 61.0654 1.92846L70.8423 30.5863L70.8871 30.8554C70.8871 31.1245 70.7825 31.3637 70.5732 31.573C70.3938 31.7524 70.1696 31.8421 69.9005 31.8421H61.4242C60.4674 31.8421 59.7947 31.3338 59.406 30.3172L58.2848 27.1779H47.3419L46.2207 30.3172ZM52.8134 9.10414L49.6292 18.4325H55.9976L52.8134 9.10414Z" fill="#C4C4C4"/>
<path d="M86.6561 19.7331C86.6561 20.959 87.0597 21.9008 87.867 22.5585C88.7041 23.2163 89.8254 23.5452 91.2306 23.5452C92.4863 23.5452 93.4132 23.3359 94.0112 22.9173C94.6091 22.4987 95.1174 21.8709 95.536 21.0337C95.9247 20.2563 96.4479 19.8677 97.1057 19.8677H106.793C107.062 19.8677 107.286 19.9723 107.466 20.1816C107.675 20.361 107.779 20.5852 107.779 20.8543C107.779 22.6781 107.167 24.472 105.941 26.2361C104.715 27.9702 102.846 29.4203 100.335 30.5863C97.8531 31.7225 94.8184 32.2905 91.2306 32.2905C88.0314 32.2905 85.1761 31.8122 82.6646 30.8554C80.183 29.8688 78.2097 28.3738 76.7447 26.3706C75.2797 24.3375 74.5471 21.8111 74.5471 18.7913V13.4992C74.5471 10.4795 75.2797 7.96799 76.7447 5.96478C78.2097 3.93167 80.183 2.43674 82.6646 1.47998C85.1761 0.493328 88.0314 0 91.2306 0C94.8184 0 97.8531 0.583024 100.335 1.74907C102.846 2.88522 104.715 4.33531 105.941 6.09933C107.167 7.83345 107.779 9.61242 107.779 11.4362C107.779 11.7053 107.675 11.9445 107.466 12.1538C107.286 12.3332 107.062 12.4229 106.793 12.4229H97.1057C96.4479 12.4229 95.9247 12.0342 95.536 11.2568C95.1174 10.4197 94.6091 9.79181 94.0112 9.37323C93.4132 8.95465 92.4863 8.74535 91.2306 8.74535C89.8254 8.74535 88.7041 9.07424 87.867 9.73201C87.0597 10.3898 86.6561 11.3316 86.6561 12.5574V19.7331Z" fill="#C4C4C4"/>
<path d="M143.416 23.0967C143.745 23.0967 144.029 23.2163 144.268 23.4555C144.507 23.6947 144.627 23.9787 144.627 24.3076V30.6312C144.627 30.9601 144.507 31.2441 144.268 31.4833C144.029 31.7225 143.745 31.8421 143.416 31.8421H115.072C114.743 31.8421 114.459 31.7225 114.22 31.4833C113.981 31.2441 113.861 30.9601 113.861 30.6312V1.65938C113.861 1.33049 113.981 1.04645 114.22 0.807264C114.459 0.568074 114.743 0.448479 115.072 0.448479H142.968C143.297 0.448479 143.581 0.568074 143.82 0.807264C144.059 1.04645 144.179 1.33049 144.179 1.65938V7.98294C144.179 8.31182 144.059 8.59586 143.82 8.83505C143.581 9.07424 143.297 9.19384 142.968 9.19384H125.522V12.0193H140.501C140.83 12.0193 141.114 12.1389 141.353 12.378C141.592 12.6172 141.712 12.9013 141.712 13.2302V19.0604C141.712 19.3893 141.592 19.6733 141.353 19.9125C141.114 20.1517 140.83 20.2713 140.501 20.2713H125.522V23.0967H143.416Z" fill="#C4C4C4"/>
<path d="M179.815 15.4726C180.981 15.8313 181.983 16.6236 182.82 17.8495C183.657 19.0454 184.076 20.4208 184.076 21.9755C184.076 25.2943 182.999 27.7758 180.847 29.4203C178.694 31.0348 175.555 31.8421 171.429 31.8421H152.951C152.622 31.8421 152.338 31.7225 152.099 31.4833C151.86 31.2441 151.74 30.9601 151.74 30.6312V1.65938C151.74 1.33049 151.86 1.04645 152.099 0.807264C152.338 0.568074 152.622 0.448479 152.951 0.448479H170.98C175.226 0.448479 178.35 1.22584 180.353 2.78058C182.386 4.30541 183.403 6.62255 183.403 9.73201V9.86656C183.403 11.3017 183.014 12.5275 182.237 13.5441C181.46 14.5606 180.652 15.2035 179.815 15.4726ZM171.249 10.1356C171.249 9.59747 171.085 9.13404 170.756 8.74535C170.457 8.35667 170.008 8.16233 169.41 8.16233H163.401V12.2435H169.41C170.008 12.2435 170.457 12.0342 170.756 11.6156C171.085 11.1671 171.249 10.6738 171.249 10.1356ZM169.904 24.1282C170.591 24.1282 171.1 23.904 171.429 23.4555C171.787 22.9771 171.967 22.4539 171.967 21.8858V21.841C171.967 21.2729 171.772 20.7796 171.384 20.361C171.025 19.9424 170.532 19.7331 169.904 19.7331H163.401V24.1282H169.904Z" fill="#C4C4C4"/>
<path d="M221.775 18.881C221.775 23.4555 220.251 26.834 217.201 29.0166C214.181 31.1992 210.145 32.2905 205.092 32.2905C200.039 32.2905 195.988 31.1992 192.938 29.0166C189.918 26.834 188.408 23.4256 188.408 18.7913V13.4992C188.408 10.4496 189.126 7.92314 190.561 5.91993C192.026 3.88683 194.014 2.39189 196.526 1.43514C199.037 0.478378 201.893 0 205.092 0C208.291 0 211.131 0.478378 213.613 1.43514C216.124 2.39189 218.113 3.87188 219.578 5.87508C221.043 7.87829 221.775 10.3898 221.775 13.4095V18.881ZM200.517 19.7331C200.517 20.959 200.921 21.9008 201.728 22.5585C202.565 23.2163 203.687 23.5452 205.092 23.5452C206.497 23.5452 207.603 23.2163 208.411 22.5585C209.248 21.8709 209.666 20.9141 209.666 19.6883V12.6023C209.666 11.3764 209.248 10.4346 208.411 9.77686C207.603 9.08919 206.497 8.74535 205.092 8.74535C203.687 8.74535 202.565 9.07424 201.728 9.73201C200.921 10.3898 200.517 11.3316 200.517 12.5574V19.7331Z" fill="#C4C4C4"/>
<path d="M259.879 18.881C259.879 23.4555 258.354 26.834 255.304 29.0166C252.284 31.1992 248.248 32.2905 243.195 32.2905C238.142 32.2905 234.091 31.1992 231.041 29.0166C228.022 26.834 226.512 23.4256 226.512 18.7913V13.4992C226.512 10.4496 227.229 7.92314 228.664 5.91993C230.129 3.88683 232.118 2.39189 234.629 1.43514C237.141 0.478378 239.996 0 243.195 0C246.394 0 249.235 0.478378 251.716 1.43514C254.228 2.39189 256.216 3.87188 257.681 5.87508C259.146 7.87829 259.879 10.3898 259.879 13.4095V18.881ZM238.621 19.7331C238.621 20.959 239.024 21.9008 239.832 22.5585C240.669 23.2163 241.79 23.5452 243.195 23.5452C244.6 23.5452 245.707 23.2163 246.514 22.5585C247.351 21.8709 247.77 20.9141 247.77 19.6883V12.6023C247.77 11.3764 247.351 10.4346 246.514 9.77686C245.707 9.08919 244.6 8.74535 243.195 8.74535C241.79 8.74535 240.669 9.07424 239.832 9.73201C239.024 10.3898 238.621 11.3316 238.621 12.5574V19.7331Z" fill="#C4C4C4"/>
<path d="M299.821 30.2724C299.94 30.4518 300 30.6461 300 30.8554C300 31.1245 299.895 31.3637 299.686 31.573C299.507 31.7524 299.282 31.8421 299.013 31.8421H287.443C286.755 31.8421 286.217 31.6029 285.828 31.1245L278.024 21.4822V30.6312C278.024 30.9601 277.905 31.2441 277.666 31.4833C277.427 31.7225 277.142 31.8421 276.814 31.8421H267.575C267.246 31.8421 266.962 31.7225 266.723 31.4833C266.484 31.2441 266.364 30.9601 266.364 30.6312V1.65938C266.364 1.33049 266.484 1.04645 266.723 0.807264C266.962 0.568074 267.246 0.448479 267.575 0.448479H276.814C277.142 0.448479 277.427 0.568074 277.666 0.807264C277.905 1.04645 278.024 1.33049 278.024 1.65938V10.0908L285.11 1.2109C285.559 0.702618 286.112 0.448479 286.77 0.448479H297.578C297.847 0.448479 298.072 0.553125 298.251 0.762416C298.46 0.941808 298.565 1.16605 298.565 1.43514C298.565 1.67432 298.49 1.88362 298.341 2.06301L287.712 15.0241L299.821 30.2724Z" fill="#C4C4C4"/>
</svg>
