<svg width="300" height="300" viewBox="0 0 300 300" fill="none" xmlns="http://www.w3.org/2000/svg">
<path fill-rule="evenodd" clip-rule="evenodd" d="M162.057 299.522C239.262 293.382 300 228.784 300 150C300 67.1573 232.843 0 150 0C67.1573 0 0 67.1573 0 150C0 226.137 56.7255 289.025 130.219 298.707V157.626H104V131.439H130.219V112.36C130.469 92.9065 135.338 78.3166 144.827 68.5899C154.316 58.8633 168.174 54 186.403 54C194.643 54 202.509 54.8729 210 56.6187V82.0576C202.509 80.8106 194.768 80.1871 186.777 80.1871C179.037 80.1871 172.919 82.6811 168.424 87.6691C164.179 92.6571 162.057 100.264 162.057 110.489V131.439H199.512V157.626H162.057V299.522Z" fill="#C4C4C4"/>
</svg>
