<svg width="292" height="301" viewBox="0 0 292 301" fill="none" xmlns="http://www.w3.org/2000/svg">
<path fill-rule="evenodd" clip-rule="evenodd" d="M48.248 18.4047C44.8213 19.9365 42.7184 23.3667 42.7184 27.1202V153.17C42.7184 160.253 49.8923 165.172 56.5729 162.819C74.2191 156.603 104.943 146.976 125.981 146.976C141.052 146.976 152.711 151.917 164.717 157.005C177.462 162.405 190.598 167.971 208.621 167.971C236.096 167.971 271.354 155.037 285.25 149.472C288.93 147.999 291.262 144.419 291.262 140.455V15.2924C291.262 8.08295 283.825 3.13 277.061 5.62424C260.195 11.8435 231.471 21.0054 208.621 21.0054C192.191 21.0054 182.257 16.2683 171.827 11.2943C160.298 5.79693 148.163 0.0102539 125.981 0.0102539C93.0223 0.0102539 60.8201 12.7848 48.248 18.4047ZM25.2427 8.74812H0V300.01H25.2427V8.74812Z" fill="#C4C4C4"/>
</svg>
