<svg width="300" height="210" viewBox="0 0 300 210" fill="none" xmlns="http://www.w3.org/2000/svg">
<path fill-rule="evenodd" clip-rule="evenodd" d="M289.951 55.0103H30.333L2.35003 197.078C1.13279 203.257 5.86293 209.01 12.1615 209.01H250.36C254.792 209.01 258.695 206.094 259.951 201.844L299.541 67.8437C301.435 61.4363 296.632 55.0103 289.951 55.0103ZM39.1902 75.2226C36.5323 75.2226 34.3777 77.3772 34.3777 80.0351C34.3777 82.693 36.5323 84.8476 39.1902 84.8476H278.299C280.956 84.8476 283.111 82.693 283.111 80.0351C283.111 77.3772 280.956 75.2226 278.299 75.2226H39.1902Z" fill="#C4C4C4"/>
<path fill-rule="evenodd" clip-rule="evenodd" d="M89.989 9.76025C89.989 4.37548 85.6237 0.0102539 80.239 0.0102539H22.8945C17.5097 0.0102539 13.1445 4.37548 13.1445 9.76025C13.1445 15.145 17.5097 19.5102 22.8945 19.5102H80.239C85.6237 19.5102 89.989 15.145 89.989 9.76025ZM288.167 29.2603C288.167 23.8756 283.802 19.5103 278.417 19.5103H9.75C4.36522 19.5103 0 23.8756 0 29.2603C0 34.6451 4.36523 39.0103 9.75 39.0103H278.417C283.802 39.0103 288.167 34.6451 288.167 29.2603Z" fill="#C4C4C4"/>
<path d="M0 30.0103H19.2111L0 175.01V30.0103Z" fill="#C4C4C4"/>
</svg>
