<svg width="300" height="210" viewBox="0 0 300 210" fill="none" xmlns="http://www.w3.org/2000/svg">
<path fill-rule="evenodd" clip-rule="evenodd" d="M290 49.0103H0V199.01C0 204.533 4.47716 209.01 10 209.01H290C295.523 209.01 300 204.533 300 199.01V59.0103C300 53.4874 295.523 49.0103 290 49.0103ZM32 70.0103C29.2386 70.0103 27 72.2488 27 75.0103C27 77.7717 29.2386 80.0103 32 80.0103H268C270.761 80.0103 273 77.7717 273 75.0103C273 72.2488 270.761 70.0103 268 70.0103H32Z" fill="#C4C4C4"/>
<path fill-rule="evenodd" clip-rule="evenodd" d="M89 9.76025C89 4.37548 84.6348 0.0102539 79.25 0.0102539H22.75C17.3652 0.0102539 13 4.37548 13 9.76025V13.0103C13 16.6001 10.0899 19.5103 6.5 19.5103C2.91015 19.5103 0 22.4204 0 26.0103V29.2603C0 34.645 4.36523 39.0103 9.75001 39.0103H290.25C295.635 39.0103 300 34.645 300 29.2603C300 23.8755 295.635 19.5103 290.25 19.5103H98.75C93.3652 19.5103 89 15.145 89 9.76025Z" fill="#C4C4C4"/>
</svg>
