<svg width="300" height="284" viewBox="0 0 300 284" fill="none" xmlns="http://www.w3.org/2000/svg">
<path fill-rule="evenodd" clip-rule="evenodd" d="M209.357 93.5103H9.75C4.36522 93.5103 0 97.8756 0 103.26C0 103.513 0.00957889 103.763 0.0283928 104.01H0V249.01L18.0187 113.01H209.357V93.5103ZM277.024 113.01H278.417C283.802 113.01 288.167 108.645 288.167 103.26C288.167 97.8756 283.802 93.5103 278.417 93.5103H277.024V113.01ZM80.239 74.0103C85.6237 74.0103 89.989 78.3755 89.989 83.7603C89.989 89.145 85.6237 93.5102 80.239 93.5102H22.8945C17.5097 93.5102 13.1445 89.145 13.1445 83.7603C13.1445 78.3755 17.5097 74.0103 22.8945 74.0103H80.239ZM30.3331 129.01H289.951C296.632 129.01 301.435 135.436 299.541 141.844L259.951 275.844C258.695 280.094 254.792 283.01 250.36 283.01H12.1615C5.86297 283.01 1.13282 277.258 2.35007 271.078L30.3331 129.01ZM34.3777 154.035C34.3777 151.377 36.5323 149.223 39.1902 149.223H278.299C280.957 149.223 283.111 151.377 283.111 154.035C283.111 156.693 280.957 158.848 278.299 158.848H39.1902C36.5323 158.848 34.3777 156.693 34.3777 154.035Z" fill="#C4C4C4"/>
<path d="M264.991 113.335H222.225V66.8027H264.991V113.335Z" fill="#C4C4C4"/>
<path d="M243.172 0.499512L299.105 78.5608L187.238 78.5608L243.172 0.499512Z" fill="#C4C4C4"/>
</svg>
