<svg width="300" height="301" viewBox="0 0 300 301" fill="none" xmlns="http://www.w3.org/2000/svg">
<path d="M143.335 104.393L103.429 144.076L52.1217 93.0552L92.0274 53.3721L143.335 104.393Z" fill="#C4C4C4"/>
<path d="M1.00135e-05 2.3511L126.72 23.1609L20.9265 128.365L1.00135e-05 2.3511Z" fill="#C4C4C4"/>
<path d="M197.385 142.545L157.48 102.862L208.787 51.841L248.692 91.524L197.385 142.545Z" fill="#C4C4C4"/>
<path d="M300 0.0102539L279.073 126.024L173.28 20.8201L300 0.0102539Z" fill="#C4C4C4"/>
<path d="M156.665 195.627L196.571 155.943L247.878 206.965L207.973 246.648L156.665 195.627Z" fill="#C4C4C4"/>
<path d="M300 297.669L173.279 276.859L279.073 171.655L300 297.669Z" fill="#C4C4C4"/>
<path d="M102.614 157.475L142.52 197.158L91.2129 248.18L51.3072 208.496L102.614 157.475Z" fill="#C4C4C4"/>
<path d="M0 300.01L20.9265 173.997L126.72 279.2L0 300.01Z" fill="#C4C4C4"/>
</svg>
