<svg width="300" height="300" viewBox="0 0 300 300" fill="none" xmlns="http://www.w3.org/2000/svg">
<path fill-rule="evenodd" clip-rule="evenodd" d="M150 300C232.843 300 300 232.843 300 150C300 67.1573 232.843 0 150 0C67.1573 0 0 67.1573 0 150C0 232.843 67.1573 300 150 300ZM150 276.407C219.813 276.407 276.407 219.813 276.407 150C276.407 80.1872 219.813 23.5927 150 23.5927C80.1872 23.5927 23.5927 80.1872 23.5927 150C23.5927 219.813 80.1872 276.407 150 276.407Z" fill="#C4C4C4"/>
<path d="M111.315 260.741C111.315 281.971 128.525 299.181 149.755 299.181H150.608C171.837 299.181 189.047 281.971 189.047 260.741V249.636C189.047 228.171 171.646 210.77 150.181 210.77V210.77C128.716 210.77 111.315 228.171 111.315 249.636V260.741Z" fill="#C4C4C4"/>
<path fill-rule="evenodd" clip-rule="evenodd" d="M123.228 217.875C118.615 217.391 98.9398 214.901 82.507 206.3C66.6133 197.98 57.1755 177.243 56.3067 171.035C56.1121 169.645 55.706 168.037 55.2261 166.137C53.5626 159.552 51.0136 149.462 53.3265 132.79C56.3067 111.308 68.5997 101.622 68.5997 101.622C68.5997 101.622 64.6265 93.4271 65.1232 81.6308C65.6199 69.8345 70.0901 60.6457 70.0901 60.6457C70.0901 60.6457 77.1679 58.7831 90.7027 64.3708C103.38 69.6044 110.719 75.7094 111.598 76.4623C114.027 75.8057 131.708 71.2005 149.871 71.2005C149.918 71.2005 149.966 71.2005 150.014 71.2005C150.09 71.2004 150.167 71.2003 150.243 71.2003C168.407 71.2003 186.088 75.8059 188.516 76.4622C189.397 75.7084 196.736 69.604 209.411 64.371C222.946 58.7832 230.024 60.6458 230.024 60.6458C230.024 60.6458 234.494 69.8346 234.991 81.6309C235.488 93.4272 231.514 101.623 231.514 101.623C231.514 101.623 243.807 111.308 246.788 132.79C249.1 149.462 246.551 159.553 244.888 166.137C244.408 168.037 244.002 169.645 243.807 171.035C242.939 177.243 233.501 197.98 217.607 206.3C201.174 214.902 181.499 217.391 176.886 217.875L176.878 217.972H175.887C175.886 217.972 175.885 217.972 175.885 217.972H123.236L123.228 217.875Z" fill="#C4C4C4"/>
</svg>
