<svg width="300" height="300" viewBox="0 0 300 300" fill="none" xmlns="http://www.w3.org/2000/svg">
<path fill-rule="evenodd" clip-rule="evenodd" d="M223.824 280.606C202.029 292.952 176.838 300 150 300C99.6528 300 55.0991 275.195 27.8928 237.14L68.2398 204.05C85.7836 230.535 115.852 248 150 248C163.861 248 177.049 245.123 189.001 239.932L223.824 280.606ZM240.657 269.514C276.717 242.119 300 198.779 300 150C300 144.595 299.714 139.257 299.157 134H246.7C246.707 134.041 246.714 134.082 246.72 134.123C246.729 134.173 246.737 134.223 246.745 134.273L184 134V183H242.305C235.492 202.054 222.947 218.383 206.747 229.908L240.657 269.514ZM58.7956 185.929C54.4095 174.804 52 162.683 52 150C52 134.796 55.4621 120.402 61.6408 107.561L18.4365 77.8927C6.68425 99.2897 0 123.864 0 150C0 175.271 6.24914 199.082 17.2864 219.973L58.7956 185.929ZM29.2184 61.0351C56.5332 24.0136 100.462 0 150 0C185.084 0 217.355 12.0452 242.904 32.2256L204.188 68.3318C188.667 58.0125 170.036 52 150 52C118.254 52 90.0337 67.0947 72.1247 90.4984L29.2184 61.0351Z" fill="#C4C4C4"/>
</svg>
