<svg width="228" height="33" viewBox="0 0 228 33" fill="none" xmlns="http://www.w3.org/2000/svg">
<path d="M33.3208 13.2C33.6569 13.2 33.9472 13.3222 34.1917 13.5667C34.4361 13.8111 34.5583 14.1014 34.5583 14.4375V19.2958C34.5583 23.9403 32.9694 27.3931 29.7917 29.6542C26.6444 31.8847 22.4736 33 17.2792 33C12.0847 33 7.89861 31.8847 4.72083 29.6542C1.57361 27.3931 0 23.9097 0 19.2042V13.7958C0 10.6792 0.763889 8.09722 2.29167 6.05C3.81944 3.97222 5.88194 2.44444 8.47917 1.46667C11.0764 0.488889 14.0097 0 17.2792 0C21.1903 0 24.4139 0.641667 26.95 1.925C29.4861 3.20833 31.3194 4.65972 32.45 6.27917C33.6111 7.89861 34.1917 9.2125 34.1917 10.2208C34.1917 10.4958 34.0847 10.7403 33.8708 10.9542C33.6875 11.1375 33.4583 11.2292 33.1833 11.2292H22.825C22.2139 11.2292 21.7708 11.0611 21.4958 10.725C20.5486 9.53333 19.1431 8.9375 17.2792 8.9375C15.8736 8.9375 14.6972 9.25833 13.75 9.9C12.8333 10.5417 12.375 11.3667 12.375 12.375V20.1667C12.375 21.3889 12.8333 22.3514 13.75 23.0542C14.6667 23.7264 15.8431 24.0625 17.2792 24.0625C19.1736 24.0625 20.5639 23.7417 21.45 23.1C22.3667 22.4278 22.8403 21.6486 22.8708 20.7625H20.0292C19.6931 20.7625 19.4028 20.6403 19.1583 20.3958C18.9139 20.1514 18.7917 19.8611 18.7917 19.525V14.4375C18.7917 14.1014 18.9139 13.8111 19.1583 13.5667C19.4028 13.3222 19.6931 13.2 20.0292 13.2H33.3208Z" fill="#C4C4C4"/>
<path d="M72.8113 19.2958C72.8113 23.9708 71.2529 27.4236 68.1363 29.6542C65.0502 31.8847 60.9252 33 55.7613 33C50.5974 33 46.4571 31.8847 43.3404 29.6542C40.2543 27.4236 38.7113 23.9403 38.7113 19.2042V13.7958C38.7113 10.6792 39.4446 8.09722 40.9113 6.05C42.4085 3.97222 44.4404 2.44444 47.0071 1.46667C49.5738 0.488889 52.4918 0 55.7613 0C59.0307 0 61.9335 0.488889 64.4696 1.46667C67.0363 2.44444 69.0682 3.95694 70.5654 6.00417C72.0627 8.05139 72.8113 10.6181 72.8113 13.7042V19.2958ZM51.0863 20.1667C51.0863 21.4194 51.4988 22.3819 52.3238 23.0542C53.1793 23.7264 54.3251 24.0625 55.7613 24.0625C57.1974 24.0625 58.3279 23.7264 59.1529 23.0542C60.0085 22.3514 60.4363 21.3736 60.4363 20.1208V12.8792C60.4363 11.6264 60.0085 10.6639 59.1529 9.99167C58.3279 9.28889 57.1974 8.9375 55.7613 8.9375C54.3251 8.9375 53.1793 9.27361 52.3238 9.94583C51.4988 10.6181 51.0863 11.5806 51.0863 12.8333V20.1667Z" fill="#C4C4C4"/>
<path d="M111.752 19.2958C111.752 23.9708 110.193 27.4236 107.077 29.6542C103.991 31.8847 99.8656 33 94.7017 33C89.5378 33 85.3975 31.8847 82.2809 29.6542C79.1947 27.4236 77.6517 23.9403 77.6517 19.2042V13.7958C77.6517 10.6792 78.385 8.09722 79.8517 6.05C81.3489 3.97222 83.3809 2.44444 85.9475 1.46667C88.5142 0.488889 91.4323 0 94.7017 0C97.9711 0 100.874 0.488889 103.41 1.46667C105.977 2.44444 108.009 3.95694 109.506 6.00417C111.003 8.05139 111.752 10.6181 111.752 13.7042V19.2958ZM90.0267 20.1667C90.0267 21.4194 90.4392 22.3819 91.2642 23.0542C92.1198 23.7264 93.2656 24.0625 94.7017 24.0625C96.1378 24.0625 97.2684 23.7264 98.0934 23.0542C98.9489 22.3514 99.3767 21.3736 99.3767 20.1208V12.8792C99.3767 11.6264 98.9489 10.6639 98.0934 9.99167C97.2684 9.28889 96.1378 8.9375 94.7017 8.9375C93.2656 8.9375 92.1198 9.27361 91.2642 9.94583C90.4392 10.6181 90.0267 11.5806 90.0267 12.8333V20.1667Z" fill="#C4C4C4"/>
<path d="M150.142 13.2C150.478 13.2 150.769 13.3222 151.013 13.5667C151.257 13.8111 151.38 14.1014 151.38 14.4375V19.2958C151.38 23.9403 149.791 27.3931 146.613 29.6542C143.466 31.8847 139.295 33 134.1 33C128.906 33 124.72 31.8847 121.542 29.6542C118.395 27.3931 116.821 23.9097 116.821 19.2042V13.7958C116.821 10.6792 117.585 8.09722 119.113 6.05C120.641 3.97222 122.703 2.44444 125.3 1.46667C127.898 0.488889 130.831 0 134.1 0C138.012 0 141.235 0.641667 143.771 1.925C146.307 3.20833 148.141 4.65972 149.271 6.27917C150.432 7.89861 151.013 9.2125 151.013 10.2208C151.013 10.4958 150.906 10.7403 150.692 10.9542C150.509 11.1375 150.28 11.2292 150.005 11.2292H139.646C139.035 11.2292 138.592 11.0611 138.317 10.725C137.37 9.53333 135.964 8.9375 134.1 8.9375C132.695 8.9375 131.519 9.25833 130.571 9.9C129.655 10.5417 129.196 11.3667 129.196 12.375V20.1667C129.196 21.3889 129.655 22.3514 130.571 23.0542C131.488 23.7264 132.664 24.0625 134.1 24.0625C135.995 24.0625 137.385 23.7417 138.271 23.1C139.188 22.4278 139.662 21.6486 139.692 20.7625H136.85C136.514 20.7625 136.224 20.6403 135.98 20.3958C135.735 20.1514 135.613 19.8611 135.613 19.525V14.4375C135.613 14.1014 135.735 13.8111 135.98 13.5667C136.224 13.3222 136.514 13.2 136.85 13.2H150.142Z" fill="#C4C4C4"/>
<path d="M187.524 23.1458C187.86 23.1458 188.151 23.2681 188.395 23.5125C188.639 23.7569 188.762 24.0472 188.762 24.3833V31.3042C188.762 31.6403 188.639 31.9306 188.395 32.175C188.151 32.4194 187.86 32.5417 187.524 32.5417H160.758C160.421 32.5417 160.131 32.4194 159.887 32.175C159.642 31.9306 159.52 31.6403 159.52 31.3042V1.69583C159.52 1.35972 159.642 1.06945 159.887 0.825C160.131 0.580555 160.421 0.458333 160.758 0.458333H170.658C170.994 0.458333 171.284 0.580555 171.528 0.825C171.773 1.06945 171.895 1.35972 171.895 1.69583V23.1458H187.524Z" fill="#C4C4C4"/>
<path d="M226.373 23.6042C226.709 23.6042 226.999 23.7264 227.244 23.9708C227.488 24.2153 227.61 24.5056 227.61 24.8417V31.3042C227.61 31.6403 227.488 31.9306 227.244 32.175C226.999 32.4194 226.709 32.5417 226.373 32.5417H197.406C197.07 32.5417 196.78 32.4194 196.535 32.175C196.291 31.9306 196.169 31.6403 196.169 31.3042V1.69583C196.169 1.35972 196.291 1.06945 196.535 0.825C196.78 0.580555 197.07 0.458333 197.406 0.458333H225.915C226.251 0.458333 226.541 0.580555 226.785 0.825C227.03 1.06945 227.152 1.35972 227.152 1.69583V8.15833C227.152 8.49444 227.03 8.78472 226.785 9.02917C226.541 9.27361 226.251 9.39583 225.915 9.39583H208.085V12.2833H223.394C223.73 12.2833 224.02 12.4056 224.265 12.65C224.509 12.8944 224.631 13.1847 224.631 13.5208V19.4792C224.631 19.8153 224.509 20.1056 224.265 20.35C224.02 20.5944 223.73 20.7167 223.394 20.7167H208.085V23.6042H226.373Z" fill="#C4C4C4"/>
</svg>
