<svg width="265" height="301" viewBox="0 0 265 301" fill="none" xmlns="http://www.w3.org/2000/svg">
<path d="M173.684 75.1643C173.684 109.373 145.873 143.529 131.967 156.331C117.742 142.078 89.2905 106.681 89.2905 79.1236C89.2905 51.5665 117.742 44.4132 131.967 44.2812C154.504 44.2812 172.246 57.3472 173.684 75.1643Z" fill="#C4C4C4"/>
<path d="M89.2904 81.177C89.2904 46.9681 117.102 12.812 131.008 0.0100677C145.233 14.2638 173.684 49.6605 173.684 77.2177C173.684 104.775 145.233 111.928 131.008 112.06C108.471 112.06 90.7289 98.9941 89.2904 81.177Z" fill="#C4C4C4"/>
<path d="M223.355 161.764C204.661 180.458 170.798 183.925 156.203 183.321C156.218 167.758 160.014 132.868 175.073 117.809C190.132 102.75 209.589 114.388 217.435 122.09C229.75 134.406 232.306 151.241 223.355 161.764Z" fill="#C4C4C4"/>
<path d="M173.951 118.931C192.645 100.237 226.508 96.7702 241.103 97.3734C241.088 112.936 237.292 147.827 222.233 162.886C207.174 177.945 187.717 166.307 179.871 158.605C167.556 146.289 165 129.454 173.951 118.931Z" fill="#C4C4C4"/>
<path d="M44.3556 165.051C25.6615 146.356 22.1945 112.493 22.7977 97.8983C38.3607 97.9137 73.2513 101.709 88.3104 116.768C103.369 131.827 91.731 151.284 84.0293 159.13C71.7136 171.446 54.8781 174.001 44.3556 165.051Z" fill="#C4C4C4"/>
<path d="M87.1882 115.647C105.882 134.341 109.349 168.204 108.746 182.799C93.183 182.784 58.2924 178.988 43.2333 163.929C28.1742 148.87 39.8128 129.413 47.5144 121.567C59.8301 109.252 76.6656 106.696 87.1882 115.647Z" fill="#C4C4C4"/>
<path d="M223.355 243.97C204.661 262.664 170.798 266.131 156.203 265.528C156.218 249.965 160.014 215.074 175.073 200.015C190.132 184.956 209.589 196.595 217.435 204.296C229.75 216.612 232.306 233.448 223.355 243.97Z" fill="#C4C4C4"/>
<path d="M173.951 201.138C192.645 182.444 226.508 178.977 241.103 179.58C241.088 195.143 237.292 230.034 222.233 245.093C207.174 260.152 187.717 248.513 179.871 240.812C167.556 228.496 165 211.66 173.951 201.138Z" fill="#C4C4C4"/>
<path d="M44.3556 247.257C25.6615 228.563 22.1945 194.699 22.7977 180.104C38.3607 180.12 73.2513 183.915 88.3104 198.974C103.369 214.034 91.731 233.49 84.0293 241.336C71.7136 253.652 54.8781 256.207 44.3556 247.257Z" fill="#C4C4C4"/>
<path d="M87.1882 197.853C105.882 216.547 109.349 250.41 108.746 265.005C93.183 264.99 58.2924 261.194 43.2333 246.135C28.1742 231.076 39.8128 211.619 47.5144 203.773C59.8301 191.458 76.6656 188.902 87.1882 197.853Z" fill="#C4C4C4"/>
<rect x="120.717" y="207.128" width="22.4199" height="92.8826" rx="11.21" fill="#C4C4C4"/>
</svg>
