<svg width="300" height="201" viewBox="0 0 300 201" fill="none" xmlns="http://www.w3.org/2000/svg">
<path fill-rule="evenodd" clip-rule="evenodd" d="M35 0.0102539C15.67 0.0102539 0 15.6803 0 35.0103V165.01C0 184.34 15.67 200.01 35 200.01H265C284.33 200.01 300 184.34 300 165.01V35.0103C300 15.6803 284.33 0.0102539 265 0.0102539H35ZM263 33.0103H36V167.01H263V33.0103Z" fill="#C4C4C4"/>
<path d="M142.948 148.01H119.908V111.53H87.9075V148.01H64.8675V58.4102H87.9075V93.6103H119.908V58.4102H142.948V148.01ZM208.288 58.4102C217.93 58.4102 225.226 60.9276 230.176 65.9622C235.21 70.9116 237.728 78.2076 237.728 87.8503V118.57C237.728 128.213 235.21 135.552 230.176 140.586C225.226 145.536 217.93 148.01 208.288 148.01H158.368V58.4102H208.288ZM214.688 87.8503C214.688 80.1703 210.848 76.3303 203.168 76.3303H181.408V130.09H203.168C210.848 130.09 214.688 126.25 214.688 118.57V87.8503Z" fill="#C4C4C4"/>
</svg>
