<svg width="288" height="301" viewBox="0 0 288 301" fill="none" xmlns="http://www.w3.org/2000/svg">
<path fill-rule="evenodd" clip-rule="evenodd" d="M15 237.717C6.71573 237.717 0 244.433 0 252.717V300.01H287.507V252.717C287.507 244.433 280.791 237.717 272.507 237.717H15ZM161.483 249.218C155.396 249.218 150.462 254.152 150.462 260.239C150.462 266.326 155.396 271.26 161.483 271.26H261.152C267.239 271.26 272.173 266.326 272.173 260.239C272.173 254.152 267.239 249.218 261.152 249.218H161.483Z" fill="#C4C4C4"/>
<path d="M50.8143 11.4015C52.4729 4.70975 58.4795 0.0102539 65.3737 0.0102539H223.075C229.994 0.0102539 236.015 4.74237 237.65 11.465L287.502 216.413H0L50.8143 11.4015Z" fill="#C4C4C4"/>
</svg>
