<svg width="300" height="253" viewBox="0 0 300 253" fill="none" xmlns="http://www.w3.org/2000/svg">
<path fill-rule="evenodd" clip-rule="evenodd" d="M22.9132 115.328C8.73727 103.091 0 86.3484 0 67.8835C0 30.3982 36.0088 0.0102539 80.4279 0.0102539C110.129 0.0102539 136.07 13.5969 150 33.8073C163.93 13.5969 189.871 0.0102539 219.572 0.0102539C263.991 0.0102539 300 30.3982 300 67.8835C300 86.3484 291.263 103.091 277.087 115.328L150 252.719L22.9132 115.328ZM55.9542 112.329C45.4649 103.897 39 92.3595 39 79.6355C39 53.8034 65.6465 32.8623 98.5166 32.8623C120.496 32.8623 139.692 42.2253 150 56.1528C160.308 42.2253 179.504 32.8623 201.483 32.8623C234.354 32.8623 261 53.8034 261 79.6355C261 92.3598 254.535 103.897 244.045 112.33L150 207.01L55.9542 112.329Z" fill="#C4C4C4"/>
</svg>
