<svg width="300" height="301" viewBox="0 0 300 301" fill="none" xmlns="http://www.w3.org/2000/svg">
<path fill-rule="evenodd" clip-rule="evenodd" d="M140 0.0102539L300 151.01H255.542C255.84 151.957 256 152.965 256 154.01V290.01C256 295.533 251.523 300.01 246 300.01H185C190.523 300.01 195 295.533 195 290.01V190.01C195 184.487 190.523 180.01 185 180.01H115C109.477 180.01 105 184.487 105 190.01V290.01C105 295.533 109.477 300.01 115 300.01H54C48.4771 300.01 44 295.533 44 290.01V154.01C44 152.965 44.1604 151.957 44.4578 151.01H0L140 0.0102539Z" fill="#C4C4C4"/>
</svg>
