<svg width="181" height="300" viewBox="0 0 181 300" fill="none" xmlns="http://www.w3.org/2000/svg">
<path d="M34.3737 266.85V277.044H8.19923V266.85H34.3737ZM12.2988 245.026V300H0V245.026H12.2988ZM42.643 245.026V300H30.3792V245.026H42.643Z" fill="#C4C4C4"/>
<path d="M74.1084 245.026V300H61.8096V245.026H74.1084ZM89.4557 245.026V255.258H46.8127V245.026H89.4557Z" fill="#C4C4C4"/>
<path d="M119.94 245.026V300H107.641V245.026H119.94ZM135.287 245.026V255.258H92.6443V245.026H135.287Z" fill="#C4C4C4"/>
<path d="M160.866 281.348H148.182V271.116H160.866C162.595 271.116 163.996 270.802 165.071 270.172C166.145 269.543 166.928 268.675 167.418 267.567C167.932 266.434 168.189 265.163 168.189 263.754C168.189 262.243 167.932 260.846 167.418 259.563C166.928 258.279 166.145 257.247 165.071 256.467C163.996 255.661 162.595 255.258 160.866 255.258H152.807V300H140.508V245.026H160.866C164.954 245.026 168.47 245.832 171.413 247.443C174.38 249.054 176.657 251.269 178.246 254.088C179.834 256.882 180.628 260.079 180.628 263.678C180.628 267.227 179.834 270.323 178.246 272.966C176.657 275.609 174.38 277.673 171.413 279.158C168.47 280.618 164.954 281.348 160.866 281.348Z" fill="#C4C4C4"/>
<path fill-rule="evenodd" clip-rule="evenodd" d="M180.769 99.4229H0V219.935C0 219.935 16.5705 235.602 90.3844 235.602C164.198 235.602 180.769 219.935 180.769 219.935V99.4229ZM152.356 120.942H28.2723V203.646C28.2723 203.646 39.6466 214.398 90.3141 214.398C140.982 214.398 152.356 203.646 152.356 203.646V120.942Z" fill="#C4C4C4"/>
<path fill-rule="evenodd" clip-rule="evenodd" d="M48.6911 99.4231H22.1304V55.3312H22.1305V55.331C22.1305 24.7725 52.6889 0 90.3847 0C127.934 0 158.401 24.5797 158.638 54.9738H132.017C131.682 38.6471 113.171 25.486 90.3848 25.486C67.5984 25.486 49.0872 38.6471 48.7527 54.9738H48.6911V99.4231ZM158.639 55.1911C158.639 55.2377 158.639 55.2843 158.639 55.331L158.639 55.3312V55.4299V99.4231L158.639 55.1911Z" fill="#C4C4C4"/>
<rect x="79.5383" y="130.154" width="21.6923" height="74.7178" rx="10.8461" fill="#C4C4C4"/>
</svg>
