<svg width="117" height="33" viewBox="0 0 117 33" fill="none" xmlns="http://www.w3.org/2000/svg">
<path d="M22.2342 13.1003V19.2198H5.30357V13.1003H22.2342ZM7.95536 0V33H0V0H7.95536ZM27.5831 0V33H19.6504V0H27.5831Z" fill="#C4C4C4"/>
<path d="M47.9361 0V33H39.9808V0H47.9361ZM57.8633 0V6.14217H30.2802V0H57.8633Z" fill="#C4C4C4"/>
<path d="M77.5817 0V33H69.6264V0H77.5817ZM87.5089 0V6.14217H59.9258V0H87.5089Z" fill="#C4C4C4"/>
<path d="M104.054 21.8036H95.8496V15.6614H104.054C105.172 15.6614 106.079 15.4725 106.774 15.0948C107.469 14.717 107.975 14.1957 108.293 13.5309C108.625 12.851 108.791 12.0879 108.791 11.2418C108.791 10.3352 108.625 9.49657 108.293 8.72596C107.975 7.95536 107.469 7.33585 106.774 6.86745C106.079 6.38393 105.172 6.14217 104.054 6.14217H98.8413V33H90.886V0H104.054C106.698 0 108.973 0.483517 110.876 1.45055C112.795 2.41758 114.269 3.74725 115.296 5.43956C116.323 7.11676 116.837 9.03571 116.837 11.1964C116.837 13.3269 116.323 15.1854 115.296 16.772C114.269 18.3585 112.795 19.5975 110.876 20.489C108.973 21.3654 106.698 21.8036 104.054 21.8036Z" fill="#C4C4C4"/>
</svg>
