<svg width="193" height="311" viewBox="0 0 193 311" fill="none" xmlns="http://www.w3.org/2000/svg">
<path fill-rule="evenodd" clip-rule="evenodd" d="M192.887 106.088H0V234.68C0 234.68 17.6813 251.397 96.4437 251.397C175.206 251.397 192.887 234.68 192.887 234.68V106.088ZM162.57 129.05H30.1676V217.299C30.1676 217.299 42.3045 228.771 96.3687 228.771C150.433 228.771 162.57 217.299 162.57 217.299V129.05Z" fill="#C4C4C4"/>
<path fill-rule="evenodd" clip-rule="evenodd" d="M169.274 59.0406L169.274 59.0403C169.274 26.4333 136.667 0 96.4437 0C56.2208 0 23.6138 26.4333 23.6138 59.0403L23.6139 59.1313V106.088H51.8829V58.6592H52.021C52.3779 41.238 72.1301 27.1945 96.4441 27.1945C120.758 27.1945 140.51 41.238 140.867 58.6592H140.872V59.0486L140.872 59.1393L140.872 59.1394H140.872V106.088H169.274V59.0406Z" fill="#C4C4C4"/>
<rect x="84.8706" y="138.879" width="23.1465" height="79.7268" rx="11.5732" fill="#C4C4C4"/>
<path d="M29.3767 283.388V291.69H7.00729V283.388H29.3767ZM10.5109 265.615V310.385H0V265.615H10.5109ZM36.4439 265.615V310.385H25.9629V265.615H36.4439Z" fill="#C4C4C4"/>
<path d="M63.3351 265.615V310.385H52.8242V265.615H63.3351ZM76.4514 265.615V273.948H40.0074V265.615H76.4514Z" fill="#C4C4C4"/>
<path d="M102.504 265.615V310.385H91.9932V265.615H102.504ZM115.62 265.615V273.948H79.1764V265.615H115.62Z" fill="#C4C4C4"/>
<path d="M137.481 295.195H126.64V286.862H137.481C138.958 286.862 140.156 286.606 141.074 286.094C141.993 285.581 142.661 284.874 143.081 283.972C143.52 283.049 143.739 282.014 143.739 280.866C143.739 279.636 143.52 278.499 143.081 277.453C142.661 276.408 141.993 275.567 141.074 274.932C140.156 274.276 138.958 273.948 137.481 273.948H130.593V310.385H120.082V265.615H137.481C140.974 265.615 143.979 266.271 146.494 267.583C149.03 268.895 150.976 270.699 152.334 272.995C153.691 275.27 154.37 277.873 154.37 280.805C154.37 283.695 153.691 286.217 152.334 288.369C150.976 290.521 149.03 292.202 146.494 293.412C143.979 294.601 140.974 295.195 137.481 295.195Z" fill="#C4C4C4"/>
<path d="M182.489 298.485C182.489 297.788 182.389 297.163 182.19 296.61C181.99 296.036 181.621 295.503 181.082 295.011C180.543 294.519 179.764 294.027 178.746 293.535C177.748 293.022 176.43 292.489 174.793 291.936C172.876 291.28 171.03 290.542 169.253 289.722C167.476 288.881 165.889 287.908 164.492 286.801C163.094 285.673 161.986 284.361 161.168 282.865C160.349 281.348 159.94 279.585 159.94 277.576C159.94 275.649 160.359 273.917 161.198 272.38C162.036 270.822 163.204 269.5 164.701 268.413C166.219 267.306 167.995 266.466 170.032 265.892C172.068 265.297 174.294 265 176.71 265C179.904 265 182.719 265.574 185.154 266.722C187.61 267.849 189.526 269.459 190.904 271.549C192.301 273.62 193 276.07 193 278.898H182.549C182.549 277.771 182.319 276.777 181.86 275.916C181.421 275.055 180.752 274.378 179.854 273.886C178.955 273.394 177.828 273.148 176.47 273.148C175.152 273.148 174.044 273.353 173.146 273.763C172.248 274.173 171.569 274.727 171.11 275.424C170.651 276.1 170.421 276.848 170.421 277.668C170.421 278.345 170.601 278.96 170.96 279.513C171.339 280.046 171.868 280.549 172.547 281.02C173.246 281.492 174.084 281.943 175.063 282.373C176.061 282.803 177.179 283.224 178.416 283.634C180.732 284.392 182.789 285.243 184.585 286.186C186.402 287.108 187.929 288.164 189.167 289.353C190.425 290.521 191.373 291.854 192.012 293.35C192.671 294.847 193 296.538 193 298.424C193 300.433 192.621 302.216 191.862 303.774C191.103 305.332 190.015 306.654 188.598 307.741C187.181 308.807 185.484 309.616 183.507 310.17C181.531 310.723 179.325 311 176.889 311C174.653 311 172.447 310.713 170.271 310.139C168.115 309.545 166.159 308.643 164.402 307.433C162.645 306.203 161.238 304.635 160.18 302.729C159.141 300.802 158.622 298.516 158.622 295.872H169.163C169.163 297.184 169.333 298.291 169.672 299.193C170.012 300.094 170.511 300.822 171.17 301.376C171.828 301.909 172.637 302.298 173.595 302.544C174.553 302.77 175.651 302.882 176.889 302.882C178.227 302.882 179.305 302.688 180.123 302.298C180.942 301.888 181.541 301.355 181.92 300.699C182.299 300.023 182.489 299.285 182.489 298.485Z" fill="#C4C4C4"/>
</svg>
