<svg width="143" height="33" viewBox="0 0 143 33" fill="none" xmlns="http://www.w3.org/2000/svg">
<path d="M21.6397 13.1912V19.1471H5.16176V13.1912H21.6397ZM7.74265 0.441176V32.5588H0V0.441176H7.74265ZM26.8456 0.441176V32.5588H19.125V0.441176H26.8456Z" fill="#C4C4C4"/>
<path d="M46.6544 0.441176V32.5588H38.9118V0.441176H46.6544ZM56.3162 0.441176V6.41912H29.4706V0.441176H56.3162Z" fill="#C4C4C4"/>
<path d="M75.5073 0.441176V32.5588H67.7647V0.441176H75.5073ZM85.1691 0.441176V6.41912H58.3235V0.441176H85.1691Z" fill="#C4C4C4"/>
<path d="M101.272 21.6618H93.2868V15.6838H101.272C102.36 15.6838 103.243 15.5 103.919 15.1324C104.596 14.7647 105.088 14.2574 105.397 13.6103C105.721 12.9485 105.882 12.2059 105.882 11.3824C105.882 10.5 105.721 9.68382 105.397 8.93382C105.088 8.18382 104.596 7.58088 103.919 7.125C103.243 6.65441 102.36 6.41912 101.272 6.41912H96.1985V32.5588H88.4559V0.441176H101.272C103.846 0.441176 106.059 0.911765 107.912 1.85294C109.779 2.79412 111.213 4.08824 112.213 5.73529C113.213 7.36765 113.713 9.23529 113.713 11.3382C113.713 13.4118 113.213 15.2206 112.213 16.7647C111.213 18.3088 109.779 19.5147 107.912 20.3824C106.059 21.2353 103.846 21.6618 101.272 21.6618Z" fill="#C4C4C4"/>
<path d="M134.426 24.0221C134.426 23.5221 134.353 23.0735 134.206 22.6765C134.059 22.2647 133.787 21.8824 133.39 21.5294C132.993 21.1765 132.419 20.8235 131.669 20.4706C130.934 20.1029 129.963 19.7206 128.757 19.3235C127.346 18.8529 125.985 18.3235 124.676 17.7353C123.368 17.1324 122.199 16.4338 121.169 15.6397C120.14 14.8309 119.324 13.8897 118.721 12.8162C118.118 11.7279 117.816 10.4632 117.816 9.02206C117.816 7.63971 118.125 6.39706 118.743 5.29412C119.36 4.17647 120.221 3.22794 121.324 2.44853C122.441 1.65441 123.75 1.05147 125.25 0.639706C126.75 0.213235 128.39 0 130.169 0C132.522 0 134.596 0.411765 136.39 1.23529C138.199 2.04412 139.61 3.19853 140.625 4.69853C141.654 6.18382 142.169 7.94118 142.169 9.97059H134.471C134.471 9.16177 134.301 8.44853 133.963 7.83088C133.64 7.21324 133.147 6.72794 132.485 6.375C131.824 6.02206 130.993 5.84559 129.993 5.84559C129.022 5.84559 128.206 5.99265 127.544 6.28677C126.882 6.58088 126.382 6.97794 126.044 7.47794C125.706 7.96324 125.537 8.5 125.537 9.08824C125.537 9.57353 125.669 10.0147 125.934 10.4118C126.213 10.7941 126.603 11.1544 127.103 11.4926C127.618 11.8309 128.235 12.1544 128.956 12.4632C129.691 12.7721 130.515 13.0735 131.426 13.3676C133.132 13.9118 134.647 14.5221 135.971 15.1985C137.309 15.8603 138.434 16.6176 139.346 17.4706C140.272 18.3088 140.971 19.2647 141.441 20.3382C141.926 21.4118 142.169 22.625 142.169 23.9779C142.169 25.4191 141.89 26.6985 141.331 27.8162C140.772 28.9338 139.971 29.8824 138.926 30.6618C137.882 31.4265 136.632 32.0074 135.176 32.4044C133.721 32.8015 132.096 33 130.301 33C128.654 33 127.029 32.7941 125.426 32.3824C123.838 31.9559 122.397 31.3088 121.103 30.4412C119.809 29.5588 118.772 28.4338 117.993 27.0662C117.228 25.6838 116.846 24.0441 116.846 22.1471H124.61C124.61 23.0882 124.735 23.8824 124.985 24.5294C125.235 25.1765 125.603 25.6985 126.088 26.0956C126.574 26.4779 127.169 26.7574 127.875 26.9338C128.581 27.0956 129.39 27.1765 130.301 27.1765C131.287 27.1765 132.081 27.0368 132.684 26.7574C133.287 26.4632 133.728 26.0809 134.007 25.6103C134.287 25.125 134.426 24.5956 134.426 24.0221Z" fill="#C4C4C4"/>
</svg>
