<svg width="300" height="300" viewBox="0 0 300 300" fill="none" xmlns="http://www.w3.org/2000/svg">
<path fill-rule="evenodd" clip-rule="evenodd" d="M174.446 0H50C22.3858 0 0 22.3858 0 50V250C0 277.614 22.3858 300 50 300H233.235C260.85 300 283.235 277.614 283.235 250V143.821L253.235 175.597V250C253.235 261.046 244.281 270 233.235 270H50C38.9543 270 30 261.046 30 250V50C30 38.9543 38.9543 30 50 30H146.122L174.446 0Z" fill="#C4C4C4"/>
<path d="M158.605 183.351L117.192 142.006L215.511 43.8485L256.924 85.1935L158.605 183.351Z" fill="#C4C4C4"/>
<path d="M300 0L278.572 129.54L170.246 21.3923L300 0Z" fill="#C4C4C4"/>
</svg>
