<svg width="257" height="300" viewBox="0 0 257 300" fill="none" xmlns="http://www.w3.org/2000/svg">
<path fill-rule="evenodd" clip-rule="evenodd" d="M15 244.443C6.71573 244.443 0 251.159 0 259.443V300H256.414V259.443C256.414 251.159 249.699 244.443 241.414 244.443H15ZM149.19 254.7C140.906 254.7 134.19 261.416 134.19 269.7V274.358H242.739V269.7C242.739 261.416 236.023 254.7 227.739 254.7H149.19Z" fill="#C4C4C4"/>
<path fill-rule="evenodd" clip-rule="evenodd" d="M133.582 196.95C130.704 199.828 132.287 204.756 136.303 205.419L214.834 218.387C218.213 218.945 221.14 216.018 220.582 212.64L207.614 134.108C206.95 130.092 202.023 128.509 199.145 131.387L184.753 145.779C182.8 147.732 179.635 147.732 177.682 145.779L131.41 99.5066C129.457 97.554 126.291 97.554 124.339 99.5066L101.082 122.763C99.1298 124.715 99.1298 127.881 101.082 129.834L147.355 176.106C149.307 178.059 149.307 181.225 147.355 183.177L133.582 196.95ZM72.0272 100.779C73.9799 102.731 77.1457 102.731 79.0983 100.779L102.354 77.5225C104.307 75.5699 104.307 72.404 102.354 70.4514L96.6011 64.698C94.6484 62.7454 91.4826 62.7454 89.53 64.698L66.2738 87.9542C64.3212 89.9068 64.3212 93.0726 66.2738 95.0252L72.0272 100.779ZM37.2186 65.97C39.1712 67.9227 42.3371 67.9227 44.2897 65.97L67.5458 42.7139C69.4985 40.7613 69.4985 37.5954 67.5458 35.6428L56.9076 25.0046C54.955 23.052 51.7892 23.0519 49.8365 25.0046L26.5804 48.2607C24.6278 50.2134 24.6278 53.3792 26.5804 55.3318L37.2186 65.97Z" fill="#C4C4C4"/>
</svg>
