<svg width="300" height="198" viewBox="0 0 300 198" fill="none" xmlns="http://www.w3.org/2000/svg">
<rect x="203.648" y="155.716" width="96.2617" height="41.2942" rx="10" fill="#C4C4C4"/>
<rect x="188.695" y="0.862793" width="196.147" height="14.9533" rx="7.47663" transform="rotate(90 188.695 0.862793)" fill="#C4C4C4"/>
<rect x="203.648" y="105.389" width="71.9626" height="40.0038" rx="10" fill="#C4C4C4"/>
<rect x="203.648" y="52.4805" width="96.2617" height="40.0038" rx="10" fill="#C4C4C4"/>
<rect x="203.648" y="0.862793" width="71.9626" height="41.2942" rx="10" fill="#C4C4C4"/>
<path d="M21.9843 125.928C19.3178 125.928 17.1561 123.615 17.1561 120.762L17.1562 88.3272C17.1562 85.4741 19.3178 83.1611 21.9843 83.1611L107.218 83.1611C109.885 83.1611 112.047 85.4741 112.047 88.3272L112.047 120.762C112.047 123.615 109.885 125.928 107.218 125.928L21.9843 125.928Z" fill="#C4C4C4"/>
<path d="M168.535 99.9087C171.223 101.97 171.223 106.247 168.535 108.307L108.698 154.184C105.503 156.633 101.058 154.19 101.058 149.984L101.058 58.2317C101.058 54.0262 105.503 51.5829 108.698 54.0323L168.535 99.9087Z" fill="#C4C4C4"/>
</svg>
