<svg width="300" height="198" viewBox="0 0 300 198" fill="none" xmlns="http://www.w3.org/2000/svg">
<rect y="155.716" width="96.5853" height="41.2942" rx="10" fill="#C4C4C4"/>
<rect x="126.729" y="0.862793" width="196.147" height="15.0035" rx="7.50176" transform="rotate(90 126.729 0.862793)" fill="#C4C4C4"/>
<rect y="105.389" width="72.2045" height="40.0038" rx="10" fill="#C4C4C4"/>
<rect y="52.4805" width="96.5853" height="40.0038" rx="10" fill="#C4C4C4"/>
<rect y="0.862793" width="72.2045" height="41.2942" rx="10" fill="#C4C4C4"/>
<path d="M277.859 125.928C280.53 125.928 282.696 123.618 282.696 120.77L282.696 88.3191C282.696 85.4704 280.53 83.1611 277.859 83.1611L192.323 83.1611C189.652 83.1611 187.486 85.4704 187.486 88.3191V120.77C187.486 123.618 189.652 125.928 192.323 125.928L277.859 125.928Z" fill="#C4C4C4"/>
<path d="M130.8 99.9152C128.107 101.973 128.107 106.243 130.8 108.301L190.858 154.193C194.059 156.639 198.512 154.199 198.512 150L198.512 58.216C198.512 54.0171 194.059 51.5775 190.858 54.0232L130.8 99.9152Z" fill="#C4C4C4"/>
</svg>
