<svg width="300" height="29" viewBox="0 0 300 29" fill="none" xmlns="http://www.w3.org/2000/svg">
<path d="M19.1365 20.1332H26.3526C26.645 20.1332 26.8975 20.2395 27.1101 20.4522C27.3227 20.6648 27.429 20.9173 27.429 21.2097V27.2297C27.429 27.5221 27.3227 27.7745 27.1101 27.9872C26.8975 28.1998 26.645 28.3061 26.3526 28.3061H1.07643C0.784066 28.3061 0.53157 28.1998 0.318942 27.9872C0.106314 27.7745 0 27.5221 0 27.2297V21.2097C0 20.9173 0.106314 20.6648 0.318942 20.4522C0.53157 20.2395 0.784066 20.1332 1.07643 20.1332H8.37223V8.57157H1.07643C0.784066 8.57157 0.53157 8.46526 0.318942 8.25263C0.106314 8.04 0 7.78751 0 7.49514V1.47511C0 1.18274 0.106314 0.930249 0.318942 0.71762C0.53157 0.504992 0.784066 0.398677 1.07643 0.398677H26.3526C26.645 0.398677 26.8975 0.504992 27.1101 0.71762C27.3227 0.930249 27.429 1.18274 27.429 1.47511V7.49514C27.429 7.78751 27.3227 8.04 27.1101 8.25263C26.8975 8.46526 26.645 8.57157 26.3526 8.57157H19.1365V20.1332Z" fill="#C4C4C4"/>
<path d="M60.0652 0.398677C60.3575 0.398677 60.61 0.504992 60.8226 0.71762C61.0353 0.930249 61.1416 1.18274 61.1416 1.47511V27.2297C61.1416 27.5221 61.0353 27.7745 60.8226 27.9872C60.61 28.1998 60.3575 28.3061 60.0652 28.3061H53.6465C53.0086 28.3061 52.477 28.027 52.0517 27.4689L43.3606 16.3857V27.2297C43.3606 27.5221 43.2542 27.7745 43.0416 27.9872C42.829 28.1998 42.5765 28.3061 42.2841 28.3061H34.8687C34.5764 28.3061 34.3239 28.1998 34.1112 27.9872C33.8986 27.7745 33.7923 27.5221 33.7923 27.2297V1.47511C33.7923 1.18274 33.8986 0.930249 34.1112 0.71762C34.3239 0.504992 34.5764 0.398677 34.8687 0.398677H41.3273C41.9652 0.398677 42.4835 0.664463 42.8822 1.19603L51.5733 13.1962V1.47511C51.5733 1.18274 51.6796 0.930249 51.8923 0.71762C52.1049 0.504992 52.3574 0.398677 52.6498 0.398677H60.0652Z" fill="#C4C4C4"/>
<path d="M83.6513 10.5251C86.5749 10.844 88.9139 11.3623 90.668 12.0799C92.4488 12.7976 93.7378 13.7411 94.5352 14.9105C95.3326 16.08 95.7312 17.5418 95.7312 19.296C95.7312 21.2097 95.1066 22.8841 93.8575 24.3193C92.6348 25.728 90.9338 26.8177 88.7544 27.5885C86.5749 28.3327 84.0899 28.7048 81.2991 28.7048C78.1894 28.7048 75.5581 28.3194 73.4053 27.5486C71.2524 26.7779 69.6444 25.7546 68.5813 24.4788C67.5182 23.1765 66.9866 21.7545 66.9866 20.213C66.9866 19.9472 67.0663 19.7345 67.2258 19.5751C67.4118 19.4156 67.6377 19.3359 67.9035 19.3359H76.0764C76.6346 19.3359 77.0864 19.5086 77.4319 19.8542C77.8838 20.2794 78.3888 20.5718 78.9469 20.7312C79.5051 20.8641 80.2891 20.9306 81.2991 20.9306C83.8241 20.9306 85.0865 20.5452 85.0865 19.7744C85.0865 19.4555 84.9138 19.1897 84.5683 18.9771C84.2493 18.7379 83.6646 18.5385 82.8141 18.379C81.9902 18.193 80.7675 18.0069 79.1462 17.8209C75.505 17.3956 72.7142 16.492 70.774 15.1099C68.8338 13.7012 67.8637 11.7211 67.8637 9.16959C67.8637 7.36225 68.4085 5.76754 69.4982 4.38546C70.588 3.00337 72.1295 1.92694 74.1229 1.15616C76.1429 0.385388 78.4818 0 81.1396 0C83.9038 0 86.3224 0.438545 88.3956 1.31564C90.4687 2.16615 92.0501 3.22929 93.1398 4.50506C94.2296 5.78083 94.7744 7.03002 94.7744 8.25263C94.7744 8.51841 94.6814 8.73104 94.4953 8.89051C94.3359 9.04998 94.11 9.12972 93.8176 9.12972H85.246C84.7942 9.12972 84.3822 8.97025 84.0101 8.65131C83.7178 8.38552 83.3722 8.17289 82.9735 8.01342C82.5749 7.85395 81.9636 7.77422 81.1396 7.77422C79.3589 7.77422 78.4685 8.14631 78.4685 8.89051C78.4685 9.28919 78.814 9.60813 79.5051 9.84734C80.1961 10.06 81.5782 10.2859 83.6513 10.5251Z" fill="#C4C4C4"/>
<path d="M129.085 0.398677C129.377 0.398677 129.63 0.504992 129.842 0.71762C130.055 0.930249 130.161 1.18274 130.161 1.47511V7.89382C130.161 8.18618 130.055 8.43868 129.842 8.65131C129.63 8.86394 129.377 8.97025 129.085 8.97025H120.513V27.2297C120.513 27.5221 120.407 27.7745 120.194 27.9872C119.982 28.1998 119.729 28.3061 119.437 28.3061H111.224C110.932 28.3061 110.679 28.1998 110.467 27.9872C110.254 27.7745 110.148 27.5221 110.148 27.2297V8.97025H101.576C101.284 8.97025 101.031 8.86394 100.819 8.65131C100.606 8.43868 100.5 8.18618 100.5 7.89382V1.47511C100.5 1.18274 100.606 0.930249 100.819 0.71762C101.031 0.504992 101.284 0.398677 101.576 0.398677H129.085Z" fill="#C4C4C4"/>
<path d="M143.462 26.9506C143.116 27.8543 142.518 28.3061 141.668 28.3061H134.133C133.893 28.3061 133.681 28.2264 133.495 28.0669C133.335 27.8809 133.256 27.6682 133.256 27.429L133.295 27.1898L141.987 1.71431C142.093 1.36879 142.292 1.06314 142.585 0.797355C142.877 0.53157 143.276 0.398677 143.781 0.398677H154.864C155.369 0.398677 155.768 0.53157 156.06 0.797355C156.352 1.06314 156.552 1.36879 156.658 1.71431L165.349 27.1898L165.389 27.429C165.389 27.6682 165.296 27.8809 165.11 28.0669C164.95 28.2264 164.751 28.3061 164.512 28.3061H156.977C156.126 28.3061 155.528 27.8543 155.183 26.9506L154.186 24.1599H144.458L143.462 26.9506ZM149.322 8.09316L146.492 16.3857H152.153L149.322 8.09316Z" fill="#C4C4C4"/>
<path d="M197.427 11.4819C197.719 11.4819 197.972 11.5882 198.185 11.8009C198.397 12.0135 198.503 12.266 198.503 12.5583V16.7843C198.503 20.8243 197.121 23.8276 194.357 25.7944C191.62 27.7347 187.992 28.7048 183.473 28.7048C178.955 28.7048 175.314 27.7347 172.55 25.7944C169.812 23.8276 168.443 20.7977 168.443 16.7046V12.0002C168.443 9.28919 169.108 7.04331 170.437 5.26255C171.766 3.45521 173.56 2.12628 175.819 1.27577C178.078 0.425256 180.629 0 183.473 0C186.875 0 189.679 0.558149 191.885 1.67445C194.091 2.79074 195.686 4.05322 196.67 5.46189C197.68 6.87055 198.185 8.01342 198.185 8.89051C198.185 9.12972 198.092 9.34235 197.905 9.5284C197.746 9.68787 197.547 9.7676 197.307 9.7676H188.297C187.766 9.7676 187.38 9.62142 187.141 9.32906C186.317 8.2925 185.095 7.77422 183.473 7.77422C182.251 7.77422 181.227 8.05329 180.404 8.61144C179.606 9.16959 179.208 9.88721 179.208 10.7643V17.5418C179.208 18.605 179.606 19.4422 180.404 20.0535C181.201 20.6382 182.224 20.9306 183.473 20.9306C185.121 20.9306 186.331 20.6515 187.101 20.0934C187.899 19.5086 188.311 18.8309 188.337 18.0601H185.865C185.573 18.0601 185.321 17.9538 185.108 17.7412C184.895 17.5285 184.789 17.276 184.789 16.9837V12.5583C184.789 12.266 184.895 12.0135 185.108 11.8009C185.321 11.5882 185.573 11.4819 185.865 11.4819H197.427Z" fill="#C4C4C4"/>
<path d="M232.774 27.0702C232.827 27.1765 232.854 27.2961 232.854 27.429C232.854 27.6682 232.761 27.8809 232.575 28.0669C232.415 28.2264 232.216 28.3061 231.977 28.3061H222.927C222.555 28.3061 222.209 28.2131 221.89 28.027C221.598 27.841 221.385 27.6018 221.252 27.3094L217.744 19.4156H214.395V27.2297C214.395 27.5221 214.289 27.7745 214.076 27.9872C213.864 28.1998 213.611 28.3061 213.319 28.3061H204.707C204.415 28.3061 204.162 28.1998 203.95 27.9872C203.737 27.7745 203.631 27.5221 203.631 27.2297V1.47511C203.631 1.18274 203.737 0.930249 203.95 0.71762C204.162 0.504992 204.415 0.398677 204.707 0.398677H220.216C222.608 0.398677 224.694 0.784066 226.475 1.55484C228.282 2.32562 229.665 3.44192 230.621 4.90374C231.578 6.36556 232.057 8.07987 232.057 10.0467C232.057 13.6614 230.661 16.2793 227.87 17.9006L232.774 27.0702ZM219.379 12.0401C219.963 12.0401 220.415 11.854 220.734 11.4819C221.053 11.0832 221.213 10.5915 221.213 10.0068C221.213 9.42208 221.053 8.91709 220.734 8.49184C220.442 8.04 219.99 7.81408 219.379 7.81408H214.395V12.0401H219.379Z" fill="#C4C4C4"/>
<path d="M245.078 26.9506C244.732 27.8543 244.134 28.3061 243.284 28.3061H235.749C235.51 28.3061 235.297 28.2264 235.111 28.0669C234.951 27.8809 234.872 27.6682 234.872 27.429L234.911 27.1898L243.603 1.71431C243.709 1.36879 243.908 1.06314 244.201 0.797355C244.493 0.53157 244.892 0.398677 245.397 0.398677H256.48C256.985 0.398677 257.384 0.53157 257.676 0.797355C257.968 1.06314 258.168 1.36879 258.274 1.71431L266.965 27.1898L267.005 27.429C267.005 27.6682 266.912 27.8809 266.726 28.0669C266.566 28.2264 266.367 28.3061 266.128 28.3061H258.593C257.742 28.3061 257.144 27.8543 256.799 26.9506L255.802 24.1599H246.074L245.078 26.9506ZM250.938 8.09316L248.108 16.3857H253.769L250.938 8.09316Z" fill="#C4C4C4"/>
<path d="M289.913 1.47511C290.312 0.757487 290.884 0.398677 291.628 0.398677H298.924C299.216 0.398677 299.468 0.504992 299.681 0.71762C299.894 0.930249 300 1.18274 300 1.47511V27.2297C300 27.5221 299.894 27.7745 299.681 27.9872C299.468 28.1998 299.216 28.3061 298.924 28.3061H291.707C291.415 28.3061 291.163 28.1998 290.95 27.9872C290.737 27.7745 290.631 27.5221 290.631 27.2297V14.8707L287.721 20.6116C287.641 20.7977 287.455 21.0103 287.163 21.2495C286.87 21.4887 286.498 21.6083 286.046 21.6083H283.335C282.883 21.6083 282.511 21.4887 282.219 21.2495C281.927 21.0103 281.741 20.7977 281.661 20.6116L278.75 14.8707V27.2297C278.75 27.5221 278.644 27.7745 278.432 27.9872C278.219 28.1998 277.966 28.3061 277.674 28.3061H270.458C270.166 28.3061 269.913 28.1998 269.701 27.9872C269.488 27.7745 269.382 27.5221 269.382 27.2297V1.47511C269.382 1.18274 269.488 0.930249 269.701 0.71762C269.913 0.504992 270.166 0.398677 270.458 0.398677H277.754C278.498 0.398677 279.069 0.757487 279.468 1.47511L284.691 11.0434L289.913 1.47511Z" fill="#C4C4C4"/>
</svg>
