<svg width="300" height="300" viewBox="0 0 300 300" fill="none" xmlns="http://www.w3.org/2000/svg">
<path fill-rule="evenodd" clip-rule="evenodd" d="M80 0C35.8171 0 0 35.8171 0 80V220C0 264.183 35.8171 300 80 300H220C264.183 300 300 264.183 300 220V80C300 35.8171 264.183 0 220 0H80ZM92 30C57.7583 30 30 57.7583 30 92V208C30 242.242 57.7583 270 92 270H208C242.242 270 270 242.242 270 208V92C270 57.7583 242.242 30 208 30H92ZM149.5 227C192.302 227 227 192.302 227 149.5C227 106.698 192.302 72 149.5 72C106.698 72 72 106.698 72 149.5C72 192.302 106.698 227 149.5 227ZM149.5 200.713C177.784 200.713 200.713 177.784 200.713 149.5C200.713 121.216 177.784 98.2866 149.5 98.2866C121.216 98.2866 98.2866 121.216 98.2866 149.5C98.2866 177.784 121.216 200.713 149.5 200.713ZM226.5 94C238.927 94 249 83.9265 249 71.5C249 59.0735 238.927 49 226.5 49C214.073 49 204 59.0735 204 71.5C204 83.9265 214.073 94 226.5 94Z" fill="#C4C4C4"/>
</svg>
