<svg width="171" height="33" viewBox="0 0 171 33" fill="none" xmlns="http://www.w3.org/2000/svg">
<path d="M14.4171 22.3193L18.2152 0H25.856L22.0579 22.3193C21.7749 24.4343 21.0674 26.3035 19.9355 27.927C18.8035 29.5356 17.3587 30.7942 15.6012 31.7027C13.8436 32.5964 11.8925 33.0283 9.74769 32.9986C7.60289 32.9539 5.79322 32.5145 4.31868 31.6804C2.85902 30.8463 1.75684 29.6697 1.01212 28.1504C0.282291 26.6163 -0.052833 24.7917 0.00674464 22.6767L7.7146 22.6991C7.66992 23.3991 7.68481 24.0768 7.75928 24.7322C7.83376 25.3726 8.05717 25.9014 8.42953 26.3184C8.80189 26.7355 9.42001 26.9514 10.2839 26.9663C11.1478 26.9961 11.8627 26.7801 12.4287 26.3184C12.9947 25.8418 13.4341 25.246 13.7468 24.5311C14.0745 23.8162 14.2979 23.0789 14.4171 22.3193Z" fill="#C4C4C4"/>
<path d="M42.2771 7.21634L30.302 32.5294H21.8345L39.0822 0H44.4889L42.2771 7.21634ZM44.3325 32.5294L41.0259 6.43438L41.2047 0H46.2986L52.3084 32.5294H44.3325ZM46.0751 20.3979L45.0027 26.4525H28.7604L29.8328 20.3979H46.0751Z" fill="#C4C4C4"/>
<path d="M66.5177 0L69.9583 10.7687L76.7949 0H85.8432L74.2926 16.4658L80.6376 32.5294H72.1925L68.6178 21.5597L61.6026 32.5294H52.4425L64.3059 15.7955L58.1173 0H66.5177Z" fill="#C4C4C4"/>
<path d="M115.133 0L109.481 32.5294H102.063L94.3107 11.9974L90.736 32.5294H83.0952L88.7253 0H96.1874L103.94 20.5319L107.492 0H115.133Z" fill="#C4C4C4"/>
<path d="M137.095 26.4971L136.045 32.5294H119.177L120.227 26.4971H137.095ZM127.577 0L121.925 32.5294H114.284L119.914 0H127.577ZM137.274 12.9135L136.268 18.7446H121.567L122.595 12.9135H137.274ZM141.742 0L140.692 6.05458H123.757L124.829 0H141.742Z" fill="#C4C4C4"/>
<path d="M160.531 0L154.901 32.5294H147.238L152.89 0H160.531ZM170.026 0L168.976 6.05458H142.546L143.619 0H170.026Z" fill="#C4C4C4"/>
</svg>
