<svg width="300" height="300" viewBox="0 0 300 300" fill="none" xmlns="http://www.w3.org/2000/svg">
<mask id="mask0_1105_46" style="mask-type:alpha" maskUnits="userSpaceOnUse" x="0" y="0" width="300" height="300">
<rect width="300" height="300" fill="#D9D9D9"/>
</mask>
<g mask="url(#mask0_1105_46)">
<path fill-rule="evenodd" clip-rule="evenodd" d="M166.564 154.702C136.229 187.774 136.229 241.395 166.564 274.467C196.899 307.54 246.082 307.54 276.417 274.468C306.752 241.395 306.752 187.774 276.417 154.702C246.082 121.63 196.899 121.63 166.564 154.702ZM198.016 188.992C185.051 203.126 185.051 226.042 198.016 240.176C210.98 254.31 231.999 254.31 244.964 240.176C257.928 226.042 257.928 203.126 244.964 188.992C231.999 174.858 210.98 174.858 198.016 188.992Z" fill="#C4C4C4"/>
<path d="M196.779 154.359L166.054 187.857L31.4307 41.0857C22.9461 31.8356 22.9461 16.8382 31.4307 7.58804V7.58804C39.9152 -1.6621 53.6714 -1.66209 62.1559 7.58805L196.779 154.359Z" fill="#C4C4C4"/>
<path fill-rule="evenodd" clip-rule="evenodd" d="M101.804 117.792C105.537 113.722 105.537 107.123 101.804 103.053L56.3386 53.4852C52.6054 49.4151 46.5528 49.4151 42.8196 53.4852L2.28228 97.6803C-1.4509 101.75 -1.4509 108.349 2.28228 112.419L6.81963 117.366C10.5528 121.436 16.6055 121.436 20.3387 117.366L31.217 105.506C34.9502 101.436 41.0029 101.436 44.7361 105.506L54.0886 115.702C57.8217 119.772 57.8217 126.371 54.0886 130.441L43.2102 142.301C39.477 146.371 39.477 152.97 43.2102 157.04L47.7477 161.987C51.4809 166.057 57.5336 166.057 61.2667 161.987L101.804 117.792Z" fill="#C4C4C4"/>
</g>
</svg>
