<svg width="267" height="301" viewBox="0 0 267 301" fill="none" xmlns="http://www.w3.org/2000/svg">
<path d="M130.929 23.244C161.907 -7.73434 212.133 -7.73434 243.112 23.244C274.09 54.2224 274.09 104.448 243.112 135.427L240.307 138.231L216.949 114.874C228.211 96.5371 225.901 72.2209 210.018 56.3379C191.431 37.7508 161.295 37.7508 142.708 56.3379L107.932 91.1145C89.3444 109.702 89.3444 139.837 107.932 158.424C113.604 164.096 120.352 168.038 127.519 170.248L92.7718 204.995C86.3375 201.462 80.2896 196.97 74.8377 191.518C43.8593 160.54 43.8593 110.314 74.8377 79.3353L130.929 23.244Z" fill="#C4C4C4"/>
<path d="M174.294 95.4259C180.459 98.8958 186.26 103.255 191.508 108.503C222.486 139.481 222.486 189.707 191.508 220.685L135.416 276.776C104.438 307.755 54.2122 307.755 23.2338 276.776C-7.74459 245.798 -7.74459 195.572 23.2338 164.594L24.9165 162.911L48.5629 186.558C38.2602 204.715 40.8485 228.203 56.3276 243.683C74.9147 262.27 105.05 262.27 123.637 243.683L158.414 208.906C177.001 190.319 177.001 160.184 158.414 141.596C152.966 136.149 146.527 132.298 139.676 130.043L174.294 95.4259Z" fill="#C4C4C4"/>
</svg>
