<svg width="300" height="300" viewBox="0 0 300 300" fill="none" xmlns="http://www.w3.org/2000/svg">
<path fill-rule="evenodd" clip-rule="evenodd" d="M300 0H0V300H300V0ZM278.102 21.8978H21.8978V278.102H278.102V21.8978Z" fill="#C4C4C4"/>
<path d="M86.8727 279.197H34.8312V112.603H86.8727V279.197ZM31.7518 69.6453C31.7518 62.2548 34.4206 56.1987 39.7582 51.477C45.0958 46.7552 52.0244 44.3944 60.544 44.3944C69.0636 44.3944 75.9922 46.7552 81.3298 51.477C86.6674 56.1987 89.3362 62.2548 89.3362 69.6453C89.3362 77.0358 86.6674 83.0919 81.3298 87.8136C75.9922 92.5354 69.0636 94.8962 60.544 94.8962C52.0244 94.8962 45.0958 92.5354 39.7582 87.8136C34.4206 83.0919 31.7518 77.0358 31.7518 69.6453Z" fill="#C4C4C4"/>
<path d="M166.629 112.603L168.322 132.157C179.819 117.068 195.677 109.523 215.899 109.523C233.246 109.523 246.179 114.707 254.699 125.074C263.321 135.441 267.786 151.044 268.094 171.881V279.197H216.053V174.036C216.053 165.619 214.359 159.461 210.972 155.56C207.584 151.557 201.426 149.555 192.495 149.555C182.333 149.555 174.789 153.558 169.862 161.565V279.197H117.974V112.603H166.629Z" fill="#C4C4C4"/>
</svg>
