<svg width="300" height="32" viewBox="0 0 300 32" fill="none" xmlns="http://www.w3.org/2000/svg">
<path d="M27.8899 22.5949C28.2247 22.5949 28.5138 22.7167 28.7572 22.9601C29.0007 23.2036 29.1224 23.4927 29.1224 23.8274V30.72C29.1224 31.0547 29.0007 31.3438 28.7572 31.5873C28.5138 31.8307 28.2247 31.9525 27.8899 31.9525H1.23245C0.897712 31.9525 0.608618 31.8307 0.365171 31.5873C0.121724 31.3438 0 31.0547 0 30.72V1.23245C0 0.897713 0.121724 0.608619 0.365171 0.365172C0.608618 0.121724 0.897712 0 1.23245 0H11.0921C11.4268 0 11.7159 0.121724 11.9593 0.365172C12.2028 0.608619 12.3245 0.897713 12.3245 1.23245V22.5949H27.8899Z" fill="#C4C4C4"/>
<path d="M57.9987 22.5949H66.2607C66.5954 22.5949 66.8845 22.7167 67.128 22.9601C67.3714 23.2036 67.4931 23.4927 67.4931 23.8274V30.72C67.4931 31.0547 67.3714 31.3438 67.128 31.5873C66.8845 31.8307 66.5954 31.9525 66.2607 31.9525H37.3209C36.9861 31.9525 36.6971 31.8307 36.4536 31.5873C36.2102 31.3438 36.0884 31.0547 36.0884 30.72V23.8274C36.0884 23.4927 36.2102 23.2036 36.4536 22.9601C36.6971 22.7167 36.9861 22.5949 37.3209 22.5949H45.6742V9.3575H37.3209C36.9861 9.3575 36.6971 9.23578 36.4536 8.99233C36.2102 8.74889 36.0884 8.45979 36.0884 8.12505V1.23245C36.0884 0.897713 36.2102 0.608619 36.4536 0.365172C36.6971 0.121724 36.9861 0 37.3209 0H66.2607C66.5954 0 66.8845 0.121724 67.128 0.365172C67.3714 0.608619 67.4931 0.897713 67.4931 1.23245V8.12505C67.4931 8.45979 67.3714 8.74889 67.128 8.99233C66.8845 9.23578 66.5954 9.3575 66.2607 9.3575H57.9987V22.5949Z" fill="#C4C4C4"/>
<path d="M104.86 0C105.194 0 105.484 0.121724 105.727 0.365172C105.97 0.608619 106.092 0.897713 106.092 1.23245V30.72C106.092 31.0547 105.97 31.3438 105.727 31.5873C105.484 31.8307 105.194 31.9525 104.86 31.9525H97.5106C96.7803 31.9525 96.1717 31.6329 95.6848 30.9939L85.7338 18.3042V30.72C85.7338 31.0547 85.6121 31.3438 85.3687 31.5873C85.1252 31.8307 84.8361 31.9525 84.5014 31.9525H76.0112C75.6764 31.9525 75.3873 31.8307 75.1439 31.5873C74.9004 31.3438 74.7787 31.0547 74.7787 30.72V1.23245C74.7787 0.897713 74.9004 0.608619 75.1439 0.365172C75.3873 0.121724 75.6764 0 76.0112 0H83.4059C84.1362 0 84.7296 0.30431 85.1861 0.912929L95.137 14.6525V1.23245C95.137 0.897713 95.2587 0.608619 95.5022 0.365172C95.7456 0.121724 96.0347 0 96.3694 0H104.86Z" fill="#C4C4C4"/>
<path d="M148.206 30.3548C148.328 30.5374 148.388 30.7352 148.388 30.9482C148.388 31.2221 148.282 31.4656 148.069 31.6786C147.886 31.8612 147.658 31.9525 147.384 31.9525H135.607C134.908 31.9525 134.36 31.709 133.964 31.2221L126.022 21.4081V30.72C126.022 31.0547 125.9 31.3438 125.657 31.5873C125.413 31.8307 125.124 31.9525 124.789 31.9525H115.386C115.051 31.9525 114.762 31.8307 114.519 31.5873C114.275 31.3438 114.154 31.0547 114.154 30.72V1.23245C114.154 0.897713 114.275 0.608619 114.519 0.365172C114.762 0.121724 115.051 0 115.386 0H124.789C125.124 0 125.413 0.121724 125.657 0.365172C125.9 0.608619 126.022 0.897713 126.022 1.23245V9.81397L133.234 0.775989C133.69 0.258663 134.253 0 134.923 0H145.924C146.197 0 146.426 0.106509 146.608 0.319526C146.821 0.502111 146.928 0.730342 146.928 1.00422C146.928 1.24767 146.852 1.46068 146.7 1.64327L135.881 14.8351L148.206 30.3548Z" fill="#C4C4C4"/>
<path d="M182.925 23.0514C183.26 23.0514 183.549 23.1731 183.792 23.4166C184.036 23.66 184.157 23.9491 184.157 24.2839V30.72C184.157 31.0547 184.036 31.3438 183.792 31.5873C183.549 31.8307 183.26 31.9525 182.925 31.9525H154.076C153.742 31.9525 153.453 31.8307 153.209 31.5873C152.966 31.3438 152.844 31.0547 152.844 30.72V1.23245C152.844 0.897713 152.966 0.608619 153.209 0.365172C153.453 0.121724 153.742 0 154.076 0H182.468C182.803 0 183.092 0.121724 183.336 0.365172C183.579 0.608619 183.701 0.897713 183.701 1.23245V7.66859C183.701 8.00333 183.579 8.29242 183.336 8.53587C183.092 8.77932 182.803 8.90104 182.468 8.90104H164.712V11.7768H179.958C180.293 11.7768 180.582 11.8985 180.825 12.1419C181.069 12.3854 181.19 12.6745 181.19 13.0092V18.9432C181.19 19.278 181.069 19.5671 180.825 19.8105C180.582 20.054 180.293 20.1757 179.958 20.1757H164.712V23.0514H182.925Z" fill="#C4C4C4"/>
<path d="M206.78 0C211.923 0 216.031 1.11073 219.105 3.33218C222.209 5.55364 223.761 8.99233 223.761 13.6483V18.3042C223.761 23.0514 222.224 26.5205 219.15 28.7116C216.107 30.8722 211.984 31.9525 206.78 31.9525H192.219C191.884 31.9525 191.595 31.8307 191.352 31.5873C191.108 31.3438 190.986 31.0547 190.986 30.72V1.23245C190.986 0.897713 191.108 0.608619 191.352 0.365172C191.595 0.121724 191.884 0 192.219 0H206.78ZM207.008 23.0514C208.439 23.0514 209.565 22.7167 210.386 22.0472C211.238 21.3473 211.664 20.3735 211.664 19.1258V12.8266C211.664 11.579 211.238 10.6204 210.386 9.95091C209.565 9.251 208.439 8.90104 207.008 8.90104H202.855V23.0514H207.008Z" fill="#C4C4C4"/>
<path d="M251.907 22.5949H260.169C260.503 22.5949 260.792 22.7167 261.036 22.9601C261.279 23.2036 261.401 23.4927 261.401 23.8274V30.72C261.401 31.0547 261.279 31.3438 261.036 31.5873C260.792 31.8307 260.503 31.9525 260.169 31.9525H231.229C230.894 31.9525 230.605 31.8307 230.361 31.5873C230.118 31.3438 229.996 31.0547 229.996 30.72V23.8274C229.996 23.4927 230.118 23.2036 230.361 22.9601C230.605 22.7167 230.894 22.5949 231.229 22.5949H239.582V9.3575H231.229C230.894 9.3575 230.605 9.23578 230.361 8.99233C230.118 8.74889 229.996 8.45979 229.996 8.12505V1.23245C229.996 0.897713 230.118 0.608619 230.361 0.365172C230.605 0.121724 230.894 0 231.229 0H260.169C260.503 0 260.792 0.121724 261.036 0.365172C261.279 0.608619 261.401 0.897713 261.401 1.23245V8.12505C261.401 8.45979 261.279 8.74889 261.036 8.99233C260.792 9.23578 260.503 9.3575 260.169 9.3575H251.907V22.5949Z" fill="#C4C4C4"/>
<path d="M298.768 0C299.102 0 299.391 0.121724 299.635 0.365172C299.878 0.608619 300 0.897713 300 1.23245V30.72C300 31.0547 299.878 31.3438 299.635 31.5873C299.391 31.8307 299.102 31.9525 298.768 31.9525H291.418C290.688 31.9525 290.079 31.6329 289.593 30.9939L279.642 18.3042V30.72C279.642 31.0547 279.52 31.3438 279.277 31.5873C279.033 31.8307 278.744 31.9525 278.409 31.9525H269.919C269.584 31.9525 269.295 31.8307 269.052 31.5873C268.808 31.3438 268.687 31.0547 268.687 30.72V1.23245C268.687 0.897713 268.808 0.608619 269.052 0.365172C269.295 0.121724 269.584 0 269.919 0H277.314C278.044 0 278.637 0.30431 279.094 0.912929L289.045 14.6525V1.23245C289.045 0.897713 289.167 0.608619 289.41 0.365172C289.654 0.121724 289.943 0 290.277 0H298.768Z" fill="#C4C4C4"/>
</svg>
