<svg width="300" height="300" viewBox="0 0 300 300" fill="none" xmlns="http://www.w3.org/2000/svg">
<path fill-rule="evenodd" clip-rule="evenodd" d="M265.179 126.599H35V280.051C35 280.051 56.0997 300 150.09 300C244.079 300 265.179 280.051 265.179 280.051V126.599ZM229 154H71V259.31C71 259.31 85.4833 273 150 273C214.517 273 229 259.31 229 259.31V154Z" fill="#C4C4C4"/>
<path fill-rule="evenodd" clip-rule="evenodd" d="M237 70.455V70.4548C237 31.5437 198.089 0 150.09 0C102.09 0 63.1792 31.5437 63.1792 70.4548L63.1794 70.6034V126.599H96.9138V70H97.0786C97.5044 49.2105 121.075 32.4519 150.09 32.4519C179.105 32.4519 202.676 49.2105 203.102 70H203.107V70.4594V70.5725V126.599H237V70.455H237Z" fill="#C4C4C4"/>
<rect x="136.279" y="165.729" width="27.6215" height="95.1407" rx="13.8107" fill="#C4C4C4"/>
</svg>
