<svg width="300" height="300" viewBox="0 0 300 300" fill="none" xmlns="http://www.w3.org/2000/svg">
<path fill-rule="evenodd" clip-rule="evenodd" d="M66.9868 30H250C261.046 30 270 38.9543 270 50V250C270 261.046 261.046 270 250 270H66.9868C55.9411 270 46.9868 261.046 46.9868 250V233H16.9868V250C16.9868 277.614 39.3726 300 66.9868 300H250C277.614 300 300 277.614 300 250V50C300 22.3858 277.614 0 250 0H66.9868C39.3726 0 16.9868 22.3858 16.9868 50V67H46.9868V50C46.9868 38.9543 55.9411 30 66.9868 30Z" fill="#C4C4C4"/>
<path d="M0.0480535 174.291L0 115.772L138.821 115.886L138.869 174.405L0.0480535 174.291Z" fill="#C4C4C4"/>
<path d="M229.498 144.623L122.831 221.07L122.705 68L229.498 144.623Z" fill="#C4C4C4"/>
</svg>
