<svg width="300" height="300" viewBox="0 0 300 300" fill="none" xmlns="http://www.w3.org/2000/svg">
<path fill-rule="evenodd" clip-rule="evenodd" d="M50 30H233.54C244.585 30 253.54 38.9543 253.54 50V67H283.54V50C283.54 22.3858 261.154 0 233.54 0H50C22.3858 0 0 22.3858 0 50V250C0 277.614 22.3858 300 50 300H233.54C261.154 300 283.54 277.614 283.54 250V233H253.54V250C253.54 261.046 244.585 270 233.54 270H50C38.9543 270 30 261.046 30 250V50C30 38.9543 38.9543 30 50 30Z" fill="#C4C4C4"/>
<path d="M70.1233 174.291L70.0752 115.772L209.154 115.886L209.203 174.405L70.1233 174.291Z" fill="#C4C4C4"/>
<path d="M300 144.623L193.135 221.07L193.009 68L300 144.623Z" fill="#C4C4C4"/>
</svg>
