<svg width="300" height="48" viewBox="0 0 300 48" fill="none" xmlns="http://www.w3.org/2000/svg">
<path d="M12.4826 2.44158H20.204L25.0261 34.121L40.8659 2.44158H49.2283L26.3995 46.8782H19.8988L12.4826 2.44158ZM7.69096 2.44158H15.9008L11.628 35.7996L9.67474 46.8782H0L7.69096 2.44158ZM45.4438 2.44158H53.6841L45.9932 46.8782H36.2574L38.3327 34.9756L45.4438 2.44158Z" fill="#C4C4C4"/>
<path d="M68.5191 39.0042L70.7471 24.7209C70.8285 23.9071 70.7979 23.1441 70.6555 22.432C70.5334 21.7198 70.2282 21.14 69.7399 20.6923C69.2516 20.2244 68.5293 19.9802 67.573 19.9599C66.7388 19.9395 65.9962 20.0921 65.3451 20.4177C64.7144 20.7229 64.1955 21.1705 63.7886 21.7605C63.402 22.3506 63.1273 23.0424 62.9646 23.8359L53.6255 23.8969C53.7273 22.025 54.2359 20.4075 55.1515 19.0443C56.0875 17.6811 57.2777 16.5722 58.7223 15.7176C60.1669 14.8427 61.7438 14.2018 63.4529 13.7949C65.162 13.388 66.8406 13.2049 68.4886 13.2455C70.7878 13.2862 72.8631 13.7746 74.7146 14.7105C76.5662 15.6261 77.9802 16.9486 78.9569 18.6781C79.9539 20.3872 80.3404 22.4625 80.1166 24.9041L77.8887 38.76C77.7056 39.9604 77.5428 41.2321 77.4004 42.575C77.2783 43.8975 77.4716 45.1386 77.9802 46.2984L77.9497 46.8782L68.8243 46.9088C68.4174 45.6473 68.2139 44.3451 68.2139 43.0022C68.2139 41.639 68.3157 40.3063 68.5191 39.0042ZM71.7848 26.7352L70.9302 31.9846L66.7795 31.9541C65.9657 31.9745 65.162 32.0965 64.3685 32.3204C63.575 32.5238 62.8628 32.8494 62.2321 33.297C61.6013 33.7243 61.0723 34.2736 60.6451 34.945C60.2178 35.5961 59.9533 36.3693 59.8516 37.2645C59.7498 37.9156 59.8007 38.4955 60.0042 39.0042C60.228 39.4925 60.5637 39.8791 61.0113 40.1639C61.4589 40.4488 62.0083 40.6014 62.6594 40.6217C63.6156 40.6421 64.5414 40.4691 65.4367 40.1029C66.3522 39.7163 67.1458 39.1771 67.8172 38.4853C68.4886 37.7732 68.9464 36.9593 69.1906 36.0438L70.9912 40.0724C70.4826 41.1914 69.8722 42.2087 69.1601 43.1243C68.4479 44.0399 67.6442 44.8334 66.749 45.5049C65.8538 46.1559 64.8568 46.6646 63.7581 47.0308C62.6797 47.3971 61.4996 47.57 60.2178 47.5497C58.3866 47.509 56.708 47.0817 55.182 46.2678C53.6764 45.4336 52.476 44.2942 51.5807 42.8496C50.6855 41.405 50.2785 39.7366 50.3599 37.8444C50.4413 35.647 50.9805 33.8362 51.9775 32.4119C52.9744 30.9673 54.2664 29.8279 55.8535 28.9937C57.4405 28.1595 59.1699 27.5695 61.0418 27.2236C62.9137 26.8777 64.7754 26.7047 66.6269 26.7047L71.7848 26.7352Z" fill="#C4C4C4"/>
<path d="M98.8276 37.5087C99.0108 36.5931 98.7666 35.881 98.0952 35.3723C97.4441 34.8637 96.6506 34.4872 95.7146 34.2431C94.799 33.9786 94.036 33.765 93.4257 33.6022C92.1845 33.297 90.9434 32.8901 89.7022 32.3814C88.4815 31.8727 87.3726 31.2318 86.3756 30.4587C85.399 29.6855 84.6156 28.7495 84.0256 27.6508C83.4355 26.5521 83.171 25.2601 83.2321 23.7748C83.3135 21.964 83.7713 20.3973 84.6055 19.0748C85.46 17.7523 86.5689 16.6536 87.9321 15.7787C89.2953 14.9038 90.7806 14.2527 92.388 13.8254C94.0157 13.3981 95.6332 13.2049 97.2406 13.2455C99.438 13.2659 101.503 13.6728 103.436 14.4663C105.389 15.2395 106.966 16.4196 108.167 18.0066C109.387 19.5733 109.998 21.5571 109.998 23.958L100.75 23.9274C100.771 23.0729 100.649 22.3302 100.384 21.6995C100.12 21.0688 99.7025 20.5906 99.1328 20.2651C98.5631 19.9192 97.8205 19.7462 96.9049 19.7462C96.1928 19.7259 95.4806 19.8581 94.7685 20.143C94.0767 20.4278 93.4765 20.8348 92.9679 21.3638C92.4795 21.8928 92.1743 22.5439 92.0523 23.317C91.9302 23.9478 92.0116 24.4768 92.2964 24.9041C92.6016 25.3313 93.0085 25.6772 93.5172 25.9417C94.0462 26.1859 94.5956 26.3894 95.1653 26.5521C95.7553 26.7149 96.2843 26.8472 96.7523 26.9489C98.5631 27.3965 100.323 27.9866 102.032 28.719C103.762 29.4515 105.176 30.4892 106.274 31.832C107.373 33.1749 107.892 34.945 107.831 37.1425C107.75 39.0143 107.241 40.6115 106.305 41.9341C105.369 43.2566 104.169 44.3349 102.704 45.1691C101.259 45.983 99.6822 46.573 97.9731 46.9393C96.2843 47.3259 94.6464 47.509 93.0594 47.4886C90.8417 47.4479 88.746 47.0003 86.7724 46.1458C84.7988 45.2709 83.2016 44.0094 81.9808 42.3613C80.76 40.7133 80.1292 38.6888 80.0885 36.2879L88.7561 36.3184C88.7765 37.3358 88.9698 38.1903 89.336 38.8821C89.7022 39.5535 90.2414 40.0724 90.9536 40.4386C91.6657 40.7845 92.5202 40.9676 93.5172 40.9879C94.2904 40.9879 95.0534 40.876 95.8062 40.6522C96.559 40.4081 97.2101 40.0317 97.7594 39.523C98.3088 38.994 98.6649 38.3226 98.8276 37.5087Z" fill="#C4C4C4"/>
<path d="M130.662 13.8559L129.472 20.5398H110.458L111.618 13.8559H130.662ZM117.386 5.67666H126.695L121.384 36.5931C121.303 37.3052 121.303 37.8953 121.384 38.3633C121.486 38.8312 121.71 39.1975 122.056 39.462C122.422 39.7061 122.981 39.8485 123.734 39.8892C124.182 39.9096 124.619 39.8994 125.046 39.8587C125.474 39.7977 125.901 39.7468 126.328 39.7061L125.657 46.6951C124.823 46.9596 123.968 47.1529 123.093 47.275C122.239 47.3971 121.364 47.4581 120.469 47.4581C118.454 47.4174 116.786 47.0003 115.463 46.2068C114.141 45.393 113.185 44.2536 112.594 42.7886C112.025 41.3033 111.831 39.5739 112.015 37.6003L117.386 5.67666Z" fill="#C4C4C4"/>
<path d="M142.72 47.4886C140.441 47.4479 138.376 47.0207 136.524 46.2068C134.693 45.393 133.147 44.2739 131.885 42.8496C130.624 41.405 129.698 39.7265 129.108 37.8139C128.518 35.9013 128.304 33.8158 128.467 31.5574L128.589 30.3671C128.833 28.0069 129.393 25.7891 130.268 23.7138C131.163 21.6385 132.353 19.8073 133.839 18.2203C135.324 16.6129 137.074 15.3718 139.088 14.4969C141.123 13.6016 143.391 13.1845 145.894 13.2455C148.193 13.2862 150.167 13.7542 151.815 14.6495C153.483 15.5243 154.826 16.7146 155.843 18.2203C156.881 19.7259 157.593 21.435 157.98 23.3476C158.366 25.2601 158.448 27.2846 158.224 29.421L157.674 33.3275H131.824L132.801 27.193L149.312 27.2236L149.495 26.3995C149.638 25.3619 149.587 24.4158 149.343 23.5612C149.098 22.6863 148.641 21.9843 147.969 21.4553C147.298 20.9263 146.392 20.6415 145.253 20.6008C143.93 20.5804 142.822 20.8653 141.926 21.4553C141.031 22.0454 140.309 22.8389 139.759 23.8359C139.21 24.8125 138.783 25.8807 138.478 27.0404C138.193 28.1798 137.979 29.2887 137.837 30.3671L137.715 31.5268C137.633 32.5849 137.664 33.6124 137.806 34.6093C137.969 35.6063 138.274 36.5117 138.722 37.3256C139.19 38.1191 139.82 38.7702 140.614 39.2788C141.428 39.7672 142.435 40.0317 143.635 40.0724C145.202 40.113 146.657 39.8078 148 39.1568C149.363 38.5057 150.584 37.6308 151.662 36.5321L155.691 41.6289C154.755 43.0124 153.575 44.1416 152.15 45.0165C150.726 45.8711 149.19 46.5018 147.542 46.9088C145.914 47.3157 144.307 47.509 142.72 47.4886Z" fill="#C4C4C4"/>
<path d="M170.831 22.0657L166.528 46.8782H157.219L162.957 13.8559H171.655L170.831 22.0657ZM181.604 13.5813L180.445 22.4625C179.916 22.3811 179.397 22.3099 178.888 22.2489C178.379 22.1878 177.861 22.1573 177.332 22.1573C176.172 22.1369 175.124 22.2794 174.188 22.5846C173.272 22.8694 172.469 23.3069 171.777 23.8969C171.106 24.487 170.546 25.2194 170.098 26.0943C169.651 26.9489 169.315 27.9255 169.091 29.0242L167.382 28.1697C167.606 26.603 167.952 24.9549 168.42 23.2255C168.888 21.4757 169.539 19.8378 170.373 18.3118C171.228 16.7655 172.316 15.5243 173.639 14.5884C174.982 13.6321 176.63 13.154 178.583 13.154C179.092 13.154 179.59 13.1947 180.078 13.2761C180.587 13.3575 181.096 13.4592 181.604 13.5813Z" fill="#C4C4C4"/>
<path d="M204.893 32.0152L214.385 31.8931C214.039 35.2299 212.94 38.0682 211.089 40.4081C209.237 42.7479 206.908 44.5282 204.1 45.749C201.292 46.9698 198.281 47.5497 195.066 47.4886C192.034 47.4276 189.481 46.7969 187.406 45.5964C185.351 44.3756 183.733 42.7479 182.553 40.7133C181.373 38.6786 180.589 36.3998 180.203 33.8769C179.837 31.3335 179.826 28.719 180.172 26.0333L180.569 23.317C180.976 20.5092 181.719 17.8133 182.797 15.2293C183.896 12.625 185.33 10.3055 187.1 8.27084C188.87 6.21584 190.976 4.60847 193.418 3.44872C195.86 2.28898 198.637 1.73962 201.75 1.80066C205.005 1.8617 207.772 2.55348 210.051 3.876C212.33 5.19852 214.09 7.03988 215.331 9.40006C216.593 11.7399 217.295 14.4969 217.437 17.6709L207.793 17.6404C207.833 16.033 207.66 14.6393 207.274 13.4592C206.887 12.2791 206.206 11.3533 205.229 10.6819C204.273 10.0105 202.92 9.64422 201.17 9.58318C199.298 9.52214 197.721 9.90873 196.439 10.7429C195.158 11.5568 194.1 12.6555 193.265 14.0391C192.451 15.4023 191.821 16.8977 191.373 18.5255C190.925 20.1328 190.59 21.7097 190.366 23.256L190 26.0638C189.837 27.3456 189.705 28.7597 189.603 30.3061C189.522 31.832 189.613 33.3072 189.878 34.7314C190.162 36.1353 190.742 37.3052 191.617 38.2412C192.513 39.1771 193.845 39.6756 195.615 39.7366C197.365 39.7773 198.871 39.5027 200.132 38.9126C201.394 38.3022 202.421 37.4171 203.215 36.2574C204.008 35.0773 204.568 33.6632 204.893 32.0152Z" fill="#C4C4C4"/>
<path d="M232.913 39.0042L235.141 24.7209C235.222 23.9071 235.192 23.1441 235.049 22.432C234.927 21.7198 234.622 21.14 234.134 20.6923C233.645 20.2244 232.923 19.9802 231.967 19.9599C231.133 19.9395 230.39 20.0921 229.739 20.4177C229.108 20.7229 228.589 21.1705 228.182 21.7605C227.796 22.3506 227.521 23.0424 227.358 23.8359L218.019 23.8969C218.121 22.025 218.63 20.4075 219.545 19.0443C220.481 17.6811 221.671 16.5722 223.116 15.7176C224.561 14.8427 226.137 14.2018 227.847 13.7949C229.556 13.388 231.234 13.2049 232.882 13.2455C235.181 13.2862 237.257 13.7746 239.108 14.7105C240.96 15.6261 242.374 16.9486 243.351 18.6781C244.348 20.3872 244.734 22.4625 244.51 24.9041L242.282 38.76C242.099 39.9604 241.936 41.2321 241.794 42.575C241.672 43.8975 241.865 45.1386 242.374 46.2984L242.343 46.8782L233.218 46.9088C232.811 45.6473 232.608 44.3451 232.608 43.0022C232.608 41.639 232.709 40.3063 232.913 39.0042ZM236.178 26.7352L235.324 31.9846L231.173 31.9541C230.359 31.9745 229.556 32.0965 228.762 32.3204C227.969 32.5238 227.257 32.8494 226.626 33.297C225.995 33.7243 225.466 34.2736 225.039 34.945C224.611 35.5961 224.347 36.3693 224.245 37.2645C224.144 37.9156 224.194 38.4955 224.398 39.0042C224.622 39.4925 224.957 39.8791 225.405 40.1639C225.853 40.4488 226.402 40.6014 227.053 40.6217C228.009 40.6421 228.935 40.4691 229.83 40.1029C230.746 39.7163 231.539 39.1771 232.211 38.4853C232.882 37.7732 233.34 36.9593 233.584 36.0438L235.385 40.0724C234.876 41.1914 234.266 42.2087 233.554 43.1243C232.842 44.0399 232.038 44.8334 231.143 45.5049C230.247 46.1559 229.25 46.6646 228.152 47.0308C227.073 47.3971 225.893 47.57 224.611 47.5497C222.78 47.509 221.102 47.0817 219.576 46.2678C218.07 45.4336 216.87 44.2942 215.974 42.8496C215.079 41.405 214.672 39.7366 214.754 37.8444C214.835 35.647 215.374 33.8362 216.371 32.4119C217.368 30.9673 218.66 29.8279 220.247 28.9937C221.834 28.1595 223.564 27.5695 225.436 27.2236C227.307 26.8777 229.169 26.7047 231.021 26.7047L236.178 26.7352Z" fill="#C4C4C4"/>
<path d="M258.002 22.0657L253.699 46.8782H244.391L250.128 13.8559H258.827L258.002 22.0657ZM268.776 13.5813L267.616 22.4625C267.087 22.3811 266.568 22.3099 266.06 22.2489C265.551 22.1878 265.032 22.1573 264.503 22.1573C263.343 22.1369 262.296 22.2794 261.36 22.5846C260.444 22.8694 259.64 23.3069 258.949 23.8969C258.277 24.487 257.718 25.2194 257.27 26.0943C256.822 26.9489 256.487 27.9255 256.263 29.0242L254.554 28.1697C254.778 26.603 255.123 24.9549 255.591 23.2255C256.059 21.4757 256.71 19.8378 257.545 18.3118C258.399 16.7655 259.488 15.5243 260.81 14.5884C262.153 13.6321 263.801 13.154 265.754 13.154C266.263 13.154 266.762 13.1947 267.25 13.2761C267.759 13.3575 268.267 13.4592 268.776 13.5813Z" fill="#C4C4C4"/>
<path d="M283.855 38.9431L290.63 0H300L291.851 46.8782H283.489L283.855 38.9431ZM265.36 31.008L265.421 30.3366C265.665 28.3223 266.123 26.2876 266.795 24.2326C267.486 22.1776 268.422 20.3058 269.602 18.617C270.782 16.9283 272.237 15.5854 273.967 14.5884C275.716 13.5914 277.792 13.1336 280.193 13.215C282.248 13.2964 283.926 13.8966 285.228 15.0157C286.551 16.1144 287.578 17.5183 288.311 19.2274C289.043 20.9162 289.542 22.7168 289.806 24.6294C290.091 26.5216 290.203 28.2918 290.142 29.9398L290.02 31.0996C289.695 32.8494 289.155 34.7009 288.403 36.6541C287.67 38.5871 286.704 40.3877 285.503 42.0561C284.303 43.7245 282.878 45.0674 281.23 46.0847C279.582 47.1021 277.71 47.5802 275.615 47.5192C273.397 47.4581 271.576 46.9189 270.152 45.9016C268.727 44.8843 267.629 43.5618 266.856 41.9341C266.103 40.286 265.614 38.5158 265.391 36.6236C265.187 34.7111 265.177 32.8392 265.36 31.008ZM274.76 30.3061L274.699 30.947C274.618 31.7608 274.567 32.6764 274.547 33.6937C274.526 34.7111 274.608 35.6979 274.791 36.6541C274.994 37.6104 275.381 38.4141 275.95 39.0652C276.541 39.7163 277.395 40.0724 278.514 40.1334C280.06 40.1741 281.352 39.8078 282.39 39.0347C283.428 38.2615 284.242 37.2645 284.832 36.0438C285.442 34.8026 285.839 33.5208 286.022 32.1983L286.449 28.9632C286.551 28.0883 286.571 27.1727 286.51 26.2164C286.47 25.2601 286.307 24.3751 286.022 23.5612C285.737 22.727 285.269 22.0352 284.618 21.4859C283.987 20.9365 283.102 20.6517 281.963 20.6313C280.701 20.5906 279.633 20.8755 278.758 21.4859C277.883 22.0963 277.171 22.8999 276.622 23.8969C276.093 24.8939 275.686 25.9621 275.401 27.1015C275.116 28.2205 274.903 29.2887 274.76 30.3061Z" fill="#C4C4C4"/>
</svg>
