<svg width="300" height="301" viewBox="0 0 300 301" fill="none" xmlns="http://www.w3.org/2000/svg">
<path d="M0 37.7496L35.1365 2.78568L80.3119 47.7393L45.1754 82.7032L0 37.7496Z" fill="#C4C4C4"/>
<path d="M126.204 127.657L14.6287 109.322L107.779 16.6289L126.204 127.657Z" fill="#C4C4C4"/>
<path d="M264.147 0.0102539L299.283 34.9742L254.108 79.9277L218.971 44.9638L264.147 0.0102539Z" fill="#C4C4C4"/>
<path d="M173.796 125.595L192.221 14.5668L285.371 107.26L173.796 125.595Z" fill="#C4C4C4"/>
<path d="M300 262.271L264.864 297.234L219.688 252.281L254.825 217.317L300 262.271Z" fill="#C4C4C4"/>
<path d="M173.796 172.363L285.372 190.699L192.221 283.391L173.796 172.363Z" fill="#C4C4C4"/>
<path d="M35.8538 300.01L0.717361 265.046L45.8928 220.093L81.0293 255.057L35.8538 300.01Z" fill="#C4C4C4"/>
<path d="M126.205 174.426L107.779 285.454L14.6289 192.761L126.205 174.426Z" fill="#C4C4C4"/>
</svg>
