<svg width="284" height="300" viewBox="0 0 284 300" fill="none" xmlns="http://www.w3.org/2000/svg">
<path fill-rule="evenodd" clip-rule="evenodd" d="M233.54 30H50C38.9543 30 30 38.9543 30 50V250C30 261.046 38.9543 270 50 270H233.54C244.585 270 253.54 261.046 253.54 250V50C253.54 38.9543 244.585 30 233.54 30ZM50 0C22.3858 0 0 22.3858 0 50V250C0 277.614 22.3858 300 50 300H233.54C261.154 300 283.54 277.614 283.54 250V50C283.54 22.3858 261.154 0 233.54 0H50Z" fill="#C4C4C4"/>
<rect x="60.7017" y="71.5" width="162.136" height="85" rx="29.5" stroke="#C4C4C4" stroke-width="25"/>
</svg>
