<svg width="300" height="300" viewBox="0 0 300 300" fill="none" xmlns="http://www.w3.org/2000/svg">
<path d="M170.476 123.653L130.681 123.541L130.538 71.9747L170.333 72.0868L170.476 123.653Z" fill="#C4C4C4"/>
<path d="M149.83 0L202.785 74.3453L97.2861 74.048L123.558 37.024L149.83 0Z" fill="#C4C4C4"/>
<path d="M118.425 170.117L118.314 130.01L228.478 130.154L228.589 170.262L118.425 170.117Z" fill="#C4C4C4"/>
<path d="M300 150L226.53 202.957L226.235 96.6285L300 150Z" fill="#C4C4C4"/>
<path d="M130.525 122.347L170.319 122.459L170.462 228.026L130.668 227.913L130.525 122.347Z" fill="#C4C4C4"/>
<path d="M151.171 300L98.2153 225.655L203.714 225.952L151.171 300Z" fill="#C4C4C4"/>
<path d="M122.575 129.883L122.686 169.99L71.5218 169.846L71.4105 129.739L122.575 129.883Z" fill="#C4C4C4"/>
<path d="M0 150L73.47 97.0434L73.7651 203.372L0 150Z" fill="#C4C4C4"/>
</svg>
