<svg width="240" height="300" viewBox="0 0 240 300" fill="none" xmlns="http://www.w3.org/2000/svg">
<path d="M239.781 101.825V49.1155C212.655 49.1155 190.665 27.126 190.665 0.000547013L137.956 0V206.934H186.131V86.5615C201.71 96.2374 220.093 101.825 239.781 101.825Z" fill="#C4C4C4"/>
<path d="M93.0657 113.869C41.6669 113.869 0 155.536 0 206.934C0 258.333 41.6669 300 93.0657 300C144.464 300 186.131 258.333 186.131 206.934H137.956C137.956 231.726 117.858 251.825 93.0657 251.825C68.2734 251.825 48.1752 231.726 48.1752 206.934C48.1752 182.142 68.2734 162.044 93.0657 162.044L93.0657 113.869Z" fill="#C4C4C4"/>
</svg>
