<svg width="300" height="212" viewBox="0 0 300 212" fill="none" xmlns="http://www.w3.org/2000/svg">
<path d="M232.333 29.3617L231.81 0C200.914 18.6818 153.199 40.2828 127.74 10.0501L92.4266 10.0497V148.69H124.703V68.0434C148.539 74.526 194.292 57.9526 232.333 29.3617Z" fill="#C4C4C4"/>
<path d="M62.3513 86.3384C27.9156 86.3384 0 114.254 0 148.69C0 183.125 27.9156 211.041 62.3513 211.041C96.7869 211.041 124.702 183.125 124.703 148.69H92.4266C92.4264 165.3 78.9613 178.765 62.3513 178.765C45.7412 178.765 32.276 165.3 32.276 148.69C32.276 132.079 45.7412 118.614 62.3513 118.614L62.3513 86.3384Z" fill="#C4C4C4"/>
<path d="M300 64.2V28.8861C281.827 28.8861 267.094 18.1736 267.094 0.000366429L231.781 0V134.62H264.057V53.9739C274.494 60.4565 286.81 64.2 300 64.2Z" fill="#C4C4C4"/>
<path d="M201.705 72.2689C167.27 72.2689 139.354 100.185 139.354 134.62C139.354 169.056 167.27 196.971 201.705 196.971C236.141 196.971 264.056 169.056 264.057 134.62H231.781C231.78 151.23 218.315 164.695 201.705 164.695C185.095 164.695 171.63 151.23 171.63 134.62C171.63 118.01 185.095 104.545 201.705 104.545L201.705 72.2689Z" fill="#C4C4C4"/>
</svg>
