<svg width="300" height="295" viewBox="0 0 300 295" fill="none" xmlns="http://www.w3.org/2000/svg">
<path fill-rule="evenodd" clip-rule="evenodd" d="M80 25.5795C80 19.5531 73.6081 15.7428 68.5504 19.0194C27.296 45.7461 0 92.1858 0 145.001C0 227.844 67.1572 295.001 150 295.001C232.843 295.001 300 227.844 300 145.001C300 92.1858 272.704 45.7461 231.45 19.0194C226.392 15.7428 220 19.5531 220 25.5795V52.4128C220 54.86 221.132 57.1595 222.999 58.7413C247.468 79.4692 263 110.421 263 145.001C263 207.409 212.408 258.001 150 258.001C87.5918 258.001 37 207.409 37 145.001C37 110.421 52.5324 79.4692 77.0011 58.7413C78.8684 57.1595 80 54.86 80 52.4128V25.5795Z" fill="#C4C4C4"/>
<rect x="131" width="46" height="173" rx="15" fill="#C4C4C4"/>
</svg>
