<svg width="300" height="208" viewBox="0 0 300 208" fill="none" xmlns="http://www.w3.org/2000/svg">
<path d="M0 134.207V131.408C0 120.835 1.51044 111.106 4.53132 102.221C7.5522 93.2474 11.9947 85.4731 17.8587 78.8983C23.7228 72.3234 30.964 67.2146 39.5824 63.5717C48.2008 59.8401 58.1519 57.9742 69.4358 57.9742C80.8085 57.9742 90.8041 59.8401 99.4225 63.5717C108.13 67.2146 115.415 72.3234 121.279 78.8983C127.143 85.4731 131.586 93.2474 134.607 102.221C137.628 111.106 139.138 120.835 139.138 131.408V134.207C139.138 144.691 137.628 154.42 134.607 163.394C131.586 172.279 127.143 180.053 121.279 186.717C115.415 193.292 108.174 198.401 99.5558 202.044C90.9374 205.686 80.9862 207.508 69.7024 207.508C58.4185 207.508 48.4229 205.686 39.7157 202.044C31.0084 198.401 23.7228 193.292 17.8587 186.717C11.9947 180.053 7.5522 172.279 4.53132 163.394C1.51044 154.42 0 144.691 0 134.207ZM44.9134 131.408V134.207C44.9134 139.627 45.3132 144.691 46.1128 149.4C46.9125 154.109 48.2452 158.241 50.1111 161.795C51.9769 165.26 54.5091 167.97 57.7077 169.924C60.9063 171.879 64.9045 172.857 69.7024 172.857C74.4114 172.857 78.3207 171.879 81.4305 169.924C84.6291 167.97 87.1613 165.26 89.0271 161.795C90.8929 158.241 92.2257 154.109 93.0253 149.4C93.825 144.691 94.2248 139.627 94.2248 134.207V131.408C94.2248 126.166 93.825 121.235 93.0253 116.615C92.2257 111.906 90.8929 107.774 89.0271 104.22C87.1613 100.578 84.6291 97.7343 81.4305 95.6908C78.2319 93.6473 74.2337 92.6255 69.4358 92.6255C64.7268 92.6255 60.773 93.6473 57.5744 95.6908C54.4647 97.7343 51.9769 100.578 50.1111 104.22C48.2452 107.774 46.9125 111.906 46.1128 116.615C45.3132 121.235 44.9134 126.166 44.9134 131.408Z" fill="#C4C4C4"/>
<path d="M204.442 0V204.842H159.529V0H204.442ZM296.668 60.6397L234.029 134.074L201.244 166.859L181.653 138.339L208.974 102.754L242.825 60.6397H296.668ZM248.556 204.842L210.04 139.138L243.225 115.549L300 204.842H248.556Z" fill="#C4C4C4"/>
</svg>
