<svg width="256" height="245" viewBox="0 0 256 245" fill="none" xmlns="http://www.w3.org/2000/svg">
<path fill-rule="evenodd" clip-rule="evenodd" d="M15 188.748C6.71573 188.748 0 195.464 0 203.748V244.146H255.682V203.748C255.682 195.464 248.966 188.748 240.682 188.748H15ZM148.807 198.975C140.523 198.975 133.807 205.691 133.807 213.975V218.577H242.046V213.975C242.046 205.691 235.33 198.975 227.046 198.975H148.807Z" fill="#C4C4C4"/>
<path d="M147.753 161.846C147.753 164.608 145.515 166.846 142.753 166.846L109.987 166.846C107.225 166.846 104.987 164.608 104.987 161.846L104.987 70.3137C104.987 67.5523 107.225 65.3137 109.987 65.3137L142.753 65.3137C145.515 65.3137 147.753 67.5523 147.753 70.3137L147.753 161.846Z" fill="#C4C4C4"/>
<path d="M121.869 4.68276C123.864 1.89907 128.003 1.89906 129.998 4.68274L176.198 69.1595C178.568 72.4681 176.203 77.0718 172.133 77.0718L79.7337 77.0718C75.6635 77.0718 73.2987 72.4681 75.6694 69.1595L121.869 4.68276Z" fill="#C4C4C4"/>
</svg>
