<svg width="232" height="33" viewBox="0 0 232 33" fill="none" xmlns="http://www.w3.org/2000/svg">
<path d="M18.9043 0C21.8586 0 24.4357 0.502857 26.6357 1.50857C28.8357 2.51429 30.5171 3.88143 31.68 5.61C32.8429 7.33857 33.4243 9.27143 33.4243 11.4086C33.4243 14.9286 32.3243 17.6943 30.1243 19.7057C27.9243 21.6857 24.1843 22.6757 18.9043 22.6757H12.6814V31.7271C12.6814 32.0729 12.5557 32.3714 12.3043 32.6229C12.0529 32.8743 11.7543 33 11.4086 33H1.27286C0.927143 33 0.628572 32.8743 0.377143 32.6229C0.125714 32.3714 0 32.0729 0 31.7271V1.27286C0 0.927144 0.125714 0.628573 0.377143 0.377144C0.628572 0.125715 0.927143 0 1.27286 0H18.9043ZM18.7157 13.9543C19.47 13.9543 20.0671 13.7343 20.5071 13.2943C20.9471 12.8229 21.1671 12.21 21.1671 11.4557C21.1671 10.67 20.9471 10.0257 20.5071 9.52286C20.0671 9.02 19.47 8.76857 18.7157 8.76857H12.7286V13.9543H18.7157Z" fill="#C4C4C4"/>
<path d="M47.3602 31.3971C46.9516 32.4657 46.2444 33 45.2387 33H36.3287C36.0459 33 35.7944 32.9057 35.5744 32.7171C35.3859 32.4971 35.2916 32.2457 35.2916 31.9629L35.3387 31.68L45.6159 1.55571C45.7416 1.14714 45.9773 0.785715 46.323 0.471428C46.6687 0.157143 47.1402 0 47.7373 0H60.843C61.4402 0 61.9116 0.157143 62.2573 0.471428C62.603 0.785715 62.8387 1.14714 62.9644 1.55571L73.2416 31.68L73.2887 31.9629C73.2887 32.2457 73.1787 32.4971 72.9587 32.7171C72.7702 32.9057 72.5344 33 72.2516 33H63.3416C62.3359 33 61.6287 32.4657 61.2202 31.3971L60.0416 28.0971H48.5387L47.3602 31.3971ZM54.2902 9.09857L50.943 18.9043H57.6373L54.2902 9.09857Z" fill="#C4C4C4"/>
<path d="M111.456 0C111.739 0 111.975 0.11 112.163 0.330001C112.383 0.518572 112.493 0.738572 112.493 0.990001C112.493 1.17857 112.446 1.36714 112.352 1.55571L100.472 21.2143V31.7271C100.472 32.0729 100.346 32.3714 100.095 32.6229C99.8432 32.8743 99.5446 33 99.1989 33H89.1575C88.8117 33 88.5132 32.8743 88.2617 32.6229C88.0103 32.3714 87.8846 32.0729 87.8846 31.7271V21.2143L76.0517 1.55571C75.9575 1.36714 75.9103 1.19429 75.9103 1.03714C75.9103 0.754286 76.0046 0.518572 76.1932 0.330001C76.4132 0.11 76.6646 0 76.9475 0H86.8946C87.7746 0 88.4189 0.361429 88.8275 1.08429L94.1546 10.4186L99.6232 1.17857C100.095 0.392858 100.755 0 101.603 0H111.456Z" fill="#C4C4C4"/>
<path d="M139.063 0C142.018 0 144.595 0.502857 146.795 1.50857C148.995 2.51429 150.676 3.88143 151.839 5.61C153.002 7.33857 153.583 9.27143 153.583 11.4086C153.583 14.9286 152.483 17.6943 150.283 19.7057C148.083 21.6857 144.343 22.6757 139.063 22.6757H132.84V31.7271C132.84 32.0729 132.715 32.3714 132.463 32.6229C132.212 32.8743 131.913 33 131.568 33H121.432C121.086 33 120.788 32.8743 120.536 32.6229C120.285 32.3714 120.159 32.0729 120.159 31.7271V1.27286C120.159 0.927144 120.285 0.628573 120.536 0.377144C120.788 0.125715 121.086 0 121.432 0H139.063ZM138.875 13.9543C139.629 13.9543 140.226 13.7343 140.666 13.2943C141.106 12.8229 141.326 12.21 141.326 11.4557C141.326 10.67 141.106 10.0257 140.666 9.52286C140.226 9.02 139.629 8.76857 138.875 8.76857H132.888V13.9543H138.875Z" fill="#C4C4C4"/>
<path d="M167.519 31.3971C167.111 32.4657 166.403 33 165.398 33H156.488C156.205 33 155.953 32.9057 155.733 32.7171C155.545 32.4971 155.451 32.2457 155.451 31.9629L155.498 31.68L165.775 1.55571C165.901 1.14714 166.136 0.785715 166.482 0.471428C166.828 0.157143 167.299 0 167.896 0H181.002C181.599 0 182.071 0.157143 182.416 0.471428C182.762 0.785715 182.998 1.14714 183.123 1.55571L193.401 31.68L193.448 31.9629C193.448 32.2457 193.338 32.4971 193.118 32.7171C192.929 32.9057 192.693 33 192.411 33H183.501C182.495 33 181.788 32.4657 181.379 31.3971L180.201 28.0971H168.698L167.519 31.3971ZM174.449 9.09857L171.102 18.9043H177.796L174.449 9.09857Z" fill="#C4C4C4"/>
<path d="M229.729 23.3357C230.075 23.3357 230.374 23.4614 230.625 23.7129C230.876 23.9643 231.002 24.2629 231.002 24.6086V31.7271C231.002 32.0729 230.876 32.3714 230.625 32.6229C230.374 32.8743 230.075 33 229.729 33H202.198C201.852 33 201.554 32.8743 201.302 32.6229C201.051 32.3714 200.925 32.0729 200.925 31.7271V1.27286C200.925 0.927144 201.051 0.628573 201.302 0.377144C201.554 0.125715 201.852 0 202.198 0H212.381C212.726 0 213.025 0.125715 213.276 0.377144C213.528 0.628573 213.654 0.927144 213.654 1.27286V23.3357H229.729Z" fill="#C4C4C4"/>
</svg>
