<svg width="273" height="300" viewBox="0 0 273 300" fill="none" xmlns="http://www.w3.org/2000/svg">
<path fill-rule="evenodd" clip-rule="evenodd" d="M87.6943 300H156.258L171.635 188.811L171.546 189.518C171.535 189.6 171.531 189.643 171.531 189.643L171.546 189.518C171.699 188.391 173.086 179.948 180.891 175.356C189.266 170.429 199.613 169.937 199.613 169.937H174.245L174.245 169.936H192.527C236.709 169.936 272.527 134.119 272.527 89.9364V77.137C272.527 49.5154 252.165 26.6495 225.633 22.7302C227.303 29.9781 228.186 37.5271 228.186 45.2823V63.0401C228.186 118.269 183.415 163.04 128.186 163.04H120.864C117.885 163.453 113.36 164.318 108.764 166.1L87.6943 300Z" fill="#C4C4C4"/>
<path fill-rule="evenodd" clip-rule="evenodd" d="M161.773 0H122.181H38.4279L0 277.863H83.753L99.1298 166.677L99.0418 167.381C99.0307 167.463 99.0261 167.507 99.0261 167.507L99.0418 167.381C99.1943 166.254 100.581 157.811 108.387 153.219C116.762 148.292 127.108 147.8 127.108 147.8H101.74L101.741 147.799H136.772C180.955 147.799 216.772 111.982 216.772 67.7994V55C216.772 24.6243 192.148 0 161.773 0Z" fill="#C4C4C4"/>
</svg>
