<svg width="300" height="29" viewBox="0 0 300 29" fill="none" xmlns="http://www.w3.org/2000/svg">
<path d="M16.109 0.40172C18.6265 0.40172 20.8225 0.830222 22.6972 1.68723C24.5719 2.54423 26.0047 3.70922 26.9956 5.1822C27.9865 6.65517 28.482 8.30223 28.482 10.1234C28.482 13.1229 27.5447 15.4796 25.67 17.1936C23.7953 18.8809 20.6083 19.7245 16.109 19.7245H10.8063V27.4375C10.8063 27.7321 10.6992 27.9865 10.4849 28.2008C10.2707 28.415 10.0162 28.5222 9.72164 28.5222H1.08465C0.790051 28.5222 0.535628 28.415 0.321377 28.2008C0.107126 27.9865 0 27.7321 0 27.4375V1.48637C0 1.19177 0.107126 0.937349 0.321377 0.723098C0.535628 0.508846 0.790051 0.40172 1.08465 0.40172H16.109ZM15.9483 12.2927C16.5911 12.2927 17.0999 12.1052 17.4749 11.7302C17.8498 11.3285 18.0373 10.8063 18.0373 10.1635C18.0373 9.494 17.8498 8.94498 17.4749 8.51648C17.0999 8.08798 16.5911 7.87373 15.9483 7.87373H10.8465V12.2927H15.9483Z" fill="#C4C4C4"/>
<path d="M51.6054 20.2869H58.8766C59.1712 20.2869 59.4256 20.394 59.6398 20.6083C59.8541 20.8225 59.9612 21.0769 59.9612 21.3715V27.4375C59.9612 27.7321 59.8541 27.9865 59.6398 28.2008C59.4256 28.415 59.1712 28.5222 58.8766 28.5222H33.4075C33.1129 28.5222 32.8585 28.415 32.6442 28.2008C32.43 27.9865 32.3228 27.7321 32.3228 27.4375V21.3715C32.3228 21.0769 32.43 20.8225 32.6442 20.6083C32.8585 20.394 33.1129 20.2869 33.4075 20.2869H40.759V8.637H33.4075C33.1129 8.637 32.8585 8.52987 32.6442 8.31562C32.43 8.10137 32.3228 7.84694 32.3228 7.55235V1.48637C32.3228 1.19177 32.43 0.937349 32.6442 0.723098C32.8585 0.508846 33.1129 0.40172 33.4075 0.40172H58.8766C59.1712 0.40172 59.4256 0.508846 59.6398 0.723098C59.8541 0.937349 59.9612 1.19177 59.9612 1.48637V7.55235C59.9612 7.84694 59.8541 8.10137 59.6398 8.31562C59.4256 8.52987 59.1712 8.637 58.8766 8.637H51.6054V20.2869Z" fill="#C4C4C4"/>
<path d="M92.8464 0.40172C93.141 0.40172 93.3955 0.508846 93.6097 0.723098C93.824 0.937349 93.9311 1.19177 93.9311 1.48637V27.4375C93.9311 27.7321 93.824 27.9865 93.6097 28.2008C93.3955 28.415 93.141 28.5222 92.8464 28.5222H86.3787C85.736 28.5222 85.2004 28.241 84.7719 27.6786L76.0143 16.5107V27.4375C76.0143 27.7321 75.9072 27.9865 75.693 28.2008C75.4787 28.415 75.2243 28.5222 74.9297 28.5222H67.4577C67.1631 28.5222 66.9087 28.415 66.6944 28.2008C66.4802 27.9865 66.373 27.7321 66.373 27.4375V1.48637C66.373 1.19177 66.4802 0.937349 66.6944 0.723098C66.9087 0.508846 67.1631 0.40172 67.4577 0.40172H73.9656C74.6083 0.40172 75.1306 0.669535 75.5323 1.20516L84.2898 13.297V1.48637C84.2898 1.19177 84.3969 0.937349 84.6112 0.723098C84.8254 0.508846 85.0798 0.40172 85.3744 0.40172H92.8464Z" fill="#C4C4C4"/>
<path d="M128.263 0.40172C128.557 0.40172 128.812 0.508846 129.026 0.723098C129.24 0.937349 129.347 1.19177 129.347 1.48637V7.95407C129.347 8.24866 129.24 8.50309 129.026 8.71734C128.812 8.93159 128.557 9.03872 128.263 9.03872H119.626V27.4375C119.626 27.7321 119.518 27.9865 119.304 28.2008C119.09 28.415 118.835 28.5222 118.541 28.5222H110.265C109.971 28.5222 109.716 28.415 109.502 28.2008C109.288 27.9865 109.181 27.7321 109.181 27.4375V9.03872H100.544C100.249 9.03872 99.9948 8.93159 99.7805 8.71734C99.5663 8.50309 99.4591 8.24866 99.4591 7.95407V1.48637C99.4591 1.19177 99.5663 0.937349 99.7805 0.723098C99.9948 0.508846 100.249 0.40172 100.544 0.40172H128.263Z" fill="#C4C4C4"/>
<path d="M161.549 20.6886C161.844 20.6886 162.098 20.7957 162.313 21.01C162.527 21.2242 162.634 21.4787 162.634 21.7733V27.4375C162.634 27.7321 162.527 27.9865 162.313 28.2008C162.098 28.415 161.844 28.5222 161.549 28.5222H136.161C135.866 28.5222 135.612 28.415 135.397 28.2008C135.183 27.9865 135.076 27.7321 135.076 27.4375V1.48637C135.076 1.19177 135.183 0.937349 135.397 0.723098C135.612 0.508846 135.866 0.40172 136.161 0.40172H161.148C161.442 0.40172 161.697 0.508846 161.911 0.723098C162.125 0.937349 162.232 1.19177 162.232 1.48637V7.15063C162.232 7.44522 162.125 7.69965 161.911 7.9139C161.697 8.12815 161.442 8.23528 161.148 8.23528H145.521V10.7661H158.938C159.233 10.7661 159.487 10.8732 159.702 11.0875C159.916 11.3017 160.023 11.5562 160.023 11.8508V17.0731C160.023 17.3677 159.916 17.6221 159.702 17.8364C159.487 18.0507 159.233 18.1578 158.938 18.1578H145.521V20.6886H161.549Z" fill="#C4C4C4"/>
<path d="M198.613 27.2768C198.666 27.384 198.693 27.5045 198.693 27.6384C198.693 27.8794 198.599 28.0937 198.412 28.2811C198.251 28.4418 198.05 28.5222 197.809 28.5222H188.69C188.315 28.5222 187.967 28.4284 187.646 28.241C187.351 28.0535 187.137 27.8125 187.003 27.5179L183.468 19.5638H180.093V27.4375C180.093 27.7321 179.986 27.9865 179.772 28.2008C179.558 28.415 179.303 28.5222 179.009 28.5222H170.331C170.037 28.5222 169.782 28.415 169.568 28.2008C169.354 27.9865 169.247 27.7321 169.247 27.4375V1.48637C169.247 1.19177 169.354 0.937349 169.568 0.723098C169.782 0.508846 170.037 0.40172 170.331 0.40172H185.958C188.369 0.40172 190.471 0.790051 192.265 1.56671C194.087 2.34337 195.479 3.46819 196.443 4.94117C197.407 6.41414 197.889 8.14154 197.889 10.1234C197.889 13.7656 196.483 16.4036 193.671 18.0373L198.613 27.2768ZM185.115 12.132C185.704 12.132 186.159 11.9445 186.481 11.5696C186.802 11.1678 186.963 10.6724 186.963 10.0832C186.963 9.494 186.802 8.98515 186.481 8.55665C186.186 8.10137 185.731 7.87373 185.115 7.87373H180.093V12.132H185.115Z" fill="#C4C4C4"/>
<path d="M229.811 20.6886C230.105 20.6886 230.36 20.7957 230.574 21.01C230.788 21.2242 230.895 21.4787 230.895 21.7733V27.4375C230.895 27.7321 230.788 27.9865 230.574 28.2008C230.36 28.415 230.105 28.5222 229.811 28.5222H204.422C204.127 28.5222 203.873 28.415 203.659 28.2008C203.444 27.9865 203.337 27.7321 203.337 27.4375V1.48637C203.337 1.19177 203.444 0.937349 203.659 0.723098C203.873 0.508846 204.127 0.40172 204.422 0.40172H229.409C229.703 0.40172 229.958 0.508846 230.172 0.723098C230.386 0.937349 230.494 1.19177 230.494 1.48637V7.15063C230.494 7.44522 230.386 7.69965 230.172 7.9139C229.958 8.12815 229.703 8.23528 229.409 8.23528H213.782V10.7661H227.199C227.494 10.7661 227.748 10.8732 227.963 11.0875C228.177 11.3017 228.284 11.5562 228.284 11.8508V17.0731C228.284 17.3677 228.177 17.6221 227.963 17.8364C227.748 18.0507 227.494 18.1578 227.199 18.1578H213.782V20.6886H229.811Z" fill="#C4C4C4"/>
<path d="M253.135 10.6054C256.081 10.9268 258.438 11.449 260.205 12.1721C262 12.8952 263.298 13.846 264.102 15.0244C264.905 16.2027 265.307 17.6757 265.307 19.4433C265.307 21.3715 264.678 23.0588 263.419 24.505C262.187 25.9244 260.473 27.0224 258.277 27.7991C256.081 28.549 253.577 28.9239 250.765 28.9239C247.631 28.9239 244.98 28.5356 242.811 27.7589C240.641 26.9822 239.021 25.9512 237.95 24.6657C236.879 23.3534 236.343 21.9206 236.343 20.3672C236.343 20.0994 236.423 19.8852 236.584 19.7245C236.771 19.5638 236.999 19.4835 237.267 19.4835H245.502C246.065 19.4835 246.52 19.6575 246.868 20.0057C247.323 20.4342 247.832 20.7288 248.395 20.8895C248.957 21.0234 249.747 21.0903 250.765 21.0903C253.309 21.0903 254.581 20.702 254.581 19.9253C254.581 19.604 254.407 19.3362 254.059 19.1219C253.737 18.8809 253.148 18.68 252.291 18.5193C251.461 18.3319 250.229 18.1444 248.595 17.9569C244.926 17.5284 242.114 16.6178 240.159 15.2252C238.204 13.8058 237.227 11.8106 237.227 9.23958C237.227 7.41844 237.776 5.81156 238.874 4.41893C239.972 3.0263 241.525 1.94165 243.534 1.16499C245.569 0.38833 247.926 0 250.604 0C253.389 0 255.826 0.441893 257.915 1.32568C260.004 2.18268 261.598 3.25394 262.696 4.53945C263.794 5.82495 264.343 7.08368 264.343 8.31562C264.343 8.58343 264.249 8.79768 264.062 8.95837C263.901 9.11906 263.673 9.1994 263.379 9.1994H254.742C254.286 9.1994 253.871 9.03872 253.496 8.71734C253.202 8.44953 252.854 8.23528 252.452 8.07459C252.05 7.9139 251.434 7.83355 250.604 7.83355C248.81 7.83355 247.913 8.20849 247.913 8.95837C247.913 9.36009 248.261 9.68147 248.957 9.9225C249.653 10.1368 251.046 10.3644 253.135 10.6054Z" fill="#C4C4C4"/>
<path d="M298.915 0.40172C299.21 0.40172 299.464 0.508846 299.679 0.723098C299.893 0.937349 300 1.19177 300 1.48637V7.95407C300 8.24866 299.893 8.50309 299.679 8.71734C299.464 8.93159 299.21 9.03872 298.915 9.03872H290.278V27.4375C290.278 27.7321 290.171 27.9865 289.957 28.2008C289.743 28.415 289.488 28.5222 289.194 28.5222H280.918C280.624 28.5222 280.369 28.415 280.155 28.2008C279.941 27.9865 279.834 27.7321 279.834 27.4375V9.03872H271.197C270.902 9.03872 270.648 8.93159 270.433 8.71734C270.219 8.50309 270.112 8.24866 270.112 7.95407V1.48637C270.112 1.19177 270.219 0.937349 270.433 0.723098C270.648 0.508846 270.902 0.40172 271.197 0.40172H298.915Z" fill="#C4C4C4"/>
</svg>
