<svg width="300" height="300" viewBox="0 0 300 300" fill="none" xmlns="http://www.w3.org/2000/svg">
<path fill-rule="evenodd" clip-rule="evenodd" d="M150 300C232.843 300 300 232.843 300 150C300 67.1573 232.843 0 150 0C67.1573 0 0 67.1573 0 150C0 220.567 48.7295 279.753 114.375 295.744L109.115 257.29L109.115 257.29L130.516 151.046C124.609 144.357 123.195 128.79 127.681 112.05C133.213 91.4022 145.626 76.7877 155.405 79.408C165.184 82.0283 168.627 100.891 163.094 121.539C162.758 122.792 162.397 124.023 162.013 125.229L157.108 149.58C192.597 179.549 211.66 158.593 211.66 126.071C211.66 92.6376 185.916 65.5346 154.158 65.5346C122.4 65.5346 96.6558 92.6376 96.6558 126.071C96.6558 139.326 96.6558 149.033 119.464 149.033L110.294 163.227C80 163.227 80 138.849 80 126.071C80 82.9535 113.202 48 154.158 48C195.114 48 228.316 82.9535 228.316 126.071C228.316 169.049 195.328 191.391 154.555 164.896V162.255L134.319 262.715L114.645 295.809C125.982 298.549 137.821 300 150 300Z" fill="#C4C4C4"/>
</svg>
