<svg width="300" height="300" viewBox="0 0 300 300" fill="none" xmlns="http://www.w3.org/2000/svg">
<path fill-rule="evenodd" clip-rule="evenodd" d="M150 300C232.843 300 300 232.843 300 150C300 67.1573 232.843 0 150 0C67.1573 0 0 67.1573 0 150C0 232.843 67.1573 300 150 300ZM175.5 246.5C175.5 257.546 166.546 266.5 155.5 266.5H144.5C133.454 266.5 124.5 257.546 124.5 246.5L124.5 175H53C41.9543 175 33 166.046 33 155V144C33 132.954 41.9543 124 53 124H124.5L124.5 52.5C124.5 41.4543 133.454 32.5 144.5 32.5L155.5 32.5C166.546 32.5 175.5 41.4543 175.5 52.5V124H247C258.046 124 267 132.954 267 144V155C267 166.046 258.046 175 247 175H175.5V246.5Z" fill="#C4C4C4"/>
</svg>
