<svg width="230" height="300" viewBox="0 0 230 300" fill="none" xmlns="http://www.w3.org/2000/svg">
<path fill-rule="evenodd" clip-rule="evenodd" d="M155.682 0H0V300H229.225V77H155.682V0ZM167.143 65H229.225L167.143 0V65ZM35 96C23.9543 96 15 104.954 15 116V191.49C15 202.536 23.9543 211.49 35 211.49H55.1177V231C55.1177 242.046 64.072 251 75.1177 251H194.373C205.418 251 214.373 242.046 214.373 231V155.51C214.373 144.464 205.418 135.51 194.373 135.51H174.255V116C174.255 104.954 165.301 96 154.255 96H35ZM70.9216 215.196V211.49H154.255C165.301 211.49 174.255 202.536 174.255 191.49V151.314H178.569C189.614 151.314 198.569 160.268 198.569 171.314V215.196C198.569 226.242 189.614 235.196 178.569 235.196H90.9216C79.876 235.196 70.9216 226.242 70.9216 215.196ZM50.804 111.804C39.7583 111.804 30.804 120.758 30.804 131.804V175.687C30.804 186.732 39.7583 195.687 50.804 195.687H138.451C149.497 195.687 158.451 186.732 158.451 175.686V131.804C158.451 120.758 149.497 111.804 138.451 111.804H50.804Z" fill="#C4C4C4"/>
</svg>
