<svg width="300" height="265" viewBox="0 0 300 265" fill="none" xmlns="http://www.w3.org/2000/svg">
<path fill-rule="evenodd" clip-rule="evenodd" d="M262.131 75.0899C263.904 71.9453 267.233 70 270.843 70H290C295.523 70 300 74.4772 300 80V240C300 245.523 295.523 250 290 250H258C252.477 250 248 245.523 248 240V205C248 199.477 243.523 195 238 195H62C56.4772 195 52 199.477 52 205V240C52 245.523 47.5228 250 42 250H10C4.47715 250 0 245.523 0 240V80C0 74.4772 4.47715 70 10 70H30.0637C33.7231 70 37.0903 71.9989 38.8426 75.2115L63.1574 119.789C64.9097 123.001 68.2769 125 71.9363 125H228.157C231.767 125 235.096 123.055 236.869 119.91L262.131 75.0899Z" fill="#C4C4C4"/>
<path d="M67.9268 215.555C68.564 213.444 70.5086 212 72.7134 212H227.219C229.456 212 231.421 213.486 232.03 215.638L244.2 258.638C245.103 261.83 242.705 265 239.389 265H59.7323C56.3794 265 53.9767 261.765 54.9457 258.555L67.9268 215.555Z" fill="#C4C4C4"/>
<path fill-rule="evenodd" clip-rule="evenodd" d="M77.1104 0C74.7124 0 72.652 1.70251 72.2 4.05755L58.7526 74.1214C58.465 75.6197 58.8752 77.0652 59.7332 78.1553L69.731 102.875C70.4949 104.764 72.3287 106 74.3662 106L225.329 106C227.324 106 229.129 104.813 229.92 102.981L240.374 78.7486C241.581 77.638 242.233 75.9495 241.914 74.1784L229.307 4.11454C228.879 1.73292 226.806 0 224.386 0H77.1104Z" fill="#C4C4C4"/>
</svg>
