<svg width="300" height="300" viewBox="0 0 300 300" fill="none" xmlns="http://www.w3.org/2000/svg">
<path d="M214.404 29.6644L270.336 85.5959L178.402 177.529L122.471 121.598L214.404 29.6644Z" fill="#C4C4C4"/>
<path d="M297.337 74.0238C300.888 77.5744 300.888 83.3311 297.337 86.8817L283.836 100.382C280.286 103.933 274.529 103.933 270.979 100.382L199.618 29.0215C196.067 25.4709 196.067 19.7142 199.618 16.1637L213.118 2.66294C216.669 -0.887647 222.426 -0.887647 225.976 2.66294L297.337 74.0238Z" fill="#C4C4C4"/>
<path d="M36.3233 282.32L17.6795 263.677L117.328 164.029L135.971 182.672L36.3233 282.32Z" fill="#C4C4C4"/>
<path d="M65.8963 120.312L180.331 234.747L193.832 106.811L65.8963 120.312Z" fill="#C4C4C4"/>
<path d="M36.3233 282.32L17.6795 263.677L0 300L36.3233 282.32Z" fill="#C4C4C4"/>
</svg>
