<svg width="300" height="300" viewBox="0 0 300 300" fill="none" xmlns="http://www.w3.org/2000/svg">
<rect x="50.0005" y="50.0005" width="25" height="25" fill="#C4C4C4"/>
<rect x="125" y="75" width="25" height="25" fill="#C4C4C4"/>
<rect x="150" width="25" height="50" fill="#C4C4C4"/>
<rect x="225" y="125" width="25" height="75" fill="#C4C4C4"/>
<rect x="250" y="150" width="50" height="50" fill="#C4C4C4"/>
<rect x="275" y="225" width="25" height="25" fill="#C4C4C4"/>
<rect x="225" y="275" width="75" height="25" fill="#C4C4C4"/>
<rect x="175" y="250" width="50" height="25" fill="#C4C4C4"/>
<rect x="150" y="225" width="100" height="25" fill="#C4C4C4"/>
<rect x="150" y="275" width="25" height="25" fill="#C4C4C4"/>
<rect x="175" y="150" width="25" height="75" fill="#C4C4C4"/>
<rect x="175" y="150" width="25" height="50" transform="rotate(90 175 150)" fill="#C4C4C4"/>
<rect y="125" width="25" height="25" fill="#C4C4C4"/>
<rect x="50.0005" y="150" width="25" height="25" fill="#C4C4C4"/>
<rect width="25" height="100" fill="#C4C4C4"/>
<rect x="125" width="25" height="100" transform="rotate(90 125 0)" fill="#C4C4C4"/>
<rect x="125" y="125" width="25" height="100" transform="rotate(-180 125 125)" fill="#C4C4C4"/>
<rect y="125" width="25" height="100" transform="rotate(-90 0 125)" fill="#C4C4C4"/>
<rect x="50.0005" y="225" width="25" height="25" fill="#C4C4C4"/>
<rect y="175" width="25" height="100" fill="#C4C4C4"/>
<rect x="125" y="175" width="25" height="100" transform="rotate(90 125 175)" fill="#C4C4C4"/>
<rect x="125" y="300" width="25" height="100" transform="rotate(-180 125 300)" fill="#C4C4C4"/>
<rect y="300" width="25" height="100" transform="rotate(-90 0 300)" fill="#C4C4C4"/>
<rect x="225" y="50.0005" width="25" height="25" fill="#C4C4C4"/>
<rect x="175" width="25" height="100" fill="#C4C4C4"/>
<rect x="300" width="25" height="100" transform="rotate(90 300 0)" fill="#C4C4C4"/>
<rect x="300" y="125" width="25" height="100" transform="rotate(-180 300 125)" fill="#C4C4C4"/>
<rect x="175" y="125" width="25" height="100" transform="rotate(-90 175 125)" fill="#C4C4C4"/>
</svg>
