<svg width="300" height="300" viewBox="0 0 300 300" fill="none" xmlns="http://www.w3.org/2000/svg">
<path fill-rule="evenodd" clip-rule="evenodd" d="M150 300C232.843 300 300 232.843 300 150C300 67.1572 232.843 0 150 0C67.1572 0 0 67.1572 0 150C0 232.843 67.1572 300 150 300ZM124.469 183.172H164.828C165.016 175.766 166.094 169.625 168.062 164.75C170.031 159.781 173.734 154.906 179.172 150.125C185.453 144.312 191.125 138.875 196.188 133.812C201.344 128.656 205.422 123.125 208.422 117.219C211.516 111.219 213.062 104.188 213.062 96.125C213.062 84.0312 210.438 73.8594 205.188 65.6094C199.938 57.2656 192.391 50.9844 182.547 46.7656C172.703 42.5469 160.938 40.4375 147.25 40.4375C134.875 40.4375 123.672 42.5 113.641 46.625C103.703 50.6562 95.7344 57.0781 89.7344 65.8906C83.8281 74.6094 80.7344 85.9531 80.4531 99.9219H128.125C128.312 94.4844 129.297 90.125 131.078 86.8438C132.859 83.4688 135.156 80.9844 137.969 79.3906C140.875 77.7969 143.969 77 147.25 77C151.281 77 154.609 77.7969 157.234 79.3906C159.953 80.8906 161.969 83.1875 163.281 86.2812C164.688 89.375 165.391 93.3594 165.391 98.2344C165.391 102.172 164.547 105.875 162.859 109.344C161.172 112.812 158.734 116.234 155.547 119.609C152.359 122.984 148.562 126.5 144.156 130.156C139.188 134.469 135.25 139.156 132.344 144.219C129.438 149.281 127.375 155 126.156 161.375C125.031 167.656 124.469 174.922 124.469 183.172ZM126.016 209.047C121.141 213.547 118.703 219.172 118.703 225.922C118.703 232.672 121.141 238.344 126.016 242.938C130.891 247.438 137.219 249.688 145 249.688C152.781 249.688 159.109 247.438 163.984 242.938C168.859 238.344 171.297 232.672 171.297 225.922C171.297 219.172 168.859 213.547 163.984 209.047C159.109 204.453 152.781 202.156 145 202.156C137.219 202.156 130.891 204.453 126.016 209.047Z" fill="#C4C4C4"/>
</svg>
