<svg width="234" height="33" viewBox="0 0 234 33" fill="none" xmlns="http://www.w3.org/2000/svg">
<path d="M34.4614 31.5386C34.5243 31.6643 34.5557 31.8057 34.5557 31.9629C34.5557 32.2457 34.4457 32.4971 34.2257 32.7171C34.0371 32.9057 33.8014 33 33.5186 33H22.8171C22.3771 33 21.9686 32.89 21.5914 32.67C21.2457 32.45 20.9943 32.1671 20.8371 31.8214L16.6886 22.4871H12.7286V31.7271C12.7286 32.0729 12.6029 32.3714 12.3514 32.6229C12.1 32.8743 11.8014 33 11.4557 33H1.27286C0.927143 33 0.628571 32.8743 0.377143 32.6229C0.125714 32.3714 0 32.0729 0 31.7271V1.27286C0 0.927144 0.125714 0.628573 0.377143 0.377144C0.628571 0.125715 0.927143 0 1.27286 0H19.6114C22.44 0 24.9071 0.455715 27.0129 1.36714C29.15 2.27857 30.7843 3.59857 31.9157 5.32714C33.0471 7.05572 33.6129 9.08286 33.6129 11.4086C33.6129 15.6829 31.9629 18.7786 28.6629 20.6957L34.4614 31.5386ZM18.6214 13.7657C19.3129 13.7657 19.8471 13.5457 20.2243 13.1057C20.6014 12.6343 20.79 12.0529 20.79 11.3614C20.79 10.67 20.6014 10.0729 20.2243 9.57C19.8786 9.03572 19.3443 8.76857 18.6214 8.76857H12.7286V13.7657H18.6214Z" fill="#C4C4C4"/>
<path d="M71.073 23.8071C71.4187 23.8071 71.7173 23.9329 71.9687 24.1843C72.2202 24.4357 72.3459 24.7343 72.3459 25.08V31.7271C72.3459 32.0729 72.2202 32.3714 71.9687 32.6229C71.7173 32.8743 71.4187 33 71.073 33H41.2787C40.933 33 40.6344 32.8743 40.383 32.6229C40.1316 32.3714 40.0059 32.0729 40.0059 31.7271V1.27286C40.0059 0.927144 40.1316 0.628573 40.383 0.377144C40.6344 0.125715 40.933 0 41.2787 0H70.6016C70.9473 0 71.2459 0.125715 71.4973 0.377144C71.7487 0.628573 71.8744 0.927144 71.8744 1.27286V7.92C71.8744 8.26571 71.7487 8.56429 71.4973 8.81571C71.2459 9.06714 70.9473 9.19286 70.6016 9.19286H52.263V12.1629H68.0087C68.3544 12.1629 68.653 12.2886 68.9044 12.54C69.1559 12.7914 69.2816 13.09 69.2816 13.4357V19.5643C69.2816 19.91 69.1559 20.2086 68.9044 20.46C68.653 20.7114 68.3544 20.8371 68.0087 20.8371H52.263V23.8071H71.073Z" fill="#C4C4C4"/>
<path d="M95.7103 0C101.022 0 105.265 1.14714 108.439 3.44143C111.645 5.73571 113.247 9.28714 113.247 14.0957V18.9043C113.247 23.8071 111.66 27.39 108.486 29.6529C105.343 31.8843 101.085 33 95.7103 33H80.6717C80.326 33 80.0275 32.8743 79.776 32.6229C79.5246 32.3714 79.3989 32.0729 79.3989 31.7271V1.27286C79.3989 0.927144 79.5246 0.628573 79.776 0.377144C80.0275 0.125715 80.326 0 80.6717 0H95.7103ZM95.946 23.8071C97.4232 23.8071 98.586 23.4614 99.4346 22.77C100.315 22.0471 100.755 21.0414 100.755 19.7529V13.2471C100.755 11.9586 100.315 10.9686 99.4346 10.2771C98.586 9.55429 97.4232 9.19286 95.946 9.19286H91.656V23.8071H95.946Z" fill="#C4C4C4"/>
<path d="M135.763 0C141.075 0 145.318 1.14714 148.492 3.44143C151.698 5.73571 153.3 9.28714 153.3 14.0957V18.9043C153.3 23.8071 151.713 27.39 148.539 29.6529C145.396 31.8843 141.138 33 135.763 33H120.725C120.379 33 120.08 32.8743 119.829 32.6229C119.578 32.3714 119.452 32.0729 119.452 31.7271V1.27286C119.452 0.927144 119.578 0.628573 119.829 0.377144C120.08 0.125715 120.379 0 120.725 0H135.763ZM135.999 23.8071C137.476 23.8071 138.639 23.4614 139.488 22.77C140.368 22.0471 140.808 21.0414 140.808 19.7529V13.2471C140.808 11.9586 140.368 10.9686 139.488 10.2771C138.639 9.55429 137.476 9.19286 135.999 9.19286H131.709V23.8071H135.999Z" fill="#C4C4C4"/>
<path d="M182.369 23.3357H190.902C191.248 23.3357 191.546 23.4614 191.798 23.7129C192.049 23.9643 192.175 24.2629 192.175 24.6086V31.7271C192.175 32.0729 192.049 32.3714 191.798 32.6229C191.546 32.8743 191.248 33 190.902 33H161.013C160.668 33 160.369 32.8743 160.118 32.6229C159.866 32.3714 159.741 32.0729 159.741 31.7271V24.6086C159.741 24.2629 159.866 23.9643 160.118 23.7129C160.369 23.4614 160.668 23.3357 161.013 23.3357H169.641V9.66429H161.013C160.668 9.66429 160.369 9.53857 160.118 9.28714C159.866 9.03571 159.741 8.73714 159.741 8.39143V1.27286C159.741 0.927144 159.866 0.628573 160.118 0.377144C160.369 0.125715 160.668 0 161.013 0H190.902C191.248 0 191.546 0.125715 191.798 0.377144C192.049 0.628573 192.175 0.927144 192.175 1.27286V8.39143C192.175 8.73714 192.049 9.03571 191.798 9.28714C191.546 9.53857 191.248 9.66429 190.902 9.66429H182.369V23.3357Z" fill="#C4C4C4"/>
<path d="M232.275 0C232.621 0 232.919 0.125715 233.171 0.377144C233.422 0.628573 233.548 0.927144 233.548 1.27286V8.86286C233.548 9.20857 233.422 9.50714 233.171 9.75857C232.919 10.01 232.621 10.1357 232.275 10.1357H222.139V31.7271C222.139 32.0729 222.014 32.3714 221.762 32.6229C221.511 32.8743 221.212 33 220.866 33H211.155C210.809 33 210.511 32.8743 210.259 32.6229C210.008 32.3714 209.882 32.0729 209.882 31.7271V10.1357H199.746C199.401 10.1357 199.102 10.01 198.851 9.75857C198.599 9.50714 198.474 9.20857 198.474 8.86286V1.27286C198.474 0.927144 198.599 0.628573 198.851 0.377144C199.102 0.125715 199.401 0 199.746 0H232.275Z" fill="#C4C4C4"/>
</svg>
