<svg width="300" height="300" viewBox="0 0 300 300" fill="none" xmlns="http://www.w3.org/2000/svg">
<path fill-rule="evenodd" clip-rule="evenodd" d="M300 150C300 232.843 232.843 300 150 300C67.1572 300 0 232.843 0 150C0 67.1572 67.1572 0 150 0C232.843 0 300 67.1572 300 150ZM235.922 71.0425C233.079 81.6531 222.173 87.9497 211.562 85.1067C202.875 82.7791 197.08 75.0471 196.824 66.4976L173.939 60.3655L157.238 122.696C180.119 123.638 201.064 128.828 217.918 136.968C222.392 126.77 232.577 119.647 244.425 119.647C260.403 119.647 273.355 132.6 273.355 148.578C273.355 160.213 266.487 170.244 256.584 174.837C258.096 179.201 258.89 183.723 258.89 188.357C258.89 224.707 209.994 254.174 149.678 254.174C89.3613 254.174 40.4653 224.707 40.4653 188.357C40.4653 183.723 41.2598 179.201 42.7715 174.837C32.8682 170.244 26 160.213 26 148.578C26 132.6 38.9526 119.647 54.9307 119.647C66.7793 119.647 76.9639 126.77 81.437 136.968C99.6152 128.189 122.551 122.841 147.542 122.552L167.291 48.8499L176.373 51.2834L198.776 57.2864C202.83 48.8169 212.46 44.1643 221.858 46.6826C232.468 49.5256 238.765 60.4319 235.922 71.0425ZM109.898 195.59C119.885 195.59 127.98 187.495 127.98 177.508C127.98 167.522 119.885 159.427 109.898 159.427C99.9121 159.427 91.8169 167.522 91.8169 177.508C91.8169 187.495 99.9121 195.59 109.898 195.59ZM189.458 195.59C199.443 195.59 207.539 187.495 207.539 177.508C207.539 167.522 199.443 159.427 189.458 159.427C179.471 159.427 171.376 167.522 171.376 177.508C171.376 187.495 179.471 195.59 189.458 195.59ZM101.942 221.643C101.942 218.773 106.372 216.715 108.894 218.085C115.711 221.789 128.273 226.137 149.678 226.137C171.082 226.137 183.645 221.789 190.462 218.085C192.984 216.715 197.413 218.773 197.413 221.643C197.413 221.999 197.354 222.344 197.178 222.652C195.825 225.007 187.711 235.369 149.678 235.369C111.645 235.369 103.531 225.007 102.178 222.652C102.001 222.344 101.942 221.999 101.942 221.643Z" fill="#C4C4C4"/>
</svg>
