<svg width="300" height="300" viewBox="0 0 300 300" fill="none" xmlns="http://www.w3.org/2000/svg">
<path d="M88 80H171.333C185.222 80 195.275 83.1771 201.492 89.5314C207.841 95.7533 211.016 105.814 211.016 119.714V137.586C211.016 148.573 209.164 157.112 205.46 163.201C201.889 169.291 196.135 173.329 188.198 175.314L213 219H174.31L151.492 177.3H123.714V219H88V80ZM175.302 119.714C175.302 111.771 171.333 107.8 163.397 107.8H123.714V149.5H163.397C171.333 149.5 175.302 145.529 175.302 137.586V119.714Z" fill="#C4C4C4"/>
<path fill-rule="evenodd" clip-rule="evenodd" d="M150 300C232.843 300 300 232.843 300 150C300 67.1572 232.843 0 150 0C67.1572 0 0 67.1572 0 150C0 232.843 67.1572 300 150 300ZM150 264C212.96 264 264 212.96 264 150C264 87.0396 212.96 36 150 36C87.0396 36 36 87.0396 36 150C36 212.96 87.0396 264 150 264Z" fill="#C4C4C4"/>
</svg>
