<svg width="251" height="300" viewBox="0 0 251 300" fill="none" xmlns="http://www.w3.org/2000/svg">
<path fill-rule="evenodd" clip-rule="evenodd" d="M0 117.441H213.529V142.804H96.31V142.86H33.3959V240.552C33.3959 240.552 45.2533 251.76 96.31 253.118V278.207C17.991 276.803 0 259.793 0 259.793V117.441Z" fill="#C4C4C4"/>
<path fill-rule="evenodd" clip-rule="evenodd" d="M187.388 65.3585L187.388 65.3583C187.388 29.2619 151.292 0 106.764 0C62.2373 0 26.1409 29.2619 26.1409 65.3583L26.141 65.3585V65.4655V117.441H57.4351V64.9364H57.588C57.983 45.6508 79.849 30.1044 106.765 30.1044C133.681 30.1044 155.547 45.6508 155.942 64.9364H155.947V65.3681V65.4677V117.441H187.388V65.3585Z" fill="#C4C4C4"/>
<path d="M229.438 278.924C229.438 278.924 229.438 278.924 229.438 278.924C201.262 307.025 155.58 307.025 127.405 278.924C99.2292 250.824 99.2292 205.264 127.405 177.164C155.58 149.063 201.262 149.063 229.438 177.164L214.133 192.428C194.41 172.758 162.433 172.758 142.71 192.428C122.987 212.098 122.987 243.99 142.71 263.66C162.433 283.331 194.41 283.331 214.133 263.66C214.133 263.66 214.133 263.66 214.133 263.66L229.438 278.924Z" fill="#C4C4C4"/>
<path d="M201.549 204.978L242.362 164.274L250.185 212.78L201.549 204.978Z" fill="#C4C4C4"/>
</svg>
