<svg width="300" height="300" viewBox="0 0 300 300" fill="none" xmlns="http://www.w3.org/2000/svg">
<path fill-rule="evenodd" clip-rule="evenodd" d="M150 300C232.843 300 300 232.843 300 150C300 67.1573 232.843 0 150 0C67.1573 0 0 67.1573 0 150C0 232.843 67.1573 300 150 300ZM99.4419 236.121C91.6314 243.931 78.9681 243.931 71.1576 236.121L63.3794 228.342C55.5689 220.532 55.5689 207.869 63.3794 200.058L113.938 149.5L63.3794 98.9419C55.5689 91.1314 55.5689 78.4681 63.3794 70.6576L71.1576 62.8794C78.9681 55.0689 91.6314 55.0689 99.4419 62.8794L150 113.438L200.558 62.8794C208.369 55.0689 221.032 55.0689 228.842 62.8794L236.621 70.6576C244.431 78.4681 244.431 91.1314 236.621 98.9419L186.062 149.5L236.621 200.058C244.431 207.869 244.431 220.532 236.621 228.342L228.842 236.121C221.032 243.931 208.369 243.931 200.558 236.121L150 185.562L99.4419 236.121Z" fill="#C4C4C4"/>
</svg>
