<svg width="300" height="300" viewBox="0 0 300 300" fill="none" xmlns="http://www.w3.org/2000/svg">
<path d="M256.751 256.066C256.751 256.066 256.751 256.066 256.751 256.066C198.016 314.645 102.787 314.645 44.0515 256.066C-14.6838 197.487 -14.6838 102.513 44.0515 43.934C102.787 -14.6447 198.016 -14.6447 256.751 43.934L224.846 75.7538C183.731 34.7487 117.071 34.7487 75.9565 75.7538C34.8417 116.759 34.8417 183.241 75.9565 224.246C117.071 265.251 183.731 265.251 224.846 224.246C224.846 224.246 224.846 224.246 224.846 224.246L256.751 256.066Z" fill="#C4C4C4"/>
<path d="M198.613 101.917L283.693 17.0639L300 118.18L198.613 101.917Z" fill="#C4C4C4"/>
</svg>
