<svg width="256" height="261" viewBox="0 0 256 261" fill="none" xmlns="http://www.w3.org/2000/svg">
<path fill-rule="evenodd" clip-rule="evenodd" d="M15 204.748C6.71573 204.748 0 211.464 0 219.748V260.146H255.682V219.748C255.682 211.464 248.966 204.748 240.682 204.748H15ZM148.807 214.975C140.523 214.975 133.807 221.691 133.807 229.975V234.577H242.046V229.975C242.046 221.691 235.33 214.975 227.046 214.975H148.807Z" fill="#C4C4C4"/>
<path d="M104.55 23.9759C104.55 21.2145 106.789 18.9759 109.55 18.9759L142.317 18.9759C145.078 18.9759 147.317 21.2145 147.317 23.9759L147.317 115.509C147.317 118.27 145.078 120.509 142.317 120.509L109.55 120.509C106.789 120.509 104.55 118.27 104.55 115.509L104.55 23.9759Z" fill="#C4C4C4"/>
<path d="M130.434 181.14C128.44 183.923 124.3 183.923 122.306 181.14L76.1059 116.663C73.7352 113.354 76.1 108.75 80.1702 108.75L172.57 108.75C176.64 108.75 179.005 113.354 176.634 116.663L130.434 181.14Z" fill="#C4C4C4"/>
</svg>
