<svg width="300" height="201" viewBox="0 0 300 201" fill="none" xmlns="http://www.w3.org/2000/svg">
<path fill-rule="evenodd" clip-rule="evenodd" d="M35 0.0102539C15.67 0.0102539 0 15.6803 0 35.0103V165.01C0 184.34 15.67 200.01 35 200.01H265C284.33 200.01 300 184.34 300 165.01V35.0103C300 15.6803 284.33 0.0102539 265 0.0102539H35ZM263 33.0103H36V167.01H263V33.0103Z" fill="#C4C4C4"/>
<path d="M66.0545 129.45C89.4358 130.73 105.265 131.37 113.543 131.37C115.505 131.37 117.041 130.816 118.151 129.706C119.345 128.512 119.943 126.933 119.943 124.97V113.45H90.5025C81.5425 113.45 75.0145 111.445 70.9185 107.434C66.9078 103.338 64.9025 96.8103 64.9025 87.8503V84.0103C64.9025 75.0503 66.9078 68.5649 70.9185 64.5543C75.0145 60.4582 81.5425 58.4102 90.5025 58.4102H135.431V76.3303H95.6225C90.5025 76.3303 87.9425 78.8903 87.9425 84.0103V86.5703C87.9425 91.6903 90.5025 94.2503 95.6225 94.2503H118.663C127.025 94.2503 133.169 96.2129 137.095 100.138C141.02 104.064 142.983 110.208 142.983 118.57V124.97C142.983 133.333 141.02 139.477 137.095 143.402C133.169 147.328 127.025 149.29 118.663 149.29C114.311 149.29 109.703 149.205 104.839 149.034L93.0625 148.522C84.3585 148.096 75.3558 147.498 66.0545 146.73V129.45ZM204.413 58.4102C214.055 58.4102 221.351 60.9276 226.301 65.9622C231.335 70.9116 233.853 78.2076 233.853 87.8503V118.57C233.853 128.213 231.335 135.552 226.301 140.586C221.351 145.536 214.055 148.01 204.413 148.01H154.493V58.4102H204.413ZM210.812 87.8503C210.812 80.1703 206.973 76.3303 199.293 76.3303H177.533V130.09H199.293C206.973 130.09 210.812 126.25 210.812 118.57V87.8503Z" fill="#C4C4C4"/>
</svg>
