<svg width="174" height="300" viewBox="0 0 174 300" fill="none" xmlns="http://www.w3.org/2000/svg">
<path d="M87.3239 300C70.7355 300 55.8685 297.757 42.723 293.271C29.6818 288.785 19.4575 281.794 12.0501 272.3C4.64267 262.806 1.09546 250.548 1.40845 235.524L1.72144 234.585L54.9296 234.429C54.9296 240.167 56.2859 244.757 58.9984 248.2C61.8153 251.643 65.6234 254.095 70.4225 255.556C75.326 257.016 80.9598 257.746 87.3239 257.746C96.6093 257.746 103.704 256.129 108.607 252.895C113.615 249.765 116.119 245.488 116.119 240.063C116.119 236.411 114.919 233.229 112.52 230.516C110.224 227.804 106.155 225.196 100.313 222.692C94.5749 220.188 86.5936 217.475 76.3693 214.554C59.0506 210.068 44.7574 205.008 33.4898 199.374C22.2222 193.636 13.8237 186.698 8.29421 178.56C2.76474 170.423 0 160.459 0 148.67C0 139.697 2.03443 131.664 6.10329 124.57C10.1721 117.475 16.1711 111.476 24.1002 106.573C16.7971 101.356 11.3198 95.0443 7.66823 87.6369C4.01669 80.1252 2.19092 71.2572 2.19092 61.0329C2.19092 48.722 5.6338 38.0282 12.5196 28.9515C19.5097 19.7705 29.2645 12.6761 41.784 7.66823C54.4079 2.55608 69.2227 0 86.2285 0C112.52 0 133.02 5.7903 147.731 17.3709C162.441 28.8472 169.484 44.9661 168.858 65.7277L168.701 66.6667H115.493C115.493 61.8675 114.345 57.6422 112.05 53.9906C109.755 50.2347 106.416 47.3135 102.034 45.2269C97.7569 43.036 92.4883 41.9405 86.2285 41.9405C76.4215 41.9405 69.1706 43.7141 64.4757 47.2613C59.7809 50.7042 57.4335 55.1904 57.4335 60.7199C57.4335 64.8931 58.4768 68.3359 60.5634 71.0485C62.65 73.7611 66.5102 76.3172 72.144 78.7168C77.7778 81.012 85.9677 83.6202 96.7136 86.5415C114.032 90.7147 128.326 95.6703 139.593 101.408C150.965 107.147 159.416 114.137 164.945 122.379C170.475 130.621 173.239 140.689 173.239 152.582C173.239 161.868 171.257 170.005 167.293 176.995C163.328 183.881 157.486 189.671 149.765 194.366C156.755 199.687 162.024 206.103 165.571 213.615C169.223 221.127 171.049 229.943 171.049 240.063C171.049 258.842 163.485 273.5 148.357 284.038C133.229 294.679 112.885 300 87.3239 300ZM113.302 176.839C115.18 174.439 116.641 171.727 117.684 168.701C118.727 165.676 119.249 162.285 119.249 158.529C119.249 154.46 118.049 150.861 115.649 147.731C113.25 144.601 109.077 141.628 103.13 138.811C97.2874 135.994 89.2019 133.02 78.8732 129.89C75.2217 128.951 71.8832 128.013 68.8576 127.074C65.832 126.03 62.8065 125.039 59.7809 124.1C58.1116 126.604 56.8597 129.369 56.025 132.394C55.2947 135.316 54.9296 138.602 54.9296 142.254C54.9296 147.053 55.9207 151.017 57.903 154.147C59.8852 157.173 63.6933 159.99 69.3271 162.598C74.9609 165.102 83.2029 168.023 94.0532 171.362C96.4528 172.092 99.3219 172.926 102.66 173.865C106.103 174.7 109.65 175.691 113.302 176.839Z" fill="#C4C4C4"/>
</svg>
