<svg width="300" height="300" viewBox="0 0 300 300" fill="none" xmlns="http://www.w3.org/2000/svg">
<path fill-rule="evenodd" clip-rule="evenodd" d="M150 300C232.843 300 300 232.843 300 150C300 67.1573 232.843 0 150 0C67.1573 0 0 67.1573 0 150C0 232.843 67.1573 300 150 300ZM150 264C212.96 264 264 212.96 264 150C264 87.0395 212.96 36 150 36C87.0395 36 36 87.0395 36 150C36 212.96 87.0395 264 150 264Z" fill="#C4C4C4"/>
<path d="M59.119 172.789C81.8301 174.028 97.2057 174.648 105.246 174.648C107.152 174.648 108.644 174.111 109.722 173.037C110.882 171.88 111.462 170.351 111.462 168.451V157.296H82.8662C74.163 157.296 67.8221 155.354 63.8436 151.47C59.9479 147.504 58 141.183 58 132.507V128.789C58 120.113 59.9479 113.833 63.8436 109.949C67.8221 105.983 74.163 104 82.8662 104H126.506V121.352H87.8394C82.8662 121.352 80.3796 123.831 80.3796 128.789V131.268C80.3796 136.225 82.8662 138.704 87.8394 138.704H110.219C118.342 138.704 124.31 140.605 128.123 144.406C131.935 148.207 133.842 154.156 133.842 162.254V168.451C133.842 176.548 131.935 182.498 128.123 186.299C124.31 190.1 118.342 192 110.219 192C105.992 192 101.516 191.917 96.7912 191.752L85.3528 191.256C76.8983 190.843 68.1537 190.265 59.119 189.521V172.789Z" fill="#C4C4C4"/>
<path d="M219.62 142.423L202.214 173.408H184.808L167.401 142.423V190.761H145.022V104H168.645L193.511 149.859L218.377 104H242V190.761H219.62V142.423Z" fill="#C4C4C4"/>
</svg>
