<svg width="284" height="300" viewBox="0 0 284 300" fill="none" xmlns="http://www.w3.org/2000/svg">
<path fill-rule="evenodd" clip-rule="evenodd" d="M164.037 0H50C22.3858 0 0 22.3858 0 50V250C0 277.614 22.3857 300 50 300H232.77C260.384 300 282.77 277.614 282.77 250V118.446L252.77 140.726V250C252.77 261.046 243.816 270 232.77 270H50C38.9543 270 30 261.046 30 250V50C30 38.9543 38.9543 30 50 30H123.643L164.037 0Z" fill="#C4C4C4"/>
<path d="M179.021 7V50.034C179.021 50.034 124.846 50.034 91.4619 78.4306C53.9783 110.314 49 170.354 49 170.354C49 170.354 62.1778 141.957 101.126 126.441C140.074 110.926 179.021 112.389 179.021 112.389V155.423L283.273 80.4798L179.021 7Z" fill="#C4C4C4"/>
</svg>
