<svg width="300" height="300" viewBox="0 0 300 300" fill="none" xmlns="http://www.w3.org/2000/svg">
<rect width="300" height="77" rx="10" fill="#C4C4C4"/>
<path fill-rule="evenodd" clip-rule="evenodd" d="M10 107C4.47715 107 0 111.477 0 117V290C0 295.523 4.47716 300 10 300H290C295.523 300 300 295.523 300 290V117C300 111.477 295.523 107 290 107H10ZM39 146C34.5817 146 31 149.582 31 154V251C31 255.418 34.5817 259 39 259H93C97.4183 259 101 255.418 101 251V154C101 149.582 97.4183 146 93 146H39Z" fill="#C4C4C4"/>
</svg>
