<svg width="300" height="300" viewBox="0 0 300 300" fill="none" xmlns="http://www.w3.org/2000/svg">
<path fill-rule="evenodd" clip-rule="evenodd" d="M10 35C4.47715 35 0 39.4771 0 45V217.533C0 223.056 4.47714 227.533 9.99999 227.533C10.0737 227.533 10.1334 227.473 10.1337 227.399C10.2061 207.873 26.0572 192.067 45.6001 192.067C64.1777 192.067 79.4191 206.35 80.9417 224.534C81.0799 226.185 82.4098 227.533 84.0667 227.533H182.533C188.056 227.533 192.533 223.056 192.533 217.533V45C192.533 39.4772 188.056 35 182.533 35H10ZM259.361 66.7426C258.448 65.2777 256.844 64.3873 255.117 64.3873H208.679C205.918 64.3873 203.679 66.6259 203.679 69.3873V133.361L203.68 133.405V217.533C203.68 223.056 208.157 227.533 213.68 227.533H215.88C217.537 227.533 218.867 226.186 219.005 224.535C220.527 206.35 235.769 192.067 254.347 192.067C273.89 192.067 289.741 207.874 289.813 227.4C289.813 227.473 289.873 227.533 289.946 227.533C295.469 227.533 299.946 223.056 299.946 217.533V134.29C299.946 134.143 299.959 133.997 299.973 133.851C300.08 132.814 299.86 131.72 299.234 130.716L259.361 66.7426ZM252.738 80.93C251.825 79.4646 250.221 78.5739 248.494 78.5739H222.866C220.105 78.5739 217.866 80.8124 217.866 83.5739V119.174C217.866 121.935 220.105 124.174 222.866 124.174H270.673C274.597 124.174 276.992 119.86 274.917 116.53L252.738 80.93ZM77.0135 232.6C77.0135 249.949 62.9493 264.014 45.6002 264.014C28.2511 264.014 14.1869 249.949 14.1869 232.6C14.1869 215.251 28.2511 201.187 45.6002 201.187C62.9493 201.187 77.0135 215.251 77.0135 232.6ZM285.76 232.6C285.76 249.95 271.696 264.014 254.346 264.014C236.997 264.014 222.933 249.95 222.933 232.6C222.933 215.251 236.997 201.187 254.346 201.187C271.696 201.187 285.76 215.251 285.76 232.6Z" fill="#C4C4C4"/>
</svg>
