<svg width="300" height="300" viewBox="0 0 300 300" fill="none" xmlns="http://www.w3.org/2000/svg">
<path fill-rule="evenodd" clip-rule="evenodd" d="M270 250L270 50C270 38.9543 261.046 30 250 30L50 30C38.9543 30 30 38.9543 30 50L30 250C30 261.046 38.9543 270 50 270L250 270C261.046 270 270 261.046 270 250ZM300 50C300 22.3858 277.614 2.66948e-07 250 5.96244e-07L50 2.98122e-06C22.3858 3.31052e-06 2.66948e-07 22.3858 5.96244e-07 50L2.98122e-06 250C3.31052e-06 277.614 22.3858 300 50 300L250 300C277.614 300 300 277.614 300 250L300 50Z" fill="#C4C4C4"/>
<rect width="55.7307" height="167.192" transform="matrix(0.816427 0.577449 -0.816427 0.577449 194.5 53.0469)" fill="#C4C4C4"/>
<rect width="55.7307" height="167.192" transform="matrix(-0.816427 0.577449 -0.816427 -0.577449 240 213.955)" fill="#C4C4C4"/>
</svg>
