<svg width="300" height="300" viewBox="0 0 300 300" fill="none" xmlns="http://www.w3.org/2000/svg">
<path fill-rule="evenodd" clip-rule="evenodd" d="M266 0C257.716 0 251 6.71582 251 15V285C251 293.284 257.716 300 266 300H285C293.284 300 300 293.284 300 285V15C300 6.71582 293.284 0 285 0H266ZM188 61C188 52.7158 194.716 46 203 46H222C230.284 46 237 52.7158 237 61V285C237 293.284 230.284 300 222 300H203C194.716 300 188 293.284 188 285V61ZM140 113C131.716 113 125 119.716 125 128V285C125 293.284 131.716 300 140 300H159C167.284 300 174 293.284 174 285V128C174 119.716 167.284 113 159 113H140ZM62 178C62 169.716 68.7158 163 77 163H96C104.284 163 111 169.716 111 178V285C111 293.284 104.284 300 96 300H77C68.7158 300 62 293.284 62 285V178ZM0 228C0 219.716 6.71582 213 15 213H34C42.2842 213 49 219.716 49 228V285C49 293.284 42.2842 300 34 300H15C6.71582 300 0 293.284 0 285V228Z" fill="#C4C4C4"/>
</svg>
