<svg width="300" height="301" viewBox="0 0 300 301" fill="none" xmlns="http://www.w3.org/2000/svg">
<rect x="49.6621" y="0.170898" width="49.6622" height="211.511" fill="#C4C4C4"/>
<path d="M75 300.171L10.0481 209.523L139.952 209.523L75 300.171Z" fill="#C4C4C4"/>
<path d="M150 133.459C150.685 133.459 151.712 132.5 153.082 130.582C154.589 128.664 156.301 125.445 158.219 120.924C159.178 118.87 160.685 115.376 162.74 110.445C164.932 105.376 167.397 99.5545 170.137 92.9791C173.014 86.2668 175.959 79.2805 178.973 72.0202C182.123 64.7599 185.068 57.7736 187.808 51.0613C190.685 44.349 193.151 38.4586 195.205 33.3901C197.397 28.3216 198.904 24.6914 199.726 22.4997C201.507 18.1161 202.466 14.9654 202.603 13.0476C202.74 11.1298 202.466 10.1709 201.781 10.1709H246.575C246.027 10.1709 245.822 11.1298 245.959 13.0476C246.096 14.8284 247.055 17.9791 248.836 22.4997C249.658 24.6914 251.096 28.3216 253.151 33.3901C255.205 38.3216 257.603 44.1435 260.342 50.8558C263.082 57.4312 265.959 64.349 268.973 71.6092C271.986 78.8695 274.863 85.8558 277.603 92.5682C280.342 99.1435 282.808 104.965 285 110.034C287.192 115.102 288.767 118.733 289.726 120.924C291.781 125.445 293.767 128.664 295.685 130.582C297.603 132.5 299.041 133.459 300 133.459H253.356C254.452 133.322 255.342 132.294 256.027 130.376C256.849 128.322 256.849 125.171 256.027 120.924C255.89 119.965 255.753 119.212 255.616 118.664C255.479 117.979 255.205 117.02 254.795 115.787C254.247 113.733 253.63 112.294 252.945 111.472C252.26 110.513 251.096 109.965 249.452 109.828C247.945 109.691 245.411 109.623 241.849 109.623H206.507C202.808 109.623 200.068 109.76 198.288 110.034C196.507 110.171 195.274 110.65 194.589 111.472C193.904 112.294 193.356 113.664 192.945 115.582C192.808 116.267 192.603 117.157 192.329 118.253C192.192 119.349 192.055 120.239 191.918 120.924C190.959 125.308 190.685 128.459 191.096 130.376C191.644 132.294 192.329 133.322 193.151 133.459H150ZM211.849 87.0202H235.89C239.863 87.0202 242.055 86.6777 242.466 85.9928C242.877 85.3079 242.671 83.801 241.849 81.4723C240.068 77.0887 238.288 72.6366 236.507 68.1161C234.726 63.4586 233.014 58.938 231.37 54.5545C229.863 50.1709 228.493 46.1298 227.26 42.4312C226.164 38.5956 225.205 35.3764 224.384 32.7736H223.973C222.055 37.8421 220.068 43.1846 218.014 48.801C215.959 54.4175 214.041 59.6229 212.26 64.4175C210.479 69.212 209.041 73.1846 207.945 76.3353C206.849 79.349 206.301 80.8558 206.301 80.8558C205.342 83.0476 205 84.6229 205.274 85.5819C205.548 86.5408 207.74 87.0202 211.849 87.0202Z" fill="#C4C4C4"/>
<path d="M156.417 292.837C156.554 292.152 157.171 290.851 158.267 288.933C159.362 286.878 161.143 284.207 163.609 280.919C166.349 277.357 169.705 272.905 173.678 267.563C177.787 262.22 182.239 256.398 187.034 250.097C191.828 243.659 196.76 237.083 201.828 230.371C206.897 223.659 211.828 217.152 216.623 210.851C221.554 204.412 226.075 198.453 230.184 192.974V192.563H189.294C180.39 192.563 173.815 193.522 169.568 195.44C165.458 197.22 163.13 199.001 162.582 200.782V169.549H285.047C284.773 170.234 283.952 171.604 282.582 173.659C281.349 175.714 279.568 178.179 277.239 181.056C272.719 186.946 268.198 192.837 263.678 198.727C259.157 204.618 254.636 210.508 250.116 216.398C245.595 222.152 241.075 227.974 236.554 233.864C232.034 239.755 227.513 245.645 222.993 251.535C218.472 257.426 213.952 263.316 209.431 269.207V269.823H264.499C272.308 269.823 278.404 268.864 282.787 266.946C287.308 265.029 290.116 263.179 291.212 261.398L287.102 286.467V292.837H156.417Z" fill="#C4C4C4"/>
</svg>
