<svg width="262" height="301" viewBox="0 0 262 301" fill="none" xmlns="http://www.w3.org/2000/svg">
<rect x="49.6621" y="0.170898" width="49.6622" height="211.511" fill="#C4C4C4"/>
<path d="M75 300.171L10.0481 209.523L139.952 209.523L75 300.171Z" fill="#C4C4C4"/>
<path d="M207.191 129.618C189.394 129.618 176.079 124.332 167.248 113.761C158.416 103.056 154 87.3994 154 66.7921C154 46.7201 158.483 31.4653 167.448 21.0278C176.414 10.4565 189.661 5.1709 207.191 5.1709H209.399C226.661 5.1709 239.641 10.3896 248.339 20.8271C257.17 31.2646 261.586 46.5862 261.586 66.7921C261.586 87.3994 257.17 103.056 248.339 113.761C239.641 124.332 226.661 129.618 209.399 129.618H207.191ZM207.191 107.338H209.399C213.949 107.338 217.829 106.2 221.041 103.925C224.252 101.517 226.728 97.3685 228.467 91.4807C230.207 85.5929 231.077 77.3634 231.077 66.7921C231.077 56.4884 230.207 48.5265 228.467 42.9064C226.728 37.1524 224.252 33.138 221.041 30.8631C217.829 28.4545 213.949 27.2502 209.399 27.2502H207.191C202.641 27.2502 198.627 28.3876 195.148 30.6624C191.802 32.9372 189.193 36.9516 187.32 42.7056C185.446 48.3258 184.51 56.3546 184.51 66.7921C184.51 77.4972 185.446 85.7936 187.32 91.6814C189.193 97.5693 191.802 101.651 195.148 103.925C198.627 106.2 202.641 107.338 207.191 107.338Z" fill="#C4C4C4"/>
<path d="M194.504 295.171C195.441 295.171 196.311 294.234 197.114 292.361C198.05 290.487 198.519 287.41 198.519 283.128V201.234L178.447 205.248V180.76C183.933 180.76 189.821 180.359 196.11 179.556C202.533 178.619 208.689 177.549 214.576 176.344C220.464 175.006 225.415 173.802 229.43 172.731V283.128C229.43 287.41 229.898 290.487 230.835 292.361C231.771 294.234 232.708 295.171 233.645 295.171H194.504Z" fill="#C4C4C4"/>
</svg>
