<svg width="300" height="301" viewBox="0 0 300 301" fill="none" xmlns="http://www.w3.org/2000/svg">
<rect x="49.6621" y="0.170898" width="49.6622" height="211.511" fill="#C4C4C4"/>
<path d="M75 300.171L10.0481 209.523L139.952 209.523L75 300.171Z" fill="#C4C4C4"/>
<path d="M159.398 133.459C159.535 132.774 160.152 131.472 161.248 129.554C162.343 127.5 164.124 124.828 166.59 121.541C169.33 117.979 172.686 113.527 176.659 108.185C180.768 102.842 185.22 97.0202 190.015 90.7188C194.809 84.2805 199.741 77.7051 204.809 70.9928C209.878 64.2805 214.809 57.7736 219.604 51.4723C224.535 45.0339 229.056 39.075 233.165 33.5956V33.1846H192.275C183.371 33.1846 176.796 34.1435 172.549 36.0613C168.439 37.8421 166.111 39.623 165.563 41.4038V10.1709H288.028C287.754 10.8558 286.933 12.2257 285.563 14.2805C284.33 16.3353 282.549 18.801 280.22 21.6777C275.7 27.5682 271.179 33.4586 266.659 39.349C262.138 45.2394 257.617 51.1298 253.097 57.0202C248.576 62.7736 244.056 68.5956 239.535 74.486C235.015 80.3764 230.494 86.2668 225.974 92.1572C221.453 98.0476 216.933 103.938 212.412 109.828V110.445H267.48C275.289 110.445 281.385 109.486 285.768 107.568C290.289 105.65 293.097 103.801 294.193 102.02L290.083 127.089V133.459H159.398Z" fill="#C4C4C4"/>
<path d="M150 293.672C150.685 293.672 151.712 292.714 153.082 290.796C154.589 288.878 156.301 285.659 158.219 281.138C159.178 279.083 160.685 275.59 162.74 270.659C164.932 265.59 167.397 259.768 170.137 253.193C173.014 246.481 175.959 239.494 178.973 232.234C182.123 224.974 185.068 217.988 187.808 211.275C190.685 204.563 193.151 198.672 195.205 193.604C197.397 188.535 198.904 184.905 199.726 182.714C201.507 178.33 202.466 175.179 202.603 173.262C202.74 171.344 202.466 170.385 201.781 170.385H246.575C246.027 170.385 245.822 171.344 245.959 173.262C246.096 175.042 247.055 178.193 248.836 182.714C249.658 184.905 251.096 188.535 253.151 193.604C255.205 198.535 257.603 204.357 260.342 211.07C263.082 217.645 265.959 224.563 268.973 231.823C271.986 239.083 274.863 246.07 277.603 252.782C280.342 259.357 282.808 265.179 285 270.248C287.192 275.316 288.767 278.946 289.726 281.138C291.781 285.659 293.767 288.878 295.685 290.796C297.603 292.714 299.041 293.672 300 293.672H253.356C254.452 293.535 255.342 292.508 256.027 290.59C256.849 288.535 256.849 285.385 256.027 281.138C255.89 280.179 255.753 279.426 255.616 278.878C255.479 278.193 255.205 277.234 254.795 276.001C254.247 273.946 253.63 272.508 252.945 271.686C252.26 270.727 251.096 270.179 249.452 270.042C247.945 269.905 245.411 269.837 241.849 269.837H206.507C202.808 269.837 200.068 269.974 198.288 270.248C196.507 270.385 195.274 270.864 194.589 271.686C193.904 272.508 193.356 273.878 192.945 275.796C192.808 276.481 192.603 277.371 192.329 278.467C192.192 279.563 192.055 280.453 191.918 281.138C190.959 285.522 190.685 288.672 191.096 290.59C191.644 292.508 192.329 293.535 193.151 293.672H150ZM211.849 247.234H235.89C239.863 247.234 242.055 246.892 242.466 246.207C242.877 245.522 242.671 244.015 241.849 241.686C240.068 237.303 238.288 232.851 236.507 228.33C234.726 223.672 233.014 219.152 231.37 214.768C229.863 210.385 228.493 206.344 227.26 202.645C226.164 198.809 225.205 195.59 224.384 192.988H223.973C222.055 198.056 220.068 203.398 218.014 209.015C215.959 214.631 214.041 219.837 212.26 224.631C210.479 229.426 209.041 233.398 207.945 236.549C206.849 239.563 206.301 241.07 206.301 241.07C205.342 243.262 205 244.837 205.274 245.796C205.548 246.755 207.74 247.234 211.849 247.234Z" fill="#C4C4C4"/>
</svg>
