<svg width="262" height="301" viewBox="0 0 262 301" fill="none" xmlns="http://www.w3.org/2000/svg">
<rect x="49.6621" y="0.170898" width="49.6622" height="211.511" fill="#C4C4C4"/>
<path d="M75 300.171L10.0481 209.523L139.952 209.523L75 300.171Z" fill="#C4C4C4"/>
<path d="M192.115 128.965C193.089 128.965 193.993 127.988 194.828 126.032C195.802 124.077 196.289 120.865 196.289 116.395V30.9197L175.419 35.1097V9.55085C181.123 9.55085 187.245 9.13185 193.785 8.29386C200.463 7.3162 206.863 6.19887 212.985 4.94188C219.107 3.54521 224.255 2.28822 228.429 1.1709V116.395C228.429 120.865 228.916 124.077 229.89 126.032C230.864 127.988 231.838 128.965 232.812 128.965H192.115Z" fill="#C4C4C4"/>
<path d="M205.306 300.171C186.801 300.171 172.957 294.654 163.774 283.62C154.591 272.447 150 256.106 150 234.598C150 213.648 154.661 197.726 163.983 186.832C173.305 175.798 187.079 170.282 205.306 170.282H207.602C225.55 170.282 239.046 175.729 248.09 186.622C257.273 197.516 261.864 213.508 261.864 234.598C261.864 256.106 257.273 272.447 248.09 283.62C239.046 294.654 225.55 300.171 207.602 300.171H205.306ZM205.306 276.917H207.602C212.332 276.917 216.367 275.729 219.707 273.355C223.046 270.841 225.62 266.511 227.429 260.366C229.237 254.221 230.142 245.631 230.142 234.598C230.142 223.843 229.237 215.533 227.429 209.667C225.62 203.662 223.046 199.472 219.707 197.097C216.367 194.583 212.332 193.326 207.602 193.326H205.306C200.576 193.326 196.401 194.514 192.784 196.888C189.306 199.262 186.592 203.452 184.645 209.458C182.697 215.324 181.723 223.704 181.723 234.598C181.723 245.771 182.697 254.43 184.645 260.576C186.592 266.721 189.306 270.981 192.784 273.355C196.401 275.729 200.576 276.917 205.306 276.917Z" fill="#C4C4C4"/>
</svg>
