<svg width="300" height="201" viewBox="0 0 300 201" fill="none" xmlns="http://www.w3.org/2000/svg">
<path fill-rule="evenodd" clip-rule="evenodd" d="M35 0.0102539C15.67 0.0102539 0 15.6803 0 35.0103V165.01C0 184.34 15.67 200.01 35 200.01H265C284.33 200.01 300 184.34 300 165.01V35.0103C300 15.6803 284.33 0.0102539 265 0.0102539H35ZM263 33.0103H36V167.01H263V33.0103Z" fill="#C4C4C4"/>
<path d="M97.815 57.1302C109.506 57.1302 123.586 57.9836 140.055 59.6902V76.9703C135.362 76.7143 131.351 76.5009 128.023 76.3303C124.78 76.0743 122.092 75.9036 119.959 75.8183C117.911 75.6476 115.863 75.4769 113.815 75.3063C110.402 75.1356 107.244 75.0502 104.343 75.0502C99.1377 75.0502 96.535 77.1836 96.535 81.4502V92.9703C104.812 91.2636 112.066 90.4103 118.295 90.4103H127.255C133.058 90.4103 137.708 92.1596 141.207 95.6583C144.706 99.1569 146.455 103.808 146.455 109.61V126.25C146.455 134.016 144.492 139.818 140.567 143.658C136.642 147.413 130.498 149.29 122.135 149.29H97.815C89.4523 149.29 83.3083 147.413 79.383 143.658C75.4577 139.818 73.495 134.016 73.495 126.25V81.4502C73.495 73.0876 75.4577 66.9436 79.383 63.0182C83.3083 59.0929 89.4523 57.1302 97.815 57.1302ZM111.895 108.33C108.652 108.33 105.666 108.501 102.935 108.842C100.29 109.184 98.1563 109.44 96.535 109.61V123.69C96.535 128.81 99.095 131.37 104.215 131.37H115.735C120.855 131.37 123.415 128.81 123.415 123.69V112.81C123.415 111.53 122.988 110.464 122.135 109.61C121.282 108.757 120.215 108.33 118.935 108.33H111.895ZM152.84 128.81H175.88V148.01H152.84V128.81ZM200.87 148.01V78.2503L186.15 83.3703L179.75 68.6503L203.43 58.4102H223.91V148.01H200.87Z" fill="#C4C4C4"/>
</svg>
