<svg width="300" height="201" viewBox="0 0 300 201" fill="none" xmlns="http://www.w3.org/2000/svg">
<path fill-rule="evenodd" clip-rule="evenodd" d="M35 0.0102539C15.67 0.0102539 0 15.6803 0 35.0103V165.01C0 184.34 15.67 200.01 35 200.01H265C284.33 200.01 300 184.34 300 165.01V35.0103C300 15.6803 284.33 0.0102539 265 0.0102539H35ZM263 33.0103H36V167.01H263V33.0103Z" fill="#C4C4C4"/>
<path d="M120.233 149.29C105.982 149.29 90.1952 148.437 72.8725 146.73V129.45C91.7312 130.73 105.811 131.37 115.113 131.37C117.075 131.37 118.611 130.816 119.721 129.706C120.915 128.512 121.513 126.933 121.513 124.97V118.57C121.513 113.45 118.953 110.89 113.833 110.89H76.7125V58.4102H138.153V76.3303H99.7525V92.9703H120.233C128.595 92.9703 134.739 94.8903 138.665 98.7303C142.59 102.485 144.553 108.245 144.553 116.01V124.97C144.553 133.333 142.59 139.477 138.665 143.402C134.739 147.328 128.595 149.29 120.233 149.29ZM150.903 128.81H173.943V148.01H150.903V128.81ZM198.933 148.01V78.2503L184.213 83.3703L177.812 68.6503L201.493 58.4102H221.973V148.01H198.933Z" fill="#C4C4C4"/>
</svg>
