<svg width="300" height="201" viewBox="0 0 300 201" fill="none" xmlns="http://www.w3.org/2000/svg">
<path fill-rule="evenodd" clip-rule="evenodd" d="M35 0.0102539C15.67 0.0102539 0 15.6803 0 35.0103V165.01C0 184.34 15.67 200.01 35 200.01H265C284.33 200.01 300 184.34 300 165.01V35.0103C300 15.6803 284.33 0.0102539 265 0.0102539H35ZM263 33.0103H36V167.01H263V33.0103Z" fill="#C4C4C4"/>
<path d="M77.3425 58.4102H146.463V76.3303L117.023 148.01H91.4225L122.143 76.3303H77.3425V58.4102ZM145.153 128.81H168.193V148.01H145.153V128.81ZM193.183 148.01V78.2503L178.463 83.3703L172.062 68.6503L195.743 58.4102H216.223V148.01H193.183Z" fill="#C4C4C4"/>
</svg>
