<svg width="300" height="201" viewBox="0 0 300 201" fill="none" xmlns="http://www.w3.org/2000/svg">
<path fill-rule="evenodd" clip-rule="evenodd" d="M35 0.0102539C15.67 0.0102539 0 15.6803 0 35.0103V165.01C0 184.34 15.67 200.01 35 200.01H265C284.33 200.01 300 184.34 300 165.01V35.0103C300 15.6803 284.33 0.0102539 265 0.0102539H35ZM263 33.0103H36V167.01H263V33.0103Z" fill="#C4C4C4"/>
<path fill-rule="evenodd" clip-rule="evenodd" d="M245.072 48.0103H53.9287V152.01H245.072V48.0103ZM155.075 100.01C155.075 80.0862 173.711 63.9347 196.7 63.9346L219 63.9346V136.086H196.7C173.711 136.086 155.075 119.934 155.075 100.01ZM143.925 100.01C143.925 119.934 125.289 136.086 102.3 136.086H80.0005L80.0005 63.9347L102.3 63.9347C125.289 63.9348 143.925 80.0864 143.925 100.01Z" fill="#C4C4C4"/>
</svg>
