<svg width="230" height="300" viewBox="0 0 230 300" fill="none" xmlns="http://www.w3.org/2000/svg">
<path fill-rule="evenodd" clip-rule="evenodd" d="M0 0H155.682V77H229.225V300H0V0ZM229.225 65H167.143V0L229.225 65ZM77.2 249.2C77.2 243.677 81.6772 239.2 87.2 239.2H195C200.523 239.2 205 243.677 205 249.2V267C205 272.523 200.523 277 195 277H87.2C81.6772 277 77.2 272.523 77.2 267V249.2ZM87.2 192.4C81.6772 192.4 77.2 196.877 77.2 202.4V219.6C77.2 225.123 81.6772 229.6 87.2 229.6H195C200.523 229.6 205 225.123 205 219.6V202.4C205 196.877 200.523 192.4 195 192.4H87.2ZM77.2 154.4C77.2 148.877 81.6772 144.4 87.2 144.4H195C200.523 144.4 205 148.877 205 154.4V171.6C205 177.123 200.523 181.6 195 181.6H87.2C81.6772 181.6 77.2 177.123 77.2 171.6V154.4ZM87.2 97C81.6772 97 77.2 101.477 77.2 107V124.8C77.2 130.323 81.6772 134.8 87.2 134.8H195C200.523 134.8 205 130.323 205 124.8V107C205 101.477 200.523 97 195 97H87.2ZM25 249.2C25 243.677 29.4772 239.2 35 239.2H52.2C57.7229 239.2 62.2 243.677 62.2 249.2V267C62.2 272.523 57.7229 277 52.2 277H35C29.4772 277 25 272.523 25 267V249.2ZM35 192.4C29.4772 192.4 25 196.877 25 202.4V219.6C25 225.123 29.4772 229.6 35 229.6H52.2C57.7229 229.6 62.2 225.123 62.2 219.6V202.4C62.2 196.877 57.7229 192.4 52.2 192.4H35ZM25 154.4C25 148.877 29.4772 144.4 35 144.4H52.2C57.7229 144.4 62.2 148.877 62.2 154.4V171.6C62.2 177.123 57.7229 181.6 52.2 181.6H35C29.4772 181.6 25 177.123 25 171.6V154.4ZM35 97C29.4772 97 25 101.477 25 107V124.8C25 130.323 29.4772 134.8 35 134.8H52.2C57.7229 134.8 62.2 130.323 62.2 124.8V107C62.2 101.477 57.7229 97 52.2 97H35Z" fill="#C4C4C4"/>
</svg>
