<svg width="300" height="287" viewBox="0 0 300 287" fill="none" xmlns="http://www.w3.org/2000/svg">
<path fill-rule="evenodd" clip-rule="evenodd" d="M191.717 100.3L150 0L108.283 100.3L0 108.981L82.5 179.651L57.2949 285.317L150 228.693L242.705 285.317L217.5 179.651L300 108.981L191.717 100.3ZM174.752 120.113L150 60L125.248 120.113L61 125.316L109.95 167.671L94.995 231L150 197.063L205.005 231L190.05 167.671L239 125.316L174.752 120.113Z" fill="#C4C4C4"/>
<path fill-rule="evenodd" clip-rule="evenodd" d="M150 1L108.283 101.3L0 109.981L82.5 180.651L57.2949 286.317L150 229.693V1ZM242.629 286H242.186L242.705 286.317L242.629 286Z" fill="#C4C4C4"/>
</svg>
