<svg width="300" height="287" viewBox="0 0 300 287" fill="none" xmlns="http://www.w3.org/2000/svg">
<path fill-rule="evenodd" clip-rule="evenodd" d="M108.283 100.3L150 0L191.717 100.3L300 108.981L217.5 179.651L242.705 285.317L150 228.693L57.2949 285.317L82.5 179.651L0 108.981L108.283 100.3ZM125.248 120.113L150 60L174.752 120.113L239 125.316L190.05 167.671L205.005 231L150 197.063L94.995 231L109.95 167.671L61 125.316L125.248 120.113Z" fill="#C4C4C4"/>
<path fill-rule="evenodd" clip-rule="evenodd" d="M150 1L191.717 101.3L300 109.981L217.5 180.651L242.705 286.317L150 229.693V1ZM57.3705 286H57.8138L57.2949 286.317L57.3705 286Z" fill="#C4C4C4"/>
</svg>
