<svg width="300" height="300" viewBox="0 0 300 300" fill="none" xmlns="http://www.w3.org/2000/svg">
<path d="M237 300L237 10C237 4.47717 241.477 -1.95703e-07 247 -4.37114e-07L290 -2.3167e-06C295.523 -2.55811e-06 300 4.47714 300 10L300 300L237 300Z" fill="#C4C4C4"/>
<path d="M159 300L159 86C159 80.4772 163.477 76 169 76L211 76C216.523 76 221 80.4772 221 86L221 300L159 300Z" fill="#C4C4C4"/>
<path d="M79 300L79 10C79 4.47717 83.4771 -1.95703e-07 89 -4.37114e-07L131 -2.27299e-06C136.523 -2.5144e-06 141 4.47714 141 10L141 300L79 300Z" fill="#C4C4C4"/>
<path d="M0 300L-9.35424e-06 86C-9.59565e-06 80.4772 4.47714 76 9.99999 76L53 76C58.5228 76 63 80.4772 63 86L63 300L0 300Z" fill="#C4C4C4"/>
</svg>
