<svg width="300" height="201" viewBox="0 0 300 201" fill="none" xmlns="http://www.w3.org/2000/svg">
<path fill-rule="evenodd" clip-rule="evenodd" d="M35 0.0102539C15.67 0.0102539 0 15.6803 0 35.0103V165.01C0 184.34 15.67 200.01 35 200.01H265C284.33 200.01 300 184.34 300 165.01V35.0103C300 15.6803 284.33 0.0102539 265 0.0102539H35ZM263 33.0103H36V167.01H263V33.0103Z" fill="#C4C4C4"/>
<path d="M147.925 146.73C128.896 148.437 113.109 149.29 100.565 149.29C92.2023 149.29 86.0583 147.328 82.133 143.402C78.2077 139.477 76.245 133.333 76.245 124.97V84.0103C76.245 75.0503 78.2503 68.5649 82.261 64.5543C86.357 60.4582 92.885 58.4102 101.845 58.4102H147.925V76.3303H106.965C101.845 76.3303 99.285 78.8903 99.285 84.0103V124.97C99.285 126.933 99.8397 128.512 100.949 129.706C102.144 130.816 103.637 131.37 105.429 131.37C107.221 131.37 109.184 131.37 111.317 131.37C113.45 131.285 115.669 131.2 117.973 131.114C120.277 131.029 122.581 130.944 124.885 130.858C127.274 130.773 130.304 130.602 133.973 130.346C137.728 130.09 142.378 129.792 147.925 129.45V146.73ZM227.3 146.73C208.271 148.437 192.484 149.29 179.94 149.29C171.577 149.29 165.433 147.328 161.508 143.402C157.583 139.477 155.62 133.333 155.62 124.97V84.0103C155.62 75.0503 157.625 68.5649 161.636 64.5543C165.732 60.4582 172.26 58.4102 181.22 58.4102H227.3V76.3303H186.34C181.22 76.3303 178.66 78.8903 178.66 84.0103V124.97C178.66 126.933 179.215 128.512 180.324 129.706C181.519 130.816 183.012 131.37 184.804 131.37C186.596 131.37 188.559 131.37 190.692 131.37C192.825 131.285 195.044 131.2 197.348 131.114C199.652 131.029 201.956 130.944 204.26 130.858C206.649 130.773 209.679 130.602 213.348 130.346C217.103 130.09 221.753 129.792 227.3 129.45V146.73Z" fill="#C4C4C4"/>
</svg>
