<svg width="243" height="300" viewBox="0 0 243 300" fill="none" xmlns="http://www.w3.org/2000/svg">
<rect x="12.5748" width="226.347" height="292.814" rx="8" fill="#C4C4C4"/>
<rect x="14.3712" y="3.59277" width="226.347" height="292.814" rx="8" fill="white"/>
<rect x="16.1677" y="7.18567" width="226.347" height="292.814" rx="8" fill="#C4C4C4"/>
<path d="M0 64.2814C0 61.52 2.23858 59.2814 5 59.2814H28.7425V82.6347H5C2.23858 82.6347 0 80.3961 0 77.6347V64.2814Z" fill="white"/>
<path d="M0 146.916C0 144.155 2.23858 141.916 5 141.916H28.7425V165.269H5C2.23858 165.269 0 163.031 0 160.269V146.916Z" fill="white"/>
<path d="M0 229.551C0 226.789 2.23858 224.551 5 224.551H28.7425V247.904H5C2.23858 247.904 0 245.666 0 242.904V229.551Z" fill="white"/>
<path d="M0 64.2814C0 61.52 2.23858 59.2814 5 59.2814H16.1677V82.6347H5C2.23858 82.6347 0 80.3961 0 77.6347V64.2814Z" fill="#C4C4C4"/>
<path d="M0 146.916C0 144.155 2.23858 141.916 5 141.916H16.1677V165.269H5C2.23858 165.269 0 163.031 0 160.269V146.916Z" fill="#C4C4C4"/>
<path d="M0 229.551C0 226.789 2.23858 224.551 5 224.551H16.1677V247.904H5C2.23858 247.904 0 245.666 0 242.904V229.551Z" fill="#C4C4C4"/>
</svg>
