<svg width="300" height="256" viewBox="0 0 300 256" fill="none" xmlns="http://www.w3.org/2000/svg">
<path fill-rule="evenodd" clip-rule="evenodd" d="M45.0126 45.0124L137.835 47.8098L137.835 47.8098L137.835 47.8099L254.308 164.283L164.283 254.308L47.8098 137.835L47.81 137.835L45.0126 45.0124ZM91.0422 64.0855C98.6265 71.6698 98.6265 83.9665 91.0422 91.5508C83.4578 99.1351 71.1612 99.1351 63.5769 91.5508C55.9926 83.9665 55.9926 71.6698 63.5769 64.0855C71.1612 56.5012 83.4578 56.5012 91.0422 64.0855Z" fill="#C4C4C4"/>
<path fill-rule="evenodd" clip-rule="evenodd" d="M194.486 240.368L270.571 164.283L154.781 48.4924L183.527 49.3587L183.527 49.3588L183.527 49.3589L300 165.832L209.975 255.857L194.486 240.368Z" fill="#C4C4C4"/>
</svg>
