<svg width="300" height="190" viewBox="0 0 300 190" fill="none" xmlns="http://www.w3.org/2000/svg">
<path fill-rule="evenodd" clip-rule="evenodd" d="M18 0C8.05884 0 0 8.05884 0 18V32C0 41.9412 8.05884 50 18 50H282C291.941 50 300 41.9412 300 32V18C300 8.05884 291.941 0 282 0H18ZM18 140C8.05884 140 0 148.059 0 158V172C0 181.941 8.05884 190 18 190H282C291.941 190 300 181.941 300 172V158C300 148.059 291.941 140 282 140H18ZM0 88C0 78.0588 8.05884 70 18 70H282C291.941 70 300 78.0588 300 88V102C300 111.941 291.941 120 282 120H18C8.05884 120 0 111.941 0 102V88ZM237 9C230.373 9 225 14.3726 225 21V29C225 35.6274 230.373 41 237 41H278C284.627 41 290 35.6274 290 29V21C290 14.3726 284.627 9 278 9H237ZM156 79C149.373 79 144 84.3726 144 91V99C144 105.627 149.373 111 156 111H278C284.627 111 290 105.627 290 99V91C290 84.3726 284.627 79 278 79H156ZM175 161C175 154.373 180.373 149 187 149H278C284.627 149 290 154.373 290 161V169C290 175.627 284.627 181 278 181H187C180.373 181 175 175.627 175 169V161Z" fill="#C4C4C4"/>
</svg>
