<svg width="300" height="270" viewBox="0 0 300 270" fill="none" xmlns="http://www.w3.org/2000/svg">
<rect x="120.87" y="162.609" width="153.044" height="43.4783" rx="21.7391" transform="rotate(-90 120.87 162.609)" fill="#C4C4C4"/>
<rect width="92.2958" height="58.5123" rx="29.2562" transform="matrix(-0.954113 -0.299446 0.323379 -0.94627 155.017 190.435)" fill="#C4C4C4"/>
<rect width="118.58" height="58.2839" rx="29.1419" transform="matrix(-0.989538 -0.14427 0.152859 -0.988248 117.339 174.782)" fill="#C4C4C4"/>
<rect x="164.348" y="162.609" width="162.609" height="44.3478" rx="22" transform="rotate(-90 164.348 162.609)" fill="#C4C4C4"/>
<rect x="208.696" y="162.609" width="159.13" height="43.4783" rx="21.7391" transform="rotate(-90 208.696 162.609)" fill="#C4C4C4"/>
<rect x="252.174" y="178.261" width="161.739" height="43.4783" rx="21.7391" transform="rotate(-90 252.174 178.261)" fill="#C4C4C4"/>
<rect x="117.391" y="190.435" width="58.2609" height="178.261" rx="29.1304" transform="rotate(-90 117.391 190.435)" fill="#C4C4C4"/>
<rect x="125.217" y="269.565" width="59.1305" height="174.783" rx="20" transform="rotate(-90 125.217 269.565)" fill="#C4C4C4"/>
</svg>
