<svg width="300" height="270" viewBox="0 0 300 270" fill="none" xmlns="http://www.w3.org/2000/svg">
<rect width="153.044" height="43.4783" rx="21.7391" transform="matrix(-4.37114e-08 -1 -1 4.37114e-08 179.13 162.609)" fill="#C4C4C4"/>
<rect width="92.2958" height="58.5123" rx="29.2562" transform="matrix(0.954113 -0.299446 -0.323379 -0.94627 144.983 190.435)" fill="#C4C4C4"/>
<rect width="118.58" height="58.2839" rx="29.1419" transform="matrix(0.989538 -0.14427 -0.152859 -0.988248 182.661 174.782)" fill="#C4C4C4"/>
<rect width="162.609" height="44.3478" rx="22" transform="matrix(-4.37114e-08 -1 -1 4.37114e-08 135.652 162.609)" fill="#C4C4C4"/>
<rect width="159.13" height="43.4783" rx="21.7391" transform="matrix(-4.37114e-08 -1 -1 4.37114e-08 91.3042 162.609)" fill="#C4C4C4"/>
<rect width="161.739" height="43.4783" rx="21.7391" transform="matrix(-4.37114e-08 -1 -1 4.37114e-08 47.8262 178.261)" fill="#C4C4C4"/>
<rect width="58.2609" height="178.261" rx="29.1304" transform="matrix(-4.37114e-08 -1 -1 4.37114e-08 182.609 190.435)" fill="#C4C4C4"/>
<rect width="59.1305" height="174.783" rx="20" transform="matrix(-4.37114e-08 -1 -1 4.37114e-08 174.783 269.565)" fill="#C4C4C4"/>
</svg>
