<svg width="231" height="33" viewBox="0 0 231 33" fill="none" xmlns="http://www.w3.org/2000/svg">
<path d="M32.8625 0.458333C33.1986 0.458333 33.4889 0.580555 33.7333 0.825C33.9778 1.06945 34.1 1.35972 34.1 1.69583V9.075C34.1 9.41111 33.9778 9.70139 33.7333 9.94583C33.4889 10.1903 33.1986 10.3125 32.8625 10.3125H23.0083V31.3042C23.0083 31.6403 22.8861 31.9306 22.6417 32.175C22.3972 32.4194 22.1069 32.5417 21.7708 32.5417H12.3292C11.9931 32.5417 11.7028 32.4194 11.4583 32.175C11.2139 31.9306 11.0917 31.6403 11.0917 31.3042V10.3125H1.2375C0.901389 10.3125 0.611111 10.1903 0.366667 9.94583C0.122222 9.70139 0 9.41111 0 9.075V1.69583C0 1.35972 0.122222 1.06945 0.366667 0.825C0.611111 0.580555 0.901389 0.458333 1.2375 0.458333H32.8625Z" fill="#C4C4C4"/>
<path d="M62.2238 23.1458H70.5196C70.8557 23.1458 71.146 23.2681 71.3904 23.5125C71.6349 23.7569 71.7571 24.0472 71.7571 24.3833V31.3042C71.7571 31.6403 71.6349 31.9306 71.3904 32.175C71.146 32.4194 70.8557 32.5417 70.5196 32.5417H41.4613C41.1252 32.5417 40.8349 32.4194 40.5904 32.175C40.346 31.9306 40.2238 31.6403 40.2238 31.3042V24.3833C40.2238 24.0472 40.346 23.7569 40.5904 23.5125C40.8349 23.2681 41.1252 23.1458 41.4613 23.1458H49.8488V9.85417H41.4613C41.1252 9.85417 40.8349 9.73194 40.5904 9.4875C40.346 9.24306 40.2238 8.95278 40.2238 8.61667V1.69583C40.2238 1.35972 40.346 1.06945 40.5904 0.825C40.8349 0.580555 41.1252 0.458333 41.4613 0.458333H70.5196C70.8557 0.458333 71.146 0.580555 71.3904 0.825C71.6349 1.06945 71.7571 1.35972 71.7571 1.69583V8.61667C71.7571 8.95278 71.6349 9.24306 71.3904 9.4875C71.146 9.73194 70.8557 9.85417 70.5196 9.85417H62.2238V23.1458Z" fill="#C4C4C4"/>
<path d="M113.86 30.9375C113.982 31.1208 114.043 31.3194 114.043 31.5333C114.043 31.8083 113.936 32.0528 113.723 32.2667C113.539 32.45 113.31 32.5417 113.035 32.5417H101.21C100.507 32.5417 99.9572 32.2972 99.56 31.8083L91.585 21.9542V31.3042C91.585 31.6403 91.4628 31.9306 91.2184 32.175C90.9739 32.4194 90.6836 32.5417 90.3475 32.5417H80.9059C80.5697 32.5417 80.2795 32.4194 80.035 32.175C79.7906 31.9306 79.6684 31.6403 79.6684 31.3042V1.69583C79.6684 1.35972 79.7906 1.06945 80.035 0.825C80.2795 0.580555 80.5697 0.458333 80.9059 0.458333H90.3475C90.6836 0.458333 90.9739 0.580555 91.2184 0.825C91.4628 1.06945 91.585 1.35972 91.585 1.69583V10.3125L98.8267 1.2375C99.285 0.718055 99.8503 0.458333 100.523 0.458333H111.568C111.843 0.458333 112.073 0.565278 112.256 0.779168C112.47 0.9625 112.577 1.19167 112.577 1.46667C112.577 1.71111 112.5 1.925 112.348 2.10833L101.485 15.3542L113.86 30.9375Z" fill="#C4C4C4"/>
<path d="M149.684 0.458333C150.02 0.458333 150.31 0.580555 150.555 0.825C150.799 1.06945 150.921 1.35972 150.921 1.69583V9.075C150.921 9.41111 150.799 9.70139 150.555 9.94583C150.31 10.1903 150.02 10.3125 149.684 10.3125H139.83V31.3042C139.83 31.6403 139.707 31.9306 139.463 32.175C139.219 32.4194 138.928 32.5417 138.592 32.5417H129.15C128.814 32.5417 128.524 32.4194 128.28 32.175C128.035 31.9306 127.913 31.6403 127.913 31.3042V10.3125H118.059C117.723 10.3125 117.432 10.1903 117.188 9.94583C116.944 9.70139 116.821 9.41111 116.821 9.075V1.69583C116.821 1.35972 116.944 1.06945 117.188 0.825C117.432 0.580555 117.723 0.458333 118.059 0.458333H149.684Z" fill="#C4C4C4"/>
<path d="M189.862 19.2958C189.862 23.9708 188.303 27.4236 185.187 29.6542C182.101 31.8847 177.976 33 172.812 33C167.648 33 163.508 31.8847 160.391 29.6542C157.305 27.4236 155.762 23.9403 155.762 19.2042V13.7958C155.762 10.6792 156.495 8.09722 157.962 6.05C159.459 3.97222 161.491 2.44444 164.058 1.46667C166.624 0.488889 169.542 0 172.812 0C176.081 0 178.984 0.488889 181.52 1.46667C184.087 2.44444 186.119 3.95694 187.616 6.00417C189.113 8.05139 189.862 10.6181 189.862 13.7042V19.2958ZM168.137 20.1667C168.137 21.4194 168.549 22.3819 169.374 23.0542C170.23 23.7264 171.376 24.0625 172.812 24.0625C174.248 24.0625 175.378 23.7264 176.203 23.0542C177.059 22.3514 177.487 21.3736 177.487 20.1208V12.8792C177.487 11.6264 177.059 10.6639 176.203 9.99167C175.378 9.28889 174.248 8.9375 172.812 8.9375C171.376 8.9375 170.23 9.27361 169.374 9.94583C168.549 10.6181 168.137 11.5806 168.137 12.8333V20.1667Z" fill="#C4C4C4"/>
<path d="M230.681 30.9375C230.804 31.1208 230.865 31.3194 230.865 31.5333C230.865 31.8083 230.758 32.0528 230.544 32.2667C230.36 32.45 230.131 32.5417 229.856 32.5417H218.031C217.329 32.5417 216.779 32.2972 216.381 31.8083L208.406 21.9542V31.3042C208.406 31.6403 208.284 31.9306 208.04 32.175C207.795 32.4194 207.505 32.5417 207.169 32.5417H197.727C197.391 32.5417 197.101 32.4194 196.856 32.175C196.612 31.9306 196.49 31.6403 196.49 31.3042V1.69583C196.49 1.35972 196.612 1.06945 196.856 0.825C197.101 0.580555 197.391 0.458333 197.727 0.458333H207.169C207.505 0.458333 207.795 0.580555 208.04 0.825C208.284 1.06945 208.406 1.35972 208.406 1.69583V10.3125L215.648 1.2375C216.106 0.718055 216.672 0.458333 217.344 0.458333H228.39C228.665 0.458333 228.894 0.565278 229.077 0.779168C229.291 0.9625 229.398 1.19167 229.398 1.46667C229.398 1.71111 229.322 1.925 229.169 2.10833L218.306 15.3542L230.681 30.9375Z" fill="#C4C4C4"/>
</svg>
