<svg width="300" height="300" viewBox="0 0 300 300" fill="none" xmlns="http://www.w3.org/2000/svg">
<path fill-rule="evenodd" clip-rule="evenodd" d="M150 300C232.843 300 300 232.843 300 150C300 67.1572 232.843 0 150 0C67.1572 0 0 67.1572 0 150C0 232.843 67.1572 300 150 300ZM241.416 113.066C226.322 113.066 212.228 108.782 200.285 101.364V193.649C200.285 233.055 168.34 265 128.935 265C89.5288 265 57.584 233.055 57.584 193.649C57.584 154.244 89.5288 122.299 128.935 122.299L128.934 159.233C109.927 159.233 94.5181 174.642 94.5181 193.649C94.5181 212.657 109.927 228.065 128.934 228.065C147.942 228.065 163.351 212.657 163.351 193.649V35H200.285H203.761C203.761 55.7964 220.62 72.6553 241.416 72.6553V113.066Z" fill="#C4C4C4"/>
</svg>
