<svg width="200" height="300" viewBox="0 0 200 300" fill="none" xmlns="http://www.w3.org/2000/svg">
<path fill-rule="evenodd" clip-rule="evenodd" d="M100.5 0C100.5 0 120.906 48.9529 139.273 87.2812C150.799 111.334 167.048 135.335 177.554 149.876C181.014 153.782 184.132 157.955 186.867 162.355C187.601 163.302 188 163.804 188 163.804H187.748C195.559 176.915 200 191.968 200 207.976C200 258.799 155.229 300 100 300C44.7715 300 0 258.799 0 207.976C0 185.2 8.99121 164.357 23.8853 148.288C33.9131 133.626 49.1055 110.479 61.7271 87.2812C82.582 48.9529 100.5 0 100.5 0ZM87.9019 277.31C98.0718 278.238 98.6064 264.08 90.2646 258.189C88.3647 256.848 86.5112 255.415 84.709 253.892C56.4004 229.959 48.2432 189.866 60.1465 151.498C61.8979 145.853 55.5601 141.107 51.7441 145.621C19.853 183.344 19.5903 235.559 51.1577 262.246C61.6831 271.144 74.4185 276.081 87.9019 277.31Z" fill="#C4C4C4"/>
</svg>
