<svg width="300" height="300" viewBox="0 0 300 300" fill="none" xmlns="http://www.w3.org/2000/svg">
<path fill-rule="evenodd" clip-rule="evenodd" d="M150 300C232.843 300 300 232.843 300 150C300 67.1573 232.843 0 150 0C67.1573 0 0 67.1573 0 150C0 232.843 67.1573 300 150 300ZM150 264C212.96 264 264 212.96 264 150C264 87.0395 212.96 36 150 36C87.0395 36 36 87.0395 36 150C36 212.96 87.0395 264 150 264Z" fill="#C4C4C4"/>
<path d="M109.527 192H88.0531V124.8H63V108H134.58V124.8H109.527V192Z" fill="#C4C4C4"/>
<path d="M214.526 145.2L197.824 175.2H181.122L164.42 145.2V192H142.945V108H165.613L189.473 152.4L213.333 108H236V192H214.526V145.2Z" fill="#C4C4C4"/>
</svg>
