<svg width="300" height="244" viewBox="0 0 300 244" fill="none" xmlns="http://www.w3.org/2000/svg">
<path fill-rule="evenodd" clip-rule="evenodd" d="M88.0074 5.00883C88.0074 0.938565 83.4037 -1.42622 80.0952 0.944491L2.08776 56.8393C-0.695924 58.8339 -0.69592 62.9734 2.08777 64.968L80.0952 120.863C83.4038 123.234 88.0074 120.869 88.0074 116.799L88.0074 90.4814C88.0074 87.72 90.246 85.4814 93.0074 85.4814H171.27C174.031 85.4814 176.27 83.2428 176.27 80.4814V40.3019C176.27 37.5404 174.031 35.3019 171.27 35.3019H93.0074C90.246 35.3019 88.0074 33.0633 88.0074 30.3019L88.0074 5.00883ZM217.645 35.3019C214.884 35.3019 212.645 37.5404 212.645 40.3019V80.4814C212.645 83.2428 214.884 85.4814 217.645 85.4814H228.864C231.625 85.4814 233.864 83.2428 233.864 80.4814V40.3019C233.864 37.5404 231.625 35.3019 228.864 35.3019H217.645ZM275.239 35.3019C272.477 35.3019 270.239 37.5404 270.239 40.3019V80.4814C270.239 83.2428 272.477 85.4814 275.239 85.4814H294.541C297.302 85.4814 299.541 83.2428 299.541 80.4814V40.3019C299.541 37.5404 297.302 35.3019 294.541 35.3019H275.239Z" fill="#C4C4C4"/>
<path fill-rule="evenodd" clip-rule="evenodd" d="M211.991 238.278C211.991 242.348 216.594 244.713 219.903 242.342L297.91 186.447C300.694 184.453 300.694 180.313 297.91 178.319L219.903 122.424C216.594 120.053 211.991 122.418 211.991 126.488L211.991 152.805C211.991 155.567 209.752 157.805 206.991 157.805L128.728 157.805C125.967 157.805 123.728 160.044 123.728 162.805L123.728 202.985C123.728 205.746 125.967 207.985 128.728 207.985L206.991 207.985C209.752 207.985 211.991 210.223 211.991 212.985L211.991 238.278ZM82.3532 207.985C85.1146 207.985 87.3532 205.746 87.3532 202.985L87.3532 162.805C87.3532 160.044 85.1146 157.805 82.3532 157.805L71.1345 157.805C68.373 157.805 66.1345 160.044 66.1345 162.805L66.1345 202.985C66.1345 205.746 68.373 207.985 71.1345 207.985L82.3532 207.985ZM24.7594 207.985C27.5208 207.985 29.7594 205.746 29.7594 202.985L29.7594 162.805C29.7594 160.044 27.5208 157.805 24.7594 157.805L5.45718 157.805C2.69576 157.805 0.457177 160.044 0.457177 162.805L0.45718 202.985C0.457181 205.746 2.69577 207.985 5.45718 207.985L24.7594 207.985Z" fill="#C4C4C4"/>
</svg>
