<svg width="242" height="300" viewBox="0 0 242 300" fill="none" xmlns="http://www.w3.org/2000/svg">
<path fill-rule="evenodd" clip-rule="evenodd" d="M51.8767 0C41.4381 0 32.9759 8.46217 32.9759 18.9008C32.9759 19.0352 32.9773 19.1692 32.9801 19.3029H20C8.9543 19.3029 0 28.2573 0 39.3029V42.7346C0 53.7803 8.95428 62.7346 20 62.7346H221.287C232.333 62.7346 241.287 53.7803 241.287 42.7346V39.3029C241.287 28.2573 232.333 19.3029 221.287 19.3029H208.307C208.31 19.1692 208.311 19.0352 208.311 18.9008C208.311 8.46217 199.849 0 189.41 0H51.8767ZM9.63959 101.911C8.77758 90.3137 17.9549 80.429 29.5846 80.429H210.898C222.528 80.429 231.705 90.3137 230.843 101.911L217.496 281.482C216.72 291.924 208.022 300 197.551 300H42.9313C32.4607 300 23.7624 291.924 22.9863 281.482L9.63959 101.911ZM139.946 117.319C139.946 106.273 148.901 97.319 159.946 97.319H162.574C173.619 97.319 182.574 106.273 182.574 117.319V263.914C182.574 274.96 173.619 283.914 162.574 283.914H159.946C148.901 283.914 139.946 274.96 139.946 263.914V117.319ZM57.9088 117.319C57.9088 106.273 66.8632 97.3191 77.9088 97.3191H80.5362C91.5819 97.3191 100.536 106.273 100.536 117.319V263.914C100.536 274.96 91.5819 283.914 80.5362 283.914H77.9089C66.8632 283.914 57.9088 274.96 57.9088 263.914V117.319Z" fill="#C4C4C4"/>
</svg>
