<svg width="270" height="300" viewBox="0 0 270 300" fill="none" xmlns="http://www.w3.org/2000/svg">
<path fill-rule="evenodd" clip-rule="evenodd" d="M135 0C171.991 0 202.728 23.287 208.879 53.922C209.252 53.916 209.626 53.913 210 53.913C243.137 53.913 270 77.2721 270 106.087C270 128.863 253.216 148.231 229.817 155.348C229.938 156.595 230 157.856 230 159.13C230 183.623 207.167 203.478 179 203.478C173.039 203.478 167.317 202.589 162 200.955V300H108V200.955C102.683 202.589 96.9608 203.478 91 203.478C62.8335 203.478 40 183.623 40 159.13C40 157.856 40.0618 156.595 40.1829 155.348C16.7836 148.231 0 128.863 0 106.087C0 77.2721 26.8629 53.913 60 53.913C60.3744 53.913 60.748 53.916 61.1208 53.922C67.2724 23.287 98.0088 0 135 0Z" fill="#C4C4C4"/>
</svg>
