<svg width="277" height="33" viewBox="0 0 277 33" fill="none" xmlns="http://www.w3.org/2000/svg">
<path d="M33.8014 0C34.1471 0 34.4457 0.125715 34.6971 0.377144C34.9486 0.628573 35.0743 0.927144 35.0743 1.27286V8.86286C35.0743 9.20857 34.9486 9.50714 34.6971 9.75857C34.4457 10.01 34.1471 10.1357 33.8014 10.1357H23.6657V31.7271C23.6657 32.0729 23.54 32.3714 23.2886 32.6229C23.0371 32.8743 22.7386 33 22.3929 33H12.6814C12.3357 33 12.0371 32.8743 11.7857 32.6229C11.5343 32.3714 11.4086 32.0729 11.4086 31.7271V10.1357H1.27286C0.927143 10.1357 0.628572 10.01 0.377143 9.75857C0.125714 9.50714 0 9.20857 0 8.86286V1.27286C0 0.927144 0.125714 0.628573 0.377143 0.377144C0.628572 0.125715 0.927143 0 1.27286 0H33.8014Z" fill="#C4C4C4"/>
<path d="M53.4416 31.7271C53.3473 32.01 53.1116 32.2929 52.7344 32.5757C52.3887 32.8586 51.933 33 51.3673 33H44.7673C44.1702 33 43.6673 32.8271 43.2587 32.4814C42.8816 32.1043 42.6616 31.68 42.5987 31.2086L38.4973 1.17857V1.03714C38.4973 0.754286 38.5916 0.518572 38.7802 0.330001C39.0002 0.11 39.2516 0 39.5344 0H47.643C48.2716 0 48.7744 0.188572 49.1516 0.565715C49.5602 0.942857 49.7959 1.41429 49.8587 1.98L51.3673 16.4057L54.1016 8.91C54.1959 8.59571 54.4159 8.29714 54.7616 8.01429C55.1387 7.7 55.6102 7.54286 56.1759 7.54286H59.3816C59.9473 7.54286 60.403 7.7 60.7487 8.01429C61.1259 8.29714 61.3616 8.59571 61.4559 8.91L64.1902 16.4057L65.6987 1.98C65.7616 1.41429 65.9816 0.942857 66.3587 0.565715C66.7673 0.188572 67.2859 0 67.9144 0H76.023C76.3059 0 76.5416 0.11 76.7302 0.330001C76.9502 0.518572 77.0602 0.754286 77.0602 1.03714V1.17857L72.9587 31.2086C72.8959 31.68 72.6602 32.1043 72.2516 32.4814C71.8744 32.8271 71.3873 33 70.7902 33H64.1902C63.6244 33 63.153 32.8586 62.7759 32.5757C62.4302 32.2929 62.2102 32.01 62.1159 31.7271L57.7787 21.78L53.4416 31.7271Z" fill="#C4C4C4"/>
<path d="M104.055 23.3357H112.587C112.933 23.3357 113.232 23.4614 113.483 23.7129C113.735 23.9643 113.86 24.2629 113.86 24.6086V31.7271C113.86 32.0729 113.735 32.3714 113.483 32.6229C113.232 32.8743 112.933 33 112.587 33H82.6989C82.3532 33 82.0546 32.8743 81.8032 32.6229C81.5517 32.3714 81.426 32.0729 81.426 31.7271V24.6086C81.426 24.2629 81.5517 23.9643 81.8032 23.7129C82.0546 23.4614 82.3532 23.3357 82.6989 23.3357H91.326V9.66429H82.6989C82.3532 9.66429 82.0546 9.53857 81.8032 9.28714C81.5517 9.03571 81.426 8.73714 81.426 8.39143V1.27286C81.426 0.927144 81.5517 0.628573 81.8032 0.377144C82.0546 0.125715 82.3532 0 82.6989 0H112.587C112.933 0 113.232 0.125715 113.483 0.377144C113.735 0.628573 113.86 0.927144 113.86 1.27286V8.39143C113.86 8.73714 113.735 9.03571 113.483 9.28714C113.232 9.53857 112.933 9.66429 112.587 9.66429H104.055V23.3357Z" fill="#C4C4C4"/>
<path d="M153.96 0C154.306 0 154.605 0.125715 154.856 0.377144C155.108 0.628573 155.233 0.927144 155.233 1.27286V8.86286C155.233 9.20857 155.108 9.50714 154.856 9.75857C154.605 10.01 154.306 10.1357 153.96 10.1357H143.825V31.7271C143.825 32.0729 143.699 32.3714 143.448 32.6229C143.196 32.8743 142.898 33 142.552 33H132.84C132.495 33 132.196 32.8743 131.945 32.6229C131.693 32.3714 131.568 32.0729 131.568 31.7271V10.1357H121.432C121.086 10.1357 120.788 10.01 120.536 9.75857C120.285 9.50714 120.159 9.20857 120.159 8.86286V1.27286C120.159 0.927144 120.285 0.628573 120.536 0.377144C120.788 0.125715 121.086 0 121.432 0H153.96Z" fill="#C4C4C4"/>
<path d="M194.013 0C194.359 0 194.658 0.125715 194.909 0.377144C195.161 0.628573 195.286 0.927144 195.286 1.27286V8.86286C195.286 9.20857 195.161 9.50714 194.909 9.75857C194.658 10.01 194.359 10.1357 194.013 10.1357H183.878V31.7271C183.878 32.0729 183.752 32.3714 183.501 32.6229C183.249 32.8743 182.951 33 182.605 33H172.893C172.548 33 172.249 32.8743 171.998 32.6229C171.746 32.3714 171.621 32.0729 171.621 31.7271V10.1357H161.485C161.139 10.1357 160.841 10.01 160.589 9.75857C160.338 9.50714 160.212 9.20857 160.212 8.86286V1.27286C160.212 0.927144 160.338 0.628573 160.589 0.377144C160.841 0.125715 161.139 0 161.485 0H194.013Z" fill="#C4C4C4"/>
<path d="M233.076 23.8071C233.422 23.8071 233.721 23.9329 233.972 24.1843C234.224 24.4357 234.349 24.7343 234.349 25.08V31.7271C234.349 32.0729 234.224 32.3714 233.972 32.6229C233.721 32.8743 233.422 33 233.076 33H203.282C202.936 33 202.638 32.8743 202.386 32.6229C202.135 32.3714 202.009 32.0729 202.009 31.7271V1.27286C202.009 0.927144 202.135 0.628573 202.386 0.377144C202.638 0.125715 202.936 0 203.282 0H232.605C232.951 0 233.249 0.125715 233.501 0.377144C233.752 0.628573 233.878 0.927144 233.878 1.27286V7.92C233.878 8.26571 233.752 8.56429 233.501 8.81571C233.249 9.06714 232.951 9.19286 232.605 9.19286H214.266V12.1629H230.012C230.358 12.1629 230.656 12.2886 230.908 12.54C231.159 12.7914 231.285 13.09 231.285 13.4357V19.5643C231.285 19.91 231.159 20.2086 230.908 20.46C230.656 20.7114 230.358 20.8371 230.012 20.8371H214.266V23.8071H233.076Z" fill="#C4C4C4"/>
<path d="M276.571 31.5386C276.634 31.6643 276.665 31.8057 276.665 31.9629C276.665 32.2457 276.555 32.4971 276.335 32.7171C276.147 32.9057 275.911 33 275.628 33H264.927C264.487 33 264.078 32.89 263.701 32.67C263.355 32.45 263.104 32.1671 262.947 31.8214L258.798 22.4871H254.838V31.7271C254.838 32.0729 254.712 32.3714 254.461 32.6229C254.21 32.8743 253.911 33 253.565 33H243.382C243.037 33 242.738 32.8743 242.487 32.6229C242.235 32.3714 242.11 32.0729 242.11 31.7271V1.27286C242.11 0.927144 242.235 0.628573 242.487 0.377144C242.738 0.125715 243.037 0 243.382 0H261.721C264.549 0 267.017 0.455715 269.122 1.36714C271.26 2.27857 272.894 3.59857 274.025 5.32714C275.157 7.05572 275.722 9.08286 275.722 11.4086C275.722 15.6829 274.072 18.7786 270.772 20.6957L276.571 31.5386ZM260.731 13.7657C261.422 13.7657 261.957 13.5457 262.334 13.1057C262.711 12.6343 262.9 12.0529 262.9 11.3614C262.9 10.67 262.711 10.0729 262.334 9.57C261.988 9.03572 261.454 8.76857 260.731 8.76857H254.838V13.7657H260.731Z" fill="#C4C4C4"/>
</svg>
