<svg width="231" height="300" viewBox="0 0 231 300" fill="none" xmlns="http://www.w3.org/2000/svg">
<path fill-rule="evenodd" clip-rule="evenodd" d="M230.179 126.599H0V280.051C0 280.051 21.0997 300 115.09 300C209.079 300 230.179 280.051 230.179 280.051V126.599ZM194 154H36V259.31C36 259.31 50.4833 273 115 273C179.517 273 194 259.31 194 259.31V154Z" fill="#C4C4C4"/>
<path fill-rule="evenodd" clip-rule="evenodd" d="M61.9999 126.599H28.1792V70.4549H28.1793V70.4548C28.1793 31.5437 67.0904 0 115.09 0C162.902 0 201.696 31.2982 201.998 70H168.101C167.676 49.2106 144.105 32.4521 115.09 32.4521C86.0752 32.4521 62.5042 49.2106 62.0783 70H61.9999V126.599ZM202 70.3514C202 70.3859 202 70.4204 202 70.4549V70.5582V126.599L202 70.3514Z" fill="#C4C4C4"/>
<rect x="101.279" y="165.729" width="27.6215" height="95.1407" rx="13.8107" fill="#C4C4C4"/>
</svg>
