<svg width="162" height="300" viewBox="0 0 162 300" fill="none" xmlns="http://www.w3.org/2000/svg">
<path d="M99.4745 0V45.8749H74.4088V0H99.4745ZM96.3216 257.436V300H71.2559V257.436H96.3216ZM106.884 204.782C106.884 199.002 105.991 194.22 104.204 190.436C102.417 186.653 99.5271 183.342 95.5334 180.504C91.5397 177.667 86.2323 174.829 79.6111 171.992C65.6332 166.316 53.2843 160.483 42.5644 154.493C31.9496 148.502 23.5943 141.04 17.4987 132.107C11.5081 123.174 8.51287 111.561 8.51287 97.2675C8.51287 84.2354 11.7183 72.8849 18.1293 63.216C24.6453 53.547 33.5786 46.0851 44.9291 40.8303C56.3847 35.4703 69.5744 32.7903 84.4982 32.7903C95.8487 32.7903 106.201 34.4719 115.554 37.835C124.908 41.1981 133.001 46.0851 139.832 52.4961C146.663 58.8019 151.918 66.5791 155.596 75.8276C159.275 84.9711 161.114 95.3757 161.114 107.042H107.987C107.987 101.051 107.357 95.9012 106.096 91.5922C104.94 87.2832 103.258 83.7625 101.051 81.03C98.8439 78.2974 96.2691 76.3006 93.3263 75.0394C90.3836 73.6731 87.1781 72.99 83.7099 72.99C78.4551 72.99 74.1986 74.1461 70.9406 76.4582C67.6826 78.6653 65.3179 81.608 63.8466 85.2864C62.3752 88.9648 61.6395 93.0636 61.6395 97.5828C61.6395 102.312 62.4277 106.463 64.0042 110.037C65.6858 113.505 68.5234 116.763 72.5171 119.811C76.5108 122.754 81.9758 125.801 88.9122 128.954C102.575 134.735 114.766 140.725 125.486 146.926C136.206 153.127 144.614 160.746 150.709 169.785C156.91 178.718 160.011 190.279 160.011 204.467C160.011 218.129 156.805 229.795 150.394 239.464C143.983 249.028 135.05 256.332 123.594 261.377C112.139 266.421 98.8965 268.944 83.8676 268.944C73.7783 268.944 63.7415 267.63 53.7572 265.003C43.8781 262.375 34.8397 258.119 26.6421 252.233C18.5497 246.243 12.0862 238.308 7.25171 228.429C2.41724 218.55 0 206.411 0 192.013H53.1266C53.1266 199.054 53.9674 204.94 55.649 209.669C57.3305 214.398 59.5901 218.182 62.4277 221.019C65.3705 223.752 68.681 225.749 72.3594 227.01C76.0378 228.166 79.8739 228.744 83.8676 228.744C89.2275 228.744 93.5891 227.693 96.9522 225.591C100.315 223.384 102.785 220.494 104.362 216.921C106.043 213.242 106.884 209.196 106.884 204.782Z" fill="#C4C4C4"/>
</svg>
