<svg width="300" height="300" viewBox="0 0 300 300" fill="none" xmlns="http://www.w3.org/2000/svg">
<path d="M229.091 91.3636C229.091 141.822 193.07 182.727 148.636 182.727C104.203 182.727 68.1818 141.822 68.1818 91.3636C68.1818 40.9049 104.203 0 148.636 0C193.07 0 229.091 40.9049 229.091 91.3636Z" fill="#C4C4C4"/>
<path d="M104.112 185.658L10.0286 236.4C3.85114 239.732 0 246.184 0 253.203V280.909C0 291.453 8.5473 300 19.0909 300H280.909C291.453 300 300 291.453 300 280.909V253.203C300 246.184 296.149 239.732 289.971 236.4L194.368 184.838C181.383 193.826 165.624 199.091 148.636 199.091C132.172 199.091 116.862 194.145 104.112 185.658Z" fill="#C4C4C4"/>
</svg>
