<svg width="300" height="300" viewBox="0 0 300 300" fill="none" xmlns="http://www.w3.org/2000/svg">
<path d="M199.238 118.782C199.238 153.597 176.813 181.821 149.151 181.821C121.489 181.821 99.0642 153.597 99.0642 118.782C99.0642 83.9669 121.489 55.7437 149.151 55.7437C176.813 55.7437 199.238 83.9669 199.238 118.782Z" fill="#C4C4C4"/>
<path d="M121.432 183.843L62.861 218.853C59.0152 221.152 56.6177 225.604 56.6177 230.447V249.563C56.6177 256.838 61.9388 262.736 68.5027 262.736H231.497C238.061 262.736 243.382 256.838 243.382 249.563V230.447C243.382 225.604 240.985 221.152 237.139 218.853L177.621 183.277C169.537 189.478 159.727 193.111 149.151 193.111C138.901 193.111 129.37 189.699 121.432 183.843Z" fill="#C4C4C4"/>
<path fill-rule="evenodd" clip-rule="evenodd" d="M91.5526 133.39C86.3288 136.512 80.4856 138.259 74.3182 138.259C52.1013 138.259 34.0909 115.591 34.0909 87.6293C34.0909 59.6675 52.1013 37 74.3182 37C88.817 37 101.524 46.6539 108.604 61.1331C97.0567 74.7209 89.8396 94.0645 89.8396 115.529C89.8396 121.686 90.4333 127.668 91.5526 133.39ZM93.6435 141.854C87.9082 145.343 81.3222 147.327 74.3182 147.327C66.0858 147.327 58.4309 144.586 52.056 139.883L5.01429 168.002C1.92557 169.848 0 173.424 0 177.313V192.666C0 198.509 4.27365 203.245 9.54545 203.245H98.0691L116.259 192.373C123.986 198.073 132.991 201.813 142.696 202.952C146.887 201.834 150 197.653 150 192.666C150 197.412 152.819 201.428 156.703 202.768C166.244 201.393 175.072 197.498 182.624 191.705L201.931 203.245H290.455C295.726 203.245 300 198.509 300 192.666V177.313C300 173.424 298.074 169.848 294.986 168.002L247.184 139.428C240.691 144.409 232.812 147.327 224.318 147.327C217.093 147.327 210.312 145.215 204.451 141.519C196.073 169.824 174.406 189.984 148.997 189.984C123.689 189.984 102.093 169.983 93.6435 141.854ZM206.51 133.04C211.878 136.381 217.924 138.259 224.318 138.259C246.535 138.259 264.545 115.591 264.545 87.6293C264.545 59.6675 246.535 37 224.318 37C209.658 37 196.83 46.8697 189.799 61.6175C201.108 75.1787 208.155 94.3183 208.155 115.529C208.155 121.561 207.585 127.424 206.51 133.04Z" fill="#C4C4C4"/>
</svg>
