<svg width="191" height="33" viewBox="0 0 191 33" fill="none" xmlns="http://www.w3.org/2000/svg">
<path d="M35.0167 0.458333C35.2917 0.458333 35.5208 0.565278 35.7042 0.779168C35.9181 0.9625 36.025 1.19167 36.025 1.46667L35.9792 1.7875L25.4375 31.0292C25.2847 31.4569 25.0403 31.8236 24.7042 32.1292C24.3681 32.4042 23.925 32.5417 23.375 32.5417H12.6958C12.1458 32.5417 11.7028 32.4042 11.3667 32.1292C11.0306 31.8236 10.8014 31.5028 10.6792 31.1667L0.0458333 1.7875L0 1.46667C0 1.19167 0.0916667 0.9625 0.275 0.779168C0.488889 0.565278 0.733333 0.458333 1.00833 0.458333H10.6792C11.2292 0.458333 11.6722 0.626389 12.0083 0.962501C12.375 1.26806 12.6194 1.60417 12.7417 1.97083L18.0125 19.525L23.2833 1.97083C23.4056 1.57361 23.6347 1.22222 23.9708 0.916666C24.3069 0.611111 24.7653 0.458333 25.3458 0.458333H35.0167Z" fill="#C4C4C4"/>
<path d="M71.8029 23.6042C72.139 23.6042 72.4293 23.7264 72.6738 23.9708C72.9182 24.2153 73.0404 24.5056 73.0404 24.8417V31.3042C73.0404 31.6403 72.9182 31.9306 72.6738 32.175C72.4293 32.4194 72.139 32.5417 71.8029 32.5417H42.8363C42.5001 32.5417 42.2099 32.4194 41.9654 32.175C41.721 31.9306 41.5988 31.6403 41.5988 31.3042V1.69583C41.5988 1.35972 41.721 1.06945 41.9654 0.825C42.2099 0.580555 42.5001 0.458333 42.8363 0.458333H71.3446C71.6807 0.458333 71.971 0.580555 72.2154 0.825C72.4599 1.06945 72.5821 1.35972 72.5821 1.69583V8.15833C72.5821 8.49444 72.4599 8.78472 72.2154 9.02917C71.971 9.27361 71.6807 9.39583 71.3446 9.39583H53.5154V12.2833H68.8238C69.1599 12.2833 69.4501 12.4056 69.6946 12.65C69.939 12.8944 70.0613 13.1847 70.0613 13.5208V19.4792C70.0613 19.8153 69.939 20.1056 69.6946 20.35C69.4501 20.5944 69.1599 20.7167 68.8238 20.7167H53.5154V23.6042H71.8029Z" fill="#C4C4C4"/>
<path d="M110.239 0.458333C110.575 0.458333 110.866 0.580555 111.11 0.825C111.354 1.06945 111.477 1.35972 111.477 1.69583V31.3042C111.477 31.6403 111.354 31.9306 111.11 32.175C110.866 32.4194 110.575 32.5417 110.239 32.5417H102.86C102.127 32.5417 101.516 32.2208 101.027 31.5792L91.035 18.8375V31.3042C91.035 31.6403 90.9128 31.9306 90.6684 32.175C90.4239 32.4194 90.1336 32.5417 89.7975 32.5417H81.2725C80.9364 32.5417 80.6461 32.4194 80.4017 32.175C80.1572 31.9306 80.035 31.6403 80.035 31.3042V1.69583C80.035 1.35972 80.1572 1.06945 80.4017 0.825C80.6461 0.580555 80.9364 0.458333 81.2725 0.458333H88.6975C89.4309 0.458333 90.0267 0.763889 90.485 1.375L100.477 15.1708V1.69583C100.477 1.35972 100.599 1.06945 100.843 0.825C101.088 0.580555 101.378 0.458333 101.714 0.458333H110.239Z" fill="#C4C4C4"/>
<path d="M140.838 1.69583C141.296 0.870833 141.953 0.458333 142.809 0.458333H151.196C151.532 0.458333 151.823 0.580555 152.067 0.825C152.312 1.06945 152.434 1.35972 152.434 1.69583V31.3042C152.434 31.6403 152.312 31.9306 152.067 32.175C151.823 32.4194 151.532 32.5417 151.196 32.5417H142.9C142.564 32.5417 142.274 32.4194 142.03 32.175C141.785 31.9306 141.663 31.6403 141.663 31.3042V17.0958L138.317 23.6958C138.225 23.9097 138.012 24.1542 137.675 24.4292C137.339 24.7042 136.912 24.8417 136.392 24.8417H133.275C132.756 24.8417 132.328 24.7042 131.992 24.4292C131.656 24.1542 131.442 23.9097 131.35 23.6958L128.005 17.0958V31.3042C128.005 31.6403 127.882 31.9306 127.638 32.175C127.394 32.4194 127.103 32.5417 126.767 32.5417H118.471C118.135 32.5417 117.845 32.4194 117.6 32.175C117.356 31.9306 117.234 31.6403 117.234 31.3042V1.69583C117.234 1.35972 117.356 1.06945 117.6 0.825C117.845 0.580555 118.135 0.458333 118.471 0.458333H126.859C127.714 0.458333 128.371 0.870833 128.83 1.69583L134.834 12.6958L140.838 1.69583Z" fill="#C4C4C4"/>
<path d="M190.824 19.2958C190.824 23.9708 189.266 27.4236 186.149 29.6542C183.063 31.8847 178.938 33 173.774 33C168.61 33 164.47 31.8847 161.353 29.6542C158.267 27.4236 156.724 23.9403 156.724 19.2042V13.7958C156.724 10.6792 157.458 8.09722 158.924 6.05C160.421 3.97222 162.453 2.44444 165.02 1.46667C167.587 0.488889 170.505 0 173.774 0C177.044 0 179.946 0.488889 182.483 1.46667C185.049 2.44444 187.081 3.95694 188.578 6.00417C190.076 8.05139 190.824 10.6181 190.824 13.7042V19.2958ZM169.099 20.1667C169.099 21.4194 169.512 22.3819 170.337 23.0542C171.192 23.7264 172.338 24.0625 173.774 24.0625C175.21 24.0625 176.341 23.7264 177.166 23.0542C178.021 22.3514 178.449 21.3736 178.449 20.1208V12.8792C178.449 11.6264 178.021 10.6639 177.166 9.99167C176.341 9.28889 175.21 8.9375 173.774 8.9375C172.338 8.9375 171.192 9.27361 170.337 9.94583C169.512 10.6181 169.099 11.5806 169.099 12.8333V20.1667Z" fill="#C4C4C4"/>
</svg>
