<svg width="300" height="300" viewBox="0 0 300 300" fill="none" xmlns="http://www.w3.org/2000/svg">
<path fill-rule="evenodd" clip-rule="evenodd" d="M50 0C22.3857 0 0 22.3857 0 50V250C0 277.614 22.3857 300 50 300H250C277.614 300 300 277.614 300 250V50C300 22.3857 277.614 0 250 0H50ZM270.375 56.25L215 57.625C212.75 57.9585 210.917 58.7085 209.5 59.875C208.167 60.9585 207.333 61.9165 207 62.75C206.75 63.5835 206.458 64.6665 206.125 66C202.958 79.8335 198.208 94.4165 191.875 109.75C185.542 125.083 178.625 139.167 171.125 152C163.708 164.75 156.167 176.417 148.5 187C140.833 197.5 133.708 205.75 127.125 211.75C120.625 217.667 115.5 220.625 111.75 220.625C108.917 220.625 106.583 217.375 104.75 210.875C102.917 204.375 102 197.875 102 191.375C102 171.875 104.75 153.75 110.25 137C115.833 120.25 126.333 98.8335 141.75 72.75C143.083 70.4165 143.75 68.2915 143.75 66.375C143.75 61.9585 140.75 58.9585 134.75 57.375C128.833 55.7085 119.417 54.875 106.5 54.875C93.5834 54.875 79.9166 56.4165 65.5 59.5C51.1666 62.5 39.875 66.0415 31.625 70.125C23.4584 74.2085 19.375 77.9585 19.375 81.375C19.375 85.2085 22.875 87.7085 29.875 88.875C33.9584 89.4585 37.5 90.2915 40.5 91.375C42.75 92.125 44.375 93.0415 45.375 94.125C46.375 95.2085 46.875 96.5 46.875 98C46.875 99.4165 46 102.125 44.25 106.125C42.5 110.125 40.6666 114.708 38.75 119.875C33.0834 134.708 30.25 148.375 30.25 160.875C30.25 176.208 33 191.042 38.5 205.375C44.0834 219.625 51.5 231.167 60.75 240C70 248.833 79.7084 253.25 89.875 253.25C106.958 253.25 127.333 245.75 151 230.75C162 223.833 173.167 215.417 184.5 205.5C195.917 195.5 206.583 184.792 216.5 173.375C226.417 161.875 235.625 149.375 244.125 135.875C252.625 122.292 259.833 107.917 265.75 92.75C271.667 77.5835 274.625 66.2085 274.625 58.625C274.625 57.0415 273.208 56.25 270.375 56.25Z" fill="#C4C4C4"/>
</svg>
