<svg width="300" height="98" viewBox="0 0 300 98" fill="none" xmlns="http://www.w3.org/2000/svg">
<path fill-rule="evenodd" clip-rule="evenodd" d="M214.457 24.4871L218.059 4.22701C205.155 -0.500359 200.408 -0.224097 192.429 0.240306C191.036 0.321392 189.545 0.408213 187.894 0.475137C176.788 0.925363 168.684 6.62821 161.331 13.6817C155.448 19.3246 154.777 30.0399 155.178 34.6922C158.508 48.0122 168.833 53.1224 177.191 57.2589C184.653 60.9521 190.547 63.8692 188.494 71.1605C181.891 82.8063 154.577 76.263 148.424 71.1605C147.574 75.9128 145.663 86.7383 144.822 92.0209C160.43 99.1045 178.939 97.4736 186.243 95.7728C195.648 94.4221 214.457 85.8378 214.457 62.306C211.27 46.5031 196.45 40.336 190.792 37.9817L190.791 37.9815C190.056 37.6753 189.475 37.4336 189.095 37.2435C185.793 35.5927 181.291 31.2405 180.54 29.4396C179.79 27.6387 179.49 22.9864 189.095 20.285C200.62 18.124 210.805 22.186 214.457 24.4871ZM0 3.62671V1.67574L41.5708 1.97589C43.8719 1.97589 48.8344 3.77679 50.2751 10.9804C51.7159 18.184 58.2791 50.6002 61.3807 65.9079L84.9425 1.97589H110.605L72.7864 95.7728H47.1236L25.3627 13.9819C20.1101 11.0304 7.68384 4.82731 0 3.62671ZM120.81 1.97589H144.822L129.665 95.7728H105.503L120.81 1.97589ZM279.89 1.97589L300 95.7728H277.339L274.487 81.8158H243.272L238.169 95.7728H212.806L249.725 7.67874C250.725 5.77779 254.047 1.97589 259.33 1.97589H279.89ZM250.325 62.4557L263.232 27.3381L270.435 62.4557H250.325Z" fill="#C4C4C4"/>
</svg>
