<svg width="288" height="288" viewBox="0 0 288 288" fill="none" xmlns="http://www.w3.org/2000/svg">
<path fill-rule="evenodd" clip-rule="evenodd" d="M152.944 5.88837L286.764 273.528C290.089 280.177 285.254 288 277.82 288H10.1803C2.7467 288 -2.08826 280.177 1.23596 273.528L135.056 5.88837C138.741 -1.48199 149.259 -1.48199 152.944 5.88837ZM163.7 204.956L169.464 73.9999H121.207L126.971 204.956H163.7ZM126.971 229.963C122.324 234.175 120 239.44 120 245.757C120 252.075 122.324 257.383 126.971 261.683C131.618 265.894 137.65 268 145.067 268C152.484 268 158.472 265.894 163.029 261.683C167.676 257.383 170 252.075 170 245.757C170 239.44 167.676 234.175 163.029 229.963C158.472 225.664 152.484 223.514 145.067 223.514C137.65 223.514 131.618 225.664 126.971 229.963Z" fill="#C4C4C4"/>
</svg>
