<svg width="300" height="300" viewBox="0 0 300 300" fill="none" xmlns="http://www.w3.org/2000/svg">
<path fill-rule="evenodd" clip-rule="evenodd" d="M150 300C232.843 300 300 232.843 300 150C300 67.1573 232.843 0 150 0C67.1573 0 0 67.1573 0 150C0 180.737 9.24485 209.314 25.1056 233.104L70.1012 188.108C52.1604 153.392 57.7443 109.667 86.8528 80.5586C113.595 53.816 152.675 46.9293 185.771 59.8987L118.624 127.046L118.625 127.046L125.887 174.441L170.797 179.218L237.944 112.071C250.914 145.168 244.027 184.248 217.285 210.99C188.176 240.099 144.451 245.683 109.735 227.742L64.3311 273.145C88.6189 290.073 118.15 300 150 300Z" fill="#C4C4C4"/>
</svg>
