<svg width="300" height="300" viewBox="0 0 300 300" fill="none" xmlns="http://www.w3.org/2000/svg">
<path fill-rule="evenodd" clip-rule="evenodd" d="M150 300C208.65 300 256.195 232.843 256.195 150C256.195 67.1573 208.65 0 150 0C91.3503 0 43.8053 67.1573 43.8053 150C43.8053 232.843 91.3503 300 150 300ZM150 288.053C203.978 288.053 247.737 226.245 247.737 150C247.737 73.7554 203.978 11.9469 150 11.9469C96.0215 11.9469 52.2633 73.7554 52.2633 150C52.2633 226.245 96.0215 288.053 150 288.053Z" fill="#C4C4C4"/>
<path fill-rule="evenodd" clip-rule="evenodd" d="M150 300C179.325 300 203.097 232.843 203.097 150C203.097 67.1573 179.325 0 150 0C120.675 0 96.9027 67.1573 96.9027 150C96.9027 232.843 120.675 300 150 300ZM150 288.053C176.989 288.053 198.868 226.245 198.868 150C198.868 73.7554 176.989 11.9469 150 11.9469C123.011 11.9469 101.132 73.7554 101.132 150C101.132 226.245 123.011 288.053 150 288.053Z" fill="#C4C4C4"/>
<path fill-rule="evenodd" clip-rule="evenodd" d="M150 300C232.843 300 300 232.843 300 150C300 67.1573 232.843 0 150 0C67.1573 0 0 67.1573 0 150C0 232.843 67.1573 300 150 300ZM150 285.398C227.711 285.398 290.708 224.778 290.708 150C290.708 75.2216 227.711 14.6018 150 14.6018C72.2891 14.6018 9.29204 75.2216 9.29204 150C9.29204 224.778 72.2891 285.398 150 285.398Z" fill="#C4C4C4"/>
<path fill-rule="evenodd" clip-rule="evenodd" d="M-4.64192e-06 150C-7.20558e-06 208.65 67.1573 256.195 150 256.195C232.843 256.195 300 208.65 300 150C300 91.3502 232.843 43.8052 150 43.8052C67.1573 43.8052 -2.07826e-06 91.3501 -4.64192e-06 150ZM11.9469 150C11.9469 203.978 73.7554 247.737 150 247.737C226.245 247.737 288.053 203.978 288.053 150C288.053 96.0214 226.245 52.2632 150 52.2632C73.7554 52.2631 11.9469 96.0214 11.9469 150Z" fill="#C4C4C4"/>
<path fill-rule="evenodd" clip-rule="evenodd" d="M-2.32096e-06 150C-3.60279e-06 179.325 67.1573 203.098 150 203.098C232.843 203.098 300 179.325 300 150C300 120.675 232.843 96.9028 150 96.9028C67.1573 96.9028 -1.03913e-06 120.675 -2.32096e-06 150ZM11.9469 150C11.9469 176.989 73.7554 198.869 150 198.869C226.245 198.869 288.053 176.989 288.053 150C288.053 123.011 226.245 101.132 150 101.132C73.7554 101.132 11.9469 123.011 11.9469 150Z" fill="#C4C4C4"/>
</svg>
