<svg width="300" height="60" viewBox="0 0 300 60" fill="none" xmlns="http://www.w3.org/2000/svg">
<path d="M35.9053 12.0537C36.191 12.0537 36.4291 12.1648 36.6195 12.3871C36.8418 12.5776 36.9529 12.7998 36.9529 13.0537C36.9529 13.2442 36.9053 13.4347 36.81 13.6252L24.8099 33.4826V44.1018C24.8099 44.451 24.6829 44.7526 24.4289 45.0066C24.1749 45.2605 23.8733 45.3875 23.5241 45.3875H13.3811C13.0319 45.3875 12.7303 45.2605 12.4764 45.0066C12.2224 44.7526 12.0954 44.451 12.0954 44.1018V33.4826L0.142859 13.6252C0.0476197 13.4347 0 13.2601 0 13.1014C0 12.8156 0.0952394 12.5776 0.285718 12.3871C0.507943 12.1648 0.761915 12.0537 1.04763 12.0537H11.0954C11.9843 12.0537 12.6351 12.4188 13.0478 13.149L18.4288 22.5777L23.9527 13.2442C24.4289 12.4506 25.0956 12.0537 25.9527 12.0537H35.9053Z" fill="#C4C4C4"/>
<path d="M76.6491 31.6254C76.6491 36.4826 75.03 40.07 71.7919 42.3875C68.5855 44.705 64.2997 45.8637 58.9346 45.8637C53.5694 45.8637 49.2678 44.705 46.0296 42.3875C42.8232 40.07 41.2201 36.4509 41.2201 31.5302V25.9111C41.2201 22.6729 41.982 19.9904 43.5058 17.8633C45.0614 15.7046 47.1725 14.1173 49.8392 13.1014C52.5059 12.0855 55.5377 11.5775 58.9346 11.5775C62.3315 11.5775 65.3474 12.0855 67.9823 13.1014C70.649 14.1173 72.7602 15.6887 74.3157 17.8157C75.8713 19.9427 76.6491 22.6094 76.6491 25.8158V31.6254ZM54.0774 32.5302C54.0774 33.8318 54.506 34.8318 55.3631 35.5302C56.252 36.2287 57.4425 36.5779 58.9346 36.5779C60.4267 36.5779 61.6013 36.2287 62.4584 35.5302C63.3473 34.8001 63.7918 33.7842 63.7918 32.4826V24.9587C63.7918 23.6571 63.3473 22.6571 62.4584 21.9586C61.6013 21.2285 60.4267 20.8634 58.9346 20.8634C57.4425 20.8634 56.252 21.2126 55.3631 21.911C54.506 22.6094 54.0774 23.6094 54.0774 24.9111V32.5302Z" fill="#C4C4C4"/>
<path d="M99.3927 45.8637C94.0593 45.8637 89.8212 44.705 86.6783 42.3875C83.5671 40.07 82.0115 36.4509 82.0115 31.5302V13.3395C82.0115 12.9903 82.1385 12.6887 82.3925 12.4347C82.6465 12.1807 82.9481 12.0537 83.2973 12.0537H93.2498C93.599 12.0537 93.9006 12.1807 94.1546 12.4347C94.4085 12.6887 94.5355 12.9903 94.5355 13.3395V32.2921C94.5355 33.5937 94.9641 34.5937 95.8212 35.2921C96.7101 35.9906 97.9006 36.3398 99.3927 36.3398C100.885 36.3398 102.059 35.9906 102.917 35.2921C103.805 34.5937 104.25 33.5937 104.25 32.2921V13.3395C104.25 12.9903 104.377 12.6887 104.631 12.4347C104.885 12.1807 105.186 12.0537 105.536 12.0537H115.488C115.837 12.0537 116.139 12.1807 116.393 12.4347C116.647 12.6887 116.774 12.9903 116.774 13.3395V31.5302C116.774 36.4509 115.202 40.07 112.06 42.3875C108.948 44.705 104.726 45.8637 99.3927 45.8637Z" fill="#C4C4C4"/>
<path d="M234.207 20.8634C234.557 21.2761 234.731 21.7682 234.731 22.3396C234.731 22.911 234.557 23.4348 234.207 23.911C233.89 24.3555 233.414 24.5777 232.779 24.5777H226.398V20.2443H232.779C233.414 20.2443 233.89 20.4507 234.207 20.8634Z" fill="#C4C4C4"/>
<path d="M234.922 36.4826C234.573 36.9588 234.033 37.1969 233.303 37.1969H226.398V32.5302H233.303C233.969 32.5302 234.493 32.7524 234.874 33.1969C235.287 33.6413 235.493 34.1651 235.493 34.7683V34.816C235.493 35.4191 235.303 35.9747 234.922 36.4826Z" fill="#C4C4C4"/>
<path fill-rule="evenodd" clip-rule="evenodd" d="M300 0H119.938V59.5246H300V0ZM166.625 12.4347C166.371 12.1807 166.069 12.0537 165.72 12.0537H132.862C132.513 12.0537 132.211 12.1807 131.958 12.4347C131.704 12.6887 131.577 12.9903 131.577 13.3395V21.0062C131.577 21.3554 131.704 21.657 131.958 21.911C132.211 22.165 132.513 22.292 132.862 22.292H143.101V44.1018C143.101 44.451 143.228 44.7526 143.481 45.0066C143.735 45.2605 144.037 45.3875 144.386 45.3875H154.196C154.545 45.3875 154.847 45.2605 155.101 45.0066C155.355 44.7526 155.482 44.451 155.482 44.1018V22.292H165.72C166.069 22.292 166.371 22.165 166.625 21.911C166.879 21.657 167.006 21.3554 167.006 21.0062V13.3395C167.006 12.9903 166.879 12.6887 166.625 12.4347ZM177.035 42.3875C180.178 44.705 184.416 45.8637 189.749 45.8637C195.083 45.8637 199.305 44.705 202.416 42.3875C205.559 40.07 207.13 36.4509 207.13 31.5302V13.3395C207.13 12.9903 207.003 12.6887 206.749 12.4347C206.495 12.1807 206.194 12.0537 205.845 12.0537H195.892C195.543 12.0537 195.241 12.1807 194.987 12.4347C194.733 12.6887 194.606 12.9903 194.606 13.3395V32.2921C194.606 33.5937 194.162 34.5937 193.273 35.2921C192.416 35.9906 191.241 36.3398 189.749 36.3398C188.257 36.3398 187.067 35.9906 186.178 35.2921C185.321 34.5937 184.892 33.5937 184.892 32.2921V13.3395C184.892 12.9903 184.765 12.6887 184.511 12.4347C184.257 12.1807 183.956 12.0537 183.606 12.0537H173.654C173.305 12.0537 173.003 12.1807 172.749 12.4347C172.495 12.6887 172.368 12.9903 172.368 13.3395V31.5302C172.368 36.4509 173.924 40.07 177.035 42.3875ZM247.017 30.5302C246.128 29.2286 245.065 28.3873 243.827 28.0063C244.715 27.7206 245.573 27.0381 246.398 25.9587C247.223 24.8793 247.636 23.5777 247.636 22.0539V21.911C247.636 18.6094 246.557 16.149 244.398 14.53C242.271 12.8791 238.954 12.0537 234.446 12.0537H215.302C214.953 12.0537 214.652 12.1807 214.398 12.4347C214.144 12.6887 214.017 12.9903 214.017 13.3395V44.1018C214.017 44.451 214.144 44.7526 214.398 45.0066C214.652 45.2605 214.953 45.3875 215.302 45.3875H234.922C239.303 45.3875 242.636 44.5304 244.922 42.8161C247.208 41.07 248.35 38.435 248.35 34.9112C248.35 33.2604 247.906 31.8 247.017 30.5302ZM286.999 36.4826C286.745 36.2287 286.444 36.1017 286.094 36.1017H267.094V33.1016H282.999C283.348 33.1016 283.65 32.9747 283.904 32.7207C284.158 32.4667 284.285 32.1651 284.285 31.8159V25.6253C284.285 25.2761 284.158 24.9745 283.904 24.7206C283.65 24.4666 283.348 24.3396 282.999 24.3396H267.094V21.3396H285.618C285.967 21.3396 286.269 21.2126 286.523 20.9586C286.777 20.7046 286.904 20.4031 286.904 20.0538V13.3395C286.904 12.9903 286.777 12.6887 286.523 12.4347C286.269 12.1807 285.967 12.0537 285.618 12.0537H255.999C255.649 12.0537 255.348 12.1807 255.094 12.4347C254.84 12.6887 254.713 12.9903 254.713 13.3395V44.1018C254.713 44.451 254.84 44.7526 255.094 45.0066C255.348 45.2605 255.649 45.3875 255.999 45.3875H286.094C286.444 45.3875 286.745 45.2605 286.999 45.0066C287.253 44.7526 287.38 44.451 287.38 44.1018V37.3874C287.38 37.0382 287.253 36.7366 286.999 36.4826Z" fill="#C4C4C4"/>
</svg>
