<svg width="300" height="300" viewBox="0 0 300 300" fill="none" xmlns="http://www.w3.org/2000/svg">
<path fill-rule="evenodd" clip-rule="evenodd" d="M224.875 186.502C254.465 139.473 248.785 76.6089 207.835 35.6588C160.29 -11.8863 83.2038 -11.8863 35.6588 35.6588C-11.8863 83.2038 -11.8863 160.29 35.6588 207.835C76.6088 248.785 139.473 254.465 186.502 224.875L261.627 300L300 261.627L224.875 186.502ZM180.674 62.8193C213.219 95.364 213.219 148.129 180.674 180.674C148.13 213.219 95.3642 213.219 62.8195 180.674C30.2748 148.129 30.2748 95.364 62.8195 62.8193C95.3642 30.2746 148.13 30.2746 180.674 62.8193Z" fill="#C4C4C4"/>
<rect x="183" y="109" width="27" height="124" transform="rotate(90 183 109)" fill="#C4C4C4"/>
</svg>
