<svg width="279" height="278" viewBox="0 0 279 278" fill="none" xmlns="http://www.w3.org/2000/svg">
<rect x="6" y="5" width="268" height="268" rx="42" fill="#262626" stroke="#262626" stroke-width="10"/>
<path d="M36.1343 221.452C36.1343 221.452 53.2563 243.182 137.252 226.02C221.247 208.858 227.687 177.636 227.687 177.636" stroke="#FAD75C" stroke-width="25"/>
<path fill-rule="evenodd" clip-rule="evenodd" d="M215.913 245.153L251.11 168.619L167.231 176.405L178.387 192.16L223.822 187.942L204.757 229.398L215.913 245.153Z" fill="#FAD75C"/>
<g filter="url(#filter0_d_5_69)">
<path d="M64.4996 177.643C64.1389 181.118 62.4749 183.254 59.5076 184.049L33.2189 191.093C32.3844 191.317 31.568 191.237 30.7698 190.855C30.0395 190.355 29.5625 189.687 29.3389 188.853L29.2544 187.981L35.7612 90.9756C35.8092 89.6707 36.2189 88.418 36.9904 87.2174C37.762 86.0168 39.0287 85.1805 40.7905 84.7084L79.4585 74.3473C81.2203 73.8752 82.7355 73.9662 84.004 74.6202C85.2725 75.2741 86.2537 76.1542 86.9476 77.2603L141.085 158.016L141.448 158.813C141.672 159.648 141.546 160.477 141.071 161.3C140.664 162.005 140.043 162.47 139.208 162.693L112.919 169.737C109.952 170.532 107.443 169.515 105.393 166.685L99.3068 157.881L65.368 166.974L64.4996 177.643ZM67.3176 106.373L65.1941 137.95L84.9454 132.658L67.3176 106.373Z" fill="#DD4040"/>
<path d="M241.119 104.825C242.139 104.552 243.119 104.687 244.06 105.23C245 105.773 245.607 106.554 245.881 107.574L251.508 128.577C251.782 129.597 251.647 130.578 251.104 131.518C250.561 132.459 249.779 133.066 248.759 133.339L159.461 157.266C158.441 157.54 157.461 157.405 156.52 156.862C155.58 156.319 154.973 155.537 154.7 154.517L149.333 134.488C149.01 133.282 148.968 132.2 149.208 131.241C149.448 130.283 149.75 129.556 150.115 129.06L183.297 77.0852L143.934 87.6326C142.914 87.9059 141.933 87.7711 140.993 87.228C140.052 86.6849 139.445 85.9034 139.172 84.8834L133.544 63.8803C133.271 62.8603 133.406 61.88 133.949 60.9394C134.492 59.9988 135.273 59.3918 136.293 59.1185L219.749 36.7565C220.769 36.4832 221.75 36.6181 222.69 37.1611C223.631 37.7042 224.238 38.4857 224.511 39.5057L229.841 59.3961C230.362 61.3434 230.17 63.0349 229.262 64.4707L196.748 116.714L241.119 104.825Z" fill="#DD4040"/>
<path d="M71.9595 178.417L71.9681 178.334L71.9748 178.251L72.4145 172.851L96.1426 166.493L99.2235 170.95L99.2708 171.018L99.3196 171.086C100.933 173.313 103.109 175.351 105.994 176.521C108.961 177.724 112.023 177.742 114.861 176.982L141.149 169.938C143.776 169.234 146.099 167.59 147.566 165.05L141.592 161.601L147.566 165.05C148.448 163.523 148.993 161.782 149.051 159.942C150.009 161.337 151.274 162.493 152.77 163.357C155.379 164.863 158.401 165.315 161.402 164.511L250.7 140.584C253.702 139.779 256.093 137.877 257.599 135.268C259.105 132.66 259.557 129.638 258.753 126.636L253.125 105.633C252.321 102.631 250.418 100.24 247.81 98.7345C245.202 97.2286 242.18 96.7763 239.178 97.5806L213.149 104.555L235.603 68.4773C235.608 68.4689 235.613 68.4605 235.618 68.452C237.838 64.9229 238.036 61.0044 237.085 57.455L231.756 37.5646C230.951 34.5628 229.049 32.1719 226.44 30.666L222.694 37.1553L226.44 30.6659C223.832 29.1601 220.81 28.7077 217.808 29.5121L134.352 51.874C131.35 52.6784 128.959 54.5811 127.454 57.1894C125.948 59.7976 125.495 62.8196 126.3 65.8214L131.927 86.8245C132.732 89.8263 134.634 92.2173 137.243 93.7232C139.851 95.2291 142.873 95.6814 145.875 94.8771L166.582 89.3284L143.886 124.879C142.822 126.422 142.264 128.097 141.933 129.42C141.312 131.899 141.52 134.31 142.088 136.429L146.379 152.444L93.2293 73.1616C91.7614 70.8688 89.7517 69.1454 87.4408 67.954C84.0922 66.2276 80.5634 66.2867 77.5173 67.1029L38.8494 77.4639C35.8033 78.2801 32.7178 79.9933 30.681 83.1627L36.9904 87.2174L30.681 83.1627C29.2754 85.3499 28.3967 87.8472 28.2718 90.5667L21.7712 187.479L21.7301 188.093L21.7894 188.705L21.8739 189.577L21.9338 190.194L22.0945 190.794C22.7937 193.404 24.3646 195.559 26.5327 197.043L27.0087 197.369L27.529 197.618C29.8986 198.754 32.5505 199.037 35.1601 198.337L61.4487 191.293C64.2863 190.533 66.9291 188.986 68.897 186.461C70.8108 184.005 71.6756 181.152 71.9595 178.417Z" stroke="white" stroke-width="15"/>
</g>
<g filter="url(#filter1_d_5_69)">
<path d="M64.4998 177.643C64.1391 181.118 62.4751 183.254 59.5078 184.049L33.2191 191.093C32.3846 191.317 31.5682 191.237 30.77 190.855C30.0397 190.355 29.5628 189.687 29.3391 188.853L29.2546 187.981L35.7615 90.9756C35.8094 89.6707 36.2191 88.418 36.9907 87.2174C37.7622 86.0168 39.0289 85.1804 40.7908 84.7084L79.4587 74.3473C81.2206 73.8752 82.7357 73.9662 84.0042 74.6202C85.2727 75.2741 86.2539 76.1542 86.9478 77.2602L141.086 158.016L141.448 158.813C141.672 159.648 141.546 160.477 141.071 161.3C140.664 162.005 140.043 162.47 139.208 162.693L112.92 169.737C109.952 170.532 107.443 169.515 105.393 166.685L99.307 157.881L65.3682 166.974L64.4998 177.643ZM67.3178 106.373L65.1944 137.95L84.9456 132.658L67.3178 106.373ZM241.119 104.825C242.139 104.552 243.119 104.687 244.06 105.23C245.001 105.773 245.608 106.554 245.881 107.574L251.509 128.577C251.782 129.597 251.647 130.578 251.104 131.518C250.561 132.459 249.779 133.066 248.759 133.339L159.462 157.266C158.442 157.54 157.461 157.405 156.521 156.862C155.58 156.319 154.973 155.537 154.7 154.517L149.333 134.488C149.01 133.282 148.968 132.2 149.208 131.241C149.448 130.283 149.751 129.556 150.115 129.06L183.297 77.0852L143.934 87.6326C142.914 87.9059 141.934 87.771 140.993 87.228C140.052 86.6849 139.445 85.9034 139.172 84.8834L133.544 63.8803C133.271 62.8603 133.406 61.88 133.949 60.9393C134.492 59.9987 135.274 59.3918 136.294 59.1185L219.75 36.7565C220.77 36.4832 221.75 36.6181 222.69 37.1611C223.631 37.7042 224.238 38.4857 224.511 39.5057L229.841 59.3961C230.363 61.3434 230.17 63.0349 229.263 64.4707L196.748 116.714L241.119 104.825Z" fill="#DD4040"/>
</g>
<path d="M38.4999 61.5L61 57.5L69.4999 61.5L35.9999 70.5L38.4999 61.5Z" fill="#262626"/>
<defs>
<filter id="filter0_d_5_69" x="10.2056" y="21.6188" width="260.44" height="192.598" filterUnits="userSpaceOnUse" color-interpolation-filters="sRGB">
<feFlood flood-opacity="0" result="BackgroundImageFix"/>
<feColorMatrix in="SourceAlpha" type="matrix" values="0 0 0 0 0 0 0 0 0 0 0 0 0 0 0 0 0 0 127 0" result="hardAlpha"/>
<feOffset dy="4"/>
<feGaussianBlur stdDeviation="2"/>
<feComposite in2="hardAlpha" operator="out"/>
<feColorMatrix type="matrix" values="0 0 0 0 0 0 0 0 0 0 0 0 0 0 0 0 0 0 0.25 0"/>
<feBlend mode="normal" in2="BackgroundImageFix" result="effect1_dropShadow_5_69"/>
<feBlend mode="normal" in="SourceGraphic" in2="effect1_dropShadow_5_69" result="shape"/>
</filter>
<filter id="filter1_d_5_69" x="0.0703125" y="34.9675" width="256.445" height="164.945" filterUnits="userSpaceOnUse" color-interpolation-filters="sRGB">
<feFlood flood-opacity="0" result="BackgroundImageFix"/>
<feColorMatrix in="SourceAlpha" type="matrix" values="0 0 0 0 0 0 0 0 0 0 0 0 0 0 0 0 0 0 127 0" result="hardAlpha"/>
<feOffset dy="4"/>
<feGaussianBlur stdDeviation="2"/>
<feComposite in2="hardAlpha" operator="out"/>
<feColorMatrix type="matrix" values="0 0 0 0 0 0 0 0 0 0 0 0 0 0 0 0 0 0 0.25 0"/>
<feBlend mode="normal" in2="BackgroundImageFix" result="effect1_dropShadow_5_69"/>
<feBlend mode="normal" in="SourceGraphic" in2="effect1_dropShadow_5_69" result="shape"/>
</filter>
</defs>
</svg>
