<svg width="181" height="202" viewBox="0 0 181 202" fill="none" xmlns="http://www.w3.org/2000/svg">
<path fill-rule="evenodd" clip-rule="evenodd" d="M15.004 56C5.68914 56 -1.37342 64.401 0.227107 73.5774L9.99453 129.577C11.2471 136.759 17.4816 142 24.7715 142H155.551C162.841 142 169.075 136.759 170.328 129.577L180.095 73.5774C181.696 64.401 174.633 56 165.319 56H15.004ZM24.3429 64C14.9152 64 7.8247 72.5944 9.61618 81.8503L17.3581 121.85C18.7235 128.905 24.8996 134 32.0848 134H148.238C155.423 134 161.599 128.905 162.964 121.85L170.706 81.8503C172.498 72.5944 165.407 64 155.98 64H24.3429Z" fill="url(#paint0_linear_819_718)"/>
<rect x="29.1613" y="94" width="122" height="10" rx="5" fill="url(#paint1_linear_819_718)"/>
<rect x="44.1613" y="69" width="9" height="21" rx="4.5" fill="url(#paint2_linear_819_718)"/>
<rect x="65.1613" y="69" width="9" height="21" rx="4.5" fill="url(#paint3_linear_819_718)"/>
<rect x="107.161" y="69" width="9" height="21" rx="4.5" fill="url(#paint4_linear_819_718)"/>
<rect x="128.161" y="69" width="9" height="21" rx="4.5" fill="url(#paint5_linear_819_718)"/>
<rect x="86.1613" y="69" width="9" height="21" rx="4.5" fill="url(#paint6_linear_819_718)"/>
<rect x="44.1613" y="108" width="9" height="21" rx="4.5" fill="url(#paint7_linear_819_718)"/>
<rect x="65.1613" y="108" width="9" height="21" rx="4.5" fill="url(#paint8_linear_819_718)"/>
<rect x="107.161" y="108" width="9" height="21" rx="4.5" fill="url(#paint9_linear_819_718)"/>
<rect x="128.161" y="108" width="9" height="21" rx="4.5" fill="url(#paint10_linear_819_718)"/>
<rect x="86.1613" y="108" width="9" height="21" rx="4.5" fill="url(#paint11_linear_819_718)"/>
<path d="M65.005 26.2578V27.6406C65.005 30.25 64.6378 32.5938 63.9034 34.6719C63.1847 36.7344 62.1613 38.5 60.8331 39.9688C59.505 41.4219 57.9347 42.5391 56.1222 43.3203C54.3097 44.0859 52.3097 44.4688 50.1222 44.4688C47.9191 44.4688 45.9034 44.0859 44.0753 43.3203C42.2628 42.5391 40.6847 41.4219 39.3409 39.9688C38.0128 38.5 36.9816 36.7344 36.2472 34.6719C35.5284 32.5938 35.1691 30.25 35.1691 27.6406V26.2578C35.1691 23.6484 35.5284 21.3047 36.2472 19.2266C36.9816 17.1484 38.005 15.3828 39.3175 13.9297C40.6456 12.4609 42.2159 11.3438 44.0284 10.5781C45.8566 9.79688 47.8722 9.40625 50.0753 9.40625C52.2628 9.40625 54.2628 9.79688 56.0753 10.5781C57.9034 11.3438 59.4816 12.4609 60.8097 13.9297C62.1378 15.3828 63.1691 17.1484 63.9034 19.2266C64.6378 21.3047 65.005 23.6484 65.005 26.2578ZM56.6613 27.6406V26.2109C56.6613 24.5234 56.5128 23.0391 56.2159 21.7578C55.9347 20.4609 55.5128 19.375 54.9503 18.5C54.3878 17.625 53.6925 16.9688 52.8644 16.5312C52.0519 16.0781 51.1222 15.8516 50.0753 15.8516C48.9816 15.8516 48.0284 16.0781 47.2159 16.5312C46.4034 16.9688 45.7238 17.625 45.1769 18.5C44.63 19.375 44.2159 20.4609 43.9347 21.7578C43.6691 23.0391 43.5363 24.5234 43.5363 26.2109V27.6406C43.5363 29.3125 43.6691 30.7969 43.9347 32.0938C44.2159 33.375 44.63 34.4609 45.1769 35.3516C45.7394 36.2422 46.4269 36.9141 47.2394 37.3672C48.0675 37.8203 49.0284 38.0469 50.1222 38.0469C51.1691 38.0469 52.0988 37.8203 52.9113 37.3672C53.7238 36.9141 54.4034 36.2422 54.9503 35.3516C55.5128 34.4609 55.9347 33.375 56.2159 32.0938C56.5128 30.7969 56.6613 29.3125 56.6613 27.6406ZM80.3566 44H72.7863L72.8331 37.6719H80.3566C81.9191 37.6719 83.2394 37.2969 84.3175 36.5469C85.4113 35.7969 86.2394 34.6797 86.8019 33.1953C87.38 31.6953 87.6691 29.8516 87.6691 27.6641V26.1875C87.6691 24.5469 87.505 23.1094 87.1769 21.875C86.8644 20.625 86.3956 19.5859 85.7706 18.7578C85.1456 17.9141 84.3644 17.2812 83.4269 16.8594C82.505 16.4375 81.4425 16.2266 80.2394 16.2266H72.6456V9.875H80.2394C82.5519 9.875 84.6691 10.2734 86.5909 11.0703C88.5284 11.8516 90.2003 12.9766 91.6066 14.4453C93.0284 15.8984 94.1222 17.625 94.8878 19.625C95.6691 21.6094 96.0597 23.8125 96.0597 26.2344V27.6641C96.0597 30.0703 95.6691 32.2734 94.8878 34.2734C94.1222 36.2734 93.0363 38 91.63 39.4531C90.2238 40.9062 88.5597 42.0312 86.6378 42.8281C84.7316 43.6094 82.6378 44 80.3566 44ZM77.4972 9.875V44H69.2706V9.875H77.4972ZM114.271 29.4922H105.482L105.435 24.1016H112.56C113.841 24.1016 114.864 23.9609 115.63 23.6797C116.396 23.3828 116.95 22.9531 117.294 22.3906C117.653 21.8281 117.833 21.125 117.833 20.2812C117.833 19.3125 117.653 18.5312 117.294 17.9375C116.935 17.3438 116.364 16.9141 115.583 16.6484C114.818 16.3672 113.825 16.2266 112.607 16.2266H108.575V44H100.349V9.875H112.607C114.716 9.875 116.599 10.0703 118.255 10.4609C119.911 10.8359 121.318 11.4141 122.474 12.1953C123.646 12.9766 124.536 13.9609 125.146 15.1484C125.755 16.3203 126.06 17.7031 126.06 19.2969C126.06 20.6875 125.763 21.9922 125.169 23.2109C124.575 24.4297 123.583 25.4219 122.193 26.1875C120.818 26.9375 118.935 27.3281 116.544 27.3594L114.271 29.4922ZM113.943 44H103.489L106.302 37.6719H113.943C115.068 37.6719 115.966 37.5 116.638 37.1562C117.325 36.7969 117.818 36.3281 118.114 35.75C118.427 35.1562 118.583 34.5 118.583 33.7812C118.583 32.9062 118.435 32.1484 118.138 31.5078C117.857 30.8672 117.403 30.375 116.778 30.0312C116.153 29.6719 115.318 29.4922 114.271 29.4922H107.357L107.403 24.1016H115.677L117.599 26.2578C119.88 26.1641 121.685 26.4844 123.013 27.2188C124.357 27.9531 125.318 28.9219 125.896 30.125C126.474 31.3281 126.763 32.5859 126.763 33.8984C126.763 36.1328 126.278 38 125.31 39.5C124.357 41 122.927 42.125 121.021 42.875C119.114 43.625 116.755 44 113.943 44ZM140.075 9.875V44H131.872V9.875H140.075ZM154.607 9.875V44H146.403V9.875H154.607Z" fill="#2387C0"/>
<path d="M51.38 178.445H59.5831C59.4738 180.82 58.8331 182.914 57.6613 184.727C56.4894 186.539 54.8644 187.953 52.7863 188.969C50.7238 189.969 48.2863 190.469 45.4738 190.469C43.1925 190.469 41.1534 190.086 39.3566 189.32C37.5753 188.555 36.0597 187.453 34.8097 186.016C33.5753 184.578 32.63 182.836 31.9738 180.789C31.3331 178.742 31.0128 176.438 31.0128 173.875V172.023C31.0128 169.461 31.3488 167.156 32.0206 165.109C32.7081 163.047 33.6769 161.297 34.9269 159.859C36.1925 158.406 37.7081 157.297 39.4738 156.531C41.2394 155.766 43.2003 155.383 45.3566 155.383C48.3253 155.383 50.8331 155.914 52.88 156.977C54.9269 158.039 56.5128 159.5 57.6378 161.359C58.7628 163.203 59.4269 165.305 59.63 167.664H51.4269C51.3956 166.383 51.1769 165.312 50.7706 164.453C50.3644 163.578 49.7238 162.922 48.8488 162.484C47.9738 162.047 46.8097 161.828 45.3566 161.828C44.3409 161.828 43.4581 162.016 42.7081 162.391C41.9581 162.766 41.3331 163.359 40.8331 164.172C40.3331 164.984 39.9581 166.039 39.7081 167.336C39.4738 168.617 39.3566 170.164 39.3566 171.977V173.875C39.3566 175.688 39.4659 177.234 39.6847 178.516C39.9034 179.797 40.255 180.844 40.7394 181.656C41.2238 182.469 41.8488 183.07 42.6144 183.461C43.3956 183.836 44.3488 184.023 45.4738 184.023C46.7238 184.023 47.7784 183.828 48.6378 183.438C49.4972 183.031 50.1613 182.422 50.63 181.609C51.0988 180.781 51.3488 179.727 51.38 178.445ZM92.3488 172.258V173.641C92.3488 176.25 91.9816 178.594 91.2472 180.672C90.5284 182.734 89.505 184.5 88.1769 185.969C86.8488 187.422 85.2784 188.539 83.4659 189.32C81.6534 190.086 79.6534 190.469 77.4659 190.469C75.2628 190.469 73.2472 190.086 71.4191 189.32C69.6066 188.539 68.0284 187.422 66.6847 185.969C65.3566 184.5 64.3253 182.734 63.5909 180.672C62.8722 178.594 62.5128 176.25 62.5128 173.641V172.258C62.5128 169.648 62.8722 167.305 63.5909 165.227C64.3253 163.148 65.3488 161.383 66.6613 159.93C67.9894 158.461 69.5597 157.344 71.3722 156.578C73.2003 155.797 75.2159 155.406 77.4191 155.406C79.6066 155.406 81.6066 155.797 83.4191 156.578C85.2472 157.344 86.8253 158.461 88.1534 159.93C89.4816 161.383 90.5128 163.148 91.2472 165.227C91.9816 167.305 92.3488 169.648 92.3488 172.258ZM84.005 173.641V172.211C84.005 170.523 83.8566 169.039 83.5597 167.758C83.2784 166.461 82.8566 165.375 82.2941 164.5C81.7316 163.625 81.0363 162.969 80.2081 162.531C79.3956 162.078 78.4659 161.852 77.4191 161.852C76.3253 161.852 75.3722 162.078 74.5597 162.531C73.7472 162.969 73.0675 163.625 72.5206 164.5C71.9738 165.375 71.5597 166.461 71.2784 167.758C71.0128 169.039 70.88 170.523 70.88 172.211V173.641C70.88 175.312 71.0128 176.797 71.2784 178.094C71.5597 179.375 71.9738 180.461 72.5206 181.352C73.0831 182.242 73.7706 182.914 74.5831 183.367C75.4113 183.82 76.3722 184.047 77.4659 184.047C78.5128 184.047 79.4425 183.82 80.255 183.367C81.0675 182.914 81.7472 182.242 82.2941 181.352C82.8566 180.461 83.2784 179.375 83.5597 178.094C83.8566 176.797 84.005 175.312 84.005 173.641ZM107.7 190H100.13L100.177 183.672H107.7C109.263 183.672 110.583 183.297 111.661 182.547C112.755 181.797 113.583 180.68 114.146 179.195C114.724 177.695 115.013 175.852 115.013 173.664V172.188C115.013 170.547 114.849 169.109 114.521 167.875C114.208 166.625 113.739 165.586 113.114 164.758C112.489 163.914 111.708 163.281 110.771 162.859C109.849 162.438 108.786 162.227 107.583 162.227H99.9894V155.875H107.583C109.896 155.875 112.013 156.273 113.935 157.07C115.872 157.852 117.544 158.977 118.95 160.445C120.372 161.898 121.466 163.625 122.232 165.625C123.013 167.609 123.403 169.812 123.403 172.234V173.664C123.403 176.07 123.013 178.273 122.232 180.273C121.466 182.273 120.38 184 118.974 185.453C117.568 186.906 115.903 188.031 113.982 188.828C112.075 189.609 109.982 190 107.7 190ZM104.841 155.875V190H96.6144V155.875H104.841ZM151.177 183.672V190H132.989V183.672H151.177ZM135.919 155.875V190H127.693V155.875H135.919ZM148.833 169.422V175.539H132.989V169.422H148.833ZM151.247 155.875V162.227H132.989V155.875H151.247Z" fill="#2387C0"/>
<defs>
<linearGradient id="paint0_linear_819_718" x1="90.1613" y1="56" x2="90.1613" y2="142" gradientUnits="userSpaceOnUse">
<stop stop-color="#129EDA"/>
<stop offset="1" stop-color="#2387C0"/>
</linearGradient>
<linearGradient id="paint1_linear_819_718" x1="90.1613" y1="94" x2="90.1613" y2="104" gradientUnits="userSpaceOnUse">
<stop stop-color="#129EDA"/>
<stop offset="1" stop-color="#2387C0"/>
</linearGradient>
<linearGradient id="paint2_linear_819_718" x1="48.6613" y1="69" x2="48.6613" y2="90" gradientUnits="userSpaceOnUse">
<stop stop-color="#129EDA"/>
<stop offset="1" stop-color="#2387C0"/>
</linearGradient>
<linearGradient id="paint3_linear_819_718" x1="69.6613" y1="69" x2="69.6613" y2="90" gradientUnits="userSpaceOnUse">
<stop stop-color="#129EDA"/>
<stop offset="1" stop-color="#2387C0"/>
</linearGradient>
<linearGradient id="paint4_linear_819_718" x1="111.661" y1="69" x2="111.661" y2="90" gradientUnits="userSpaceOnUse">
<stop stop-color="#129EDA"/>
<stop offset="1" stop-color="#2387C0"/>
</linearGradient>
<linearGradient id="paint5_linear_819_718" x1="132.661" y1="69" x2="132.661" y2="90" gradientUnits="userSpaceOnUse">
<stop stop-color="#129EDA"/>
<stop offset="1" stop-color="#2387C0"/>
</linearGradient>
<linearGradient id="paint6_linear_819_718" x1="90.6613" y1="69" x2="90.6613" y2="90" gradientUnits="userSpaceOnUse">
<stop stop-color="#129EDA"/>
<stop offset="1" stop-color="#2387C0"/>
</linearGradient>
<linearGradient id="paint7_linear_819_718" x1="48.6613" y1="108" x2="48.6613" y2="129" gradientUnits="userSpaceOnUse">
<stop stop-color="#129EDA"/>
<stop offset="1" stop-color="#2387C0"/>
</linearGradient>
<linearGradient id="paint8_linear_819_718" x1="69.6613" y1="108" x2="69.6613" y2="129" gradientUnits="userSpaceOnUse">
<stop stop-color="#129EDA"/>
<stop offset="1" stop-color="#2387C0"/>
</linearGradient>
<linearGradient id="paint9_linear_819_718" x1="111.661" y1="108" x2="111.661" y2="129" gradientUnits="userSpaceOnUse">
<stop stop-color="#129EDA"/>
<stop offset="1" stop-color="#2387C0"/>
</linearGradient>
<linearGradient id="paint10_linear_819_718" x1="132.661" y1="108" x2="132.661" y2="129" gradientUnits="userSpaceOnUse">
<stop stop-color="#129EDA"/>
<stop offset="1" stop-color="#2387C0"/>
</linearGradient>
<linearGradient id="paint11_linear_819_718" x1="90.6613" y1="108" x2="90.6613" y2="129" gradientUnits="userSpaceOnUse">
<stop stop-color="#129EDA"/>
<stop offset="1" stop-color="#2387C0"/>
</linearGradient>
</defs>
</svg>
