<svg width="262" height="103" viewBox="0 0 262 103" fill="none" xmlns="http://www.w3.org/2000/svg">
<circle cx="62.2747" cy="78.9791" r="24" fill="url(#paint0_linear_819_715)"/>
<circle cx="200.275" cy="78.9791" r="24" fill="url(#paint1_linear_819_715)"/>
<path fill-rule="evenodd" clip-rule="evenodd" d="M15.2747 28.4791C22.9414 26.3125 43.6747 19.3791 65.2747 8.97915C86.8747 -1.42085 113.275 -0.687518 123.775 0.979148C134.275 3.1458 160.275 10.1791 180.275 20.9791C200.275 31.7791 228.275 37.4791 239.775 38.9791V39.1649C251.564 40.9018 260.629 50.8561 261.026 63.0043C261.435 75.57 251.36 85.9791 238.788 85.9791H228.424C228.98 83.7374 229.275 81.3927 229.275 78.9791C229.275 62.9629 216.291 49.9791 200.275 49.9791C184.258 49.9791 171.275 62.9629 171.275 78.9791C171.275 81.3927 171.57 83.7374 172.125 85.9791H91.4537C91.9905 83.7333 92.2747 81.3894 92.2747 78.9791C92.2747 62.4106 78.8432 48.9791 62.2747 48.9791C45.7062 48.9791 32.2747 62.4106 32.2747 78.9791C32.2747 81.3894 32.5589 83.7333 33.0957 85.9791H29.4648C14.933 85.9791 2.81634 74.8621 1.56823 60.384L0.0491059 42.7622C-0.625856 34.9326 5.74666 28.2991 13.597 28.6593L15.2747 28.7363V28.4791ZM119.654 11.2989C113.969 9.54468 108.426 14.3896 109.405 20.2585L111.733 34.2283C112.343 37.8906 115.393 40.6517 119.098 40.8958L173.707 44.4941C183.176 45.1179 185.659 31.6646 176.592 28.867L119.654 11.2989ZM84.8047 12.4981C89.4666 10.6692 94.6437 13.5246 95.584 18.4433L98.2221 32.2424C99.2383 37.5578 94.7938 42.3276 89.42 41.6887L60.4013 38.2389C52.1408 37.2569 50.6799 25.8855 58.424 22.8475L84.8047 12.4981Z" fill="url(#paint2_linear_819_715)"/>
<defs>
<linearGradient id="paint0_linear_819_715" x1="62.2747" y1="54.9791" x2="62.2747" y2="102.979" gradientUnits="userSpaceOnUse">
<stop stop-color="#129EDA"/>
<stop offset="1" stop-color="#2387C0"/>
</linearGradient>
<linearGradient id="paint1_linear_819_715" x1="200.275" y1="54.9791" x2="200.275" y2="102.979" gradientUnits="userSpaceOnUse">
<stop stop-color="#129EDA"/>
<stop offset="1" stop-color="#2387C0"/>
</linearGradient>
<linearGradient id="paint2_linear_819_715" x1="130.519" y1="0" x2="130.519" y2="85.9791" gradientUnits="userSpaceOnUse">
<stop stop-color="#129EDA"/>
<stop offset="1" stop-color="#2387C0"/>
</linearGradient>
</defs>
</svg>
