<svg width="250" height="220" viewBox="0 0 250 220" fill="none" xmlns="http://www.w3.org/2000/svg">
<g filter="url(#filter0_d_6_158)">
<path fill-rule="evenodd" clip-rule="evenodd" d="M21.3906 85.1958C20.0519 91.9229 19.3498 98.8795 19.3498 106C19.3498 164.542 66.8076 212 125.35 212C132.47 212 139.427 211.298 146.154 209.959L127.176 190.981C126.569 190.994 125.96 191 125.35 191C78.4056 191 40.3498 152.944 40.3498 106C40.3498 105.39 40.3562 104.781 40.369 104.174L21.3906 85.1958ZM209.665 95.1603C204.793 56.8843 174.466 26.5565 136.189 21.6847L115.003 0.498512C118.408 0.168741 121.859 0 125.35 0C183.892 0 231.35 47.4578 231.35 106C231.35 109.491 231.181 112.942 230.851 116.346L209.665 95.1603Z" fill="#2C6281"/>
<path d="M40.4459 64.6129L51.5894 107.559L7.13351 93.9193L40.4459 64.6129Z" fill="#2C6281"/>
<path d="M219.137 134.066L198.464 94.8084L244.861 97.9158L219.137 134.066Z" fill="#2C6281"/>
</g>
<g filter="url(#filter1_d_6_158)">
<path d="M186.8 126.45C186.8 139.401 177.555 149.9 166.15 149.9C154.745 149.9 145.5 139.401 145.5 126.45C145.5 113.499 154.745 103 166.15 103C177.555 103 186.8 113.499 186.8 126.45Z" fill="#129EDA"/>
<path d="M154.722 150.652L130.574 163.676C128.988 164.531 128 166.187 128 167.989V175.1C128 177.806 130.194 180 132.9 180H200.1C202.806 180 205 177.806 205 175.1V167.989C205 166.187 204.012 164.531 202.426 163.676L177.888 150.442C174.555 152.749 170.51 154.1 166.15 154.1C161.924 154.1 157.995 152.831 154.722 150.652Z" fill="#129EDA"/>
</g>
<g filter="url(#filter2_d_6_158)">
<rect x="58" y="86.2" width="78" height="7.8" fill="black"/>
</g>
<g filter="url(#filter3_d_6_158)">
<rect x="91.8" y="46.3333" width="32.0667" height="7.8" transform="rotate(90 91.8 46.3333)" fill="black"/>
</g>
<g filter="url(#filter4_d_6_158)">
<rect x="74.4667" y="46.3333" width="32.0667" height="7.8" transform="rotate(90 74.4667 46.3333)" fill="black"/>
</g>
<g filter="url(#filter5_d_6_158)">
<rect x="110" y="46.3333" width="32.0667" height="7.8" transform="rotate(90 110 46.3333)" fill="black"/>
</g>
<g filter="url(#filter6_d_6_158)">
<rect x="127.333" y="46.3333" width="32.0667" height="7.8" transform="rotate(90 127.333 46.3333)" fill="black"/>
</g>
<g filter="url(#filter7_d_6_158)">
<path d="M135.133 38.5333L97 16L58.8667 38.5333H135.133Z" fill="black"/>
</g>
<defs>
<filter id="filter0_d_6_158" x="-4" y="0" width="257.292" height="220" filterUnits="userSpaceOnUse" color-interpolation-filters="sRGB">
<feFlood flood-opacity="0" result="BackgroundImageFix"/>
<feColorMatrix in="SourceAlpha" type="matrix" values="0 0 0 0 0 0 0 0 0 0 0 0 0 0 0 0 0 0 127 0" result="hardAlpha"/>
<feOffset dy="4"/>
<feGaussianBlur stdDeviation="2"/>
<feComposite in2="hardAlpha" operator="out"/>
<feColorMatrix type="matrix" values="0 0 0 0 0 0 0 0 0 0 0 0 0 0 0 0 0 0 0.25 0"/>
<feBlend mode="normal" in2="BackgroundImageFix" result="effect1_dropShadow_6_158"/>
<feBlend mode="normal" in="SourceGraphic" in2="effect1_dropShadow_6_158" result="shape"/>
</filter>
<filter id="filter1_d_6_158" x="124" y="103" width="85" height="85" filterUnits="userSpaceOnUse" color-interpolation-filters="sRGB">
<feFlood flood-opacity="0" result="BackgroundImageFix"/>
<feColorMatrix in="SourceAlpha" type="matrix" values="0 0 0 0 0 0 0 0 0 0 0 0 0 0 0 0 0 0 127 0" result="hardAlpha"/>
<feOffset dy="4"/>
<feGaussianBlur stdDeviation="2"/>
<feComposite in2="hardAlpha" operator="out"/>
<feColorMatrix type="matrix" values="0 0 0 0 0 0 0 0 0 0 0 0 0 0 0 0 0 0 0.25 0"/>
<feBlend mode="normal" in2="BackgroundImageFix" result="effect1_dropShadow_6_158"/>
<feBlend mode="normal" in="SourceGraphic" in2="effect1_dropShadow_6_158" result="shape"/>
</filter>
<filter id="filter2_d_6_158" x="54" y="86.2" width="86" height="15.8" filterUnits="userSpaceOnUse" color-interpolation-filters="sRGB">
<feFlood flood-opacity="0" result="BackgroundImageFix"/>
<feColorMatrix in="SourceAlpha" type="matrix" values="0 0 0 0 0 0 0 0 0 0 0 0 0 0 0 0 0 0 127 0" result="hardAlpha"/>
<feOffset dy="4"/>
<feGaussianBlur stdDeviation="2"/>
<feComposite in2="hardAlpha" operator="out"/>
<feColorMatrix type="matrix" values="0 0 0 0 0 0 0 0 0 0 0 0 0 0 0 0 0 0 0.25 0"/>
<feBlend mode="normal" in2="BackgroundImageFix" result="effect1_dropShadow_6_158"/>
<feBlend mode="normal" in="SourceGraphic" in2="effect1_dropShadow_6_158" result="shape"/>
</filter>
<filter id="filter3_d_6_158" x="80" y="46.3333" width="15.8" height="40.0667" filterUnits="userSpaceOnUse" color-interpolation-filters="sRGB">
<feFlood flood-opacity="0" result="BackgroundImageFix"/>
<feColorMatrix in="SourceAlpha" type="matrix" values="0 0 0 0 0 0 0 0 0 0 0 0 0 0 0 0 0 0 127 0" result="hardAlpha"/>
<feOffset dy="4"/>
<feGaussianBlur stdDeviation="2"/>
<feComposite in2="hardAlpha" operator="out"/>
<feColorMatrix type="matrix" values="0 0 0 0 0 0 0 0 0 0 0 0 0 0 0 0 0 0 0.25 0"/>
<feBlend mode="normal" in2="BackgroundImageFix" result="effect1_dropShadow_6_158"/>
<feBlend mode="normal" in="SourceGraphic" in2="effect1_dropShadow_6_158" result="shape"/>
</filter>
<filter id="filter4_d_6_158" x="62.6666" y="46.3333" width="15.8" height="40.0667" filterUnits="userSpaceOnUse" color-interpolation-filters="sRGB">
<feFlood flood-opacity="0" result="BackgroundImageFix"/>
<feColorMatrix in="SourceAlpha" type="matrix" values="0 0 0 0 0 0 0 0 0 0 0 0 0 0 0 0 0 0 127 0" result="hardAlpha"/>
<feOffset dy="4"/>
<feGaussianBlur stdDeviation="2"/>
<feComposite in2="hardAlpha" operator="out"/>
<feColorMatrix type="matrix" values="0 0 0 0 0 0 0 0 0 0 0 0 0 0 0 0 0 0 0.25 0"/>
<feBlend mode="normal" in2="BackgroundImageFix" result="effect1_dropShadow_6_158"/>
<feBlend mode="normal" in="SourceGraphic" in2="effect1_dropShadow_6_158" result="shape"/>
</filter>
<filter id="filter5_d_6_158" x="98.2" y="46.3333" width="15.8" height="40.0667" filterUnits="userSpaceOnUse" color-interpolation-filters="sRGB">
<feFlood flood-opacity="0" result="BackgroundImageFix"/>
<feColorMatrix in="SourceAlpha" type="matrix" values="0 0 0 0 0 0 0 0 0 0 0 0 0 0 0 0 0 0 127 0" result="hardAlpha"/>
<feOffset dy="4"/>
<feGaussianBlur stdDeviation="2"/>
<feComposite in2="hardAlpha" operator="out"/>
<feColorMatrix type="matrix" values="0 0 0 0 0 0 0 0 0 0 0 0 0 0 0 0 0 0 0.25 0"/>
<feBlend mode="normal" in2="BackgroundImageFix" result="effect1_dropShadow_6_158"/>
<feBlend mode="normal" in="SourceGraphic" in2="effect1_dropShadow_6_158" result="shape"/>
</filter>
<filter id="filter6_d_6_158" x="115.533" y="46.3333" width="15.8" height="40.0667" filterUnits="userSpaceOnUse" color-interpolation-filters="sRGB">
<feFlood flood-opacity="0" result="BackgroundImageFix"/>
<feColorMatrix in="SourceAlpha" type="matrix" values="0 0 0 0 0 0 0 0 0 0 0 0 0 0 0 0 0 0 127 0" result="hardAlpha"/>
<feOffset dy="4"/>
<feGaussianBlur stdDeviation="2"/>
<feComposite in2="hardAlpha" operator="out"/>
<feColorMatrix type="matrix" values="0 0 0 0 0 0 0 0 0 0 0 0 0 0 0 0 0 0 0.25 0"/>
<feBlend mode="normal" in2="BackgroundImageFix" result="effect1_dropShadow_6_158"/>
<feBlend mode="normal" in="SourceGraphic" in2="effect1_dropShadow_6_158" result="shape"/>
</filter>
<filter id="filter7_d_6_158" x="54.8667" y="16" width="84.2666" height="30.5334" filterUnits="userSpaceOnUse" color-interpolation-filters="sRGB">
<feFlood flood-opacity="0" result="BackgroundImageFix"/>
<feColorMatrix in="SourceAlpha" type="matrix" values="0 0 0 0 0 0 0 0 0 0 0 0 0 0 0 0 0 0 127 0" result="hardAlpha"/>
<feOffset dy="4"/>
<feGaussianBlur stdDeviation="2"/>
<feComposite in2="hardAlpha" operator="out"/>
<feColorMatrix type="matrix" values="0 0 0 0 0 0 0 0 0 0 0 0 0 0 0 0 0 0 0.25 0"/>
<feBlend mode="normal" in2="BackgroundImageFix" result="effect1_dropShadow_6_158"/>
<feBlend mode="normal" in="SourceGraphic" in2="effect1_dropShadow_6_158" result="shape"/>
</filter>
</defs>
</svg>
