<svg width="400" height="400" viewBox="0 0 400 400" fill="none" xmlns="http://www.w3.org/2000/svg">
<g filter="url(#filter0_d_6_171)">
<path d="M75.7605 99.5556L348.342 107.466C353.557 107.617 357.571 112.128 357.122 117.331L350.049 199.229C349.68 203.503 346.376 206.935 342.125 207.464L75.7352 240.576C77.6049 242.771 80.4921 244.056 83.6118 243.722L355.888 214.618C360.501 214.125 364 210.228 364 205.583V105.473C364 100.455 359.937 96.3866 354.924 96.3866H82.6483C79.8933 96.3866 77.425 97.6155 75.7605 99.5556Z" fill="#2387C0"/>
<path d="M52.9958 82.5668L60.7149 82.3786L85.2954 243.281L72.0596 244.794L52.9958 82.5668Z" fill="#2387C0"/>
<path d="M72.5798 237.981L85.3908 239.995L81.1356 282.276L64.1184 279.626L72.5798 237.981Z" fill="#2387C0"/>
<path d="M81.5774 266.754H325.428V273.538L81.1356 282.276L81.5774 266.754Z" fill="#2387C0"/>
<path d="M35 82L60.7149 82.5206L59.9586 87.3003L35 90.3291V82Z" fill="#2387C0"/>
<path fill-rule="evenodd" clip-rule="evenodd" d="M112.901 319C122.091 319 129.54 311.542 129.54 302.342C129.54 293.142 122.091 285.684 112.901 285.684C103.712 285.684 96.2621 293.142 96.2621 302.342C96.2621 311.542 103.712 319 112.901 319ZM112.901 313.7C119.167 313.7 124.246 308.615 124.246 302.342C124.246 296.069 119.167 290.984 112.901 290.984C106.636 290.984 101.556 296.069 101.556 302.342C101.556 308.615 106.636 313.7 112.901 313.7Z" fill="#2387C0"/>
<path fill-rule="evenodd" clip-rule="evenodd" d="M271.729 319C280.918 319 288.368 311.542 288.368 302.342C288.368 293.142 280.918 285.684 271.729 285.684C262.539 285.684 255.09 293.142 255.09 302.342C255.09 311.542 262.539 319 271.729 319ZM271.729 313.7C277.994 313.7 283.074 308.615 283.074 302.342C283.074 296.069 277.994 290.984 271.729 290.984C265.463 290.984 260.384 296.069 260.384 302.342C260.384 308.615 265.463 313.7 271.729 313.7Z" fill="#2387C0"/>
<path d="M81.1356 282.276L85.3908 239.995L72.5798 237.981L64.1184 279.626L81.1356 282.276ZM81.1356 282.276L325.428 273.538V266.754H81.5774L81.1356 282.276ZM75.7605 99.5556L348.342 107.466C353.557 107.617 357.571 112.128 357.122 117.331L350.049 199.229C349.68 203.503 346.376 206.935 342.125 207.464L75.7352 240.576C77.6049 242.771 80.4921 244.056 83.6118 243.722L355.888 214.618C360.501 214.125 364 210.228 364 205.583V105.473C364 100.455 359.937 96.3866 354.924 96.3866H82.6483C79.8933 96.3866 77.425 97.6155 75.7605 99.5556ZM52.9958 82.5668L60.7149 82.3786L85.2954 243.281L72.0596 244.794L52.9958 82.5668ZM35 82L60.7149 82.5206L59.9586 87.3003L35 90.3291V82ZM129.54 302.342C129.54 311.542 122.091 319 112.901 319C103.712 319 96.2621 311.542 96.2621 302.342C96.2621 293.142 103.712 285.684 112.901 285.684C122.091 285.684 129.54 293.142 129.54 302.342ZM124.246 302.342C124.246 308.615 119.167 313.7 112.901 313.7C106.636 313.7 101.556 308.615 101.556 302.342C101.556 296.069 106.636 290.984 112.901 290.984C119.167 290.984 124.246 296.069 124.246 302.342ZM288.368 302.342C288.368 311.542 280.918 319 271.729 319C262.539 319 255.09 311.542 255.09 302.342C255.09 293.142 262.539 285.684 271.729 285.684C280.918 285.684 288.368 293.142 288.368 302.342ZM283.074 302.342C283.074 308.615 277.994 313.7 271.729 313.7C265.463 313.7 260.384 308.615 260.384 302.342C260.384 296.069 265.463 290.984 271.729 290.984C277.994 290.984 283.074 296.069 283.074 302.342Z" stroke="#2387C0" stroke-width="9"/>
</g>
<g filter="url(#filter1_d_6_171)">
<path d="M170.148 144.649C169.515 140.059 167.881 136.612 165.247 134.31C162.613 132.007 158.279 130.085 152.246 128.544C146.213 127.004 140.613 125.374 135.447 123.656C130.28 121.937 125.731 119.749 121.801 117.091C117.871 114.433 114.688 111.169 112.254 107.3C109.819 103.43 108.197 98.5615 107.387 92.6932C106.031 82.8739 108.239 74.3419 114.009 67.0974C119.772 59.7947 128.118 54.861 139.049 52.2961L136.51 33.9067L150.412 32L152.998 50.738C163.882 50.8438 172.851 54.0833 179.908 60.4566C187.014 66.7637 191.33 75.437 192.853 86.4765L163.302 90.5298C162.468 84.4871 160.66 79.9988 157.88 77.0649C155.099 74.1309 151.552 72.9597 147.239 73.5513C143.392 74.079 140.558 75.7109 138.739 78.447C136.969 81.117 136.377 84.5727 136.963 88.8142C137.556 93.1138 139.253 96.3739 142.054 98.5947C144.847 100.757 149.114 102.629 154.856 104.21C160.589 105.732 166.018 107.415 171.143 109.258C176.318 111.034 180.87 113.252 184.8 115.909C188.731 118.567 191.976 121.852 194.535 125.764C197.094 129.675 198.779 134.565 199.589 140.433C200.96 150.369 198.902 158.91 193.415 166.056C187.986 173.195 179.894 178.035 169.139 180.575L171.557 198.093L157.655 200L155.225 182.395C142.334 182.801 131.973 179.812 124.143 173.426C116.363 166.975 111.643 157.735 109.983 145.708L139.447 141.667C140.362 148.291 142.517 153.146 145.912 156.232C149.358 159.252 153.791 160.391 159.212 159.647C163.176 159.104 166.134 157.514 168.086 154.878C170.03 152.184 170.718 148.774 170.148 144.649Z" fill="#2387C0"/>
<path d="M161.956 138.074L165.247 134.31L161.956 138.074C163.423 139.357 164.672 141.543 165.195 145.333C165.633 148.503 165.052 150.524 164.05 151.927C163.067 153.239 161.457 154.292 158.533 154.694C154.264 155.279 151.383 154.361 149.242 152.502C147.049 150.489 145.222 146.933 144.4 140.983L143.717 136.034L138.768 136.713L109.304 140.754L104.346 141.435L105.03 146.392C106.825 159.394 112.023 169.871 120.951 177.275L120.967 177.288L120.983 177.301C128.981 183.823 139.069 187.065 150.869 187.402L152.702 200.684L153.385 205.632L158.335 204.954L172.236 203.047L177.194 202.367L176.51 197.41L174.692 184.239C184.241 181.259 191.922 176.275 197.387 169.093C203.78 160.762 206.073 150.842 204.542 139.75C203.657 133.338 201.776 127.699 198.719 123.026C195.791 118.551 192.073 114.791 187.601 111.768C183.265 108.835 178.316 106.437 172.801 104.54C167.548 102.652 162 100.934 156.162 99.3829C150.71 97.8804 147.181 96.2322 145.139 94.6595C143.566 93.4028 142.371 91.4288 141.916 88.1305C141.44 84.686 142.007 82.5678 142.904 81.212C143.785 79.8911 145.211 78.8762 147.918 78.505C150.779 78.1126 152.675 78.8414 154.251 80.5043C156.032 82.3835 157.589 85.7085 158.349 91.2135L159.032 96.1623L163.981 95.4834L193.533 91.4301L198.491 90.7501L197.807 85.7928C196.15 73.7955 191.381 63.9615 183.243 56.7313C176.152 50.3335 167.444 46.7952 157.384 45.9403L155.365 31.3163L154.682 26.3675L149.733 27.0464L135.831 28.9531L130.873 29.6331L131.557 34.5904L133.494 48.6231C123.748 51.6357 115.846 56.703 110.091 63.9913C103.409 72.3853 100.906 82.3123 102.434 93.3769C103.313 99.7491 105.115 105.342 108.022 109.963C110.84 114.441 114.518 118.201 119 121.233C123.36 124.181 128.331 126.558 133.868 128.4C139.162 130.161 144.877 131.823 151.009 133.389C156.788 134.865 160.208 136.546 161.956 138.074Z" stroke="white" stroke-width="10"/>
</g>
<defs>
<filter id="filter0_d_6_171" x="26.5" y="77.408" width="346" height="254.092" filterUnits="userSpaceOnUse" color-interpolation-filters="sRGB">
<feFlood flood-opacity="0" result="BackgroundImageFix"/>
<feColorMatrix in="SourceAlpha" type="matrix" values="0 0 0 0 0 0 0 0 0 0 0 0 0 0 0 0 0 0 127 0" result="hardAlpha"/>
<feOffset dy="4"/>
<feGaussianBlur stdDeviation="2"/>
<feComposite in2="hardAlpha" operator="out"/>
<feColorMatrix type="matrix" values="0 0 0 0 0 0 0 0 0 0 0 0 0 0 0 0 0 0 0.25 0"/>
<feBlend mode="normal" in2="BackgroundImageFix" result="effect1_dropShadow_6_171"/>
<feBlend mode="normal" in="SourceGraphic" in2="effect1_dropShadow_6_171" result="shape"/>
</filter>
<filter id="filter1_d_6_171" x="93.001" y="20.7351" width="120.998" height="198.53" filterUnits="userSpaceOnUse" color-interpolation-filters="sRGB">
<feFlood flood-opacity="0" result="BackgroundImageFix"/>
<feColorMatrix in="SourceAlpha" type="matrix" values="0 0 0 0 0 0 0 0 0 0 0 0 0 0 0 0 0 0 127 0" result="hardAlpha"/>
<feOffset dy="4"/>
<feGaussianBlur stdDeviation="2"/>
<feComposite in2="hardAlpha" operator="out"/>
<feColorMatrix type="matrix" values="0 0 0 0 0 0 0 0 0 0 0 0 0 0 0 0 0 0 0.25 0"/>
<feBlend mode="normal" in2="BackgroundImageFix" result="effect1_dropShadow_6_171"/>
<feBlend mode="normal" in="SourceGraphic" in2="effect1_dropShadow_6_171" result="shape"/>
</filter>
</defs>
</svg>
