<svg width="84" height="84" viewBox="0 0 84 84" fill="none" xmlns="http://www.w3.org/2000/svg">
<g filter="url(#filter0_d_819_734)">
<mask id="path-1-outside-1_819_734" maskUnits="userSpaceOnUse" x="4" y="0" width="76" height="76" fill="black">
<rect fill="white" x="4" width="76" height="76"/>
<path fill-rule="evenodd" clip-rule="evenodd" d="M6 17C6 25.2843 12.7157 32 21 32H31V44H21C12.7157 44 6 50.7157 6 59C6 67.2843 12.7157 74 21 74C29.2843 74 36 67.2843 36 59V49H48V59C48 67.2843 54.7157 74 63 74C71.2843 74 78 67.2843 78 59C78 50.7157 71.2843 44 63 44H53V32H63C71.2843 32 78 25.2843 78 17C78 8.71573 71.2843 2 63 2C54.7157 2 48 8.71573 48 17V27H36V17C36 8.71573 29.2843 2 21 2C12.7157 2 6 8.71573 6 17ZM36 32V44H48V32H36ZM21 49H31V59C31 64.5229 26.5228 69 21 69C15.4772 69 11 64.5229 11 59C11 53.4772 15.4772 49 21 49ZM31 17C31 11.4772 26.5228 7 21 7C15.4772 7 11 11.4772 11 17C11 22.5228 15.4772 27 21 27H31V17ZM63 69C57.4772 69 53 64.5229 53 59V49H63C68.5228 49 73 53.4772 73 59C73 64.5229 68.5228 69 63 69ZM53 17C53 11.4772 57.4772 7 63 7C68.5228 7 73 11.4772 73 17C73 22.5228 68.5228 27 63 27H53V17Z"/>
</mask>
<path fill-rule="evenodd" clip-rule="evenodd" d="M6 17C6 25.2843 12.7157 32 21 32H31V44H21C12.7157 44 6 50.7157 6 59C6 67.2843 12.7157 74 21 74C29.2843 74 36 67.2843 36 59V49H48V59C48 67.2843 54.7157 74 63 74C71.2843 74 78 67.2843 78 59C78 50.7157 71.2843 44 63 44H53V32H63C71.2843 32 78 25.2843 78 17C78 8.71573 71.2843 2 63 2C54.7157 2 48 8.71573 48 17V27H36V17C36 8.71573 29.2843 2 21 2C12.7157 2 6 8.71573 6 17ZM36 32V44H48V32H36ZM21 49H31V59C31 64.5229 26.5228 69 21 69C15.4772 69 11 64.5229 11 59C11 53.4772 15.4772 49 21 49ZM31 17C31 11.4772 26.5228 7 21 7C15.4772 7 11 11.4772 11 17C11 22.5228 15.4772 27 21 27H31V17ZM63 69C57.4772 69 53 64.5229 53 59V49H63C68.5228 49 73 53.4772 73 59C73 64.5229 68.5228 69 63 69ZM53 17C53 11.4772 57.4772 7 63 7C68.5228 7 73 11.4772 73 17C73 22.5228 68.5228 27 63 27H53V17Z" fill="black"/>
<path d="M31 32H33V30H31V32ZM31 44V46H33V44H31ZM36 49V47H34V49H36ZM48 49H50V47H48V49ZM53 44H51V46H53V44ZM53 32V30H51V32H53ZM48 27V29H50V27H48ZM36 27H34V29H36V27ZM36 44H34V46H36V44ZM36 32V30H34V32H36ZM48 44V46H50V44H48ZM48 32H50V30H48V32ZM31 49H33V47H31V49ZM31 27V29H33V27H31ZM53 49V47H51V49H53ZM53 27H51V29H53V27ZM21 30C13.8203 30 8 24.1797 8 17H4C4 26.3888 11.6112 34 21 34V30ZM31 30H21V34H31V30ZM33 44V32H29V44H33ZM21 46H31V42H21V46ZM8 59C8 51.8203 13.8203 46 21 46V42C11.6112 42 4 49.6112 4 59H8ZM21 72C13.8203 72 8 66.1797 8 59H4C4 68.3888 11.6112 76 21 76V72ZM34 59C34 66.1797 28.1797 72 21 72V76C30.3888 76 38 68.3888 38 59H34ZM34 49V59H38V49H34ZM48 47H36V51H48V47ZM50 59V49H46V59H50ZM63 72C55.8203 72 50 66.1797 50 59H46C46 68.3888 53.6112 76 63 76V72ZM76 59C76 66.1797 70.1797 72 63 72V76C72.3888 76 80 68.3888 80 59H76ZM63 46C70.1797 46 76 51.8203 76 59H80C80 49.6112 72.3888 42 63 42V46ZM53 46H63V42H53V46ZM51 32V44H55V32H51ZM63 30H53V34H63V30ZM76 17C76 24.1797 70.1797 30 63 30V34C72.3888 34 80 26.3888 80 17H76ZM63 4C70.1797 4 76 9.8203 76 17H80C80 7.61116 72.3888 0 63 0V4ZM50 17C50 9.8203 55.8203 4 63 4V0C53.6112 0 46 7.61116 46 17H50ZM50 27V17H46V27H50ZM36 29H48V25H36V29ZM34 17V27H38V17H34ZM21 4C28.1797 4 34 9.8203 34 17H38C38 7.61116 30.3888 0 21 0V4ZM8 17C8 9.8203 13.8203 4 21 4V0C11.6112 0 4 7.61116 4 17H8ZM38 44V32H34V44H38ZM48 42H36V46H48V42ZM46 32V44H50V32H46ZM36 34H48V30H36V34ZM31 47H21V51H31V47ZM33 59V49H29V59H33ZM29 59C29 63.4183 25.4183 67 21 67V71C27.6274 71 33 65.6274 33 59H29ZM21 67C16.5817 67 13 63.4183 13 59H9C9 65.6274 14.3726 71 21 71V67ZM13 59C13 54.5817 16.5817 51 21 51V47C14.3726 47 9 52.3726 9 59H13ZM21 9C25.4183 9 29 12.5817 29 17H33C33 10.3726 27.6274 5 21 5V9ZM13 17C13 12.5817 16.5817 9 21 9V5C14.3726 5 9 10.3726 9 17H13ZM21 25C16.5817 25 13 21.4183 13 17H9C9 23.6274 14.3726 29 21 29V25ZM31 25H21V29H31V25ZM29 17V27H33V17H29ZM51 59C51 65.6274 56.3726 71 63 71V67C58.5817 67 55 63.4183 55 59H51ZM55 59V49H51V59H55ZM53 51H63V47H53V51ZM75 59C75 52.3726 69.6274 47 63 47V51C67.4183 51 71 54.5817 71 59H75ZM63 71C69.6274 71 75 65.6274 75 59H71C71 63.4183 67.4183 67 63 67V71ZM63 5C56.3726 5 51 10.3726 51 17H55C55 12.5817 58.5817 9 63 9V5ZM75 17C75 10.3726 69.6274 5 63 5V9C67.4183 9 71 12.5817 71 17H75ZM63 29C69.6274 29 75 23.6274 75 17H71C71 21.4183 67.4183 25 63 25V29ZM63 25H53V29H63V25ZM55 27V17H51V27H55Z" fill="black" mask="url(#path-1-outside-1_819_734)"/>
</g>
<defs>
<filter id="filter0_d_819_734" x="0" y="0" width="84" height="84" filterUnits="userSpaceOnUse" color-interpolation-filters="sRGB">
<feFlood flood-opacity="0" result="BackgroundImageFix"/>
<feColorMatrix in="SourceAlpha" type="matrix" values="0 0 0 0 0 0 0 0 0 0 0 0 0 0 0 0 0 0 127 0" result="hardAlpha"/>
<feOffset dy="4"/>
<feGaussianBlur stdDeviation="2"/>
<feComposite in2="hardAlpha" operator="out"/>
<feColorMatrix type="matrix" values="0 0 0 0 0 0 0 0 0 0 0 0 0 0 0 0 0 0 0.25 0"/>
<feBlend mode="normal" in2="BackgroundImageFix" result="effect1_dropShadow_819_734"/>
<feBlend mode="normal" in="SourceGraphic" in2="effect1_dropShadow_819_734" result="shape"/>
</filter>
</defs>
</svg>
