<svg width="308" height="308" viewBox="0 0 308 308" fill="none" xmlns="http://www.w3.org/2000/svg">
<g filter="url(#filter0_d_825_401)">
<path fill-rule="evenodd" clip-rule="evenodd" d="M144 0L304 151H259.542C259.84 151.947 260 152.955 260 154V290C260 295.523 255.523 300 250 300H189C194.523 300 199 295.523 199 290V190C199 184.477 194.523 180 189 180H119C113.477 180 109 184.477 109 190V290C109 295.523 113.477 300 119 300H58C52.4771 300 48 295.523 48 290V154C48 152.955 48.1604 151.947 48.4578 151H4L144 0Z" fill="#2387C0"/>
</g>
<defs>
<filter id="filter0_d_825_401" x="0" y="0" width="308" height="308" filterUnits="userSpaceOnUse" color-interpolation-filters="sRGB">
<feFlood flood-opacity="0" result="BackgroundImageFix"/>
<feColorMatrix in="SourceAlpha" type="matrix" values="0 0 0 0 0 0 0 0 0 0 0 0 0 0 0 0 0 0 127 0" result="hardAlpha"/>
<feOffset dy="4"/>
<feGaussianBlur stdDeviation="2"/>
<feColorMatrix type="matrix" values="0 0 0 0 0 0 0 0 0 0 0 0 0 0 0 0 0 0 0.25 0"/>
<feBlend mode="normal" in2="BackgroundImageFix" result="effect1_dropShadow_825_401"/>
<feBlend mode="normal" in="SourceGraphic" in2="effect1_dropShadow_825_401" result="shape"/>
</filter>
</defs>
</svg>
