<svg width="308" height="308" viewBox="0 0 308 308" fill="none" xmlns="http://www.w3.org/2000/svg">
<g filter="url(#filter0_d_825_403)">
<path fill-rule="evenodd" clip-rule="evenodd" d="M54 30H237.54C248.585 30 257.54 38.9543 257.54 50V67H287.54V50C287.54 22.3858 265.154 0 237.54 0H54C26.3858 0 4 22.3858 4 50V250C4 277.614 26.3858 300 54 300H237.54C265.154 300 287.54 277.614 287.54 250V233H257.54V250C257.54 261.046 248.585 270 237.54 270H54C42.9543 270 34 261.046 34 250V50C34 38.9543 42.9543 30 54 30Z" fill="#2387C0"/>
<path d="M74.1234 174.291L74.0753 115.772L213.155 115.886L213.203 174.405L74.1234 174.291Z" fill="#2387C0"/>
<path d="M304 144.623L197.135 221.07L197.009 68L304 144.623Z" fill="#2387C0"/>
</g>
<defs>
<filter id="filter0_d_825_403" x="0" y="0" width="308" height="308" filterUnits="userSpaceOnUse" color-interpolation-filters="sRGB">
<feFlood flood-opacity="0" result="BackgroundImageFix"/>
<feColorMatrix in="SourceAlpha" type="matrix" values="0 0 0 0 0 0 0 0 0 0 0 0 0 0 0 0 0 0 127 0" result="hardAlpha"/>
<feOffset dy="4"/>
<feGaussianBlur stdDeviation="2"/>
<feColorMatrix type="matrix" values="0 0 0 0 0 0 0 0 0 0 0 0 0 0 0 0 0 0 0.25 0"/>
<feBlend mode="normal" in2="BackgroundImageFix" result="effect1_dropShadow_825_403"/>
<feBlend mode="normal" in="SourceGraphic" in2="effect1_dropShadow_825_403" result="shape"/>
</filter>
</defs>
</svg>
