<svg width="99" height="92" viewBox="0 0 99 92" fill="none" xmlns="http://www.w3.org/2000/svg">
<g filter="url(#filter0_d_5_162)">
<rect x="54.5555" y="0.956835" width="40.4445" height="29.7122" fill="#2387C0"/>
<rect x="56.5778" y="8.51079" width="36.4" height="20.1439" fill="white"/>
<rect x="54.5555" y="53.3309" width="40.4445" height="29.7122" fill="#2387C0"/>
<rect x="56.5778" y="60.8849" width="36.4" height="20.1439" fill="white"/>
<rect x="72.7555" y="33.187" width="3.53889" height="17.6259" fill="#2387C0"/>
<rect x="4" y="19.5899" width="36.9056" height="12.5899" rx="6" fill="#2387C0"/>
<rect x="6.52783" y="22.6115" width="12.1333" height="7.05036" rx="3.52518" fill="white"/>
<rect x="4" y="35.705" width="36.9056" height="12.5899" rx="6" fill="#2387C0"/>
<rect x="6.52783" y="38.7266" width="12.1333" height="7.05036" rx="3.52518" fill="white"/>
<rect x="4" y="51.8201" width="36.9056" height="12.5899" rx="6" fill="#2387C0"/>
<rect x="6.52783" y="54.8417" width="12.1333" height="7.05036" rx="3.52518" fill="white"/>
<path fill-rule="evenodd" clip-rule="evenodd" d="M50.0056 7H15.6278V16.5683H21.3574V9.55157H50.0056V7Z" fill="#2387C0"/>
<path fill-rule="evenodd" clip-rule="evenodd" d="M50.0056 77H15.6278V67.4317H21.3574V74.4484H50.0056V77Z" fill="#2387C0"/>
</g>
<defs>
<filter id="filter0_d_5_162" x="0" y="0.956835" width="99" height="90.0863" filterUnits="userSpaceOnUse" color-interpolation-filters="sRGB">
<feFlood flood-opacity="0" result="BackgroundImageFix"/>
<feColorMatrix in="SourceAlpha" type="matrix" values="0 0 0 0 0 0 0 0 0 0 0 0 0 0 0 0 0 0 127 0" result="hardAlpha"/>
<feOffset dy="4"/>
<feGaussianBlur stdDeviation="2"/>
<feComposite in2="hardAlpha" operator="out"/>
<feColorMatrix type="matrix" values="0 0 0 0 0 0 0 0 0 0 0 0 0 0 0 0 0 0 0.25 0"/>
<feBlend mode="normal" in2="BackgroundImageFix" result="effect1_dropShadow_5_162"/>
<feBlend mode="normal" in="SourceGraphic" in2="effect1_dropShadow_5_162" result="shape"/>
</filter>
</defs>
</svg>
