<svg width="487" height="488" viewBox="0 0 487 488" fill="none" xmlns="http://www.w3.org/2000/svg">
<g filter="url(#filter0_d_824_412)">
<mask id="mask0_824_412" style="mask-type:alpha" maskUnits="userSpaceOnUse" x="4" y="0" width="479" height="480">
<rect x="4" width="479" height="480" fill="#D9D9D9"/>
</mask>
<g mask="url(#mask0_824_412)">
<path fill-rule="evenodd" clip-rule="evenodd" d="M482.925 0.459513L470.904 162.387L153.413 479.878L4.21332 330.678L321.704 13.1874L482.925 0.459513ZM371.202 44.3001C352.457 63.0453 352.457 93.4372 371.202 112.182C389.947 130.928 420.339 130.928 439.084 112.182C457.829 93.4372 457.829 63.0453 439.084 44.3001C420.339 25.555 389.947 25.555 371.202 44.3001Z" fill="#129EDA"/>
<rect x="395.243" y="182.893" width="340" height="134" transform="rotate(135 395.243 182.893)" fill="#2387C0"/>
<g filter="url(#filter1_d_824_412)">
<path d="M203.685 190.189L222.234 183.904L254.963 325.628L236.414 331.914L203.685 190.189ZM146.275 228.131C151.64 222.765 157.21 219.188 162.984 217.4C168.708 215.662 174.303 215.535 179.771 217.016C185.238 218.498 190.169 221.437 194.564 225.831L200.389 231.656C204.784 236.051 207.748 240.957 209.281 246.373C210.814 251.79 210.711 257.36 208.974 263.083C207.185 268.857 203.608 274.427 198.243 279.792C192.878 285.158 187.359 288.684 181.687 290.37C176.015 292.158 170.47 292.286 165.054 290.753C159.637 289.22 154.706 286.231 150.261 281.785L144.435 275.96C139.99 271.514 137 266.583 135.467 261.166C133.883 255.801 133.934 250.282 135.621 244.61C137.358 238.989 140.909 233.496 146.275 228.131ZM160.532 242.387C157.517 245.402 156.239 248.162 156.699 250.665C157.159 253.272 158.794 255.98 161.605 258.79L167.43 264.616C169.832 267.017 172.54 268.397 175.555 268.755C178.57 269.112 181.355 268.014 183.91 265.459C186.567 262.802 187.717 259.966 187.359 256.951C187.001 253.936 185.621 251.228 183.22 248.826L177.394 243.001C175.044 240.65 172.208 239.398 168.886 239.245C165.565 239.091 162.78 240.139 160.532 242.387ZM262.092 237.865C267.457 232.5 273.002 228.897 278.725 227.057C284.448 225.32 289.992 225.192 295.358 226.674C300.774 228.207 305.705 231.197 310.151 235.642L316.053 241.544C320.499 245.99 323.488 250.921 325.021 256.338C326.554 261.754 326.477 267.298 324.791 272.97C323.054 278.694 319.502 284.238 314.137 289.603C308.72 295.02 303.176 298.571 297.504 300.258C291.781 301.995 286.236 302.072 280.871 300.487C275.505 299.006 270.574 296.016 266.078 291.52L260.176 285.618C255.73 281.172 252.741 276.241 251.208 270.824C249.675 265.51 249.751 260.017 251.438 254.345C253.175 248.724 256.726 243.23 262.092 237.865ZM276.425 252.198C273.973 254.651 272.874 257.385 273.129 260.4C273.436 263.466 274.79 266.2 277.192 268.601L283.094 274.503C285.547 276.956 288.306 278.336 291.372 278.642C294.438 278.949 297.248 277.825 299.803 275.27C302.358 272.715 303.482 269.904 303.176 266.838C302.818 263.824 301.413 261.09 298.96 258.637L293.058 252.735C290.605 250.282 287.872 248.928 284.857 248.673C281.842 248.417 279.031 249.592 276.425 252.198Z" fill="white"/>
</g>
</g>
</g>
<defs>
<filter id="filter0_d_824_412" x="0" y="0" width="488" height="493" filterUnits="userSpaceOnUse" color-interpolation-filters="sRGB">
<feFlood flood-opacity="0" result="BackgroundImageFix"/>
<feColorMatrix in="SourceAlpha" type="matrix" values="0 0 0 0 0 0 0 0 0 0 0 0 0 0 0 0 0 0 127 0" result="hardAlpha"/>
<feOffset dy="4"/>
<feGaussianBlur stdDeviation="2"/>
<feColorMatrix type="matrix" values="0 0 0 0 0 0 0 0 0 0 0 0 0 0 0 0 0 0 0.25 0"/>
<feBlend mode="normal" in2="BackgroundImageFix" result="effect1_dropShadow_824_412"/>
<feBlend mode="normal" in="SourceGraphic" in2="effect1_dropShadow_824_412" result="shape"/>
</filter>
<filter id="filter1_d_824_412" x="117.44" y="149.948" width="225.684" height="225.684" filterUnits="userSpaceOnUse" color-interpolation-filters="sRGB">
<feFlood flood-opacity="0" result="BackgroundImageFix"/>
<feColorMatrix in="SourceAlpha" type="matrix" values="0 0 0 0 0 0 0 0 0 0 0 0 0 0 0 0 0 0 127 0" result="hardAlpha"/>
<feOffset dy="4"/>
<feGaussianBlur stdDeviation="2"/>
<feComposite in2="hardAlpha" operator="out"/>
<feColorMatrix type="matrix" values="0 0 0 0 0 0 0 0 0 0 0 0 0 0 0 0 0 0 0.25 0"/>
<feBlend mode="normal" in2="BackgroundImageFix" result="effect1_dropShadow_824_412"/>
<feBlend mode="normal" in="SourceGraphic" in2="effect1_dropShadow_824_412" result="shape"/>
</filter>
</defs>
</svg>
