<svg width="109" height="102" viewBox="0 0 109 102" fill="none" xmlns="http://www.w3.org/2000/svg">
<g filter="url(#filter0_d_819_735)">
<rect x="46.1123" y="55.7948" width="2" height="25.1745" transform="rotate(78.0886 46.1123 55.7948)" fill="#002C39"/>
<circle cx="13.859" cy="63.6202" r="9" transform="rotate(78.0886 13.859 63.6202)" fill="#002C39"/>
<rect x="52.7284" y="61.1891" width="2" height="21.2857" transform="rotate(-34.6859 52.7284 61.1891)" fill="#002C39"/>
<circle cx="70.2161" cy="84.7007" r="9" transform="rotate(-34.6859 70.2161 84.7007)" fill="#002C39"/>
<rect x="56.3215" y="57.8286" width="2" height="31.1658" transform="rotate(-86.3923 56.3215 57.8286)" fill="#002C39"/>
<circle cx="95.4719" cy="59.2953" r="9" transform="rotate(-86.3923 95.4719 59.2953)" fill="#002C39"/>
<path fill-rule="evenodd" clip-rule="evenodd" d="M50.6504 56C56.4016 49.6019 67.9041 32.5315 67.9041 15.4346C67.3092 6.53004 59.9714 -1.08182e-05 50.6504 0C44.7669 0.0659559 33 3.64098 33 17.4134C33 31.1859 44.7669 48.8763 50.6504 56ZM50.6439 28.7671C56.7871 28.7671 61.7672 23.787 61.7672 17.6438C61.7672 11.5006 56.7871 6.5205 50.6439 6.5205C44.5006 6.5205 39.5206 11.5006 39.5206 17.6438C39.5206 23.787 44.5006 28.7671 50.6439 28.7671Z" fill="url(#paint0_linear_819_735)"/>
</g>
<defs>
<filter id="filter0_d_819_735" x="-0.80481" y="0" width="109.825" height="105.223" filterUnits="userSpaceOnUse" color-interpolation-filters="sRGB">
<feFlood flood-opacity="0" result="BackgroundImageFix"/>
<feColorMatrix in="SourceAlpha" type="matrix" values="0 0 0 0 0 0 0 0 0 0 0 0 0 0 0 0 0 0 127 0" result="hardAlpha"/>
<feOffset dy="4"/>
<feGaussianBlur stdDeviation="2"/>
<feColorMatrix type="matrix" values="0 0 0 0 0 0 0 0 0 0 0 0 0 0 0 0 0 0 0.25 0"/>
<feBlend mode="normal" in2="BackgroundImageFix" result="effect1_dropShadow_819_735"/>
<feBlend mode="normal" in="SourceGraphic" in2="effect1_dropShadow_819_735" result="shape"/>
</filter>
<linearGradient id="paint0_linear_819_735" x1="50.4521" y1="0" x2="50.4521" y2="56" gradientUnits="userSpaceOnUse">
<stop stop-color="#129EDA"/>
<stop offset="1" stop-color="#2387C0"/>
</linearGradient>
</defs>
</svg>
