<svg width="173" height="133" viewBox="0 0 173 133" fill="none" xmlns="http://www.w3.org/2000/svg">
<g filter="url(#filter0_d_1019_439)">
<rect x="6.15649" y="18" width="160.066" height="107" rx="10" fill="#EEEEE5"/>
</g>
<mask id="mask0_1019_439" style="mask-type:alpha" maskUnits="userSpaceOnUse" x="6" y="18" width="161" height="107">
<rect x="6.15649" y="18" width="160.066" height="107" fill="#C4C4C4"/>
</mask>
<g mask="url(#mask0_1019_439)">
<path d="M42.3637 44.1112L24.5849 128.716L16.3908 125.059L42.3637 44.1112Z" fill="#CDCAC4"/>
<path d="M42.3637 44.1112L24.5849 128.716L16.3908 125.059L42.3637 44.1112Z" fill="#CDCAC4"/>
<path d="M130.167 44.5521L147.946 129.157L156.14 125.5L130.167 44.5521Z" fill="#CDCAC4"/>
<path d="M130.167 44.5521L147.946 129.157L156.14 125.5L130.167 44.5521Z" fill="#CDCAC4"/>
</g>
<g filter="url(#filter1_d_1019_439)">
<path d="M86.1893 95L160.831 23.75H11.5472L86.1893 95Z" fill="#5B4729"/>
</g>
<defs>
<filter id="filter0_d_1019_439" x="2.15649" y="18" width="168.066" height="115" filterUnits="userSpaceOnUse" color-interpolation-filters="sRGB">
<feFlood flood-opacity="0" result="BackgroundImageFix"/>
<feColorMatrix in="SourceAlpha" type="matrix" values="0 0 0 0 0 0 0 0 0 0 0 0 0 0 0 0 0 0 127 0" result="hardAlpha"/>
<feOffset dy="4"/>
<feGaussianBlur stdDeviation="2"/>
<feComposite in2="hardAlpha" operator="out"/>
<feColorMatrix type="matrix" values="0 0 0 0 0 0 0 0 0 0 0 0 0 0 0 0 0 0 0.25 0"/>
<feBlend mode="normal" in2="BackgroundImageFix" result="effect1_dropShadow_1019_439"/>
<feBlend mode="normal" in="SourceGraphic" in2="effect1_dropShadow_1019_439" result="shape"/>
</filter>
<filter id="filter1_d_1019_439" x="7.54712" y="23.75" width="157.284" height="79.25" filterUnits="userSpaceOnUse" color-interpolation-filters="sRGB">
<feFlood flood-opacity="0" result="BackgroundImageFix"/>
<feColorMatrix in="SourceAlpha" type="matrix" values="0 0 0 0 0 0 0 0 0 0 0 0 0 0 0 0 0 0 127 0" result="hardAlpha"/>
<feOffset dy="4"/>
<feGaussianBlur stdDeviation="2"/>
<feComposite in2="hardAlpha" operator="out"/>
<feColorMatrix type="matrix" values="0 0 0 0 0 0 0 0 0 0 0 0 0 0 0 0 0 0 0.25 0"/>
<feBlend mode="normal" in2="BackgroundImageFix" result="effect1_dropShadow_1019_439"/>
<feBlend mode="normal" in="SourceGraphic" in2="effect1_dropShadow_1019_439" result="shape"/>
</filter>
</defs>
</svg>
