<svg width="171" height="171" viewBox="0 0 171 171" fill="none" xmlns="http://www.w3.org/2000/svg">
<path fill-rule="evenodd" clip-rule="evenodd" d="M29.6247 65.8154C40.0162 64.3659 47.265 54.7668 45.8155 44.3753C45.3753 41.2197 44.1836 38.3538 42.4463 35.9334L54.4726 28.0022C54.4726 28.0022 47.6429 40.5662 51.4081 56.7008C55.1733 72.8353 66.3162 80.8729 66.3162 80.8729C66.3162 80.8729 46.7773 88.6469 34.2016 85.3527C21.6259 82.0586 4.8355 70.2652 4.8355 70.2652C4.8355 70.2652 7.98227 65.494 12.8699 59.7013C16.9494 64.2314 23.1324 66.7211 29.6247 65.8154Z" fill="#F85153"/>
<circle cx="27.013" cy="47.1404" r="13.9738" transform="rotate(-7.94122 27.013 47.1404)" fill="#F85153"/>
<path fill-rule="evenodd" clip-rule="evenodd" d="M80.2825 38.8484C85.5528 47.9208 97.1799 51.003 106.252 45.7326C109.007 44.1321 111.21 41.9455 112.794 39.4222L124.683 47.5577C124.683 47.5577 110.469 45.9845 96.9556 55.5697C83.4418 65.1549 80.2131 78.5094 80.2131 78.5094C80.2131 78.5094 65.6296 63.3593 63.9252 50.4715C62.2208 37.5837 66.7917 17.581 66.7917 17.581C66.7917 17.581 72.3984 18.6906 79.609 21.0256C76.9572 26.5149 76.9897 33.1803 80.2825 38.8484Z" fill="#F67F23"/>
<circle cx="96.5843" cy="29.3707" r="13.9738" transform="rotate(59.8467 96.5843 29.3707)" fill="#F67F23"/>
<path fill-rule="evenodd" clip-rule="evenodd" d="M128.495 76.1665C121.121 83.6299 121.193 95.6583 128.657 103.033C130.923 105.272 133.61 106.825 136.461 107.692L131.725 121.298C131.725 121.298 129.519 107.169 116.727 96.6385C103.936 86.1084 90.202 86.4917 90.202 86.4917C90.202 86.4917 101.002 68.448 112.992 63.4263C124.983 58.4045 145.485 57.5744 145.485 57.5744C145.485 57.5744 145.883 63.276 145.519 70.8465C139.527 69.7257 133.103 71.5035 128.495 76.1665Z" fill="#6BAD41"/>
<circle cx="141.913" cy="89.4154" r="13.9738" transform="rotate(134.656 141.913 89.4154)" fill="#6BAD41"/>
<path fill-rule="evenodd" clip-rule="evenodd" d="M104.311 128.819C94.6725 124.674 83.4985 129.127 79.3532 138.766C78.0943 141.692 77.6284 144.761 77.8599 147.731L63.4644 148.282C63.4644 148.282 75.8164 141.076 80.9574 125.326C86.0983 109.576 80.7336 96.9271 80.7336 96.9271C80.7336 96.9271 101.473 100.404 110.521 109.738C119.569 119.072 127.818 137.86 127.818 137.86C127.818 137.86 122.654 140.31 115.472 142.731C114.331 136.743 110.333 131.409 104.311 128.819Z" fill="#16B3C4"/>
<circle cx="96.8668" cy="146.144" r="13.9738" transform="rotate(-156.729 96.8668 146.144)" fill="#16B3C4"/>
<path fill-rule="evenodd" clip-rule="evenodd" d="M45.1727 121.881C46.9383 111.538 39.9853 101.723 29.6428 99.957C26.5021 99.4209 23.41 99.6887 20.5771 100.611L16.6605 86.7479C16.6605 86.7479 26.5661 97.0619 43.0832 98.3598C59.6004 99.6578 70.6351 91.4723 70.6351 91.4723C70.6351 91.4723 72.1267 112.448 65.1787 123.436C58.2307 134.423 41.9062 146.853 41.9062 146.853C41.9062 146.853 38.3121 142.409 34.2715 135.997C39.8244 133.481 44.0697 128.342 45.1727 121.881Z" fill="#FFC842"/>
<circle cx="26.5837" cy="118.714" r="13.9738" transform="rotate(-80.3124 26.5837 118.714)" fill="#FFC842"/>
</svg>
