<svg width="271" height="271" viewBox="0 0 271 271" fill="none" xmlns="http://www.w3.org/2000/svg">
<g filter="url(#filter0_d_109_460)">
<rect x="4" width="263" height="263" rx="20" fill="#EDF4F3"/>
</g>
<g filter="url(#filter1_d_109_460)">
<path d="M4 20C4 8.9543 12.9543 0 24 0H247C258.046 0 267 8.95431 267 20V65H4V20Z" fill="#A10101"/>
</g>
<rect x="85" y="76" width="28" height="28" rx="3" fill="#C4C4C4"/>
<rect x="121" y="76" width="28" height="28" rx="3" fill="#C4C4C4"/>
<rect x="157" y="76" width="28" height="28" rx="3" fill="#C4C4C4"/>
<rect x="193" y="76" width="28" height="28" rx="3" fill="#C4C4C4"/>
<rect x="229" y="76" width="28" height="28" rx="3" fill="#C4C4C4"/>
<rect x="13" y="112" width="28" height="28" rx="3" fill="#C4C4C4"/>
<rect x="49" y="112" width="28" height="28" rx="3" fill="#C4C4C4"/>
<rect x="85" y="112" width="28" height="28" rx="3" fill="#C4C4C4"/>
<rect x="121" y="112" width="28" height="28" rx="3" fill="#C4C4C4"/>
<rect x="157" y="112" width="28" height="28" rx="3" fill="#C4C4C4"/>
<rect x="193" y="112" width="28" height="28" rx="3" fill="#C4C4C4"/>
<rect x="229" y="112" width="28" height="28" rx="3" fill="#C4C4C4"/>
<rect x="13" y="148" width="28" height="28" rx="3" fill="#C4C4C4"/>
<rect x="49" y="148" width="28" height="28" rx="3" fill="#C4C4C4"/>
<rect x="85" y="148" width="28" height="28" rx="3" fill="#C4C4C4"/>
<rect x="121" y="148" width="28" height="28" rx="3" fill="#C4C4C4"/>
<rect x="157" y="148" width="28" height="28" rx="3" fill="#C4C4C4"/>
<rect x="193" y="148" width="28" height="28" rx="3" fill="#C4C4C4"/>
<rect x="229" y="148" width="28" height="28" rx="3" fill="#C4C4C4"/>
<rect x="13" y="184" width="28" height="28" rx="3" fill="#C4C4C4"/>
<rect x="49" y="184" width="28" height="28" rx="3" fill="#C4C4C4"/>
<rect x="85" y="184" width="28" height="28" rx="3" fill="#C4C4C4"/>
<rect x="121" y="184" width="28" height="28" rx="3" fill="#C4C4C4"/>
<rect x="157" y="184" width="28" height="28" rx="3" fill="#C4C4C4"/>
<rect x="193" y="184" width="28" height="28" rx="3" fill="#C4C4C4"/>
<rect x="229" y="184" width="28" height="28" rx="3" fill="#C4C4C4"/>
<rect x="13" y="220" width="28" height="28" rx="3" fill="#C4C4C4"/>
<rect x="49" y="220" width="28" height="28" rx="3" fill="#C4C4C4"/>
<rect x="85" y="220" width="28" height="28" rx="3" fill="#C4C4C4"/>
<rect x="121" y="220" width="28" height="28" rx="3" fill="#C4C4C4"/>
<g filter="url(#filter2_d_109_460)">
<rect x="20" y="22" width="137" height="21" rx="5" fill="white"/>
</g>
<g filter="url(#filter3_d_109_460)">
<rect x="171" y="22" width="79" height="21" rx="5" fill="white"/>
</g>
<defs>
<filter id="filter0_d_109_460" x="0" y="0" width="271" height="271" filterUnits="userSpaceOnUse" color-interpolation-filters="sRGB">
<feFlood flood-opacity="0" result="BackgroundImageFix"/>
<feColorMatrix in="SourceAlpha" type="matrix" values="0 0 0 0 0 0 0 0 0 0 0 0 0 0 0 0 0 0 127 0" result="hardAlpha"/>
<feOffset dy="4"/>
<feGaussianBlur stdDeviation="2"/>
<feComposite in2="hardAlpha" operator="out"/>
<feColorMatrix type="matrix" values="0 0 0 0 0 0 0 0 0 0 0 0 0 0 0 0 0 0 0.25 0"/>
<feBlend mode="normal" in2="BackgroundImageFix" result="effect1_dropShadow_109_460"/>
<feBlend mode="normal" in="SourceGraphic" in2="effect1_dropShadow_109_460" result="shape"/>
</filter>
<filter id="filter1_d_109_460" x="0" y="0" width="271" height="73" filterUnits="userSpaceOnUse" color-interpolation-filters="sRGB">
<feFlood flood-opacity="0" result="BackgroundImageFix"/>
<feColorMatrix in="SourceAlpha" type="matrix" values="0 0 0 0 0 0 0 0 0 0 0 0 0 0 0 0 0 0 127 0" result="hardAlpha"/>
<feOffset dy="4"/>
<feGaussianBlur stdDeviation="2"/>
<feComposite in2="hardAlpha" operator="out"/>
<feColorMatrix type="matrix" values="0 0 0 0 0 0 0 0 0 0 0 0 0 0 0 0 0 0 0.25 0"/>
<feBlend mode="normal" in2="BackgroundImageFix" result="effect1_dropShadow_109_460"/>
<feBlend mode="normal" in="SourceGraphic" in2="effect1_dropShadow_109_460" result="shape"/>
</filter>
<filter id="filter2_d_109_460" x="16" y="22" width="145" height="29" filterUnits="userSpaceOnUse" color-interpolation-filters="sRGB">
<feFlood flood-opacity="0" result="BackgroundImageFix"/>
<feColorMatrix in="SourceAlpha" type="matrix" values="0 0 0 0 0 0 0 0 0 0 0 0 0 0 0 0 0 0 127 0" result="hardAlpha"/>
<feOffset dy="4"/>
<feGaussianBlur stdDeviation="2"/>
<feComposite in2="hardAlpha" operator="out"/>
<feColorMatrix type="matrix" values="0 0 0 0 0 0 0 0 0 0 0 0 0 0 0 0 0 0 0.25 0"/>
<feBlend mode="normal" in2="BackgroundImageFix" result="effect1_dropShadow_109_460"/>
<feBlend mode="normal" in="SourceGraphic" in2="effect1_dropShadow_109_460" result="shape"/>
</filter>
<filter id="filter3_d_109_460" x="167" y="22" width="87" height="29" filterUnits="userSpaceOnUse" color-interpolation-filters="sRGB">
<feFlood flood-opacity="0" result="BackgroundImageFix"/>
<feColorMatrix in="SourceAlpha" type="matrix" values="0 0 0 0 0 0 0 0 0 0 0 0 0 0 0 0 0 0 127 0" result="hardAlpha"/>
<feOffset dy="4"/>
<feGaussianBlur stdDeviation="2"/>
<feComposite in2="hardAlpha" operator="out"/>
<feColorMatrix type="matrix" values="0 0 0 0 0 0 0 0 0 0 0 0 0 0 0 0 0 0 0.25 0"/>
<feBlend mode="normal" in2="BackgroundImageFix" result="effect1_dropShadow_109_460"/>
<feBlend mode="normal" in="SourceGraphic" in2="effect1_dropShadow_109_460" result="shape"/>
</filter>
</defs>
</svg>
