<svg width="461" height="461" viewBox="0 0 461 461" fill="none" xmlns="http://www.w3.org/2000/svg">
<g filter="url(#filter0_d_819_591)">
<circle cx="230.5" cy="226.5" r="226.5" fill="#5A5D5F"/>
</g>
<path fill-rule="evenodd" clip-rule="evenodd" d="M152.746 152.929C157.129 153.973 161.509 151.193 162.43 146.783L170.95 106H333V347H129V147.274L152.746 152.929Z" fill="#2387C0"/>
<rect x="147" y="127" width="167" height="161" rx="15" fill="white"/>
<mask id="mask0_819_591" style="mask-type:alpha" maskUnits="userSpaceOnUse" x="129" y="106" width="93" height="67">
<rect x="129" y="106" width="93" height="67" fill="#C4C4C4"/>
</mask>
<g mask="url(#mask0_819_591)">
<path d="M181.43 162.783C180.509 167.193 176.129 169.973 171.746 168.929L112.681 154.864C105.8 153.226 104.275 144.118 110.247 140.327L181.729 94.9592C187.701 91.1686 195.293 96.4254 193.847 103.35L181.43 162.783Z" fill="#2387C0"/>
</g>
<rect x="162" y="193" width="137" height="20" rx="6" fill="#2387C0"/>
<rect x="162" y="222" width="137" height="20" rx="6" fill="#2387C0"/>
<rect x="147" y="306" width="167" height="20" rx="6" fill="white"/>
<g filter="url(#filter1_d_819_591)">
<path d="M90.5 106.375L98.5 128.375C92.0833 130.958 87.75 135.5 85.5 142C83.25 148.5 82.125 156 82.125 164.5V189.875C82.125 198.292 80.1667 205.958 76.25 212.875C72.4167 219.708 66.3333 225.167 58 229.25C49.6667 233.25 38.7917 235.25 25.375 235.25V214.5C32.5417 214.5 37.6667 212.292 40.75 207.875C43.9167 203.375 45.5 197.375 45.5 189.875V164.5C45.5 155.75 46.8333 147.583 49.5 140C52.25 132.333 56.9167 125.625 63.5 119.875C70.0833 114.042 79.0833 109.542 90.5 106.375ZM98.5 328.875L90.5 351C79.0833 347.75 70.0833 343.208 63.5 337.375C56.9167 331.625 52.25 324.917 49.5 317.25C46.8333 309.667 45.5 301.5 45.5 292.75V267.375C45.5 262.375 44.7917 258.042 43.375 254.375C42.0417 250.708 39.875 247.875 36.875 245.875C33.9583 243.875 30.125 242.875 25.375 242.875V222C38.7917 222 49.6667 224.042 58 228.125C66.3333 232.125 72.4167 237.542 76.25 244.375C80.1667 251.208 82.125 258.875 82.125 267.375V292.75C82.125 298.417 82.5833 303.667 83.5 308.5C84.5 313.333 86.1667 317.5 88.5 321C90.9167 324.5 94.25 327.125 98.5 328.875ZM363.625 128.375L371.625 106.375C383.125 109.542 392.125 114.042 398.625 119.875C405.208 125.625 409.833 132.333 412.5 140C415.25 147.583 416.625 155.75 416.625 164.5V189.875C416.625 194.875 417.292 199.208 418.625 202.875C420.042 206.542 422.25 209.417 425.25 211.5C428.25 213.5 432.125 214.5 436.875 214.5V235.125C423.458 235.125 412.542 233.125 404.125 229.125C395.792 225.125 389.667 219.708 385.75 212.875C381.917 205.958 380 198.292 380 189.875V164.5C380 158.833 379.542 153.583 378.625 148.75C377.708 143.917 376.042 139.75 373.625 136.25C371.292 132.667 367.958 130.042 363.625 128.375ZM371.625 351L363.625 328.875C367.958 327.125 371.292 324.5 373.625 321C376.042 317.5 377.708 313.333 378.625 308.5C379.542 303.667 380 298.417 380 292.75V267.375C380 258.875 381.917 251.208 385.75 244.375C389.667 237.542 395.792 232.125 404.125 228.125C412.542 224.125 423.458 222.125 436.875 222.125V242.875C429.708 242.875 424.542 245.125 421.375 249.625C418.208 254.042 416.625 259.958 416.625 267.375V292.75C416.625 301.5 415.25 309.667 412.5 317.25C409.833 324.917 405.208 331.625 398.625 337.375C392.125 343.208 383.125 347.75 371.625 351Z" fill="#2387C0"/>
</g>
<defs>
<filter id="filter0_d_819_591" x="0" y="0" width="461" height="461" filterUnits="userSpaceOnUse" color-interpolation-filters="sRGB">
<feFlood flood-opacity="0" result="BackgroundImageFix"/>
<feColorMatrix in="SourceAlpha" type="matrix" values="0 0 0 0 0 0 0 0 0 0 0 0 0 0 0 0 0 0 127 0" result="hardAlpha"/>
<feOffset dy="4"/>
<feGaussianBlur stdDeviation="2"/>
<feComposite in2="hardAlpha" operator="out"/>
<feColorMatrix type="matrix" values="0 0 0 0 0 0 0 0 0 0 0 0 0 0 0 0 0 0 0.25 0"/>
<feBlend mode="normal" in2="BackgroundImageFix" result="effect1_dropShadow_819_591"/>
<feBlend mode="normal" in="SourceGraphic" in2="effect1_dropShadow_819_591" result="shape"/>
</filter>
<filter id="filter1_d_819_591" x="21.375" y="106.375" width="419.5" height="252.625" filterUnits="userSpaceOnUse" color-interpolation-filters="sRGB">
<feFlood flood-opacity="0" result="BackgroundImageFix"/>
<feColorMatrix in="SourceAlpha" type="matrix" values="0 0 0 0 0 0 0 0 0 0 0 0 0 0 0 0 0 0 127 0" result="hardAlpha"/>
<feOffset dy="4"/>
<feGaussianBlur stdDeviation="2"/>
<feComposite in2="hardAlpha" operator="out"/>
<feColorMatrix type="matrix" values="0 0 0 0 0 0 0 0 0 0 0 0 0 0 0 0 0 0 0.25 0"/>
<feBlend mode="normal" in2="BackgroundImageFix" result="effect1_dropShadow_819_591"/>
<feBlend mode="normal" in="SourceGraphic" in2="effect1_dropShadow_819_591" result="shape"/>
</filter>
</defs>
</svg>
