<svg width="177" height="177" viewBox="0 0 177 177" fill="none" xmlns="http://www.w3.org/2000/svg">
<mask id="mask0_906_417" style="mask-type:alpha" maskUnits="userSpaceOnUse" x="0" y="33" width="177" height="118">
<rect y="33" width="177" height="118" fill="#D9D9D9"/>
</mask>
<g mask="url(#mask0_906_417)">
<g filter="url(#filter0_d_906_417)">
<path d="M47.0031 81.426H130V127.291C130 127.291 130 140.94 87.9252 140.94C45.8504 140.94 47.0031 127.291 47.0031 127.291L47.0031 81.426Z" fill="#129EDA"/>
<path d="M47.0031 79.426H45.0031V81.426V127.24C45.0029 127.247 45.0026 127.254 45.0023 127.261C45.0002 127.321 44.9992 127.395 45.0008 127.481C45.004 127.654 45.0176 127.879 45.054 128.147C45.1269 128.685 45.2911 129.394 45.6427 130.213C46.3536 131.869 47.7836 133.863 50.5543 135.765C56.0255 139.52 66.7496 142.94 87.9252 142.94C109.115 142.94 120.094 139.515 125.829 135.793C128.725 133.915 130.291 131.955 131.122 130.338C131.534 129.536 131.754 128.839 131.871 128.308C131.929 128.043 131.962 127.821 131.979 127.649C131.988 127.563 131.993 127.49 131.996 127.43C131.998 127.4 131.999 127.373 131.999 127.35L132 127.318L132 127.304L132 127.298C132 127.294 132 127.291 130 127.291H132V81.426V79.426H130H47.0031Z" stroke="white" stroke-width="4"/>
</g>
<rect x="32" y="65.3682" width="7.00001" height="46.4561" rx="3" fill="#129EDA" stroke="white" stroke-width="2"/>
<g filter="url(#filter1_d_906_417)">
<path d="M87.5389 38.3731C87.8435 38.2886 88.1565 38.2886 88.4611 38.3731L168.321 60.5364C170.867 61.243 170.97 66.4144 168.456 67.3268L88.5954 96.3096C88.2046 96.4514 87.7954 96.4514 87.4046 96.3096L7.54447 67.3268C5.03044 66.4144 5.13271 61.243 7.67876 60.5364L87.5389 38.3731Z" fill="#2387C0"/>
<path d="M168.629 58.2586L88.7685 36.0953C88.2609 35.9545 87.7391 35.9545 87.2315 36.0953L7.37137 58.2586C3.12795 59.4362 2.95752 68.0553 7.14756 69.5759L87.0077 98.5588C87.659 98.7951 88.341 98.7951 88.9923 98.5588L168.852 69.5759C173.042 68.0553 172.872 59.4362 168.629 58.2586Z" stroke="white" stroke-width="4"/>
</g>
</g>
<defs>
<filter id="filter0_d_906_417" x="39" y="77.426" width="99" height="75.5138" filterUnits="userSpaceOnUse" color-interpolation-filters="sRGB">
<feFlood flood-opacity="0" result="BackgroundImageFix"/>
<feColorMatrix in="SourceAlpha" type="matrix" values="0 0 0 0 0 0 0 0 0 0 0 0 0 0 0 0 0 0 127 0" result="hardAlpha"/>
<feOffset dy="4"/>
<feGaussianBlur stdDeviation="2"/>
<feComposite in2="hardAlpha" operator="out"/>
<feColorMatrix type="matrix" values="0 0 0 0 0 0 0 0 0 0 0 0 0 0 0 0 0 0 0.25 0"/>
<feBlend mode="normal" in2="BackgroundImageFix" result="effect1_dropShadow_906_417"/>
<feBlend mode="normal" in="SourceGraphic" in2="effect1_dropShadow_906_417" result="shape"/>
</filter>
<filter id="filter1_d_906_417" x="-1.52267" y="33.6697" width="179.045" height="75.3864" filterUnits="userSpaceOnUse" color-interpolation-filters="sRGB">
<feFlood flood-opacity="0" result="BackgroundImageFix"/>
<feColorMatrix in="SourceAlpha" type="matrix" values="0 0 0 0 0 0 0 0 0 0 0 0 0 0 0 0 0 0 127 0" result="hardAlpha"/>
<feOffset dy="4"/>
<feGaussianBlur stdDeviation="2"/>
<feComposite in2="hardAlpha" operator="out"/>
<feColorMatrix type="matrix" values="0 0 0 0 0 0 0 0 0 0 0 0 0 0 0 0 0 0 0.25 0"/>
<feBlend mode="normal" in2="BackgroundImageFix" result="effect1_dropShadow_906_417"/>
<feBlend mode="normal" in="SourceGraphic" in2="effect1_dropShadow_906_417" result="shape"/>
</filter>
</defs>
</svg>
