<svg width="143" height="190" viewBox="0 0 143 190" fill="none" xmlns="http://www.w3.org/2000/svg">
<g filter="url(#filter0_d_101_275)">
<rect x="11" y="13" width="126" height="163" rx="8" fill="#242424"/>
<rect x="12" y="15" width="126" height="163" rx="8" fill="white"/>
<rect x="13" y="17" width="126" height="163" rx="8" fill="#363636"/>
<path d="M4 51C4 48.2386 6.23858 46 9 46H20V59H9C6.23858 59 4 56.7614 4 54V51Z" fill="white"/>
<path d="M4 97C4 94.2386 6.23858 92 9 92H20V105H9C6.23858 105 4 102.761 4 100V97Z" fill="white"/>
<path d="M4 143C4 140.239 6.23858 138 9 138H20V151H9C6.23858 151 4 148.761 4 146V143Z" fill="white"/>
<path d="M4 51C4 48.2386 6.23858 46 9 46H13V59H9C6.23858 59 4 56.7614 4 54V51Z" fill="#363636"/>
<path d="M4 97C4 94.2386 6.23858 92 9 92H13V105H9C6.23858 105 4 102.761 4 100V97Z" fill="#363636"/>
<path d="M4 143C4 140.239 6.23858 138 9 138H13V151H9C6.23858 151 4 148.761 4 146V143Z" fill="#363636"/>
<path d="M71.7812 166.328V152.195C65.6406 151.586 60.1562 149.969 55.3281 147.344C50.5 144.719 46.7031 141.016 43.9375 136.234C41.2188 131.406 39.9062 125.43 40 118.305L40.1406 117.953H64.2578C64.2578 121.75 64.8203 124.844 65.9453 127.234C67.0703 129.578 68.6172 131.312 70.5859 132.438C72.5547 133.516 74.8281 134.055 77.4062 134.055C79.5156 134.055 81.2734 133.633 82.6797 132.789C84.0859 131.898 85.1406 130.68 85.8438 129.133C86.5469 127.586 86.8984 125.805 86.8984 123.789C86.8984 121.398 86.5234 119.383 85.7734 117.742C85.0703 116.102 83.875 114.648 82.1875 113.383C80.5469 112.07 78.2734 110.781 75.3672 109.516C68.0547 106.609 62.0312 103.703 57.2969 100.797C52.6094 97.8906 49.1406 94.4922 46.8906 90.6016C44.6406 86.7109 43.5156 81.8359 43.5156 75.9766C43.5156 68.0078 46.2109 61.4688 51.6016 56.3594C56.9922 51.2031 64.1875 48.2031 73.1875 47.3594V32.5234H84.4375V47.7109C92.875 48.9766 99.5547 52.4453 104.477 58.1172C109.445 63.7891 111.859 71.0312 111.719 79.8438L111.93 80.4062H87.5312C87.5312 75.3906 86.5703 71.6875 84.6484 69.2969C82.7734 66.8594 80.3125 65.6406 77.2656 65.6406C74.125 65.6406 71.8047 66.625 70.3047 68.5938C68.8047 70.5625 68.0547 73.1172 68.0547 76.2578C68.0547 78.3203 68.3828 80.125 69.0391 81.6719C69.7422 83.1719 70.9375 84.5547 72.625 85.8203C74.3125 87.0859 76.6328 88.375 79.5859 89.6875C86.8047 92.8281 92.7812 95.8984 97.5156 98.8984C102.25 101.898 105.766 105.344 108.062 109.234C110.406 113.078 111.578 117.883 111.578 123.648C111.578 131.758 109 138.297 103.844 143.266C98.6875 148.234 91.7734 151.164 83.1016 152.055V166.328H71.7812Z" fill="white"/>
</g>
<defs>
<filter id="filter0_d_101_275" x="0" y="0" width="143" height="198" filterUnits="userSpaceOnUse" color-interpolation-filters="sRGB">
<feFlood flood-opacity="0" result="BackgroundImageFix"/>
<feColorMatrix in="SourceAlpha" type="matrix" values="0 0 0 0 0 0 0 0 0 0 0 0 0 0 0 0 0 0 127 0" result="hardAlpha"/>
<feOffset dy="4"/>
<feGaussianBlur stdDeviation="2"/>
<feComposite in2="hardAlpha" operator="out"/>
<feColorMatrix type="matrix" values="0 0 0 0 0 0 0 0 0 0 0 0 0 0 0 0 0 0 0.25 0"/>
<feBlend mode="normal" in2="BackgroundImageFix" result="effect1_dropShadow_101_275"/>
<feBlend mode="normal" in="SourceGraphic" in2="effect1_dropShadow_101_275" result="shape"/>
</filter>
</defs>
</svg>
