<svg width="218" height="199" viewBox="0 0 218 199" fill="none" xmlns="http://www.w3.org/2000/svg">
<rect x="12" y="30" width="175" height="135" fill="white"/>
<g filter="url(#filter0_d_908_416)">
<path fill-rule="evenodd" clip-rule="evenodd" d="M16 0C9.37258 0 4 5.37258 4 12V165C4 171.627 9.37258 177 16 177H185C191.627 177 197 171.627 197 165V12C197 5.37258 191.627 0 185 0H16ZM184.255 44H106.873V96H184.255V44ZM16.7453 112H94.1274V164H16.7453V112ZM106.873 115H184.255V167H106.873V115ZM16.7453 44H94.1274V96H16.7453V44Z" fill="#3D5861"/>
</g>
<g filter="url(#filter1_d_908_416)">
<path d="M18.1465 36V32.3965L20.8008 31.834V14.5898L18.1465 14.0273V10.4062H20.8008H26.9707H30.2051V14.0273L26.9707 14.5898V31.2715H33.0527L33.1934 27.7031H37.9043V36H18.1465ZM39.0645 36V32.3965L41.3145 31.834V12.7617L38.6426 12.1992V8.57812H47.4492V31.834L49.2598 32.3965V36H39.0645ZM51.1055 36V32.6426L52.2656 32.2383L52.2305 32.168L49.541 28.2832L53.7246 24.5566L59.0684 31.7637L61.1953 32.3965V36H51.1055ZM46.7285 30.9902L43.5293 28.0371L51.791 20.8828V20.8652L49.8926 20.5488V16.9805H60.8438V20.6016L58.3828 21.3223L46.7285 30.9902ZM76.9805 36V32.3965L79.6523 31.834V15.1875H75.6973L75.5391 17.9473H70.8809V10.4062H94.6641V17.9473H89.9531L89.8125 15.1875H85.8223V31.834L88.4941 32.3965V36H76.9805ZM101.256 36.3691C99.416 36.3691 97.916 35.8477 96.7559 34.8047C95.5957 33.7617 95.0156 32.373 95.0156 30.6387C95.0156 29.4551 95.332 28.4062 95.9648 27.4922C96.6094 26.5781 97.5703 25.8633 98.8477 25.3477C100.137 24.8203 101.748 24.5566 103.682 24.5566H105.668V23.4316C105.668 22.6699 105.451 22.0254 105.018 21.498C104.584 20.959 103.898 20.6895 102.961 20.6895C102.562 20.6895 102.188 20.7422 101.836 20.8477C101.496 20.9414 101.186 21.082 100.904 21.2695L100.482 23.6953H96.1406L96.0527 18.4043C97.1309 17.9238 98.2559 17.5078 99.4277 17.1562C100.611 16.8047 101.93 16.6289 103.383 16.6289C105.973 16.6289 108.029 17.2266 109.553 18.4219C111.076 19.6055 111.838 21.2988 111.838 23.502V30.5156C111.838 30.7852 111.838 31.0488 111.838 31.3066C111.85 31.5645 111.879 31.8105 111.926 32.0449L113.982 32.3965V36H106.775C106.623 35.7891 106.459 35.5078 106.283 35.1562C106.107 34.8047 105.984 34.4531 105.914 34.1016C105.34 34.8164 104.695 35.373 103.98 35.7715C103.266 36.1699 102.357 36.3691 101.256 36.3691ZM103.154 32.0098C103.6 32.0098 104.045 31.9219 104.49 31.7461C104.947 31.5586 105.34 31.2832 105.668 30.9199V28.1777H103.752C102.92 28.1777 102.275 28.3594 101.818 28.7227C101.373 29.0859 101.15 29.5664 101.15 30.1641C101.15 30.7383 101.338 31.1895 101.713 31.5176C102.088 31.8457 102.568 32.0098 103.154 32.0098ZM127.025 36.3691C125.889 36.3691 124.928 36.1465 124.143 35.7012C123.369 35.2441 122.713 34.5879 122.174 33.7324L121.77 36H116.443V12.7617L113.807 12.1992V8.57812H122.596V18.8613C123.111 18.1465 123.744 17.5957 124.494 17.209C125.256 16.8223 126.135 16.6289 127.131 16.6289C128.643 16.6289 129.92 17.0332 130.963 17.8418C132.018 18.6504 132.814 19.7988 133.354 21.2871C133.904 22.7637 134.18 24.5098 134.18 26.5254V26.8945C134.18 28.8164 133.904 30.4922 133.354 31.9219C132.814 33.3398 132.012 34.4355 130.945 35.209C129.891 35.9824 128.584 36.3691 127.025 36.3691ZM125.057 31.6406C126.17 31.6406 126.943 31.248 127.377 30.4629C127.822 29.6777 128.045 28.4883 128.045 26.8945V26.5254C128.045 25.4238 127.945 24.4922 127.746 23.7305C127.559 22.957 127.254 22.3711 126.832 21.9727C126.41 21.5625 125.848 21.3574 125.145 21.3574C124.57 21.3574 124.061 21.4922 123.615 21.7617C123.182 22.0312 122.842 22.4004 122.596 22.8691V30.5156C122.9 30.9141 123.258 31.2012 123.668 31.377C124.09 31.5527 124.553 31.6406 125.057 31.6406ZM135.604 36V32.3965L137.854 31.834V12.7617L135.182 12.1992V8.57812H144.023V31.834L146.256 32.3965V36H135.604ZM156.486 36.3691C154.623 36.3691 152.994 35.9707 151.6 35.1738C150.217 34.3652 149.139 33.2637 148.365 31.8691C147.604 30.4746 147.223 28.8984 147.223 27.1406V26.4902C147.223 24.5566 147.562 22.8457 148.242 21.3574C148.922 19.8691 149.918 18.709 151.23 17.877C152.543 17.0332 154.154 16.6172 156.064 16.6289C157.787 16.6289 159.24 16.9629 160.424 17.6309C161.619 18.2871 162.527 19.2598 163.148 20.5488C163.77 21.8262 164.08 23.4023 164.08 25.2773V28.459H153.621L153.604 28.582C153.697 29.1797 153.896 29.7129 154.201 30.1816C154.518 30.6387 154.951 31.002 155.502 31.2715C156.053 31.541 156.732 31.6758 157.541 31.6758C158.338 31.6758 159.117 31.5879 159.879 31.4121C160.652 31.2246 161.467 30.9316 162.322 30.5332L163.729 34.2598C162.873 34.8691 161.83 35.373 160.6 35.7715C159.369 36.1699 157.998 36.3691 156.486 36.3691ZM153.621 24.6445H158.455V24.1875C158.455 23.5078 158.385 22.9395 158.244 22.4824C158.115 22.0254 157.887 21.6797 157.559 21.4453C157.23 21.2109 156.779 21.0938 156.205 21.0938C155.584 21.0938 155.086 21.2461 154.711 21.5508C154.348 21.8438 154.078 22.2539 153.902 22.7812C153.738 23.2969 153.621 23.8887 153.551 24.5566L153.621 24.6445ZM174.662 36.3691C173.162 36.3691 171.762 36.2344 170.461 35.9648C169.172 35.6836 168.006 35.3027 166.963 34.8223L166.893 28.8984H171.059L171.762 31.6582C172.008 31.8105 172.324 31.9453 172.711 32.0625C173.098 32.168 173.561 32.2207 174.1 32.2207C175.096 32.2207 175.781 32.0859 176.156 31.8164C176.531 31.5469 176.719 31.207 176.719 30.7969C176.719 30.3984 176.502 30.0352 176.068 29.707C175.646 29.3672 174.738 29.0684 173.344 28.8105C171.117 28.377 169.477 27.6387 168.422 26.5957C167.367 25.541 166.84 24.2285 166.84 22.6582C166.84 21.5918 167.086 20.6074 167.578 19.7051C168.07 18.8027 168.873 18.0762 169.986 17.5254C171.111 16.9629 172.611 16.6816 174.486 16.6816C175.916 16.6816 177.275 16.8047 178.564 17.0508C179.865 17.2969 180.932 17.6074 181.764 17.9824L181.746 23.7129H177.598L177.07 21.252C176.801 21.0645 176.496 20.9238 176.156 20.8301C175.816 20.7363 175.436 20.6895 175.014 20.6895C174.229 20.6895 173.654 20.8301 173.291 21.1113C172.928 21.3926 172.746 21.7559 172.746 22.2012C172.746 22.459 172.822 22.7168 172.975 22.9746C173.139 23.2324 173.455 23.4785 173.924 23.7129C174.393 23.9473 175.078 24.1641 175.98 24.3633C178.148 24.8438 179.777 25.5117 180.867 26.3672C181.969 27.2227 182.52 28.5234 182.52 30.2695C182.52 32.1445 181.846 33.6328 180.498 34.7344C179.162 35.8242 177.217 36.3691 174.662 36.3691Z" fill="white"/>
</g>
<g filter="url(#filter2_d_908_416)">
<path fill-rule="evenodd" clip-rule="evenodd" d="M202.417 83.7557C193.811 75.0541 179.858 75.0541 171.252 83.7557L145.183 110.114C136.577 118.816 136.577 132.924 145.183 141.626C153.789 150.327 167.742 150.327 176.348 141.626L202.417 115.267C211.023 106.565 211.023 92.4573 202.417 83.7557ZM191.637 94.6558C187.902 90.8797 181.847 90.8797 178.113 94.6558L155.964 117.051C152.229 120.827 152.229 126.949 155.964 130.725C159.698 134.502 165.754 134.502 169.488 130.725L191.637 108.331C195.372 104.554 195.372 98.432 191.637 94.6558Z" fill="#129EDA"/>
<path fill-rule="evenodd" clip-rule="evenodd" d="M151.652 125.374C158.868 118.078 169.845 116.9 178.276 121.84L168.998 131.221C168.998 131.221 167.528 132.509 165.764 133.104C165.23 133.283 164.813 133.4 164.491 133.475C164.172 133.501 163.853 133.544 163.537 133.602C163.518 133.601 163.51 133.599 163.51 133.599L163.519 133.606C161.684 133.95 159.931 134.84 158.512 136.275L136.363 158.669C132.628 162.446 132.628 168.568 136.363 172.344C140.098 176.12 146.153 176.12 149.887 172.344L172.036 149.949C173.923 148.041 174.857 145.534 174.837 143.033L186.862 130.986C191.097 139.36 189.749 149.877 182.817 156.886L156.748 183.244C148.142 191.946 134.189 191.946 125.583 183.244C116.977 174.543 116.977 160.435 125.583 151.733L151.652 125.374Z" fill="#2387C0"/>
</g>
<defs>
<filter id="filter0_d_908_416" x="0" y="0" width="201" height="185" filterUnits="userSpaceOnUse" color-interpolation-filters="sRGB">
<feFlood flood-opacity="0" result="BackgroundImageFix"/>
<feColorMatrix in="SourceAlpha" type="matrix" values="0 0 0 0 0 0 0 0 0 0 0 0 0 0 0 0 0 0 127 0" result="hardAlpha"/>
<feOffset dy="4"/>
<feGaussianBlur stdDeviation="2"/>
<feComposite in2="hardAlpha" operator="out"/>
<feColorMatrix type="matrix" values="0 0 0 0 0 0 0 0 0 0 0 0 0 0 0 0 0 0 0.25 0"/>
<feBlend mode="normal" in2="BackgroundImageFix" result="effect1_dropShadow_908_416"/>
<feBlend mode="normal" in="SourceGraphic" in2="effect1_dropShadow_908_416" result="shape"/>
</filter>
<filter id="filter1_d_908_416" x="14.1465" y="8.57812" width="172.373" height="35.791" filterUnits="userSpaceOnUse" color-interpolation-filters="sRGB">
<feFlood flood-opacity="0" result="BackgroundImageFix"/>
<feColorMatrix in="SourceAlpha" type="matrix" values="0 0 0 0 0 0 0 0 0 0 0 0 0 0 0 0 0 0 127 0" result="hardAlpha"/>
<feOffset dy="4"/>
<feGaussianBlur stdDeviation="2"/>
<feComposite in2="hardAlpha" operator="out"/>
<feColorMatrix type="matrix" values="0 0 0 0 0 0 0 0 0 0 0 0 0 0 0 0 0 0 0.25 0"/>
<feBlend mode="normal" in2="BackgroundImageFix" result="effect1_dropShadow_908_416"/>
<feBlend mode="normal" in="SourceGraphic" in2="effect1_dropShadow_908_416" result="shape"/>
</filter>
<filter id="filter2_d_908_416" x="106" y="68" width="116" height="139" filterUnits="userSpaceOnUse" color-interpolation-filters="sRGB">
<feFlood flood-opacity="0" result="BackgroundImageFix"/>
<feColorMatrix in="SourceAlpha" type="matrix" values="0 0 0 0 0 0 0 0 0 0 0 0 0 0 0 0 0 0 127 0" result="hardAlpha"/>
<feOffset dy="4"/>
<feGaussianBlur stdDeviation="2"/>
<feComposite in2="hardAlpha" operator="out"/>
<feColorMatrix type="matrix" values="0 0 0 0 0 0 0 0 0 0 0 0 0 0 0 0 0 0 0.25 0"/>
<feBlend mode="normal" in2="BackgroundImageFix" result="effect1_dropShadow_908_416"/>
<feBlend mode="normal" in="SourceGraphic" in2="effect1_dropShadow_908_416" result="shape"/>
</filter>
</defs>
</svg>
