<svg width="307" height="307" viewBox="0 0 307 307" fill="none" xmlns="http://www.w3.org/2000/svg">
<g filter="url(#filter0_d_6_362)">
<path fill-rule="evenodd" clip-rule="evenodd" d="M9 0C6.23858 0 4 2.23857 4 4.99999V294C4 296.761 6.23857 299 8.99999 299H298C300.761 299 303 296.761 303 294V98.9573L192.338 6.95164e-06L298.005 2.3328e-06C298.003 7.77717e-07 298.002 0 298 0H9Z" fill="#FFED58"/>
<mask id="mask0_6_362" style="mask-type:alpha" maskUnits="userSpaceOnUse" x="4" y="0" width="299" height="299">
<path fill-rule="evenodd" clip-rule="evenodd" d="M9 0C6.23858 0 4 2.23857 4 4.99999V294C4 296.761 6.23857 299 8.99999 299H298C300.761 299 303 296.761 303 294V98.9573L192.338 6.95164e-06L298.005 2.3328e-06C298.003 7.77717e-07 298.002 0 298 0H9Z" fill="#FFED58"/>
</mask>
<g mask="url(#mask0_6_362)">
<g filter="url(#filter1_f_6_362)">
<path d="M14.6406 308.976L295.552 -3.19214L326.941 304.852L41.242 327.597L14.6406 308.976Z" fill="#FBD734"/>
</g>
</g>
<g filter="url(#filter2_d_6_362)">
<path d="M288 85.5C288 85.5 290 88.5001 280.5 89.5001C271 90.5001 216.2 113 216.2 113L193.5 2L288 85.5Z" fill="#F7A724"/>
</g>
<path d="M303 98.9574C303 98.9574 296.084 90.9769 281.187 90.9769C266.29 90.9769 215.215 114.386 215.215 114.386L192.338 4.83719e-06L303 98.9574Z" fill="#F7A724"/>
</g>
<defs>
<filter id="filter0_d_6_362" x="0" y="0" width="307" height="307" filterUnits="userSpaceOnUse" color-interpolation-filters="sRGB">
<feFlood flood-opacity="0" result="BackgroundImageFix"/>
<feColorMatrix in="SourceAlpha" type="matrix" values="0 0 0 0 0 0 0 0 0 0 0 0 0 0 0 0 0 0 127 0" result="hardAlpha"/>
<feOffset dy="4"/>
<feGaussianBlur stdDeviation="2"/>
<feComposite in2="hardAlpha" operator="out"/>
<feColorMatrix type="matrix" values="0 0 0 0 0 0 0 0 0 0 0 0 0 0 0 0 0 0 0.25 0"/>
<feBlend mode="normal" in2="BackgroundImageFix" result="effect1_dropShadow_6_362"/>
<feBlend mode="normal" in="SourceGraphic" in2="effect1_dropShadow_6_362" result="shape"/>
</filter>
<filter id="filter1_f_6_362" x="-35.3594" y="-53.1921" width="412.301" height="430.789" filterUnits="userSpaceOnUse" color-interpolation-filters="sRGB">
<feFlood flood-opacity="0" result="BackgroundImageFix"/>
<feBlend mode="normal" in="SourceGraphic" in2="BackgroundImageFix" result="shape"/>
<feGaussianBlur stdDeviation="25" result="effect1_foregroundBlur_6_362"/>
</filter>
<filter id="filter2_d_6_362" x="189.5" y="2" width="102.676" height="119" filterUnits="userSpaceOnUse" color-interpolation-filters="sRGB">
<feFlood flood-opacity="0" result="BackgroundImageFix"/>
<feColorMatrix in="SourceAlpha" type="matrix" values="0 0 0 0 0 0 0 0 0 0 0 0 0 0 0 0 0 0 127 0" result="hardAlpha"/>
<feOffset dy="4"/>
<feGaussianBlur stdDeviation="2"/>
<feComposite in2="hardAlpha" operator="out"/>
<feColorMatrix type="matrix" values="0 0 0 0 0 0 0 0 0 0 0 0 0 0 0 0 0 0 0.25 0"/>
<feBlend mode="normal" in2="BackgroundImageFix" result="effect1_dropShadow_6_362"/>
<feBlend mode="normal" in="SourceGraphic" in2="effect1_dropShadow_6_362" result="shape"/>
</filter>
</defs>
</svg>
