<svg width="400" height="400" viewBox="0 0 400 400" fill="none" xmlns="http://www.w3.org/2000/svg">
<g filter="url(#filter0_d_6_323)">
<rect x="323.524" y="36.6577" width="251.658" height="324.229" rx="25" transform="rotate(75 323.524 36.6577)" fill="#2387C0"/>
</g>
<g filter="url(#filter1_d_6_323)">
<rect x="362" y="74.6577" width="251" height="325" rx="25" transform="rotate(90 362 74.6577)" fill="#EBEBEB"/>
</g>
<path d="M37 116H362V141H37V116Z" fill="black"/>
<path d="M106.883 183.422H98.3984V177.07H106.883C108.039 177.07 108.977 176.875 109.695 176.484C110.414 176.094 110.938 175.555 111.266 174.867C111.609 174.164 111.781 173.375 111.781 172.5C111.781 171.562 111.609 170.695 111.266 169.898C110.938 169.102 110.414 168.461 109.695 167.977C108.977 167.477 108.039 167.227 106.883 167.227H101.492V195H93.2656V160.875H106.883C109.617 160.875 111.969 161.375 113.938 162.375C115.922 163.375 117.445 164.75 118.508 166.5C119.57 168.234 120.102 170.219 120.102 172.453C120.102 174.656 119.57 176.578 118.508 178.219C117.445 179.859 115.922 181.141 113.938 182.062C111.969 182.969 109.617 183.422 106.883 183.422ZM134.82 168.047L126.5 195H117.664L130.203 160.875H135.805L134.82 168.047ZM141.711 195L133.367 168.047L132.289 160.875H137.961L150.57 195H141.711ZM141.383 182.273V188.625H123.875V182.273H141.383ZM155.75 160.875L162.031 175.688L168.336 160.875H177.195L166.227 182.742V195H157.859V182.742L146.867 160.875H155.75ZM183.781 160.875H190.484L198.102 184.617L205.719 160.875H212.422L200.82 195H195.383L183.781 160.875ZM179.703 160.875H186.641L187.93 187.031V195H179.703V160.875ZM209.562 160.875H216.523V195H208.273V187.031L209.562 160.875ZM245.281 188.672V195H227.094V188.672H245.281ZM230.023 160.875V195H221.797V160.875H230.023ZM242.938 174.422V180.539H227.094V174.422H242.938ZM245.352 160.875V167.227H227.094V160.875H245.352ZM277.156 160.875V195H268.953L256.883 173.766V195H248.656V160.875H256.883L268.953 182.109V160.875H277.156ZM298.18 160.875V195H289.953V160.875H298.18ZM308.445 160.875V167.227H279.922V160.875H308.445Z" fill="#2387C0"/>
<defs>
<filter id="filter0_d_6_323" x="11.9546" y="42.27" width="375.091" height="323.775" filterUnits="userSpaceOnUse" color-interpolation-filters="sRGB">
<feFlood flood-opacity="0" result="BackgroundImageFix"/>
<feColorMatrix in="SourceAlpha" type="matrix" values="0 0 0 0 0 0 0 0 0 0 0 0 0 0 0 0 0 0 127 0" result="hardAlpha"/>
<feOffset dy="4"/>
<feGaussianBlur stdDeviation="2"/>
<feComposite in2="hardAlpha" operator="out"/>
<feColorMatrix type="matrix" values="0 0 0 0 0 0 0 0 0 0 0 0 0 0 0 0 0 0 0.25 0"/>
<feBlend mode="normal" in2="BackgroundImageFix" result="effect1_dropShadow_6_323"/>
<feBlend mode="normal" in="SourceGraphic" in2="effect1_dropShadow_6_323" result="shape"/>
</filter>
<filter id="filter1_d_6_323" x="33" y="74.6577" width="333" height="259" filterUnits="userSpaceOnUse" color-interpolation-filters="sRGB">
<feFlood flood-opacity="0" result="BackgroundImageFix"/>
<feColorMatrix in="SourceAlpha" type="matrix" values="0 0 0 0 0 0 0 0 0 0 0 0 0 0 0 0 0 0 127 0" result="hardAlpha"/>
<feOffset dy="4"/>
<feGaussianBlur stdDeviation="2"/>
<feComposite in2="hardAlpha" operator="out"/>
<feColorMatrix type="matrix" values="0 0 0 0 0 0 0 0 0 0 0 0 0 0 0 0 0 0 0.25 0"/>
<feBlend mode="normal" in2="BackgroundImageFix" result="effect1_dropShadow_6_323"/>
<feBlend mode="normal" in="SourceGraphic" in2="effect1_dropShadow_6_323" result="shape"/>
</filter>
</defs>
</svg>
