<svg width="117" height="116" viewBox="0 0 117 116" fill="none" xmlns="http://www.w3.org/2000/svg">
<path fill-rule="evenodd" clip-rule="evenodd" d="M50 13C50 20.1797 44.1797 26 37 26C29.8203 26 24 20.1797 24 13C24 5.8203 29.8203 0 37 0C44.1797 0 50 5.8203 50 13ZM75.9291 110C75.4439 113.392 72.5265 116 69 116C65.4735 116 62.5561 113.392 62.0709 110H58.0088L58 110L57.9912 110H57.5C55.0147 110 53 107.985 53 105.5C53 105.418 53.0022 105.337 53.0066 105.258C53.0022 105.173 53 105.087 53 105V62H37C36.9998 62 36.9995 62 36.9993 62C38.2708 60.6995 39.7425 59.593 41.3464 58.6969C44.6487 56.8519 48.5756 54.4102 50.9131 52H58C60.7614 52 63 54.2386 63 57L63 102H68.9949H69H69.0051L95.9907 102L96 102L96.0093 102H106.5C108.985 102 111 103.015 111 105.5C111 107.985 108.985 110 106.5 110H102.929C102.444 113.392 99.5265 116 96 116C92.4735 116 89.5561 113.392 89.0709 110L75.9291 110ZM40.2662 43.0387C41.8955 36.8634 38.4952 30.3884 32.3576 28.2891C26.4517 26.2692 20.0682 29.0043 17.3727 34.4522C18.9455 32.4644 21.3093 31.1112 24.0355 30.895C29.2361 30.4827 33.7863 34.3644 34.1986 39.565L34.7005 45.8958L40.1553 43.0947C40.1922 43.0758 40.2292 43.0571 40.2662 43.0387ZM15.338 40.0793L8.01172 61.4995C7.80854 61.8101 7.63631 62.1437 7.5 62.5C7.18474 63.324 6.92216 64.0487 6.70803 64.6877C5.65926 66.5095 5.34343 68.7463 6.01623 70.9121L11.9267 89.9381L1.73435 103.342C-0.880359 106.78 -0.2125 111.688 3.22606 114.302C6.66461 116.917 11.5718 116.249 14.1865 112.811L25.9476 97.3437C26.5702 96.5249 27.0067 95.6229 27.264 94.6883C27.2751 94.6481 27.2859 94.6077 27.2963 94.5671C27.7375 92.857 27.5831 91.0459 26.8749 89.4425L25.3657 83.535L32 88.7747V108C32 112.418 33.5817 116 38 116C42.4183 116 45 112.418 45 108L45.3483 89.6696C45.3522 89.4624 45.3567 89.2542 45.3612 89.0452L45.3612 89.0436C45.3839 87.9827 45.4071 86.9019 45.3647 85.8349C45.6933 83.5812 45.051 81.238 43.5143 79.4555C43.013 78.7846 42.421 78.2512 41.7229 77.8552L31.3977 69.7004C30.6902 70.0279 29.8923 70.239 29 70.3097C23.7994 70.722 17.3595 66.2102 16.9472 61.0095L15.3655 41.0581C15.3394 40.7289 15.3305 40.4024 15.338 40.0793ZM69 46C69 43.2386 71.2386 41 74 41H96C98.7614 41 101 43.2386 101 46V60C101 62.7614 98.7614 65 96 65H74C71.2386 65 69 62.7614 69 60V46ZM74 71C71.2386 71 69 73.2386 69 76V92C69 94.7614 71.2386 97 74 97H112C114.761 97 117 94.7614 117 92V76C117 73.2386 114.761 71 112 71H74Z" fill="#70777A"/>
<rect x="31.1237" y="34.0408" width="31.3798" height="12.6105" rx="6.30525" transform="rotate(85.467 31.1237 34.0408)" fill="#70777A"/>
<rect x="55.5686" y="52.7322" width="34.6326" height="12.6105" rx="6.30525" transform="rotate(152.819 55.5686 52.7322)" fill="#70777A"/>
</svg>
