<svg width="164" height="160" viewBox="0 0 164 160" fill="none" xmlns="http://www.w3.org/2000/svg">
<g filter="url(#filter0_d_9_136)">
<rect x="7" y="4" width="148" height="148" rx="10" fill="#BB9A68"/>
</g>
<g filter="url(#filter1_d_9_136)">
<path d="M4 10C4 4.47715 8.47715 0 14 0H150C155.523 0 160 4.47715 160 10V36H4V10Z" fill="#D0B790"/>
</g>
<path d="M108 95L99.3397 110L116.66 110L108 95ZM106.5 108.5L106.5 125L109.5 125L109.5 108.5L106.5 108.5Z" fill="#463926"/>
<path d="M131 95L122.34 110L139.66 110L131 95ZM129.5 108.5L129.5 125L132.5 125L132.5 108.5L129.5 108.5Z" fill="#463926"/>
<rect x="100" y="130" width="39" height="8" fill="#463926"/>
<defs>
<filter id="filter0_d_9_136" x="3" y="4" width="156" height="156" filterUnits="userSpaceOnUse" color-interpolation-filters="sRGB">
<feFlood flood-opacity="0" result="BackgroundImageFix"/>
<feColorMatrix in="SourceAlpha" type="matrix" values="0 0 0 0 0 0 0 0 0 0 0 0 0 0 0 0 0 0 127 0" result="hardAlpha"/>
<feOffset dy="4"/>
<feGaussianBlur stdDeviation="2"/>
<feComposite in2="hardAlpha" operator="out"/>
<feColorMatrix type="matrix" values="0 0 0 0 0 0 0 0 0 0 0 0 0 0 0 0 0 0 0.25 0"/>
<feBlend mode="normal" in2="BackgroundImageFix" result="effect1_dropShadow_9_136"/>
<feBlend mode="normal" in="SourceGraphic" in2="effect1_dropShadow_9_136" result="shape"/>
</filter>
<filter id="filter1_d_9_136" x="0" y="0" width="164" height="44" filterUnits="userSpaceOnUse" color-interpolation-filters="sRGB">
<feFlood flood-opacity="0" result="BackgroundImageFix"/>
<feColorMatrix in="SourceAlpha" type="matrix" values="0 0 0 0 0 0 0 0 0 0 0 0 0 0 0 0 0 0 127 0" result="hardAlpha"/>
<feOffset dy="4"/>
<feGaussianBlur stdDeviation="2"/>
<feComposite in2="hardAlpha" operator="out"/>
<feColorMatrix type="matrix" values="0 0 0 0 0 0 0 0 0 0 0 0 0 0 0 0 0 0 0.25 0"/>
<feBlend mode="normal" in2="BackgroundImageFix" result="effect1_dropShadow_9_136"/>
<feBlend mode="normal" in="SourceGraphic" in2="effect1_dropShadow_9_136" result="shape"/>
</filter>
</defs>
</svg>
