<svg width="153" height="179" viewBox="0 0 153 179" fill="none" xmlns="http://www.w3.org/2000/svg">
<path d="M59.7677 25.9719C67.6635 13.9133 85.3361 13.9133 93.232 25.9718L116.033 60.7939C124.743 74.0953 115.2 91.75 99.301 91.75H53.6986C37.7995 91.75 28.2569 74.0953 36.9665 60.794L59.7677 25.9719Z" fill="black"/>
<path d="M69.3576 133.119C73.2786 137.121 79.7214 137.121 83.6424 133.119L125.627 90.2746C131.829 83.9462 127.345 73.2755 118.485 73.2755H34.5152C25.655 73.2755 21.1715 83.9462 27.3728 90.2746L69.3576 133.119Z" fill="black"/>
<path d="M56.5001 31L59.0734 45.9651L34.2422 84.4374L26.0001 78L56.5001 31Z" fill="black"/>
<path d="M96.2422 30.5626L93.6688 45.5277L118.5 84L127.5 79L96.2422 30.5626Z" fill="black"/>
<g filter="url(#filter0_d_823_505)">
<path d="M113.673 72.9409C113.673 96.6565 96.743 115.882 75.8591 115.882C54.9752 115.882 38.0455 96.6565 38.0455 72.9409C38.0455 49.2253 54.9752 30 75.8591 30C96.743 30 113.673 49.2253 113.673 72.9409Z" fill="#ACACAC"/>
<path d="M54.9326 117.259L10.7134 141.108C7.81004 142.674 6 145.707 6 149.005V162.027C6 166.983 10.0172 171 14.9727 171H138.027C142.983 171 147 166.983 147 162.027V149.005C147 145.707 145.19 142.674 142.287 141.108L97.3531 116.874C91.2498 121.098 83.8434 123.573 75.8591 123.573C68.1206 123.573 60.9251 121.248 54.9326 117.259Z" fill="#ACACAC"/>
</g>
<g filter="url(#filter1_d_823_505)">
<path d="M54.9326 117.259L10.7134 141.108C7.81004 142.674 6 145.707 6 149.005V162.027C6 166.983 10.0172 171 14.9727 171H138.027C142.983 171 147 166.983 147 162.027V149.005C147 145.707 145.19 142.674 142.287 141.108L97.3531 116.874C91.2498 121.098 83.8434 123.573 75.8591 123.573C68.1206 123.573 60.9251 121.248 54.9326 117.259Z" fill="black"/>
</g>
<g filter="url(#filter2_d_823_505)">
<path d="M109 50L121 77C121 77 99 66 76 66C53 66 29.5 77.5 29.5 77.5L40.5 55.5L53.5 35.5L65 28.5L94 27.5L109 50Z" fill="black"/>
</g>
<path d="M21.6104 171.649H132.987L133.857 176H20.7402L21.6104 171.649Z" fill="#404040"/>
<path d="M23.9194 169.149L21.6025 111.5H132.995L130.678 169.149H23.9194Z" fill="#E5E5E5" stroke="#404040" stroke-width="5"/>
<path d="M79.6569 135.553C83.1769 135.937 85.9929 136.561 88.1049 137.425C90.2489 138.289 91.8009 139.425 92.7609 140.833C93.7209 142.241 94.2009 144.001 94.2009 146.113C94.2009 149.025 93.0169 151.457 90.6489 153.409C88.2809 155.361 85.1129 156.609 81.1449 157.153V160.225C81.1449 160.577 81.0169 160.881 80.7609 161.137C80.5049 161.393 80.2009 161.521 79.8489 161.521H73.4169C73.0649 161.521 72.7609 161.393 72.5049 161.137C72.2489 160.881 72.1209 160.577 72.1209 160.225V157.153C69.3689 156.801 67.0489 156.145 65.1609 155.185C63.3049 154.193 61.9129 153.009 60.9849 151.633C60.0569 150.257 59.5929 148.785 59.5929 147.217C59.5929 146.897 59.6889 146.641 59.8809 146.449C60.1049 146.257 60.3769 146.161 60.6969 146.161H70.5369C71.2089 146.161 71.7529 146.369 72.1689 146.785C72.7129 147.297 73.3209 147.649 73.9929 147.841C74.6649 148.001 75.6089 148.081 76.8249 148.081C79.8649 148.081 81.3849 147.617 81.3849 146.689C81.3849 146.305 81.1769 145.985 80.7609 145.729C80.3769 145.441 79.6729 145.201 78.6489 145.009C77.6569 144.785 76.1849 144.561 74.2329 144.337C69.8489 143.825 66.4889 142.737 64.1529 141.073C61.8169 139.377 60.6489 136.993 60.6489 133.921C60.6489 131.201 61.6729 128.897 63.7209 127.009C65.7689 125.089 68.5689 123.841 72.1209 123.265V119.857C72.1209 119.505 72.2489 119.201 72.5049 118.945C72.7609 118.689 73.0649 118.561 73.4169 118.561H79.8489C80.2009 118.561 80.5049 118.689 80.7609 118.945C81.0169 119.201 81.1449 119.505 81.1449 119.857V123.265C83.6089 123.681 85.7369 124.417 87.5289 125.473C89.3209 126.529 90.6809 127.713 91.6089 129.025C92.5689 130.337 93.0489 131.601 93.0489 132.817C93.0489 133.137 92.9369 133.393 92.7129 133.585C92.5209 133.777 92.2489 133.873 91.8969 133.873H81.5769C81.0009 133.873 80.5049 133.681 80.0889 133.297C79.7369 132.977 79.3209 132.721 78.8409 132.529C78.3609 132.337 77.6249 132.241 76.6329 132.241C74.4889 132.241 73.4169 132.689 73.4169 133.585C73.4169 134.065 73.8329 134.449 74.6649 134.737C75.4969 134.993 77.1609 135.265 79.6569 135.553Z" fill="#490303"/>
<defs>
<filter id="filter0_d_823_505" x="2" y="30" width="149" height="149" filterUnits="userSpaceOnUse" color-interpolation-filters="sRGB">
<feFlood flood-opacity="0" result="BackgroundImageFix"/>
<feColorMatrix in="SourceAlpha" type="matrix" values="0 0 0 0 0 0 0 0 0 0 0 0 0 0 0 0 0 0 127 0" result="hardAlpha"/>
<feOffset dy="4"/>
<feGaussianBlur stdDeviation="2"/>
<feComposite in2="hardAlpha" operator="out"/>
<feColorMatrix type="matrix" values="0 0 0 0 0 0 0 0 0 0 0 0 0 0 0 0 0 0 0.25 0"/>
<feBlend mode="normal" in2="BackgroundImageFix" result="effect1_dropShadow_823_505"/>
<feBlend mode="normal" in="SourceGraphic" in2="effect1_dropShadow_823_505" result="shape"/>
</filter>
<filter id="filter1_d_823_505" x="2" y="30" width="149" height="149" filterUnits="userSpaceOnUse" color-interpolation-filters="sRGB">
<feFlood flood-opacity="0" result="BackgroundImageFix"/>
<feColorMatrix in="SourceAlpha" type="matrix" values="0 0 0 0 0 0 0 0 0 0 0 0 0 0 0 0 0 0 127 0" result="hardAlpha"/>
<feOffset dy="4"/>
<feGaussianBlur stdDeviation="2"/>
<feComposite in2="hardAlpha" operator="out"/>
<feColorMatrix type="matrix" values="0 0 0 0 0 0 0 0 0 0 0 0 0 0 0 0 0 0 0.25 0"/>
<feBlend mode="normal" in2="BackgroundImageFix" result="effect1_dropShadow_823_505"/>
<feBlend mode="normal" in="SourceGraphic" in2="effect1_dropShadow_823_505" result="shape"/>
</filter>
<filter id="filter2_d_823_505" x="19.5" y="25.5" width="111.5" height="70" filterUnits="userSpaceOnUse" color-interpolation-filters="sRGB">
<feFlood flood-opacity="0" result="BackgroundImageFix"/>
<feColorMatrix in="SourceAlpha" type="matrix" values="0 0 0 0 0 0 0 0 0 0 0 0 0 0 0 0 0 0 127 0" result="hardAlpha"/>
<feOffset dy="8"/>
<feGaussianBlur stdDeviation="5"/>
<feComposite in2="hardAlpha" operator="out"/>
<feColorMatrix type="matrix" values="0 0 0 0 0 0 0 0 0 0 0 0 0 0 0 0 0 0 0.5 0"/>
<feBlend mode="normal" in2="BackgroundImageFix" result="effect1_dropShadow_823_505"/>
<feBlend mode="normal" in="SourceGraphic" in2="effect1_dropShadow_823_505" result="shape"/>
</filter>
</defs>
</svg>
