<svg width="121" height="121" viewBox="0 0 121 121" fill="none" xmlns="http://www.w3.org/2000/svg">
<g filter="url(#filter0_d_824_425)">
<path d="M44 5H112V108H9V40C9 20.67 24.67 5 44 5Z" fill="#40B652" stroke="#003A09" stroke-width="10"/>
<g filter="url(#filter1_d_824_425)">
<path d="M35.9219 92V82.3906L43 80.8906V34.9062L35.9219 33.4062V23.75H43H69.1094C74.5469 23.75 79.2656 24.7031 83.2656 26.6094C87.2656 28.5156 90.3438 31.1719 92.5 34.5781C94.6875 37.9531 95.7812 41.8906 95.7812 46.3906C95.7812 50.8906 94.6875 54.8281 92.5 58.2031C90.3438 61.5781 87.2656 64.2031 83.2656 66.0781C79.2656 67.9531 74.5469 68.8906 69.1094 68.8906H59.4531V80.8906L66.5312 82.3906V92H35.9219ZM59.4531 56.2812H69.1094C72.4531 56.2812 74.9844 55.375 76.7031 53.5625C78.4531 51.7188 79.3281 49.3594 79.3281 46.4844C79.3281 43.5156 78.4531 41.0781 76.7031 39.1719C74.9844 37.2656 72.4531 36.3125 69.1094 36.3125H59.4531V56.2812Z" fill="white"/>
</g>
</g>
<defs>
<filter id="filter0_d_824_425" x="0" y="0" width="121" height="121" filterUnits="userSpaceOnUse" color-interpolation-filters="sRGB">
<feFlood flood-opacity="0" result="BackgroundImageFix"/>
<feColorMatrix in="SourceAlpha" type="matrix" values="0 0 0 0 0 0 0 0 0 0 0 0 0 0 0 0 0 0 127 0" result="hardAlpha"/>
<feOffset dy="4"/>
<feGaussianBlur stdDeviation="2"/>
<feColorMatrix type="matrix" values="0 0 0 0 0 0 0 0 0 0 0 0 0 0 0 0 0 0 0.25 0"/>
<feBlend mode="normal" in2="BackgroundImageFix" result="effect1_dropShadow_824_425"/>
<feBlend mode="normal" in="SourceGraphic" in2="effect1_dropShadow_824_425" result="shape"/>
</filter>
<filter id="filter1_d_824_425" x="31.9219" y="23.75" width="67.8594" height="76.25" filterUnits="userSpaceOnUse" color-interpolation-filters="sRGB">
<feFlood flood-opacity="0" result="BackgroundImageFix"/>
<feColorMatrix in="SourceAlpha" type="matrix" values="0 0 0 0 0 0 0 0 0 0 0 0 0 0 0 0 0 0 127 0" result="hardAlpha"/>
<feOffset dy="4"/>
<feGaussianBlur stdDeviation="2"/>
<feComposite in2="hardAlpha" operator="out"/>
<feColorMatrix type="matrix" values="0 0 0 0 0 0 0 0 0 0 0 0 0 0 0 0 0 0 0.25 0"/>
<feBlend mode="normal" in2="BackgroundImageFix" result="effect1_dropShadow_824_425"/>
<feBlend mode="normal" in="SourceGraphic" in2="effect1_dropShadow_824_425" result="shape"/>
</filter>
</defs>
</svg>
