<svg width="404" height="404" viewBox="0 0 404 404" fill="none" xmlns="http://www.w3.org/2000/svg">
<g filter="url(#filter0_d_107_263)">
<path d="M202 0L245.559 35.4347L301 26.527L321.006 78.9939L373.473 99L364.565 154.441L400 198L364.565 241.559L373.473 297L321.006 317.006L301 369.473L245.559 360.565L202 396L158.441 360.565L103 369.473L82.9939 317.006L30.527 297L39.4347 241.559L4 198L39.4347 154.441L30.527 99L82.9939 78.9939L103 26.527L158.441 35.4347L202 0Z" fill="#129EDA"/>
</g>
<path fill-rule="evenodd" clip-rule="evenodd" d="M245.559 35.4347L202 0V396L245.559 360.565L301 369.473L321.006 317.006L373.473 297L364.565 241.559L400 198L364.565 154.441L373.473 99L321.006 78.9939L301 26.527L245.559 35.4347Z" fill="#2387C0"/>
<g filter="url(#filter1_d_107_263)">
<path d="M163.469 286.812L140.688 275.562L240.672 115.531L263.453 126.781L163.469 286.812ZM250.938 304.672C241.094 304.672 232.703 302.844 225.766 299.188C218.922 295.531 213.672 290.516 210.016 284.141C206.359 277.766 204.531 270.547 204.531 262.484V251.797C204.531 243.734 206.312 236.516 209.875 230.141C213.438 223.766 218.641 218.75 225.484 215.094C232.422 211.438 240.812 209.609 250.656 209.609C260.5 209.609 268.797 211.438 275.547 215.094C282.391 218.656 287.594 223.625 291.156 230C294.719 236.375 296.5 243.641 296.5 251.797V262.484C296.5 270.641 294.719 277.906 291.156 284.281C287.688 290.656 282.578 295.672 275.828 299.328C269.078 302.891 260.781 304.672 250.938 304.672ZM250.938 278.516C256.469 278.516 260.172 277.156 262.047 274.438C264.016 271.625 265 267.641 265 262.484V251.797C265 247.391 263.781 243.641 261.344 240.547C258.906 237.453 255.344 235.906 250.656 235.906C245.781 235.906 242.125 237.453 239.688 240.547C237.25 243.641 236.031 247.391 236.031 251.797V262.484C236.031 266.797 237.484 270.547 240.391 273.734C243.297 276.922 246.812 278.516 250.938 278.516ZM153.625 189.5C143.781 189.5 135.391 187.719 128.453 184.156C121.609 180.5 116.406 175.531 112.844 169.25C109.281 162.875 107.5 155.609 107.5 147.453V136.625C107.5 128.469 109.281 121.203 112.844 114.828C116.406 108.453 121.562 103.438 128.312 99.7812C135.156 96.125 143.5 94.2969 153.344 94.2969C163.281 94.2969 171.625 96.125 178.375 99.7812C185.219 103.438 190.375 108.453 193.844 114.828C197.406 121.109 199.188 128.375 199.188 136.625V147.453C199.188 155.609 197.406 162.875 193.844 169.25C190.375 175.531 185.266 180.5 178.516 184.156C171.766 187.719 163.469 189.5 153.625 189.5ZM153.625 163.203C158.125 163.203 161.641 161.703 164.172 158.703C166.703 155.609 167.969 151.859 167.969 147.453V136.625C167.969 132.125 166.703 128.328 164.172 125.234C161.641 122.141 158.031 120.594 153.344 120.594C148.656 120.594 145.047 122.141 142.516 125.234C140.078 128.328 138.859 132.125 138.859 136.625V147.453C138.859 151.953 140.125 155.703 142.656 158.703C145.188 161.703 148.844 163.203 153.625 163.203Z" fill="white"/>
</g>
<defs>
<filter id="filter0_d_107_263" x="0" y="0" width="404" height="404" filterUnits="userSpaceOnUse" color-interpolation-filters="sRGB">
<feFlood flood-opacity="0" result="BackgroundImageFix"/>
<feColorMatrix in="SourceAlpha" type="matrix" values="0 0 0 0 0 0 0 0 0 0 0 0 0 0 0 0 0 0 127 0" result="hardAlpha"/>
<feOffset dy="4"/>
<feGaussianBlur stdDeviation="2"/>
<feComposite in2="hardAlpha" operator="out"/>
<feColorMatrix type="matrix" values="0 0 0 0 0 0 0 0 0 0 0 0 0 0 0 0 0 0 0.25 0"/>
<feBlend mode="normal" in2="BackgroundImageFix" result="effect1_dropShadow_107_263"/>
<feBlend mode="normal" in="SourceGraphic" in2="effect1_dropShadow_107_263" result="shape"/>
</filter>
<filter id="filter1_d_107_263" x="103.5" y="94.2969" width="197" height="218.375" filterUnits="userSpaceOnUse" color-interpolation-filters="sRGB">
<feFlood flood-opacity="0" result="BackgroundImageFix"/>
<feColorMatrix in="SourceAlpha" type="matrix" values="0 0 0 0 0 0 0 0 0 0 0 0 0 0 0 0 0 0 127 0" result="hardAlpha"/>
<feOffset dy="4"/>
<feGaussianBlur stdDeviation="2"/>
<feComposite in2="hardAlpha" operator="out"/>
<feColorMatrix type="matrix" values="0 0 0 0 0 0 0 0 0 0 0 0 0 0 0 0 0 0 0.25 0"/>
<feBlend mode="normal" in2="BackgroundImageFix" result="effect1_dropShadow_107_263"/>
<feBlend mode="normal" in="SourceGraphic" in2="effect1_dropShadow_107_263" result="shape"/>
</filter>
</defs>
</svg>
