<svg width="317" height="333" viewBox="0 0 317 333" fill="none" xmlns="http://www.w3.org/2000/svg">
<path fill-rule="evenodd" clip-rule="evenodd" d="M300 117.1C292.052 126.401 281.742 133.624 270 137.841V283C270 294.046 261.046 303 250 303H66.9866C55.941 303 46.9867 294.046 46.9867 283V266H16.9867V283C16.9867 310.614 39.3724 333 66.9866 333H250C277.614 333 300 310.614 300 283V117.1ZM186.014 33H66.9867C39.3724 33 16.9867 55.3858 16.9867 83V100H46.9867V83C46.9867 71.9543 55.941 63 66.9867 63H175.446C176.673 52.0545 180.389 41.8615 186.014 33ZM0.0480652 207.291L0 148.772L122.745 148.873L122.705 101L229.498 177.623L122.831 254.07L122.793 207.392L0.0480652 207.291Z" fill="#2387C0"/>
<circle cx="246" cy="71" r="63.5" stroke="#2387C0" stroke-width="15"/>
<rect x="235.113" y="28.8733" width="15.62" height="48.7533" fill="#2387C0"/>
<path d="M289.777 94.0683L281.767 106.531L235.283 77.3899L247.279 68.763L289.777 94.0683Z" fill="#2387C0"/>
</svg>
