<svg width="189" height="160" viewBox="0 0 189 160" fill="none" xmlns="http://www.w3.org/2000/svg">
<g filter="url(#filter0_d_819_660)">
<rect x="7" y="4" width="148" height="148" rx="10" fill="#BB9A68"/>
</g>
<g filter="url(#filter1_d_819_660)">
<path d="M4 10C4 4.47715 8.47715 0 14 0H150C155.523 0 160 4.47715 160 10V36H4V10Z" fill="#D0B790"/>
</g>
<path d="M108 95L99.3397 110L116.66 110L108 95ZM106.5 108.5L106.5 125L109.5 125L109.5 108.5L106.5 108.5Z" fill="#463926"/>
<path d="M131 95L122.34 110L139.66 110L131 95ZM129.5 108.5L129.5 125L132.5 125L132.5 108.5L129.5 108.5Z" fill="#463926"/>
<rect x="100" y="130" width="39" height="8" fill="#463926"/>
<g filter="url(#filter2_d_819_660)">
<rect x="21" y="59" width="37" height="57" fill="white"/>
</g>
<rect x="26" y="68" width="27" height="3" fill="#C4C4C4"/>
<rect x="26" y="81" width="27" height="3" fill="#C4C4C4"/>
<rect x="26" y="85" width="27" height="3" fill="#C4C4C4"/>
<rect x="26" y="89" width="27" height="3" fill="#C4C4C4"/>
<rect x="26" y="101" width="27" height="3" fill="#C4C4C4"/>
<rect x="26" y="105" width="27" height="3" fill="#C4C4C4"/>
<g filter="url(#filter3_d_819_660)">
<path d="M185 53L135 24.1325V81.8675L185 53ZM91 58L140 58V48L91 48V58Z" fill="#A10101"/>
</g>
<defs>
<filter id="filter0_d_819_660" x="3" y="4" width="156" height="156" filterUnits="userSpaceOnUse" color-interpolation-filters="sRGB">
<feFlood flood-opacity="0" result="BackgroundImageFix"/>
<feColorMatrix in="SourceAlpha" type="matrix" values="0 0 0 0 0 0 0 0 0 0 0 0 0 0 0 0 0 0 127 0" result="hardAlpha"/>
<feOffset dy="4"/>
<feGaussianBlur stdDeviation="2"/>
<feComposite in2="hardAlpha" operator="out"/>
<feColorMatrix type="matrix" values="0 0 0 0 0 0 0 0 0 0 0 0 0 0 0 0 0 0 0.25 0"/>
<feBlend mode="normal" in2="BackgroundImageFix" result="effect1_dropShadow_819_660"/>
<feBlend mode="normal" in="SourceGraphic" in2="effect1_dropShadow_819_660" result="shape"/>
</filter>
<filter id="filter1_d_819_660" x="0" y="0" width="164" height="44" filterUnits="userSpaceOnUse" color-interpolation-filters="sRGB">
<feFlood flood-opacity="0" result="BackgroundImageFix"/>
<feColorMatrix in="SourceAlpha" type="matrix" values="0 0 0 0 0 0 0 0 0 0 0 0 0 0 0 0 0 0 127 0" result="hardAlpha"/>
<feOffset dy="4"/>
<feGaussianBlur stdDeviation="2"/>
<feComposite in2="hardAlpha" operator="out"/>
<feColorMatrix type="matrix" values="0 0 0 0 0 0 0 0 0 0 0 0 0 0 0 0 0 0 0.25 0"/>
<feBlend mode="normal" in2="BackgroundImageFix" result="effect1_dropShadow_819_660"/>
<feBlend mode="normal" in="SourceGraphic" in2="effect1_dropShadow_819_660" result="shape"/>
</filter>
<filter id="filter2_d_819_660" x="17" y="59" width="45" height="65" filterUnits="userSpaceOnUse" color-interpolation-filters="sRGB">
<feFlood flood-opacity="0" result="BackgroundImageFix"/>
<feColorMatrix in="SourceAlpha" type="matrix" values="0 0 0 0 0 0 0 0 0 0 0 0 0 0 0 0 0 0 127 0" result="hardAlpha"/>
<feOffset dy="4"/>
<feGaussianBlur stdDeviation="2"/>
<feComposite in2="hardAlpha" operator="out"/>
<feColorMatrix type="matrix" values="0 0 0 0 0 0 0 0 0 0 0 0 0 0 0 0 0 0 0.25 0"/>
<feBlend mode="normal" in2="BackgroundImageFix" result="effect1_dropShadow_819_660"/>
<feBlend mode="normal" in="SourceGraphic" in2="effect1_dropShadow_819_660" result="shape"/>
</filter>
<filter id="filter3_d_819_660" x="87" y="24.1326" width="102" height="65.7349" filterUnits="userSpaceOnUse" color-interpolation-filters="sRGB">
<feFlood flood-opacity="0" result="BackgroundImageFix"/>
<feColorMatrix in="SourceAlpha" type="matrix" values="0 0 0 0 0 0 0 0 0 0 0 0 0 0 0 0 0 0 127 0" result="hardAlpha"/>
<feOffset dy="4"/>
<feGaussianBlur stdDeviation="2"/>
<feComposite in2="hardAlpha" operator="out"/>
<feColorMatrix type="matrix" values="0 0 0 0 0 0 0 0 0 0 0 0 0 0 0 0 0 0 0.25 0"/>
<feBlend mode="normal" in2="BackgroundImageFix" result="effect1_dropShadow_819_660"/>
<feBlend mode="normal" in="SourceGraphic" in2="effect1_dropShadow_819_660" result="shape"/>
</filter>
</defs>
</svg>
