<svg width="339" height="314" viewBox="0 0 339 314" fill="none" xmlns="http://www.w3.org/2000/svg">
<path fill-rule="evenodd" clip-rule="evenodd" d="M22 144.138V269.533C22 275.056 26.4771 279.533 32 279.533C32.106 279.533 32.1935 279.449 32.1999 279.344C33.3308 260.776 48.7477 246.067 67.6 246.067C85.5507 246.067 100.387 259.402 102.741 276.707C102.956 278.285 104.257 279.533 105.849 279.533H204.533C210.056 279.533 214.533 275.056 214.533 269.533V97C214.533 91.4772 210.056 87 204.533 87H172.999C172.729 134.543 134.106 173 86.5 173C60.8678 173 37.8395 161.851 22 144.138ZM286.928 116.387C288.521 116.387 290.018 117.146 290.96 118.43L337.872 182.404C338.524 183.293 338.829 184.281 338.848 185.249C338.848 185.274 338.868 185.293 338.893 185.293C338.918 185.293 338.938 185.314 338.938 185.338V269.533C338.938 275.056 334.461 279.533 328.938 279.533H314.596C313.003 279.533 311.702 278.285 311.488 276.707C309.133 259.403 294.297 246.067 276.347 246.067C258.396 246.067 243.56 259.403 241.206 276.707C240.991 278.285 239.69 279.533 238.098 279.533H235.68C230.157 279.533 225.68 275.056 225.68 269.533V185.407L225.679 185.36V121.387C225.679 118.626 227.918 116.387 230.679 116.387H286.928ZM282.529 131C284.193 131 285.748 131.828 286.677 133.209L310.228 168.209C312.463 171.53 310.083 176 306.08 176H254.587C251.825 176 249.587 173.761 249.587 171V136C249.587 133.239 251.825 131 254.587 131H282.529ZM67.6002 313.014C84.9493 313.014 99.0135 298.949 99.0135 281.6C99.0135 264.251 84.9493 250.187 67.6002 250.187C50.2511 250.187 36.1869 264.251 36.1869 281.6C36.1869 298.949 50.2511 313.014 67.6002 313.014ZM276.346 313.014C293.696 313.014 307.76 298.949 307.76 281.6C307.76 264.251 293.696 250.187 276.346 250.187C258.997 250.187 244.933 264.251 244.933 281.6C244.933 298.949 258.997 313.014 276.346 313.014Z" fill="#BAAA92"/>
<circle cx="87" cy="88" r="76" stroke="#BAAA92" stroke-width="20"/>
<rect x="73.8133" y="36.9734" width="18.92" height="59.0533" fill="#BAAA92"/>
<path d="M140.026 115.942L130.323 131.038L74.0189 95.7399L88.5492 85.2904L140.026 115.942Z" fill="#BAAA92"/>
</svg>
