<svg width="300" height="420" viewBox="0 0 300 420" fill="none" xmlns="http://www.w3.org/2000/svg">
<g filter="url(#filter0_d_108_297)">
<mask id="path-1-inside-1_108_297" fill="white">
<path fill-rule="evenodd" clip-rule="evenodd" d="M76 43H24C12.9543 43 4 51.9543 4 63V392C4 403.046 12.9543 412 24 412H276C287.046 412 296 403.046 296 392V63C296 51.9543 287.046 43 276 43H224V83H76V43Z"/>
</mask>
<path fill-rule="evenodd" clip-rule="evenodd" d="M76 43H24C12.9543 43 4 51.9543 4 63V392C4 403.046 12.9543 412 24 412H276C287.046 412 296 403.046 296 392V63C296 51.9543 287.046 43 276 43H224V83H76V43Z" fill="white"/>
<path d="M76 43H86V33H76V43ZM224 43V33H214V43H224ZM224 83V93H234V83H224ZM76 83H66V93H76V83ZM24 53H76V33H24V53ZM14 63C14 57.4772 18.4771 53 24 53V33C7.43146 33 -6 46.4315 -6 63H14ZM14 392V63H-6V392H14ZM24 402C18.4772 402 14 397.523 14 392H-6C-6 408.569 7.43144 422 24 422V402ZM276 402H24V422H276V402ZM286 392C286 397.523 281.523 402 276 402V422C292.569 422 306 408.569 306 392H286ZM286 63V392H306V63H286ZM276 53C281.523 53 286 57.4771 286 63H306C306 46.4315 292.569 33 276 33V53ZM224 53H276V33H224V53ZM214 43V83H234V43H214ZM224 73H76V93H224V73ZM86 83V43H66V83H86Z" fill="#2387C0" mask="url(#path-1-inside-1_108_297)"/>
<path fill-rule="evenodd" clip-rule="evenodd" d="M184.817 36.0444C184.817 36.2409 184.976 36.4012 185.172 36.4012H198C200.761 36.4012 203 38.6398 203 41.4012V68.5163C203 71.2777 200.761 73.5163 198 73.5163H101C98.2386 73.5163 96 71.2777 96 68.5163V41.4012C96 38.6398 98.2386 36.4012 101 36.4012H113.828C114.024 36.4012 114.183 36.2409 114.183 36.0444C114.183 16.1376 129.995 0 149.5 0C169.005 0 184.817 16.1376 184.817 36.0444ZM149.5 57.1C160.894 57.1 170.131 47.6731 170.131 36.0444C170.131 24.4156 160.894 14.9887 149.5 14.9887C138.106 14.9887 128.869 24.4156 128.869 36.0444C128.869 47.6731 138.106 57.1 149.5 57.1Z" fill="#2387C0"/>
</g>
<g filter="url(#filter1_d_108_297)">
<circle cx="86.25" cy="202.95" r="52.25" fill="#129EDA"/>
</g>
<g filter="url(#filter2_d_108_297)">
<path d="M77.7007 237.336C77.7007 236.088 77.4607 235.464 76.9807 235.464L73.6687 237.048C73.6687 236.376 73.2847 235.896 72.5167 235.608L71.3647 235.464C70.5967 235.464 69.6367 235.8 68.4847 236.472C68.2927 235.992 68.0527 235.512 67.7647 235.032C67.4767 234.552 67.2367 234.12 67.0447 233.736C65.7967 231.336 64.5487 228.696 63.3007 225.816C62.1487 222.84 61.0447 220.008 59.9887 217.32C59.0287 214.632 58.2607 212.52 57.6847 210.984C57.3007 209.736 56.8687 207.864 56.3887 205.368C55.9087 202.872 55.4287 199.704 54.9487 195.864C56.0047 196.536 56.8207 196.872 57.3967 196.872C58.0687 196.872 58.6927 195.864 59.2687 193.848C59.5567 194.232 60.0847 194.424 60.8527 194.424C61.4287 194.424 61.8607 194.232 62.1487 193.848L64.4527 190.392L67.0447 191.256H67.1887C67.3807 191.256 67.5727 191.16 67.7647 190.968C67.9567 190.776 68.2447 190.584 68.6287 190.392C69.3967 189.912 69.9727 189.672 70.3567 189.672L70.7887 189.816C73.1887 190.968 74.7247 193.08 75.3967 196.152C77.1247 203.448 78.8527 207.096 80.5807 207.096C82.3087 207.096 84.3247 205.272 86.6287 201.624C87.7807 199.8 88.9327 197.688 90.0847 195.288C91.3327 192.888 92.5807 190.2 93.8287 187.224C94.0207 188.376 94.2127 188.952 94.4047 188.952C94.8847 188.952 95.7007 187.752 96.8527 185.352C98.1007 182.952 100.069 179.64 102.757 175.416C104.293 172.824 106.213 169.896 108.517 166.632C110.917 163.368 113.461 160.008 116.149 156.552C118.837 153.096 121.429 149.832 123.925 146.76C126.517 143.688 128.821 141.048 130.837 138.84C132.853 136.632 134.341 135.192 135.301 134.52C138.949 132.024 141.829 129.624 143.941 127.32C143.845 127.992 143.701 128.616 143.509 129.192C143.413 129.672 143.365 130.008 143.365 130.2C143.365 130.584 143.557 130.776 143.941 130.776L147.973 128.76V129.336C147.973 130.104 148.165 130.488 148.549 130.488C148.837 130.488 149.413 130.056 150.277 129.192C151.141 128.328 151.621 127.704 151.717 127.32L151.429 129.336L156.325 126.456L155.173 129.048C156.709 127.992 157.813 127.464 158.485 127.464C158.869 127.464 159.157 127.704 159.349 128.184C159.541 128.568 159.637 128.952 159.637 129.336C159.637 129.912 159.397 130.584 158.917 131.352C158.437 132.12 157.813 133.032 157.045 134.088C156.469 134.856 155.509 136.008 154.165 137.544C152.917 138.984 150.997 141.144 148.405 144.024C145.813 146.808 142.357 150.696 138.037 155.688C136.885 156.936 135.109 159.144 132.709 162.312C130.309 165.384 127.573 168.984 124.501 173.112C121.525 177.144 118.549 181.224 115.573 185.352C112.597 189.48 109.957 193.224 107.653 196.584C105.349 199.848 103.717 202.296 102.757 203.928L93.8287 219.048C91.9087 222.312 90.3247 225 89.0767 227.112C87.8287 229.128 86.8687 230.52 86.1967 231.288C84.7567 233.016 83.1727 234.552 81.4447 235.896L80.1487 235.176L78.9967 235.896L77.7007 237.336Z" fill="#E4E4E4"/>
</g>
<g filter="url(#filter3_d_108_297)">
<circle cx="86.25" cy="323.95" r="52.25" fill="#129EDA"/>
</g>
<g filter="url(#filter4_d_108_297)">
<path d="M77.7007 358.336C77.7007 357.088 77.4607 356.464 76.9807 356.464L73.6687 358.048C73.6687 357.376 73.2847 356.896 72.5167 356.608L71.3647 356.464C70.5967 356.464 69.6367 356.8 68.4847 357.472C68.2927 356.992 68.0527 356.512 67.7647 356.032C67.4767 355.552 67.2367 355.12 67.0447 354.736C65.7967 352.336 64.5487 349.696 63.3007 346.816C62.1487 343.84 61.0447 341.008 59.9887 338.32C59.0287 335.632 58.2607 333.52 57.6847 331.984C57.3007 330.736 56.8687 328.864 56.3887 326.368C55.9087 323.872 55.4287 320.704 54.9487 316.864C56.0047 317.536 56.8207 317.872 57.3967 317.872C58.0687 317.872 58.6927 316.864 59.2687 314.848C59.5567 315.232 60.0847 315.424 60.8527 315.424C61.4287 315.424 61.8607 315.232 62.1487 314.848L64.4527 311.392L67.0447 312.256H67.1887C67.3807 312.256 67.5727 312.16 67.7647 311.968C67.9567 311.776 68.2447 311.584 68.6287 311.392C69.3967 310.912 69.9727 310.672 70.3567 310.672L70.7887 310.816C73.1887 311.968 74.7247 314.08 75.3967 317.152C77.1247 324.448 78.8527 328.096 80.5807 328.096C82.3087 328.096 84.3247 326.272 86.6287 322.624C87.7807 320.8 88.9327 318.688 90.0847 316.288C91.3327 313.888 92.5807 311.2 93.8287 308.224C94.0207 309.376 94.2127 309.952 94.4047 309.952C94.8847 309.952 95.7007 308.752 96.8527 306.352C98.1007 303.952 100.069 300.64 102.757 296.416C104.293 293.824 106.213 290.896 108.517 287.632C110.917 284.368 113.461 281.008 116.149 277.552C118.837 274.096 121.429 270.832 123.925 267.76C126.517 264.688 128.821 262.048 130.837 259.84C132.853 257.632 134.341 256.192 135.301 255.52C138.949 253.024 141.829 250.624 143.941 248.32C143.845 248.992 143.701 249.616 143.509 250.192C143.413 250.672 143.365 251.008 143.365 251.2C143.365 251.584 143.557 251.776 143.941 251.776L147.973 249.76V250.336C147.973 251.104 148.165 251.488 148.549 251.488C148.837 251.488 149.413 251.056 150.277 250.192C151.141 249.328 151.621 248.704 151.717 248.32L151.429 250.336L156.325 247.456L155.173 250.048C156.709 248.992 157.813 248.464 158.485 248.464C158.869 248.464 159.157 248.704 159.349 249.184C159.541 249.568 159.637 249.952 159.637 250.336C159.637 250.912 159.397 251.584 158.917 252.352C158.437 253.12 157.813 254.032 157.045 255.088C156.469 255.856 155.509 257.008 154.165 258.544C152.917 259.984 150.997 262.144 148.405 265.024C145.813 267.808 142.357 271.696 138.037 276.688C136.885 277.936 135.109 280.144 132.709 283.312C130.309 286.384 127.573 289.984 124.501 294.112C121.525 298.144 118.549 302.224 115.573 306.352C112.597 310.48 109.957 314.224 107.653 317.584C105.349 320.848 103.717 323.296 102.757 324.928L93.8287 340.048C91.9087 343.312 90.3247 346 89.0767 348.112C87.8287 350.128 86.8687 351.52 86.1967 352.288C84.7567 354.016 83.1727 355.552 81.4447 356.896L80.1487 356.176L78.9967 356.896L77.7007 358.336Z" fill="#E4E4E4"/>
</g>
<rect x="171" y="151" width="96" height="24" fill="#C4C4C4"/>
<rect x="154" y="183" width="113" height="24" fill="#C4C4C4"/>
<rect x="171" y="284" width="96" height="24" fill="#C4C4C4"/>
<rect x="191" y="316" width="76" height="24" fill="#C4C4C4"/>
<rect x="148" y="352" width="119" height="24" fill="#C4C4C4"/>
<defs>
<filter id="filter0_d_108_297" x="0" y="0" width="300" height="420" filterUnits="userSpaceOnUse" color-interpolation-filters="sRGB">
<feFlood flood-opacity="0" result="BackgroundImageFix"/>
<feColorMatrix in="SourceAlpha" type="matrix" values="0 0 0 0 0 0 0 0 0 0 0 0 0 0 0 0 0 0 127 0" result="hardAlpha"/>
<feOffset dy="4"/>
<feGaussianBlur stdDeviation="2"/>
<feComposite in2="hardAlpha" operator="out"/>
<feColorMatrix type="matrix" values="0 0 0 0 0 0 0 0 0 0 0 0 0 0 0 0 0 0 0.25 0"/>
<feBlend mode="normal" in2="BackgroundImageFix" result="effect1_dropShadow_108_297"/>
<feBlend mode="normal" in="SourceGraphic" in2="effect1_dropShadow_108_297" result="shape"/>
</filter>
<filter id="filter1_d_108_297" x="30" y="150.7" width="112.5" height="112.5" filterUnits="userSpaceOnUse" color-interpolation-filters="sRGB">
<feFlood flood-opacity="0" result="BackgroundImageFix"/>
<feColorMatrix in="SourceAlpha" type="matrix" values="0 0 0 0 0 0 0 0 0 0 0 0 0 0 0 0 0 0 127 0" result="hardAlpha"/>
<feOffset dy="4"/>
<feGaussianBlur stdDeviation="2"/>
<feComposite in2="hardAlpha" operator="out"/>
<feColorMatrix type="matrix" values="0 0 0 0 0 0 0 0 0 0 0 0 0 0 0 0 0 0 0.25 0"/>
<feBlend mode="normal" in2="BackgroundImageFix" result="effect1_dropShadow_108_297"/>
<feBlend mode="normal" in="SourceGraphic" in2="effect1_dropShadow_108_297" result="shape"/>
</filter>
<filter id="filter2_d_108_297" x="50.9487" y="126.456" width="112.688" height="118.88" filterUnits="userSpaceOnUse" color-interpolation-filters="sRGB">
<feFlood flood-opacity="0" result="BackgroundImageFix"/>
<feColorMatrix in="SourceAlpha" type="matrix" values="0 0 0 0 0 0 0 0 0 0 0 0 0 0 0 0 0 0 127 0" result="hardAlpha"/>
<feOffset dy="4"/>
<feGaussianBlur stdDeviation="2"/>
<feComposite in2="hardAlpha" operator="out"/>
<feColorMatrix type="matrix" values="0 0 0 0 0 0 0 0 0 0 0 0 0 0 0 0 0 0 0.25 0"/>
<feBlend mode="normal" in2="BackgroundImageFix" result="effect1_dropShadow_108_297"/>
<feBlend mode="normal" in="SourceGraphic" in2="effect1_dropShadow_108_297" result="shape"/>
</filter>
<filter id="filter3_d_108_297" x="30" y="271.7" width="112.5" height="112.5" filterUnits="userSpaceOnUse" color-interpolation-filters="sRGB">
<feFlood flood-opacity="0" result="BackgroundImageFix"/>
<feColorMatrix in="SourceAlpha" type="matrix" values="0 0 0 0 0 0 0 0 0 0 0 0 0 0 0 0 0 0 127 0" result="hardAlpha"/>
<feOffset dy="4"/>
<feGaussianBlur stdDeviation="2"/>
<feComposite in2="hardAlpha" operator="out"/>
<feColorMatrix type="matrix" values="0 0 0 0 0 0 0 0 0 0 0 0 0 0 0 0 0 0 0.25 0"/>
<feBlend mode="normal" in2="BackgroundImageFix" result="effect1_dropShadow_108_297"/>
<feBlend mode="normal" in="SourceGraphic" in2="effect1_dropShadow_108_297" result="shape"/>
</filter>
<filter id="filter4_d_108_297" x="50.9487" y="247.456" width="112.688" height="118.88" filterUnits="userSpaceOnUse" color-interpolation-filters="sRGB">
<feFlood flood-opacity="0" result="BackgroundImageFix"/>
<feColorMatrix in="SourceAlpha" type="matrix" values="0 0 0 0 0 0 0 0 0 0 0 0 0 0 0 0 0 0 127 0" result="hardAlpha"/>
<feOffset dy="4"/>
<feGaussianBlur stdDeviation="2"/>
<feComposite in2="hardAlpha" operator="out"/>
<feColorMatrix type="matrix" values="0 0 0 0 0 0 0 0 0 0 0 0 0 0 0 0 0 0 0.25 0"/>
<feBlend mode="normal" in2="BackgroundImageFix" result="effect1_dropShadow_108_297"/>
<feBlend mode="normal" in="SourceGraphic" in2="effect1_dropShadow_108_297" result="shape"/>
</filter>
</defs>
</svg>
