<svg width="127" height="138" viewBox="0 0 127 138" fill="none" xmlns="http://www.w3.org/2000/svg">
<g filter="url(#filter0_d_824_422)">
<circle cx="56.25" cy="76.95" r="47.25" fill="white" stroke="#2387C0" stroke-width="10"/>
<g filter="url(#filter1_d_824_422)">
<path d="M52.3003 99.752C52.3003 98.78 52.1923 98.348 51.7603 98.348L49.2763 99.536C49.2763 98.996 48.9523 98.672 48.4123 98.456L47.5483 98.348C46.7923 98.348 46.4683 98.456 45.3883 99.104C45.0643 98.456 44.6323 97.7 44.3083 97.052C41.5003 91.652 38.5843 83.552 37.2883 79.988C36.6403 78.152 35.9923 74.372 35.2363 68.648C36.1003 69.188 36.7483 69.404 37.0723 69.404C37.5043 69.404 38.0443 68.648 38.4763 67.136C38.6923 67.46 39.1243 67.568 39.6643 67.568C39.9883 67.568 40.4203 67.46 40.6363 67.136L42.3643 64.544L44.3083 65.192H44.4163C44.6323 65.192 44.9563 64.868 45.4963 64.544C46.0363 64.22 46.4683 64.004 46.7923 64.004L47.1163 64.112C48.8443 64.976 50.0323 66.488 50.5723 68.864C51.8683 74.372 53.0563 77.072 54.4603 77.072C55.6483 77.072 57.2683 75.668 58.9963 72.968C60.7243 70.268 62.4523 66.596 64.3963 62.168C64.5043 63.032 64.6123 63.464 64.8283 63.464C65.4763 63.464 67.0963 59.684 71.0923 53.312C77.0323 43.7 91.7203 25.232 95.5003 22.64C98.3083 20.696 100.468 18.86 101.98 17.24C101.764 18.32 101.548 19.076 101.548 19.4C101.548 19.724 101.764 19.832 101.98 19.832L105.004 18.32V18.752C105.004 19.292 105.112 19.616 105.436 19.616C105.868 19.616 107.596 17.888 107.812 17.24L107.596 18.752L111.268 16.592L110.404 18.536C111.484 17.78 112.348 17.348 112.888 17.348C113.428 17.348 113.752 18.212 113.752 18.752C113.752 19.616 112.996 20.804 111.808 22.316C110.512 24.044 107.272 27.392 97.5523 38.516C93.3403 43.268 74.6563 68.648 71.0923 74.696L64.3963 86.036C61.4803 90.896 59.6443 94.028 58.6723 95.216C57.7003 96.404 56.5123 97.592 55.1083 98.672L54.1363 98.132L53.2723 98.672L52.3003 99.752Z" fill="#2387C0"/>
<path d="M46.7763 103.503L49.8003 102.057V106.267L54.1586 101.424L54.4107 101.144L55.3304 101.655L56.6326 100.654C58.1975 99.4498 59.5217 98.1259 60.6072 96.7991C61.2189 96.0514 62.0077 94.8225 62.9358 93.3111C63.6407 92.1631 64.4807 90.7603 65.4559 89.1315C65.8004 88.5562 66.1618 87.9527 66.5401 87.3222L66.5446 87.3147L66.5491 87.3071L73.2451 75.9671L73.2462 75.9652C74.9506 73.0728 80.4272 65.3277 86.0953 57.5984C91.7609 49.8726 97.4104 42.445 99.4232 40.1742L99.4291 40.1676L99.4349 40.1609C104.214 34.6918 107.422 31.1075 109.605 28.6682L109.702 28.5598L109.778 28.4748C111.856 26.1528 113.066 24.8009 113.791 23.8392C114.401 23.0612 114.973 22.2774 115.399 21.526C115.8 20.8203 116.252 19.8439 116.252 18.752C116.252 18.0738 116.071 17.3252 115.737 16.6875C115.578 16.384 115.205 15.7809 114.557 15.3479L116.718 10.4859L110.001 14.4371L107.504 15.9056V14.2749L104.858 15.5979L106.158 9.10016L100.153 15.5342C98.7963 16.9875 96.7861 18.7088 94.0813 20.5817C92.8431 21.4326 91.022 23.31 89.0607 25.5111C87.0191 27.8023 84.6122 30.6922 82.15 33.787C77.2414 39.9566 72.0168 47.0616 68.9701 51.9906C67.8901 53.713 66.9794 55.2514 66.2165 56.574L65.7523 52.8603L62.1072 61.163C60.16 65.5983 58.501 69.1042 56.8907 71.6203C56.099 72.8573 55.4022 73.6832 54.8588 74.1694C54.8531 74.1745 54.8474 74.1795 54.8418 74.1845C54.8102 74.1215 54.777 74.0531 54.7424 73.9787C54.2218 72.86 53.6479 71.0187 53.008 68.3002C52.3238 65.3004 50.7169 63.1172 48.2344 61.8759L48.0754 61.7965L47.9069 61.7403L47.5829 61.6323L47.198 61.504H46.7923C46.1216 61.504 45.5592 61.7151 45.2233 61.8621C44.8579 62.022 44.5053 62.2231 44.2101 62.4002C44.165 62.4273 44.1214 62.4541 44.0793 62.4804L43.1549 62.1723L41.3434 61.5684L40.2842 63.1572L39.5563 64.249L37.5577 61.2511L36.1275 66.2568L32.0633 63.7167L32.7579 68.9753C33.5037 74.6221 34.1781 78.6873 34.9309 80.82L34.9348 80.8312L34.9388 80.8423C34.9835 80.9652 35.0303 81.0939 35.079 81.2281C36.4225 84.9261 39.2857 92.8069 42.0814 98.1882C42.2582 98.5408 42.4584 98.9126 42.6376 99.2455L42.6471 99.2632C42.8404 99.6222 43.0104 99.9383 43.1523 100.222L44.3596 102.637L46.6746 101.248C46.71 101.226 46.7439 101.206 46.7763 101.187V103.503ZM35.6624 67.4982C35.6624 67.4981 35.6641 67.4956 35.6676 67.4909C35.6642 67.496 35.6624 67.4983 35.6624 67.4982Z" stroke="white" stroke-width="5"/>
</g>
<path d="M52.3005 99.752C52.3005 98.78 52.1925 98.348 51.7605 98.348L49.2765 99.536C49.2765 98.996 48.9525 98.672 48.4125 98.456L47.5485 98.348C46.7925 98.348 46.4685 98.456 45.3885 99.104C45.0645 98.456 44.6325 97.7 44.3085 97.052C41.5005 91.652 38.5845 83.552 37.2885 79.988C36.6405 78.152 35.9925 74.372 35.2365 68.648C36.1005 69.188 36.7485 69.404 37.0725 69.404C37.5045 69.404 38.0445 68.648 38.4765 67.136C38.6925 67.46 39.1245 67.568 39.6645 67.568C39.9885 67.568 40.4205 67.46 40.6365 67.136L42.3645 64.544L44.3085 65.192H44.4165C44.6325 65.192 44.9565 64.868 45.4965 64.544C46.0365 64.22 46.4685 64.004 46.7925 64.004L47.1165 64.112C48.8445 64.976 50.0325 66.488 50.5725 68.864C51.8685 74.372 53.0565 77.072 54.4605 77.072C55.6485 77.072 57.2685 75.668 58.9965 72.968C60.7245 70.268 62.4525 66.596 64.3965 62.168C64.5045 63.032 64.6125 63.464 64.8285 63.464C65.4765 63.464 67.0965 59.684 71.0925 53.312C77.0325 43.7 91.7205 25.232 95.5005 22.64C98.3085 20.696 100.469 18.86 101.981 17.24C101.765 18.32 101.549 19.076 101.549 19.4C101.549 19.724 101.765 19.832 101.981 19.832L105.005 18.32V18.752C105.005 19.292 105.113 19.616 105.437 19.616C105.869 19.616 107.597 17.888 107.813 17.24L107.597 18.752L111.269 16.592L110.405 18.536C111.485 17.78 112.349 17.348 112.889 17.348C113.429 17.348 113.753 18.212 113.753 18.752C113.753 19.616 112.997 20.804 111.809 22.316C110.513 24.044 107.273 27.392 97.5525 38.516C93.3405 43.268 74.6565 68.648 71.0925 74.696L64.3965 86.036C61.4805 90.896 59.6445 94.028 58.6725 95.216C57.7005 96.404 56.5125 97.592 55.1085 98.672L54.1365 98.132L53.2725 98.672L52.3005 99.752Z" fill="#2387C0"/>
</g>
<defs>
<filter id="filter0_d_824_422" x="0" y="0.960327" width="126.167" height="136.24" filterUnits="userSpaceOnUse" color-interpolation-filters="sRGB">
<feFlood flood-opacity="0" result="BackgroundImageFix"/>
<feColorMatrix in="SourceAlpha" type="matrix" values="0 0 0 0 0 0 0 0 0 0 0 0 0 0 0 0 0 0 127 0" result="hardAlpha"/>
<feOffset dy="4"/>
<feGaussianBlur stdDeviation="2"/>
<feColorMatrix type="matrix" values="0 0 0 0 0 0 0 0 0 0 0 0 0 0 0 0 0 0 0.25 0"/>
<feBlend mode="normal" in2="BackgroundImageFix" result="effect1_dropShadow_824_422"/>
<feBlend mode="normal" in="SourceGraphic" in2="effect1_dropShadow_824_422" result="shape"/>
</filter>
<filter id="filter1_d_824_422" x="24.8901" y="0.960327" width="101.277" height="119.821" filterUnits="userSpaceOnUse" color-interpolation-filters="sRGB">
<feFlood flood-opacity="0" result="BackgroundImageFix"/>
<feColorMatrix in="SourceAlpha" type="matrix" values="0 0 0 0 0 0 0 0 0 0 0 0 0 0 0 0 0 0 127 0" result="hardAlpha"/>
<feOffset dy="4"/>
<feGaussianBlur stdDeviation="2"/>
<feComposite in2="hardAlpha" operator="out"/>
<feColorMatrix type="matrix" values="0 0 0 0 0 0 0 0 0 0 0 0 0 0 0 0 0 0 0.25 0"/>
<feBlend mode="normal" in2="BackgroundImageFix" result="effect1_dropShadow_824_422"/>
<feBlend mode="normal" in="SourceGraphic" in2="effect1_dropShadow_824_422" result="shape"/>
</filter>
</defs>
</svg>
