<svg width="609" height="609" viewBox="0 0 609 609" fill="none" xmlns="http://www.w3.org/2000/svg">
<g filter="url(#filter0_d_819_606)">
<circle cx="304.5" cy="300.5" r="300.5" fill="#5A5D5F"/>
</g>
<g filter="url(#filter1_d_819_606)">
<g filter="url(#filter2_d_819_606)">
<path d="M157 234C157 172.144 207.144 122 269 122H319C393.006 122 453 181.994 453 256V371C453 432.856 402.856 483 341 483H291C216.994 483 157 423.006 157 349V234Z" fill="white"/>
</g>
<path fill-rule="evenodd" clip-rule="evenodd" d="M236.217 120.04C183.75 120.04 141.217 162.573 141.217 215.04V328.758C141.217 354.597 151.533 378.027 168.271 395.153V212.081C168.271 176.182 197.373 147.081 233.271 147.081H416.632C399.507 130.351 376.083 120.04 350.251 120.04H236.217Z" fill="#2C6281"/>
<path d="M156.619 424.812L114.514 351.967L198.724 351.967L156.619 424.812Z" fill="#2C6281"/>
<path fill-rule="evenodd" clip-rule="evenodd" d="M373.783 483.96C426.25 483.96 468.783 441.427 468.783 388.96L468.783 275.242C468.783 249.403 458.467 225.973 441.729 208.846L441.729 391.919C441.729 427.818 412.627 456.919 376.729 456.919L193.368 456.919C210.493 473.649 233.917 483.96 259.749 483.96L373.783 483.96Z" fill="#2C6281"/>
<path d="M453.381 179.188L495.486 252.033L411.276 252.033L453.381 179.188Z" fill="#2C6281"/>
</g>
<g filter="url(#filter3_d_819_606)">
<path d="M296.562 435.656V407.391C284.281 406.172 273.312 402.938 263.656 397.688C254 392.438 246.406 385.031 240.875 375.469C235.438 365.812 232.812 353.859 233 339.609L233.281 338.906H281.516C281.516 346.5 282.641 352.688 284.891 357.469C287.141 362.156 290.234 365.625 294.172 367.875C298.109 370.031 302.656 371.109 307.812 371.109C312.031 371.109 315.547 370.266 318.359 368.578C321.172 366.797 323.281 364.359 324.688 361.266C326.094 358.172 326.797 354.609 326.797 350.578C326.797 345.797 326.047 341.766 324.547 338.484C323.141 335.203 320.75 332.297 317.375 329.766C314.094 327.141 309.547 324.562 303.734 322.031C289.109 316.219 277.062 310.406 267.594 304.594C258.219 298.781 251.281 291.984 246.781 284.203C242.281 276.422 240.031 266.672 240.031 254.953C240.031 239.016 245.422 225.938 256.203 215.719C266.984 205.406 281.375 199.406 299.375 197.719V168.047H321.875V198.422C338.75 200.953 352.109 207.891 361.953 219.234C371.891 230.578 376.719 245.062 376.438 262.688L376.859 263.812H328.062C328.062 253.781 326.141 246.375 322.297 241.594C318.547 236.719 313.625 234.281 307.531 234.281C301.25 234.281 296.609 236.25 293.609 240.188C290.609 244.125 289.109 249.234 289.109 255.516C289.109 259.641 289.766 263.25 291.078 266.344C292.484 269.344 294.875 272.109 298.25 274.641C301.625 277.172 306.266 279.75 312.172 282.375C326.609 288.656 338.562 294.797 348.031 300.797C357.5 306.797 364.531 313.688 369.125 321.469C373.812 329.156 376.156 338.766 376.156 350.297C376.156 366.516 371 379.594 360.688 389.531C350.375 399.469 336.547 405.328 319.203 407.109V435.656H296.562Z" fill="#2387C0"/>
</g>
<g filter="url(#filter4_d_819_606)">
<path d="M91.7344 446.344C73.4531 441.094 60.4219 432.844 52.6406 421.594C44.9531 410.438 41.1094 396.797 41.1094 380.672V352.266C41.1094 343.734 39.2812 337.125 35.625 332.438C32.0625 327.75 26.4375 325.406 18.75 325.406V292.359C26.4375 292.359 32.0625 290.016 35.625 285.328C39.2812 280.641 41.1094 273.891 41.1094 265.078V236.812C41.1094 220.781 44.9531 207.188 52.6406 196.031C60.4219 184.781 73.4531 176.578 91.7344 171.422L101.016 197.016C94.4531 199.641 89.8594 204.375 87.2344 211.219C84.7031 217.969 83.4375 226.5 83.4375 236.812V265.078C83.4375 274.734 81.2344 283.359 76.8281 290.953C72.5156 298.547 65.9531 304.453 57.1406 308.672C65.9531 313.172 72.5156 319.219 76.8281 326.812C81.2344 334.312 83.4375 342.797 83.4375 352.266V380.672C83.4375 390.891 84.7031 399.422 87.2344 406.266C89.8594 413.109 94.4531 417.891 101.016 420.609L91.7344 446.344Z" fill="#1080AE"/>
</g>
<g filter="url(#filter5_d_819_606)">
<path d="M518.266 446.344C536.547 441.094 549.578 432.844 557.359 421.594C565.047 410.438 568.891 396.797 568.891 380.672V352.266C568.891 343.734 570.719 337.125 574.375 332.438C577.938 327.75 583.562 325.406 591.25 325.406V292.359C583.562 292.359 577.938 290.016 574.375 285.328C570.719 280.641 568.891 273.891 568.891 265.078V236.812C568.891 220.781 565.047 207.188 557.359 196.031C549.578 184.781 536.547 176.578 518.266 171.422L508.984 197.016C515.547 199.641 520.141 204.375 522.766 211.219C525.297 217.969 526.562 226.5 526.562 236.812V265.078C526.562 274.734 528.766 283.359 533.172 290.953C537.484 298.547 544.047 304.453 552.859 308.672C544.047 313.172 537.484 319.219 533.172 326.812C528.766 334.312 526.562 342.797 526.562 352.266V380.672C526.562 390.891 525.297 399.422 522.766 406.266C520.141 413.109 515.547 417.891 508.984 420.609L518.266 446.344Z" fill="#1080AE"/>
</g>
<defs>
<filter id="filter0_d_819_606" x="0" y="0" width="609" height="609" filterUnits="userSpaceOnUse" color-interpolation-filters="sRGB">
<feFlood flood-opacity="0" result="BackgroundImageFix"/>
<feColorMatrix in="SourceAlpha" type="matrix" values="0 0 0 0 0 0 0 0 0 0 0 0 0 0 0 0 0 0 127 0" result="hardAlpha"/>
<feOffset dy="4"/>
<feGaussianBlur stdDeviation="2"/>
<feComposite in2="hardAlpha" operator="out"/>
<feColorMatrix type="matrix" values="0 0 0 0 0 0 0 0 0 0 0 0 0 0 0 0 0 0 0.25 0"/>
<feBlend mode="normal" in2="BackgroundImageFix" result="effect1_dropShadow_819_606"/>
<feBlend mode="normal" in="SourceGraphic" in2="effect1_dropShadow_819_606" result="shape"/>
</filter>
<filter id="filter1_d_819_606" x="104" y="120.04" width="402" height="371.919" filterUnits="userSpaceOnUse" color-interpolation-filters="sRGB">
<feFlood flood-opacity="0" result="BackgroundImageFix"/>
<feColorMatrix in="SourceAlpha" type="matrix" values="0 0 0 0 0 0 0 0 0 0 0 0 0 0 0 0 0 0 127 0" result="hardAlpha"/>
<feOffset dy="4"/>
<feGaussianBlur stdDeviation="2"/>
<feComposite in2="hardAlpha" operator="out"/>
<feColorMatrix type="matrix" values="0 0 0 0 0 0 0 0 0 0 0 0 0 0 0 0 0 0 0.25 0"/>
<feBlend mode="normal" in2="BackgroundImageFix" result="effect1_dropShadow_819_606"/>
<feBlend mode="normal" in="SourceGraphic" in2="effect1_dropShadow_819_606" result="shape"/>
</filter>
<filter id="filter2_d_819_606" x="153" y="122" width="304" height="369" filterUnits="userSpaceOnUse" color-interpolation-filters="sRGB">
<feFlood flood-opacity="0" result="BackgroundImageFix"/>
<feColorMatrix in="SourceAlpha" type="matrix" values="0 0 0 0 0 0 0 0 0 0 0 0 0 0 0 0 0 0 127 0" result="hardAlpha"/>
<feOffset dy="4"/>
<feGaussianBlur stdDeviation="2"/>
<feComposite in2="hardAlpha" operator="out"/>
<feColorMatrix type="matrix" values="0 0 0 0 0 0 0 0 0 0 0 0 0 0 0 0 0 0 0.25 0"/>
<feBlend mode="normal" in2="BackgroundImageFix" result="effect1_dropShadow_819_606"/>
<feBlend mode="normal" in="SourceGraphic" in2="effect1_dropShadow_819_606" result="shape"/>
</filter>
<filter id="filter3_d_819_606" x="228.719" y="168.047" width="152.141" height="275.609" filterUnits="userSpaceOnUse" color-interpolation-filters="sRGB">
<feFlood flood-opacity="0" result="BackgroundImageFix"/>
<feColorMatrix in="SourceAlpha" type="matrix" values="0 0 0 0 0 0 0 0 0 0 0 0 0 0 0 0 0 0 127 0" result="hardAlpha"/>
<feOffset dy="4"/>
<feGaussianBlur stdDeviation="2"/>
<feComposite in2="hardAlpha" operator="out"/>
<feColorMatrix type="matrix" values="0 0 0 0 0 0 0 0 0 0 0 0 0 0 0 0 0 0 0.25 0"/>
<feBlend mode="normal" in2="BackgroundImageFix" result="effect1_dropShadow_819_606"/>
<feBlend mode="normal" in="SourceGraphic" in2="effect1_dropShadow_819_606" result="shape"/>
</filter>
<filter id="filter4_d_819_606" x="14.75" y="171.422" width="90.2656" height="282.922" filterUnits="userSpaceOnUse" color-interpolation-filters="sRGB">
<feFlood flood-opacity="0" result="BackgroundImageFix"/>
<feColorMatrix in="SourceAlpha" type="matrix" values="0 0 0 0 0 0 0 0 0 0 0 0 0 0 0 0 0 0 127 0" result="hardAlpha"/>
<feOffset dy="4"/>
<feGaussianBlur stdDeviation="2"/>
<feComposite in2="hardAlpha" operator="out"/>
<feColorMatrix type="matrix" values="0 0 0 0 0 0 0 0 0 0 0 0 0 0 0 0 0 0 0.25 0"/>
<feBlend mode="normal" in2="BackgroundImageFix" result="effect1_dropShadow_819_606"/>
<feBlend mode="normal" in="SourceGraphic" in2="effect1_dropShadow_819_606" result="shape"/>
</filter>
<filter id="filter5_d_819_606" x="504.984" y="171.422" width="90.2656" height="282.922" filterUnits="userSpaceOnUse" color-interpolation-filters="sRGB">
<feFlood flood-opacity="0" result="BackgroundImageFix"/>
<feColorMatrix in="SourceAlpha" type="matrix" values="0 0 0 0 0 0 0 0 0 0 0 0 0 0 0 0 0 0 127 0" result="hardAlpha"/>
<feOffset dy="4"/>
<feGaussianBlur stdDeviation="2"/>
<feComposite in2="hardAlpha" operator="out"/>
<feColorMatrix type="matrix" values="0 0 0 0 0 0 0 0 0 0 0 0 0 0 0 0 0 0 0.25 0"/>
<feBlend mode="normal" in2="BackgroundImageFix" result="effect1_dropShadow_819_606"/>
<feBlend mode="normal" in="SourceGraphic" in2="effect1_dropShadow_819_606" result="shape"/>
</filter>
</defs>
</svg>
