<svg width="394" height="389" viewBox="0 0 394 389" fill="none" xmlns="http://www.w3.org/2000/svg">
<g filter="url(#filter0_d_109_303)">
<path fill-rule="evenodd" clip-rule="evenodd" d="M128.217 17.0403C75.7501 17.0403 33.2172 59.5732 33.2172 112.04V225.758C33.2172 251.597 43.5332 275.027 60.2714 292.153V109.081C60.2714 73.1822 89.3729 44.0806 125.271 44.0806H308.632C291.507 27.3506 268.083 17.0403 242.251 17.0403H128.217Z" fill="#2C6281"/>
<path d="M48.6189 321.812L6.51367 248.967L90.7241 248.967L48.6189 321.812Z" fill="#2C6281"/>
<path fill-rule="evenodd" clip-rule="evenodd" d="M265.783 380.959C318.25 380.959 360.783 338.427 360.783 285.959L360.783 172.242C360.783 146.403 350.467 122.973 333.729 105.846L333.729 288.919C333.729 324.818 304.627 353.919 268.729 353.919L85.3676 353.919C102.493 370.649 125.917 380.959 151.749 380.959L265.783 380.959Z" fill="#2C6281"/>
<path d="M345.381 76.1882L387.486 149.032L303.276 149.032L345.381 76.1882Z" fill="#2C6281"/>
</g>
<g filter="url(#filter1_d_109_303)">
<path d="M188.562 332.656V304.391C176.281 303.172 165.312 299.938 155.656 294.688C146 289.438 138.406 282.031 132.875 272.469C127.438 262.812 124.812 250.859 125 236.609L125.281 235.906H173.516C173.516 243.5 174.641 249.688 176.891 254.469C179.141 259.156 182.234 262.625 186.172 264.875C190.109 267.031 194.656 268.109 199.812 268.109C204.031 268.109 207.547 267.266 210.359 265.578C213.172 263.797 215.281 261.359 216.688 258.266C218.094 255.172 218.797 251.609 218.797 247.578C218.797 242.797 218.047 238.766 216.547 235.484C215.141 232.203 212.75 229.297 209.375 226.766C206.094 224.141 201.547 221.562 195.734 219.031C181.109 213.219 169.062 207.406 159.594 201.594C150.219 195.781 143.281 188.984 138.781 181.203C134.281 173.422 132.031 163.672 132.031 151.953C132.031 136.016 137.422 122.938 148.203 112.719C158.984 102.406 173.375 96.4062 191.375 94.7188V65.0469H213.875V95.4219C230.75 97.9531 244.109 104.891 253.953 116.234C263.891 127.578 268.719 142.062 268.438 159.688L268.859 160.812H220.062C220.062 150.781 218.141 143.375 214.297 138.594C210.547 133.719 205.625 131.281 199.531 131.281C193.25 131.281 188.609 133.25 185.609 137.188C182.609 141.125 181.109 146.234 181.109 152.516C181.109 156.641 181.766 160.25 183.078 163.344C184.484 166.344 186.875 169.109 190.25 171.641C193.625 174.172 198.266 176.75 204.172 179.375C218.609 185.656 230.562 191.797 240.031 197.797C249.5 203.797 256.531 210.688 261.125 218.469C265.812 226.156 268.156 235.766 268.156 247.297C268.156 263.516 263 276.594 252.688 286.531C242.375 296.469 228.547 302.328 211.203 304.109V332.656H188.562Z" fill="#2387C0"/>
</g>
<defs>
<filter id="filter0_d_109_303" x="-4" y="17.0403" width="402" height="371.919" filterUnits="userSpaceOnUse" color-interpolation-filters="sRGB">
<feFlood flood-opacity="0" result="BackgroundImageFix"/>
<feColorMatrix in="SourceAlpha" type="matrix" values="0 0 0 0 0 0 0 0 0 0 0 0 0 0 0 0 0 0 127 0" result="hardAlpha"/>
<feOffset dy="4"/>
<feGaussianBlur stdDeviation="2"/>
<feComposite in2="hardAlpha" operator="out"/>
<feColorMatrix type="matrix" values="0 0 0 0 0 0 0 0 0 0 0 0 0 0 0 0 0 0 0.25 0"/>
<feBlend mode="normal" in2="BackgroundImageFix" result="effect1_dropShadow_109_303"/>
<feBlend mode="normal" in="SourceGraphic" in2="effect1_dropShadow_109_303" result="shape"/>
</filter>
<filter id="filter1_d_109_303" x="120.719" y="65.0469" width="152.141" height="275.609" filterUnits="userSpaceOnUse" color-interpolation-filters="sRGB">
<feFlood flood-opacity="0" result="BackgroundImageFix"/>
<feColorMatrix in="SourceAlpha" type="matrix" values="0 0 0 0 0 0 0 0 0 0 0 0 0 0 0 0 0 0 127 0" result="hardAlpha"/>
<feOffset dy="4"/>
<feGaussianBlur stdDeviation="2"/>
<feComposite in2="hardAlpha" operator="out"/>
<feColorMatrix type="matrix" values="0 0 0 0 0 0 0 0 0 0 0 0 0 0 0 0 0 0 0.25 0"/>
<feBlend mode="normal" in2="BackgroundImageFix" result="effect1_dropShadow_109_303"/>
<feBlend mode="normal" in="SourceGraphic" in2="effect1_dropShadow_109_303" result="shape"/>
</filter>
</defs>
</svg>
