<svg width="367" height="367" viewBox="0 0 367 367" fill="none" xmlns="http://www.w3.org/2000/svg">
<g filter="url(#filter0_d_7_278)">
<circle cx="183.5" cy="179.5" r="179.5" fill="#E6EBEE"/>
<g filter="url(#filter1_d_7_278)">
<path d="M136.145 128.332C136.145 151.711 119.456 170.664 98.8682 170.664C78.2805 170.664 61.5909 151.711 61.5909 128.332C61.5909 104.953 78.2805 86 98.8682 86C119.456 86 136.145 104.953 136.145 128.332Z" fill="#2387C0"/>
<path d="M78.2385 172.022L34.6466 195.532C31.7844 197.076 30 200.065 30 203.317V216.155C30 221.04 33.9602 225 38.8455 225H160.155C165.04 225 169 221.04 169 216.155V203.317C169 200.065 167.216 197.076 164.353 195.532L120.057 171.642C114.041 175.806 106.739 178.245 98.8682 178.245C91.2395 178.245 84.146 175.954 78.2385 172.022Z" fill="#2387C0"/>
</g>
<g filter="url(#filter2_d_7_278)">
<path d="M302.145 128.332C302.145 151.711 285.456 170.664 264.868 170.664C244.281 170.664 227.591 151.711 227.591 128.332C227.591 104.953 244.281 86 264.868 86C285.456 86 302.145 104.953 302.145 128.332Z" fill="#2387C0"/>
<path d="M244.239 172.022L200.647 195.532C197.784 197.076 196 200.065 196 203.317V216.155C196 221.04 199.96 225 204.845 225H326.155C331.04 225 335 221.04 335 216.155V203.317C335 200.065 333.216 197.076 330.353 195.532L286.057 171.642C280.041 175.806 272.739 178.245 264.868 178.245C257.239 178.245 250.146 175.954 244.239 172.022Z" fill="#2387C0"/>
</g>
<g filter="url(#filter3_d_7_278)">
<path d="M227 159.25C227 187.002 207.189 209.5 182.75 209.5C158.311 209.5 138.5 187.002 138.5 159.25C138.5 131.498 158.311 109 182.75 109C207.189 109 227 131.498 227 159.25Z" fill="#129EDA"/>
<path d="M158.262 211.112L106.516 239.02C103.118 240.853 101 244.401 101 248.262V263.5C101 269.299 105.701 274 111.5 274H255.5C261.299 274 266 269.299 266 263.5V248.262C266 244.401 263.882 240.853 260.484 239.02L207.903 210.661C200.76 215.604 192.093 218.5 182.75 218.5C173.694 218.5 165.274 215.78 158.262 211.112Z" fill="#129EDA"/>
</g>
</g>
<defs>
<filter id="filter0_d_7_278" x="0" y="0" width="367" height="367" filterUnits="userSpaceOnUse" color-interpolation-filters="sRGB">
<feFlood flood-opacity="0" result="BackgroundImageFix"/>
<feColorMatrix in="SourceAlpha" type="matrix" values="0 0 0 0 0 0 0 0 0 0 0 0 0 0 0 0 0 0 127 0" result="hardAlpha"/>
<feOffset dy="4"/>
<feGaussianBlur stdDeviation="2"/>
<feComposite in2="hardAlpha" operator="out"/>
<feColorMatrix type="matrix" values="0 0 0 0 0 0 0 0 0 0 0 0 0 0 0 0 0 0 0.25 0"/>
<feBlend mode="normal" in2="BackgroundImageFix" result="effect1_dropShadow_7_278"/>
<feBlend mode="normal" in="SourceGraphic" in2="effect1_dropShadow_7_278" result="shape"/>
</filter>
<filter id="filter1_d_7_278" x="26" y="86" width="147" height="147" filterUnits="userSpaceOnUse" color-interpolation-filters="sRGB">
<feFlood flood-opacity="0" result="BackgroundImageFix"/>
<feColorMatrix in="SourceAlpha" type="matrix" values="0 0 0 0 0 0 0 0 0 0 0 0 0 0 0 0 0 0 127 0" result="hardAlpha"/>
<feOffset dy="4"/>
<feGaussianBlur stdDeviation="2"/>
<feComposite in2="hardAlpha" operator="out"/>
<feColorMatrix type="matrix" values="0 0 0 0 0 0 0 0 0 0 0 0 0 0 0 0 0 0 0.25 0"/>
<feBlend mode="normal" in2="BackgroundImageFix" result="effect1_dropShadow_7_278"/>
<feBlend mode="normal" in="SourceGraphic" in2="effect1_dropShadow_7_278" result="shape"/>
</filter>
<filter id="filter2_d_7_278" x="192" y="86" width="147" height="147" filterUnits="userSpaceOnUse" color-interpolation-filters="sRGB">
<feFlood flood-opacity="0" result="BackgroundImageFix"/>
<feColorMatrix in="SourceAlpha" type="matrix" values="0 0 0 0 0 0 0 0 0 0 0 0 0 0 0 0 0 0 127 0" result="hardAlpha"/>
<feOffset dy="4"/>
<feGaussianBlur stdDeviation="2"/>
<feComposite in2="hardAlpha" operator="out"/>
<feColorMatrix type="matrix" values="0 0 0 0 0 0 0 0 0 0 0 0 0 0 0 0 0 0 0.25 0"/>
<feBlend mode="normal" in2="BackgroundImageFix" result="effect1_dropShadow_7_278"/>
<feBlend mode="normal" in="SourceGraphic" in2="effect1_dropShadow_7_278" result="shape"/>
</filter>
<filter id="filter3_d_7_278" x="97" y="109" width="173" height="173" filterUnits="userSpaceOnUse" color-interpolation-filters="sRGB">
<feFlood flood-opacity="0" result="BackgroundImageFix"/>
<feColorMatrix in="SourceAlpha" type="matrix" values="0 0 0 0 0 0 0 0 0 0 0 0 0 0 0 0 0 0 127 0" result="hardAlpha"/>
<feOffset dy="4"/>
<feGaussianBlur stdDeviation="2"/>
<feComposite in2="hardAlpha" operator="out"/>
<feColorMatrix type="matrix" values="0 0 0 0 0 0 0 0 0 0 0 0 0 0 0 0 0 0 0.25 0"/>
<feBlend mode="normal" in2="BackgroundImageFix" result="effect1_dropShadow_7_278"/>
<feBlend mode="normal" in="SourceGraphic" in2="effect1_dropShadow_7_278" result="shape"/>
</filter>
</defs>
</svg>
