<svg width="147" height="147" viewBox="0 0 147 147" fill="none" xmlns="http://www.w3.org/2000/svg">
<g filter="url(#filter0_d_819_736)">
<path d="M110.145 42.3318C110.145 65.711 93.4558 84.6636 72.8682 84.6636C52.2805 84.6636 35.5909 65.711 35.5909 42.3318C35.5909 18.9526 52.2805 0 72.8682 0C93.4558 0 110.145 18.9526 110.145 42.3318Z" fill="#129EDA"/>
<path d="M52.2385 86.0215L8.64658 109.532C5.78436 111.076 4 114.065 4 117.317V130.155C4 135.04 7.96025 139 12.8455 139H134.155C139.04 139 143 135.04 143 130.155V117.317C143 114.065 141.216 111.076 138.353 109.532L94.0573 85.6418C88.0406 89.8059 80.7393 92.2455 72.8682 92.2455C65.2395 92.2455 58.146 89.9539 52.2385 86.0215Z" fill="#129EDA"/>
</g>
<defs>
<filter id="filter0_d_819_736" x="0" y="0" width="147" height="147" filterUnits="userSpaceOnUse" color-interpolation-filters="sRGB">
<feFlood flood-opacity="0" result="BackgroundImageFix"/>
<feColorMatrix in="SourceAlpha" type="matrix" values="0 0 0 0 0 0 0 0 0 0 0 0 0 0 0 0 0 0 127 0" result="hardAlpha"/>
<feOffset dy="4"/>
<feGaussianBlur stdDeviation="2"/>
<feComposite in2="hardAlpha" operator="out"/>
<feColorMatrix type="matrix" values="0 0 0 0 0 0 0 0 0 0 0 0 0 0 0 0 0 0 0.25 0"/>
<feBlend mode="normal" in2="BackgroundImageFix" result="effect1_dropShadow_819_736"/>
<feBlend mode="normal" in="SourceGraphic" in2="effect1_dropShadow_819_736" result="shape"/>
</filter>
</defs>
</svg>
