<svg width="205" height="239" viewBox="0 0 205 239" fill="none" xmlns="http://www.w3.org/2000/svg">
<g filter="url(#filter0_d_819_732)">
<path d="M24 5C24 3.34315 25.3431 2 27 2H144.486C145.438 2 146.334 2.45196 146.899 3.21787L169.724 34.1268C169.907 34.3741 170.127 34.5919 170.375 34.7725L199.762 56.1016C200.54 56.666 201 57.5687 201 58.5295V228C201 229.657 199.657 231 198 231H27C25.3432 231 24 229.657 24 228V5Z" fill="white"/>
</g>
<g filter="url(#filter1_d_819_732)">
<path d="M34 32.5C34 28.9101 36.9101 26 40.5 26H146V39H40.5C36.9102 39 34 36.0899 34 32.5Z" fill="#ECECEC"/>
</g>
<g filter="url(#filter2_d_819_732)">
<path d="M34 53C34 50.2386 36.2386 48 39 48H185C187.761 48 190 50.2386 190 53V217C190 219.761 187.761 222 185 222H39C36.2386 222 34 219.761 34 217V53Z" fill="#ECECEC"/>
</g>
<g filter="url(#filter3_d_819_732)">
<path d="M146 57L146 2L201 57L146 57Z" fill="#F2F2F2"/>
</g>
<circle cx="41.5" cy="14.5" r="7.5" fill="#FF0000"/>
<circle cx="59.5" cy="14.5" r="7.5" fill="#FFE600"/>
<circle cx="77.5" cy="14.5" r="7.5" fill="#00FF29"/>
<g filter="url(#filter4_d_819_732)">
<path d="M96.9378 207.133L101.852 185.084L75.3859 200.364L96.9378 207.133Z" fill="url(#paint0_linear_819_732)"/>
<rect x="13.8756" y="93.5117" width="30.2465" height="122.012" transform="rotate(-30 13.8756 93.5117)" fill="url(#paint1_linear_819_732)"/>
<rect x="4.25818" y="76.8537" width="30.2465" height="17.5285" transform="rotate(-30 4.25818 76.8537)" fill="url(#paint2_linear_819_732)"/>
</g>
<defs>
<filter id="filter0_d_819_732" x="20" y="2" width="185" height="237" filterUnits="userSpaceOnUse" color-interpolation-filters="sRGB">
<feFlood flood-opacity="0" result="BackgroundImageFix"/>
<feColorMatrix in="SourceAlpha" type="matrix" values="0 0 0 0 0 0 0 0 0 0 0 0 0 0 0 0 0 0 127 0" result="hardAlpha"/>
<feOffset dy="4"/>
<feGaussianBlur stdDeviation="2"/>
<feComposite in2="hardAlpha" operator="out"/>
<feColorMatrix type="matrix" values="0 0 0 0 0 0 0 0 0 0 0 0 0 0 0 0 0 0 0.25 0"/>
<feBlend mode="normal" in2="BackgroundImageFix" result="effect1_dropShadow_819_732"/>
<feBlend mode="normal" in="SourceGraphic" in2="effect1_dropShadow_819_732" result="shape"/>
</filter>
<filter id="filter1_d_819_732" x="30" y="26" width="120" height="21" filterUnits="userSpaceOnUse" color-interpolation-filters="sRGB">
<feFlood flood-opacity="0" result="BackgroundImageFix"/>
<feColorMatrix in="SourceAlpha" type="matrix" values="0 0 0 0 0 0 0 0 0 0 0 0 0 0 0 0 0 0 127 0" result="hardAlpha"/>
<feOffset dy="4"/>
<feGaussianBlur stdDeviation="2"/>
<feComposite in2="hardAlpha" operator="out"/>
<feColorMatrix type="matrix" values="0 0 0 0 0 0 0 0 0 0 0 0 0 0 0 0 0 0 0.25 0"/>
<feBlend mode="normal" in2="BackgroundImageFix" result="effect1_dropShadow_819_732"/>
<feBlend mode="normal" in="SourceGraphic" in2="effect1_dropShadow_819_732" result="shape"/>
</filter>
<filter id="filter2_d_819_732" x="30" y="48" width="164" height="182" filterUnits="userSpaceOnUse" color-interpolation-filters="sRGB">
<feFlood flood-opacity="0" result="BackgroundImageFix"/>
<feColorMatrix in="SourceAlpha" type="matrix" values="0 0 0 0 0 0 0 0 0 0 0 0 0 0 0 0 0 0 127 0" result="hardAlpha"/>
<feOffset dy="4"/>
<feGaussianBlur stdDeviation="2"/>
<feComposite in2="hardAlpha" operator="out"/>
<feColorMatrix type="matrix" values="0 0 0 0 0 0 0 0 0 0 0 0 0 0 0 0 0 0 0.25 0"/>
<feBlend mode="normal" in2="BackgroundImageFix" result="effect1_dropShadow_819_732"/>
<feBlend mode="normal" in="SourceGraphic" in2="effect1_dropShadow_819_732" result="shape"/>
</filter>
<filter id="filter3_d_819_732" x="140" y="0" width="63" height="63" filterUnits="userSpaceOnUse" color-interpolation-filters="sRGB">
<feFlood flood-opacity="0" result="BackgroundImageFix"/>
<feColorMatrix in="SourceAlpha" type="matrix" values="0 0 0 0 0 0 0 0 0 0 0 0 0 0 0 0 0 0 127 0" result="hardAlpha"/>
<feOffset dx="-2" dy="2"/>
<feGaussianBlur stdDeviation="2"/>
<feComposite in2="hardAlpha" operator="out"/>
<feColorMatrix type="matrix" values="0 0 0 0 0 0 0 0 0 0 0 0 0 0 0 0 0 0 0.15 0"/>
<feBlend mode="normal" in2="BackgroundImageFix" result="effect1_dropShadow_819_732"/>
<feBlend mode="normal" in="SourceGraphic" in2="effect1_dropShadow_819_732" result="shape"/>
</filter>
<filter id="filter4_d_819_732" x="0.258179" y="61.7305" width="115.96" height="162.225" filterUnits="userSpaceOnUse" color-interpolation-filters="sRGB">
<feFlood flood-opacity="0" result="BackgroundImageFix"/>
<feColorMatrix in="SourceAlpha" type="matrix" values="0 0 0 0 0 0 0 0 0 0 0 0 0 0 0 0 0 0 127 0" result="hardAlpha"/>
<feOffset dy="4"/>
<feGaussianBlur stdDeviation="2"/>
<feComposite in2="hardAlpha" operator="out"/>
<feColorMatrix type="matrix" values="0 0 0 0 0 0 0 0 0 0 0 0 0 0 0 0 0 0 0.25 0"/>
<feBlend mode="normal" in2="BackgroundImageFix" result="effect1_dropShadow_819_732"/>
<feBlend mode="normal" in="SourceGraphic" in2="effect1_dropShadow_819_732" result="shape"/>
</filter>
<linearGradient id="paint0_linear_819_732" x1="96.9378" y1="207.133" x2="85.8458" y2="187.921" gradientUnits="userSpaceOnUse">
<stop/>
<stop offset="0.734375" stop-color="#464646"/>
</linearGradient>
<linearGradient id="paint1_linear_819_732" x1="14.6962" y1="139.723" x2="61.1499" y2="140.886" gradientUnits="userSpaceOnUse">
<stop stop-color="#E7C696"/>
<stop offset="1" stop-color="#C69A59"/>
</linearGradient>
<linearGradient id="paint2_linear_819_732" x1="33.8827" y1="85.2529" x2="5.50795" y2="84.9894" gradientUnits="userSpaceOnUse">
<stop stop-color="#D33B3B"/>
<stop offset="1" stop-color="#FC6E6E"/>
</linearGradient>
</defs>
</svg>
