<svg width="302" height="300" viewBox="0 0 302 300" fill="none" xmlns="http://www.w3.org/2000/svg">
<path d="M0.4375 125.75H20.6875L29 154.938C29.4167 156.396 29.75 157.667 30 158.75C30.25 159.792 30.5 160.854 30.75 161.938H31.0625C31.3542 160.854 31.6458 159.792 31.9375 158.75C32.2708 157.667 32.6458 156.396 33.0625 154.938L42 125.75H61.125L69.875 155.25C70.2917 156.625 70.6667 157.854 71 158.938C71.3333 160.021 71.625 161.042 71.875 162H72.1875C72.4375 161 72.6875 159.938 72.9375 158.812C73.2292 157.688 73.5417 156.5 73.875 155.25L82.0625 125.75H100.812L83.5625 183H62.1875L52.3125 152.562C51.9792 151.604 51.6875 150.729 51.4375 149.938C51.2292 149.104 51 148.188 50.75 147.188H50.5C50.25 148.188 50.0208 149.104 49.8125 149.938C49.6042 150.729 49.3542 151.604 49.0625 152.562L39.375 183H17.75L0.4375 125.75ZM100.812 125.75H121.062L129.375 154.938C129.792 156.396 130.125 157.667 130.375 158.75C130.625 159.792 130.875 160.854 131.125 161.938H131.438C131.729 160.854 132.021 159.792 132.312 158.75C132.646 157.667 133.021 156.396 133.438 154.938L142.375 125.75H161.5L170.25 155.25C170.667 156.625 171.042 157.854 171.375 158.938C171.708 160.021 172 161.042 172.25 162H172.562C172.812 161 173.062 159.938 173.312 158.812C173.604 157.688 173.917 156.5 174.25 155.25L182.438 125.75H201.188L183.938 183H162.562L152.688 152.562C152.354 151.604 152.062 150.729 151.812 149.938C151.604 149.104 151.375 148.188 151.125 147.188H150.875C150.625 148.188 150.396 149.104 150.188 149.938C149.979 150.729 149.729 151.604 149.438 152.562L139.75 183H118.125L100.812 125.75ZM201.188 125.75H221.438L229.75 154.938C230.167 156.396 230.5 157.667 230.75 158.75C231 159.792 231.25 160.854 231.5 161.938H231.812C232.104 160.854 232.396 159.792 232.688 158.75C233.021 157.667 233.396 156.396 233.812 154.938L242.75 125.75H261.875L270.625 155.25C271.042 156.625 271.417 157.854 271.75 158.938C272.083 160.021 272.375 161.042 272.625 162H272.938C273.188 161 273.438 159.938 273.688 158.812C273.979 157.688 274.292 156.5 274.625 155.25L282.812 125.75H301.562L284.312 183H262.938L253.062 152.562C252.729 151.604 252.438 150.729 252.188 149.938C251.979 149.104 251.75 148.188 251.5 147.188H251.25C251 148.188 250.771 149.104 250.562 149.938C250.354 150.729 250.104 151.604 249.812 152.562L240.125 183H218.5L201.188 125.75Z" fill="#2387C0"/>
<path fill-rule="evenodd" clip-rule="evenodd" d="M75.7299 74.73C83.0537 53.0054 93.4509 34.7415 105.895 21.708C65.3704 34.8961 33.1222 65.3645 18.6206 104H8.18506C27.6051 43.6604 84.2039 0 151 0C217.796 0 274.395 43.6604 293.815 104H283.379C268.878 65.3645 236.63 34.8961 196.105 21.7081C208.549 34.7415 218.946 53.0053 226.27 74.7299C247.472 81.8775 265.377 91.9523 278.342 104H255.022C248.046 99.9444 240.163 96.3005 231.534 93.1497C232.378 96.7003 233.146 100.319 233.833 104H217.017C216.002 98.341 214.806 92.8515 213.441 87.5587C197.214 83.3752 179.138 80.7714 160 80.1465V104H142V80.1465C122.862 80.7714 104.786 83.3752 88.5587 87.5588C87.1942 92.8516 85.9977 98.3411 84.9832 104H68.1674C68.8545 100.319 69.6218 96.7003 70.4658 93.1497C61.8365 96.3006 53.9539 99.9444 46.9778 104H23.6583C36.6228 91.9523 54.5282 81.8776 75.7299 74.73ZM48.7312 197H24.7507C37.6206 208.605 55.1176 218.321 75.7299 225.27C83.0537 246.995 93.4509 265.259 105.895 278.292C65.7207 265.218 33.6803 235.161 19.0006 197H8.51086C28.2317 256.821 84.5734 300 151 300C217.427 300 273.768 256.821 293.489 197H282.999C268.32 235.161 236.279 265.218 196.105 278.292C208.549 265.259 218.946 246.995 226.27 225.27C246.883 218.321 264.38 208.606 277.25 197H253.269C246.734 200.656 239.448 203.961 231.534 206.85C232.302 203.622 233.006 200.337 233.644 197H216.835C215.86 202.306 214.725 207.461 213.441 212.441C197.214 216.625 179.138 219.229 160 219.854V197H142V219.854C122.862 219.229 104.786 216.625 88.5587 212.441C87.2747 207.461 86.1395 202.306 85.1647 197H68.3562C68.9943 200.337 69.6984 203.622 70.4658 206.85C62.5519 203.961 55.2659 200.656 48.7312 197ZM142 14.8743C139.801 15.0079 137.615 15.1901 135.444 15.4199C118.538 22.9829 103.956 42.6093 94.1497 69.4659C109.05 65.9238 125.151 63.7323 142 63.154V14.8743ZM160 14.8743V63.154C176.849 63.7323 192.95 65.9238 207.85 69.4658C198.044 42.6093 183.462 22.9829 166.556 15.4199C164.385 15.1901 162.199 15.0079 160 14.8743ZM142 236.846C125.151 236.268 109.05 234.076 94.1497 230.534C103.956 257.391 118.538 277.017 135.444 284.58C137.615 284.81 139.801 284.992 142 285.126V236.846ZM160 285.126V236.846C176.849 236.268 192.95 234.076 207.85 230.534C198.044 257.391 183.462 277.017 166.556 284.58C164.385 284.81 162.199 284.992 160 285.126Z" fill="#2387C0"/>
</svg>
