<svg width="409" height="327" viewBox="0 0 409 327" fill="none" xmlns="http://www.w3.org/2000/svg">
<g filter="url(#filter0_d_107_331)">
<path fill-rule="evenodd" clip-rule="evenodd" d="M74.7376 118.442C73.1227 112.991 72.2553 107.215 72.2553 101.235C72.2553 68.0312 98.9944 41.1145 131.979 41.1145C142.077 41.1145 151.589 43.6373 159.929 48.0909C176.715 19.397 208.794 0 245.608 0C297.152 0 339.413 38.0227 343.415 86.3485C379.498 103.004 405 143.855 405 191.609C405 254.16 361.245 304.868 307.271 304.868C284.983 304.868 264.438 296.222 247.997 281.665C233.059 296.113 213.499 304.868 192.09 304.868C172.691 304.868 154.81 297.68 140.511 285.582C126.211 297.68 108.331 304.868 88.9313 304.868C42.0251 304.868 4 262.843 4 211.003C4 164.507 34.5881 125.908 74.7376 118.442Z" fill="url(#paint0_linear_107_331)"/>
<g filter="url(#filter1_d_107_331)">
<path fill-rule="evenodd" clip-rule="evenodd" d="M287.208 134.343C281.279 127.998 271.217 127.998 265.289 134.343L258.074 142.064C255.117 145.228 250.936 146.96 246.607 146.814L236.047 146.457C227.369 146.163 220.255 153.277 220.548 161.955L220.905 172.522C221.052 176.85 219.321 181.03 216.157 183.987L208.433 191.207C202.091 197.135 202.091 207.194 208.433 213.123L216.157 220.343C219.321 223.3 221.052 227.48 220.905 231.807L220.548 242.375C220.255 251.053 227.369 258.166 236.047 257.873L246.607 257.516C250.936 257.369 255.117 259.101 258.074 262.266L265.289 269.986C271.217 276.331 281.279 276.331 287.208 269.986L294.423 262.266C297.38 259.101 301.56 257.369 305.889 257.516L316.45 257.873C325.128 258.166 332.241 251.053 331.948 242.375L331.591 231.807C331.444 227.48 333.176 223.3 336.339 220.343L344.063 213.123C350.406 207.194 350.406 197.135 344.063 191.207L336.339 183.987C333.176 181.03 331.444 176.85 331.591 172.522L331.948 161.955C332.241 153.277 325.128 146.163 316.45 146.457L305.889 146.814C301.56 146.96 297.38 145.228 294.423 142.064L287.208 134.343ZM284.902 168.169C280.187 163.125 272.188 163.125 267.474 168.169C265.122 170.685 261.798 172.062 258.357 171.946C251.457 171.713 245.801 177.371 246.034 184.271C246.15 187.713 244.773 191.038 242.258 193.389C237.213 198.104 237.213 206.104 242.258 210.819C244.773 213.171 246.15 216.496 246.034 219.938C245.801 226.838 251.457 232.496 258.357 232.263C261.798 232.146 265.122 233.523 267.474 236.039C272.188 241.084 280.187 241.084 284.902 236.039C287.253 233.523 290.577 232.146 294.018 232.263C300.918 232.496 306.575 226.838 306.341 219.938C306.225 216.496 307.602 213.171 310.118 210.819C315.162 206.104 315.162 198.104 310.118 193.389C307.602 191.038 306.225 187.713 306.341 184.271C306.575 177.371 300.918 171.713 294.018 171.946C290.577 172.062 287.253 170.685 284.902 168.169Z" fill="white"/>
</g>
<g filter="url(#filter2_d_107_331)">
<path fill-rule="evenodd" clip-rule="evenodd" d="M194.914 114.559C192.626 106.182 183.727 101.491 175.525 104.339L174.055 104.85C169.964 106.27 165.459 105.853 161.698 103.705L160.346 102.933C152.806 98.6276 143.197 101.604 139.412 109.418L138.733 110.82C136.845 114.717 133.364 117.608 129.187 118.749L127.685 119.159C119.31 121.447 114.62 130.347 117.468 138.55L117.979 140.021C119.4 144.112 118.983 148.618 116.836 152.379L116.064 153.731C111.759 161.272 114.736 170.882 122.55 174.668L123.951 175.347C127.848 177.236 130.739 180.717 131.88 184.895L132.29 186.397C134.578 194.773 143.477 199.464 151.679 196.616L153.15 196.106C157.241 194.685 161.746 195.102 165.506 197.25L166.858 198.022C174.398 202.328 184.007 199.351 187.793 191.537L188.472 190.136C190.36 186.238 193.84 183.347 198.017 182.206L199.519 181.796C207.895 179.509 212.584 170.609 209.736 162.405L209.225 160.934C207.805 156.843 208.221 152.338 210.368 148.577L211.14 147.224C215.445 139.684 212.468 130.073 204.654 126.287L203.253 125.608C199.356 123.719 196.465 120.238 195.324 116.06L194.914 114.559ZM180.768 131.458C179.439 126.593 174.27 123.868 169.506 125.522C167.13 126.347 164.513 126.105 162.329 124.858C157.949 122.357 152.368 124.086 150.169 128.625C149.073 130.888 147.051 132.568 144.625 133.23C139.76 134.559 137.036 139.728 138.691 144.493C139.516 146.87 139.273 149.487 138.026 151.671C135.526 156.051 137.255 161.633 141.794 163.833C144.057 164.93 145.736 166.951 146.399 169.378C147.728 174.244 152.897 176.968 157.661 175.314C160.037 174.489 162.654 174.731 164.838 175.979C169.218 178.479 174.799 176.75 176.998 172.212C178.094 169.948 180.116 168.269 182.542 167.606C187.407 166.277 190.131 161.108 188.476 156.343C187.651 153.967 187.893 151.35 189.14 149.165C191.641 144.785 189.912 139.203 185.373 137.004C183.11 135.907 181.431 133.885 180.768 131.458Z" fill="white"/>
</g>
<g filter="url(#filter3_d_107_331)">
<path fill-rule="evenodd" clip-rule="evenodd" d="M275.754 40.373C274.305 31.8112 265.913 26.264 257.47 28.2875L255.956 28.6502C251.745 29.6594 247.303 28.7991 243.773 26.2904L242.504 25.3887C235.426 20.3589 225.57 22.3714 221.031 29.7733L220.217 31.1005C217.953 34.7922 214.204 37.3251 209.935 38.0476L208.4 38.3073C199.839 39.756 194.293 48.1491 196.317 56.5936L196.68 58.1077C197.689 62.3195 196.829 66.7618 194.321 70.2922L193.419 71.5614C188.391 78.6399 190.403 88.4972 197.805 93.0375L199.132 93.8516C202.823 96.1161 205.356 99.8657 206.078 104.136L206.338 105.671C207.787 114.233 216.179 119.78 224.623 117.757L226.136 117.394C230.347 116.385 234.789 117.245 238.319 119.754L239.588 120.655C246.666 125.685 256.522 123.673 261.061 116.271L261.875 114.944C264.139 111.252 267.888 108.719 272.158 107.996L273.693 107.737C282.253 106.288 287.799 97.8948 285.775 89.4504L285.413 87.9363C284.403 83.7245 285.263 79.2822 287.771 75.7518L288.673 74.4825C293.702 67.4041 291.689 57.5468 284.288 53.0065L282.961 52.1924C279.269 49.9279 276.737 46.1783 276.014 41.908L275.754 40.373ZM260.007 55.7917C259.166 50.8187 254.291 47.5967 249.387 48.772C246.941 49.3582 244.361 48.8584 242.311 47.4013C238.2 44.4799 232.475 45.6489 229.839 49.9481C228.524 52.0924 226.346 53.5636 223.866 53.9833C218.894 54.8247 215.673 59.6998 216.848 64.6046C217.434 67.051 216.935 69.6313 215.478 71.6819C212.557 75.7933 213.726 81.5188 218.025 84.156C220.169 85.4713 221.64 87.6492 222.06 90.1295C222.902 95.1025 227.776 98.3245 232.68 97.1492C235.126 96.563 237.706 97.0627 239.757 98.5199C243.868 101.441 249.592 100.272 252.229 95.9731C253.544 93.8288 255.721 92.3576 258.201 91.9379C263.173 91.0965 266.395 86.2214 265.219 81.3166C264.633 78.8702 265.133 76.2899 266.589 74.2393C269.51 70.1279 268.341 64.4024 264.042 61.7652C261.898 60.4499 260.427 58.272 260.007 55.7917Z" fill="white"/>
</g>
</g>
<defs>
<filter id="filter0_d_107_331" x="0" y="0" width="409" height="335" filterUnits="userSpaceOnUse" color-interpolation-filters="sRGB">
<feFlood flood-opacity="0" result="BackgroundImageFix"/>
<feColorMatrix in="SourceAlpha" type="matrix" values="0 0 0 0 0 0 0 0 0 0 0 0 0 0 0 0 0 0 127 0" result="hardAlpha"/>
<feOffset dy="4"/>
<feGaussianBlur stdDeviation="2"/>
<feComposite in2="hardAlpha" operator="out"/>
<feColorMatrix type="matrix" values="0 0 0 0 0 0 0 0 0 0 0 0 0 0 0 0 0 0 0.25 0"/>
<feBlend mode="normal" in2="BackgroundImageFix" result="effect1_dropShadow_107_331"/>
<feBlend mode="normal" in="SourceGraphic" in2="effect1_dropShadow_107_331" result="shape"/>
</filter>
<filter id="filter1_d_107_331" x="199.676" y="129.584" width="153.144" height="153.16" filterUnits="userSpaceOnUse" color-interpolation-filters="sRGB">
<feFlood flood-opacity="0" result="BackgroundImageFix"/>
<feColorMatrix in="SourceAlpha" type="matrix" values="0 0 0 0 0 0 0 0 0 0 0 0 0 0 0 0 0 0 127 0" result="hardAlpha"/>
<feOffset dy="4"/>
<feGaussianBlur stdDeviation="2"/>
<feComposite in2="hardAlpha" operator="out"/>
<feColorMatrix type="matrix" values="0 0 0 0 0 0 0 0 0 0 0 0 0 0 0 0 0 0 0.25 0"/>
<feBlend mode="normal" in2="BackgroundImageFix" result="effect1_dropShadow_107_331"/>
<feBlend mode="normal" in="SourceGraphic" in2="effect1_dropShadow_107_331" result="shape"/>
</filter>
<filter id="filter2_d_107_331" x="110.087" y="100.956" width="107.03" height="107.044" filterUnits="userSpaceOnUse" color-interpolation-filters="sRGB">
<feFlood flood-opacity="0" result="BackgroundImageFix"/>
<feColorMatrix in="SourceAlpha" type="matrix" values="0 0 0 0 0 0 0 0 0 0 0 0 0 0 0 0 0 0 127 0" result="hardAlpha"/>
<feOffset dy="4"/>
<feGaussianBlur stdDeviation="2"/>
<feComposite in2="hardAlpha" operator="out"/>
<feColorMatrix type="matrix" values="0 0 0 0 0 0 0 0 0 0 0 0 0 0 0 0 0 0 0.25 0"/>
<feBlend mode="normal" in2="BackgroundImageFix" result="effect1_dropShadow_107_331"/>
<feBlend mode="normal" in="SourceGraphic" in2="effect1_dropShadow_107_331" result="shape"/>
</filter>
<filter id="filter3_d_107_331" x="186.646" y="22.6139" width="108.801" height="108.816" filterUnits="userSpaceOnUse" color-interpolation-filters="sRGB">
<feFlood flood-opacity="0" result="BackgroundImageFix"/>
<feColorMatrix in="SourceAlpha" type="matrix" values="0 0 0 0 0 0 0 0 0 0 0 0 0 0 0 0 0 0 127 0" result="hardAlpha"/>
<feOffset dy="4"/>
<feGaussianBlur stdDeviation="2"/>
<feComposite in2="hardAlpha" operator="out"/>
<feColorMatrix type="matrix" values="0 0 0 0 0 0 0 0 0 0 0 0 0 0 0 0 0 0 0.25 0"/>
<feBlend mode="normal" in2="BackgroundImageFix" result="effect1_dropShadow_107_331"/>
<feBlend mode="normal" in="SourceGraphic" in2="effect1_dropShadow_107_331" result="shape"/>
</filter>
<linearGradient id="paint0_linear_107_331" x1="204.5" y1="0" x2="204.5" y2="304.868" gradientUnits="userSpaceOnUse">
<stop stop-color="#29B5ED"/>
<stop offset="1" stop-color="#107FAD"/>
</linearGradient>
</defs>
</svg>
