<svg width="440" height="417" viewBox="0 0 440 417" fill="none" xmlns="http://www.w3.org/2000/svg">
<path d="M17.3281 398L6.17188 356.994L0.693359 356.496V349.656H22.5078V356.496L17.1289 357.26L22.4082 378.875L23.1719 381.996H23.3711L24.168 378.842L33.6309 349.656H41.666L51.627 380.203L52.3242 382.295H52.5234L53.0879 380.203L58.7324 357.26L53.1875 356.496V349.656H74.5703V356.496L69.4238 356.994L57.7695 398H47.377L39.043 372.998L38.0137 369.545H37.8145L36.5195 373.197L28.0527 398H17.3281ZM72.8969 398V391.193L77.9105 390.131V357.559L72.8969 356.496V349.656H111.512V363.602H102.713L102.448 358.621H89.5648V368.549H105.004V377.48H89.5648V389.002H103.079L103.344 383.789H112.043V398H72.8969ZM112.993 398V391.193L118.007 390.131V357.559L112.993 356.496V349.656H118.007H134.874C140.961 349.656 145.709 350.774 149.118 353.01C152.527 355.245 154.231 358.577 154.231 363.004C154.231 365.284 153.689 367.331 152.604 369.146C151.52 370.939 149.848 372.301 147.591 373.23C149.516 373.651 151.088 374.37 152.305 375.389C153.523 376.385 154.419 377.602 154.995 379.041C155.57 380.458 155.858 381.996 155.858 383.656C155.858 388.393 154.276 391.968 151.11 394.381C147.945 396.794 143.352 398 137.331 398H112.993ZM129.661 389.135H137.331C139.633 389.135 141.36 388.681 142.511 387.773C143.684 386.866 144.27 385.482 144.27 383.623C144.27 382.229 144.049 381.077 143.606 380.17C143.164 379.24 142.477 378.554 141.548 378.111C140.618 377.646 139.401 377.414 137.895 377.414H129.661V389.135ZM129.661 369.711H134.376C137.121 369.711 139.168 369.279 140.518 368.416C141.891 367.531 142.577 366.169 142.577 364.332C142.577 362.318 141.935 360.857 140.651 359.949C139.389 359.02 137.464 358.555 134.874 358.555H129.661V369.711ZM188.968 398.697C185.028 398.697 181.531 398.321 178.476 397.568C175.421 396.816 172.378 395.399 169.345 393.318V380.768H178.343L179.339 387.209C180.048 388.006 181.298 388.681 183.091 389.234C184.884 389.766 186.843 390.031 188.968 390.031C190.451 390.031 191.691 389.854 192.687 389.5C193.683 389.124 194.436 388.581 194.945 387.873C195.454 387.165 195.709 386.312 195.709 385.316C195.709 384.365 195.465 383.512 194.978 382.76C194.513 382.007 193.739 381.299 192.654 380.635C191.569 379.949 190.108 379.251 188.271 378.543C184.132 377.215 180.734 375.865 178.078 374.492C175.421 373.12 173.44 371.493 172.134 369.611C170.851 367.73 170.209 365.395 170.209 362.605C170.209 359.927 170.972 357.592 172.5 355.6C174.027 353.585 176.13 352.003 178.808 350.852C181.487 349.701 184.552 349.092 188.005 349.025C191.946 348.937 195.432 349.335 198.464 350.221C201.497 351.084 204.175 352.401 206.5 354.172V365.826H197.867L196.505 359.352C195.753 358.975 194.679 358.632 193.285 358.322C191.89 358.012 190.407 357.857 188.836 357.857C187.485 357.857 186.279 358.035 185.216 358.389C184.176 358.743 183.346 359.274 182.726 359.982C182.129 360.691 181.83 361.576 181.83 362.639C181.83 363.502 182.084 364.277 182.593 364.963C183.102 365.627 183.999 366.302 185.283 366.988C186.567 367.652 188.36 368.427 190.662 369.312C196.151 370.928 200.313 372.954 203.146 375.389C206.002 377.801 207.429 381.089 207.429 385.25C207.429 388.105 206.655 390.54 205.105 392.555C203.556 394.547 201.397 396.074 198.63 397.137C195.864 398.177 192.643 398.697 188.968 398.697ZM206.652 398V391.193L211.666 390.131V357.559L206.652 356.496V349.656H245.268V363.602H236.469L236.203 358.621H223.32V368.549H238.76V377.48H223.32V389.002H236.834L237.1 383.789H245.799V398H206.652ZM246.748 398V391.193L251.762 390.131V357.559L246.748 356.496V349.623H270.522C274.351 349.623 277.672 350.232 280.483 351.449C283.294 352.667 285.463 354.404 286.991 356.662C288.518 358.898 289.282 361.554 289.282 364.631C289.282 367.464 288.507 370.098 286.957 372.533C285.43 374.968 283.327 376.927 280.649 378.41C277.97 379.871 274.916 380.59 271.485 380.568L263.416 380.469V390.131L268.43 391.193V398H246.748ZM277.362 398L270.854 379.141L280.981 375.688L286.858 390.064L291.44 391.227V398H277.362ZM263.416 371.537H270.655C272.913 371.537 274.65 371.017 275.868 369.977C277.085 368.914 277.694 367.387 277.694 365.395C277.694 363.336 277.074 361.687 275.834 360.447C274.595 359.186 272.824 358.555 270.522 358.555H263.416V371.537ZM306.268 398L291.128 357.027L286.546 356.496V349.656H308.227V356.496L303.911 357.16L312.577 384.32L313.042 386.213H313.241L313.673 384.42L322.073 357.16L316.893 356.496V349.656H337.147V356.496L332.432 357.027L318.886 398H306.268ZM335.507 398V391.193L340.521 390.131V357.559L335.507 356.496V349.656H357.155V356.496L352.142 357.559V390.131L357.155 391.193V398H335.507ZM380.152 398.697C375.548 398.697 371.442 397.768 367.834 395.908C364.226 394.049 361.392 391.359 359.334 387.84C357.275 384.298 356.246 380.004 356.246 374.957V372.732C356.246 368.084 357.186 363.978 359.068 360.414C360.972 356.828 363.672 354.028 367.17 352.014C370.689 349.977 374.862 348.959 379.687 348.959C383.052 348.959 386.25 349.413 389.283 350.32C392.337 351.206 395.171 352.733 397.783 354.902V367.354H389.316L388.154 360.215C387.401 359.706 386.604 359.263 385.763 358.887C384.944 358.51 384.059 358.223 383.107 358.023C382.177 357.824 381.17 357.725 380.086 357.725C377.629 357.725 375.481 358.311 373.644 359.484C371.807 360.658 370.379 362.362 369.361 364.598C368.365 366.811 367.867 369.501 367.867 372.666V374.957C367.867 377.923 368.387 380.535 369.427 382.793C370.468 385.029 371.918 386.777 373.777 388.039C375.658 389.301 377.828 389.932 380.285 389.932C381.591 389.932 382.919 389.799 384.269 389.533C385.619 389.245 386.925 388.869 388.187 388.404L389.349 381.564H397.849V393.75C395.923 395.078 393.466 396.24 390.478 397.236C387.49 398.21 384.048 398.697 380.152 398.697ZM397.504 398V391.193L402.518 390.131V357.559L397.504 356.496V349.656H436.119V363.602H427.32L427.055 358.621H414.172V368.549H429.611V377.48H414.172V389.002H427.686L427.951 383.789H436.65V398H397.504Z" fill="white"/>
<g filter="url(#filter0_d_817_483)">
<path fill-rule="evenodd" clip-rule="evenodd" d="M90.7376 118.442C89.1227 112.991 88.2553 107.215 88.2553 101.235C88.2553 68.0312 114.994 41.1145 147.979 41.1145C158.077 41.1145 167.589 43.6373 175.929 48.0909C192.715 19.397 224.794 0 261.608 0C313.152 0 355.413 38.0227 359.415 86.3485C395.498 103.004 421 143.855 421 191.609C421 254.16 377.245 304.868 323.271 304.868C300.983 304.868 280.438 296.222 263.997 281.665C249.059 296.113 229.499 304.868 208.09 304.868C188.691 304.868 170.81 297.68 156.511 285.582C142.211 297.68 124.331 304.868 104.931 304.868C58.0251 304.868 20 262.843 20 211.003C20 164.507 50.5881 125.908 90.7376 118.442Z" fill="url(#paint0_linear_817_483)"/>
<g filter="url(#filter1_d_817_483)">
<path fill-rule="evenodd" clip-rule="evenodd" d="M303.208 134.343C297.279 127.998 287.217 127.998 281.289 134.343L274.074 142.064C271.117 145.228 266.936 146.96 262.607 146.814L252.047 146.457C243.369 146.163 236.255 153.277 236.548 161.955L236.905 172.522C237.052 176.85 235.321 181.03 232.157 183.987L224.433 191.207C218.091 197.135 218.091 207.194 224.433 213.123L232.157 220.343C235.321 223.3 237.052 227.48 236.905 231.807L236.548 242.375C236.255 251.053 243.369 258.166 252.047 257.873L262.607 257.516C266.936 257.369 271.117 259.101 274.074 262.266L281.289 269.986C287.217 276.331 297.279 276.331 303.208 269.986L310.423 262.266C313.38 259.101 317.56 257.369 321.889 257.516L332.45 257.873C341.128 258.166 348.241 251.053 347.948 242.375L347.591 231.807C347.444 227.48 349.176 223.3 352.339 220.343L360.063 213.123C366.406 207.194 366.406 197.135 360.063 191.207L352.339 183.987C349.176 181.03 347.444 176.85 347.591 172.522L347.948 161.955C348.241 153.277 341.128 146.163 332.45 146.457L321.889 146.814C317.56 146.96 313.38 145.228 310.423 142.064L303.208 134.343ZM300.902 168.169C296.187 163.125 288.188 163.125 283.474 168.169C281.122 170.685 277.798 172.062 274.357 171.946C267.457 171.713 261.801 177.371 262.034 184.271C262.15 187.713 260.773 191.038 258.258 193.389C253.213 198.104 253.213 206.104 258.258 210.819C260.773 213.171 262.15 216.496 262.034 219.938C261.801 226.838 267.457 232.496 274.357 232.263C277.798 232.146 281.122 233.523 283.474 236.039C288.188 241.084 296.187 241.084 300.902 236.039C303.253 233.523 306.577 232.146 310.018 232.263C316.918 232.496 322.575 226.838 322.341 219.938C322.225 216.496 323.602 213.171 326.118 210.819C331.162 206.104 331.162 198.104 326.118 193.389C323.602 191.038 322.225 187.713 322.341 184.271C322.575 177.371 316.918 171.713 310.018 171.946C306.577 172.062 303.253 170.685 300.902 168.169Z" fill="white"/>
</g>
<g filter="url(#filter2_d_817_483)">
<path fill-rule="evenodd" clip-rule="evenodd" d="M210.914 114.559C208.626 106.182 199.727 101.491 191.525 104.339L190.055 104.85C185.964 106.27 181.459 105.853 177.698 103.705L176.346 102.933C168.806 98.6276 159.197 101.604 155.412 109.418L154.733 110.82C152.845 114.717 149.364 117.608 145.187 118.749L143.685 119.159C135.31 121.447 130.62 130.347 133.468 138.55L133.979 140.021C135.4 144.112 134.983 148.618 132.836 152.379L132.064 153.731C127.759 161.272 130.736 170.882 138.55 174.668L139.951 175.347C143.848 177.236 146.739 180.717 147.88 184.895L148.29 186.397C150.578 194.773 159.477 199.464 167.679 196.616L169.15 196.106C173.241 194.685 177.746 195.102 181.506 197.25L182.858 198.022C190.398 202.328 200.007 199.351 203.793 191.537L204.472 190.136C206.36 186.238 209.84 183.347 214.017 182.206L215.519 181.796C223.895 179.509 228.584 170.609 225.736 162.405L225.225 160.934C223.805 156.843 224.221 152.338 226.368 148.577L227.14 147.224C231.445 139.684 228.468 130.073 220.654 126.287L219.253 125.608C215.356 123.719 212.465 120.238 211.324 116.06L210.914 114.559ZM196.768 131.458C195.439 126.593 190.27 123.868 185.506 125.522C183.13 126.347 180.513 126.105 178.329 124.858C173.949 122.357 168.368 124.086 166.169 128.625C165.073 130.888 163.051 132.568 160.625 133.23C155.76 134.559 153.036 139.728 154.691 144.493C155.516 146.87 155.273 149.487 154.026 151.671C151.526 156.051 153.255 161.633 157.794 163.833C160.057 164.93 161.736 166.951 162.399 169.378C163.728 174.244 168.897 176.968 173.661 175.314C176.037 174.489 178.654 174.731 180.838 175.979C185.218 178.479 190.799 176.75 192.998 172.212C194.094 169.948 196.116 168.269 198.542 167.606C203.407 166.277 206.131 161.108 204.476 156.343C203.651 153.967 203.893 151.35 205.14 149.165C207.641 144.785 205.912 139.203 201.373 137.004C199.11 135.907 197.431 133.885 196.768 131.458Z" fill="white"/>
</g>
<g filter="url(#filter3_d_817_483)">
<path fill-rule="evenodd" clip-rule="evenodd" d="M291.754 40.373C290.305 31.8112 281.913 26.264 273.47 28.2875L271.956 28.6502C267.745 29.6594 263.303 28.7991 259.773 26.2904L258.504 25.3887C251.426 20.3589 241.57 22.3714 237.031 29.7733L236.217 31.1005C233.953 34.7922 230.204 37.325 225.935 38.0476L224.4 38.3073C215.839 39.756 210.293 48.1491 212.317 56.5936L212.68 58.1077C213.689 62.3195 212.829 66.7618 210.321 70.2922L209.419 71.5615C204.391 78.6399 206.403 88.4971 213.805 93.0375L215.132 93.8516C218.823 96.1161 221.356 99.8657 222.078 104.136L222.338 105.671C223.787 114.233 232.179 119.78 240.623 117.757L242.136 117.394C246.347 116.385 250.789 117.245 254.319 119.754L255.588 120.655C262.666 125.685 272.522 123.673 277.061 116.271L277.875 114.944C280.139 111.252 283.888 108.719 288.158 107.996L289.693 107.737C298.253 106.288 303.799 97.8948 301.775 89.4504L301.413 87.9363C300.403 83.7245 301.263 79.2822 303.771 75.7518L304.673 74.4825C309.702 67.4041 307.689 57.5468 300.288 53.0065L298.961 52.1924C295.269 49.9279 292.737 46.1783 292.014 41.908L291.754 40.373ZM276.007 55.7917C275.166 50.8187 270.291 47.5967 265.387 48.772C262.941 49.3582 260.361 48.8584 258.311 47.4013C254.2 44.4799 248.475 45.6489 245.839 49.9481C244.524 52.0924 242.346 53.5636 239.866 53.9833C234.894 54.8247 231.673 59.6998 232.848 64.6046C233.434 67.051 232.935 69.6313 231.478 71.6819C228.557 75.7933 229.726 81.5188 234.025 84.156C236.169 85.4713 237.64 87.6492 238.06 90.1295C238.902 95.1025 243.776 98.3245 248.68 97.1492C251.126 96.563 253.706 97.0628 255.757 98.5199C259.868 101.441 265.592 100.272 268.229 95.9731C269.544 93.8288 271.721 92.3576 274.201 91.9379C279.174 91.0965 282.395 86.2214 281.219 81.3166C280.633 78.8702 281.133 76.2899 282.589 74.2393C285.51 70.1279 284.341 64.4024 280.042 61.7652C277.898 60.4499 276.427 58.272 276.007 55.7917Z" fill="white"/>
</g>
</g>
<defs>
<filter id="filter0_d_817_483" x="16" y="0" width="409" height="335" filterUnits="userSpaceOnUse" color-interpolation-filters="sRGB">
<feFlood flood-opacity="0" result="BackgroundImageFix"/>
<feColorMatrix in="SourceAlpha" type="matrix" values="0 0 0 0 0 0 0 0 0 0 0 0 0 0 0 0 0 0 127 0" result="hardAlpha"/>
<feOffset dy="4"/>
<feGaussianBlur stdDeviation="2"/>
<feComposite in2="hardAlpha" operator="out"/>
<feColorMatrix type="matrix" values="0 0 0 0 0 0 0 0 0 0 0 0 0 0 0 0 0 0 0.25 0"/>
<feBlend mode="normal" in2="BackgroundImageFix" result="effect1_dropShadow_817_483"/>
<feBlend mode="normal" in="SourceGraphic" in2="effect1_dropShadow_817_483" result="shape"/>
</filter>
<filter id="filter1_d_817_483" x="215.676" y="129.584" width="153.144" height="153.16" filterUnits="userSpaceOnUse" color-interpolation-filters="sRGB">
<feFlood flood-opacity="0" result="BackgroundImageFix"/>
<feColorMatrix in="SourceAlpha" type="matrix" values="0 0 0 0 0 0 0 0 0 0 0 0 0 0 0 0 0 0 127 0" result="hardAlpha"/>
<feOffset dy="4"/>
<feGaussianBlur stdDeviation="2"/>
<feComposite in2="hardAlpha" operator="out"/>
<feColorMatrix type="matrix" values="0 0 0 0 0 0 0 0 0 0 0 0 0 0 0 0 0 0 0.25 0"/>
<feBlend mode="normal" in2="BackgroundImageFix" result="effect1_dropShadow_817_483"/>
<feBlend mode="normal" in="SourceGraphic" in2="effect1_dropShadow_817_483" result="shape"/>
</filter>
<filter id="filter2_d_817_483" x="126.087" y="100.956" width="107.03" height="107.044" filterUnits="userSpaceOnUse" color-interpolation-filters="sRGB">
<feFlood flood-opacity="0" result="BackgroundImageFix"/>
<feColorMatrix in="SourceAlpha" type="matrix" values="0 0 0 0 0 0 0 0 0 0 0 0 0 0 0 0 0 0 127 0" result="hardAlpha"/>
<feOffset dy="4"/>
<feGaussianBlur stdDeviation="2"/>
<feComposite in2="hardAlpha" operator="out"/>
<feColorMatrix type="matrix" values="0 0 0 0 0 0 0 0 0 0 0 0 0 0 0 0 0 0 0.25 0"/>
<feBlend mode="normal" in2="BackgroundImageFix" result="effect1_dropShadow_817_483"/>
<feBlend mode="normal" in="SourceGraphic" in2="effect1_dropShadow_817_483" result="shape"/>
</filter>
<filter id="filter3_d_817_483" x="202.646" y="22.6139" width="108.801" height="108.816" filterUnits="userSpaceOnUse" color-interpolation-filters="sRGB">
<feFlood flood-opacity="0" result="BackgroundImageFix"/>
<feColorMatrix in="SourceAlpha" type="matrix" values="0 0 0 0 0 0 0 0 0 0 0 0 0 0 0 0 0 0 127 0" result="hardAlpha"/>
<feOffset dy="4"/>
<feGaussianBlur stdDeviation="2"/>
<feComposite in2="hardAlpha" operator="out"/>
<feColorMatrix type="matrix" values="0 0 0 0 0 0 0 0 0 0 0 0 0 0 0 0 0 0 0.25 0"/>
<feBlend mode="normal" in2="BackgroundImageFix" result="effect1_dropShadow_817_483"/>
<feBlend mode="normal" in="SourceGraphic" in2="effect1_dropShadow_817_483" result="shape"/>
</filter>
<linearGradient id="paint0_linear_817_483" x1="220.5" y1="0" x2="220.5" y2="304.868" gradientUnits="userSpaceOnUse">
<stop stop-color="#29B5ED"/>
<stop offset="1" stop-color="#107FAD"/>
</linearGradient>
</defs>
</svg>
